<svg id="additude_hover.svg" xmlns="http://www.w3.org/2000/svg" width="178" height="111" viewBox="0 0 178 111">
  <defs>
    <style>
      .cls-1, .cls-3 {
        fill: #003b41;
      }

      .cls-2 {
        fill: #f7f5ef;
      }

      .cls-3 {
        fill-rule: evenodd;
      }
    </style>
  </defs>
  <rect id="Rectangle_13_copy_7" data-name="Rectangle 13 copy 7" class="cls-1" x="5" y="6" width="173" height="105" rx="7" ry="7"/>
  <rect id="Rectangle_13_copy_7-2" data-name="Rectangle 13 copy 7" class="cls-2" width="173" height="105" rx="7" ry="7"/>
  <path id="ADDitude_copy" data-name="ADDitude  copy" class="cls-3" d="M4510.65,822.147h1.89l-5.72-12.6h-1.78l-5.71,12.6h1.85l1.39-3.15h6.7Zm-7.45-4.59,2.72-6.174,2.72,6.174h-5.44Zm11.04,4.59h5.31a7.652,7.652,0,0,0,3.54-.792,5.789,5.789,0,0,0,2.41-2.223,6.773,6.773,0,0,0,0-6.57,5.789,5.789,0,0,0-2.41-2.223,7.652,7.652,0,0,0-3.54-.792h-5.31v12.6Zm1.8-1.566v-9.468h3.4a5.814,5.814,0,0,1,2.69.594,4.315,4.315,0,0,1,1.79,1.665,5.177,5.177,0,0,1,0,4.95,4.315,4.315,0,0,1-1.79,1.665,5.814,5.814,0,0,1-2.69.594h-3.4Zm13.2,1.566h5.31a7.652,7.652,0,0,0,3.54-.792,5.789,5.789,0,0,0,2.41-2.223,6.773,6.773,0,0,0,0-6.57,5.789,5.789,0,0,0-2.41-2.223,7.652,7.652,0,0,0-3.54-.792h-5.31v12.6Zm1.8-1.566v-9.468h3.4a5.814,5.814,0,0,1,2.69.594,4.315,4.315,0,0,1,1.79,1.665,5.177,5.177,0,0,1,0,4.95,4.315,4.315,0,0,1-1.79,1.665,5.814,5.814,0,0,1-2.69.594h-3.4Zm12.95,1.566h1.72v-9.54h-1.72v9.54Zm0.86-11.376a1.148,1.148,0,0,0,.84-0.333,1.118,1.118,0,0,0,.33-0.819,1.038,1.038,0,0,0-.33-0.783,1.184,1.184,0,0,0-.84-0.315,1.132,1.132,0,0,0-.84.333,1.1,1.1,0,0,0-.33.8,1.067,1.067,0,0,0,.33.792,1.149,1.149,0,0,0,.84.324h0Zm8.96,9.576a2.075,2.075,0,0,1-1.35.45,1.451,1.451,0,0,1-1.11-.414,1.665,1.665,0,0,1-.38-1.188v-5.166h2.73v-1.422h-2.73v-2.088h-1.73v2.088h-1.62v1.422h1.62v5.238a2.947,2.947,0,0,0,.79,2.214,3.058,3.058,0,0,0,2.23.774,3.867,3.867,0,0,0,1.15-.171,2.517,2.517,0,0,0,.94-0.495Zm9.34-7.74v4.932a3.241,3.241,0,0,1-.79,2.34,2.854,2.854,0,0,1-2.16.828,2.483,2.483,0,0,1-1.91-.711,2.982,2.982,0,0,1-.67-2.1v-5.292h-1.72v5.49a4.112,4.112,0,0,0,1.09,3.105,4.189,4.189,0,0,0,3.01,1.053,4.289,4.289,0,0,0,1.86-.4,3.5,3.5,0,0,0,1.38-1.143v1.44h1.64v-9.54h-1.73Zm12.11-3.816v5.256a3.756,3.756,0,0,0-1.44-1.143,4.6,4.6,0,0,0-1.89-.387,5.043,5.043,0,0,0-2.49.612,4.458,4.458,0,0,0-1.72,1.71,5.523,5.523,0,0,0,0,5.085,4.44,4.44,0,0,0,1.72,1.719,5.043,5.043,0,0,0,2.49.612,4.5,4.5,0,0,0,1.94-.414,3.706,3.706,0,0,0,1.46-1.206v1.512h1.66V808.791h-1.73Zm-3.19,11.952a3.248,3.248,0,0,1-1.65-.423,3.071,3.071,0,0,1-1.15-1.188,3.877,3.877,0,0,1,0-3.51,3.006,3.006,0,0,1,1.15-1.179,3.475,3.475,0,0,1,3.29,0,2.878,2.878,0,0,1,1.15,1.179,3.877,3.877,0,0,1,0,3.51,2.937,2.937,0,0,1-1.15,1.188,3.237,3.237,0,0,1-1.64.423h0Zm16.54-3.312a5.206,5.206,0,0,0-.61-2.556,4.365,4.365,0,0,0-1.67-1.737,4.771,4.771,0,0,0-2.44-.621,4.9,4.9,0,0,0-2.46.621,4.531,4.531,0,0,0-1.71,1.737,5.1,5.1,0,0,0-.62,2.5,5.042,5.042,0,0,0,.64,2.52,4.456,4.456,0,0,0,1.81,1.737,5.648,5.648,0,0,0,2.68.621,5.566,5.566,0,0,0,2.15-.4,4.21,4.21,0,0,0,1.62-1.152l-0.96-1.116a3.521,3.521,0,0,1-2.75,1.152,3.608,3.608,0,0,1-2.35-.765,3.007,3.007,0,0,1-1.11-2.025h7.74a3.834,3.834,0,0,0,.04-0.522h0Zm-4.72-3.456a2.968,2.968,0,0,1,2.08.765,3.03,3.03,0,0,1,.98,1.971h-6.12a3.056,3.056,0,0,1,.98-1.98,2.989,2.989,0,0,1,2.08-.756h0Z" transform="translate(-4481 -754)"/>
  <rect id="Rectangle_14_copy_7" data-name="Rectangle 14 copy 7" class="cls-1" x="20" y="32" width="103" height="1"/>
  <rect id="Rectangle_14_copy_7-2" data-name="Rectangle 14 copy 7" class="cls-1" x="20" y="92" width="103" height="1"/>
</svg>
