<?xml version="1.0" encoding="utf-8"?>
<!-- Generator: Adobe Illustrator 22.1.0, SVG Export Plug-In . SVG Version: 6.00 Build 0)  -->
<svg version="1.1" id="book_appt_hover.svg" xmlns="http://www.w3.org/2000/svg" xmlns:xlink="http://www.w3.org/1999/xlink"
	 x="0px" y="0px" viewBox="0 0 173.5 36.8" style="enable-background:new 0 0 173.5 36.8;" xml:space="preserve">
<style type="text/css">
	.st0{fill:#008A60;stroke:#008A60;stroke-width:2.46;}
	.st1{enable-background:new    ;}
	.st2{fill:#F7F5EF;}
</style>
<path id="Rectangle_7_copy_23" class="st0" d="M9.2,1.2h155c4.4,0,8,3.6,8,8v18.3c0,4.4-3.6,8-8,8H9.2c-4.4,0-8-3.6-8-8V9.2
	C1.2,4.8,4.8,1.2,9.2,1.2z"/>
<g class="st1">
	<path class="st2" d="M20.8,17.6c1.3,0.6,1.9,1.6,1.9,3c0,1.1-0.4,2-1.1,2.6c-0.7,0.6-1.7,0.9-2.9,0.9h-4.4c-0.1,0-0.2,0-0.2-0.1
		c0,0-0.1-0.1-0.1-0.2V11.7c0-0.1,0-0.1,0.1-0.2c0,0,0.1-0.1,0.2-0.1h4.3c1.3,0,2.2,0.3,2.9,0.9c0.7,0.6,1,1.4,1,2.5
		c0,1.3-0.6,2.2-1.7,2.7C20.7,17.5,20.7,17.6,20.8,17.6z M15.7,13v3.8c0,0.1,0,0.1,0.1,0.1h2.7c0.7,0,1.3-0.2,1.7-0.5
		s0.6-0.8,0.6-1.4c0-0.6-0.2-1.1-0.6-1.5c-0.4-0.4-1-0.5-1.7-0.5L15.7,13C15.7,12.9,15.7,13,15.7,13z M20.3,22
		c0.4-0.4,0.6-0.9,0.6-1.5s-0.2-1.2-0.6-1.5c-0.4-0.4-1-0.6-1.7-0.6h-2.8c-0.1,0-0.1,0-0.1,0.1v4c0,0.1,0,0.1,0.1,0.1h2.9
		C19.4,22.5,19.9,22.4,20.3,22z"/>
	<path class="st2" d="M26.5,23.5c-0.7-0.5-1.1-1.1-1.4-1.9c-0.2-0.6-0.3-1.4-0.3-2.2c0-0.9,0.1-1.6,0.3-2.2c0.3-0.8,0.7-1.4,1.4-1.9
		c0.7-0.5,1.5-0.7,2.4-0.7c0.9,0,1.6,0.2,2.3,0.7s1.1,1.1,1.4,1.8c0.2,0.6,0.3,1.3,0.3,2.2c0,0.8-0.1,1.6-0.3,2.2
		c-0.3,0.8-0.7,1.4-1.4,1.9c-0.7,0.4-1.4,0.7-2.3,0.7C28,24.2,27.2,24,26.5,23.5z M30.2,22.3c0.4-0.3,0.6-0.7,0.8-1.1
		c0.1-0.5,0.2-1,0.2-1.7s-0.1-1.2-0.2-1.7c-0.2-0.5-0.4-0.9-0.8-1.1c-0.4-0.3-0.8-0.4-1.3-0.4c-0.5,0-0.9,0.1-1.3,0.4
		c-0.4,0.3-0.6,0.7-0.8,1.1c-0.1,0.4-0.2,1-0.2,1.7c0,0.7,0.1,1.3,0.2,1.7c0.1,0.5,0.4,0.9,0.8,1.1c0.4,0.3,0.8,0.4,1.3,0.4
		C29.4,22.7,29.8,22.6,30.2,22.3z"/>
	<path class="st2" d="M36.6,23.5c-0.7-0.5-1.1-1.1-1.4-1.9c-0.2-0.6-0.3-1.4-0.3-2.2c0-0.9,0.1-1.6,0.3-2.2c0.3-0.8,0.7-1.4,1.4-1.9
		c0.7-0.5,1.5-0.7,2.4-0.7c0.9,0,1.6,0.2,2.3,0.7s1.1,1.1,1.4,1.8c0.2,0.6,0.3,1.3,0.3,2.2c0,0.8-0.1,1.6-0.3,2.2
		c-0.3,0.8-0.7,1.4-1.4,1.9c-0.7,0.4-1.4,0.7-2.3,0.7C38.1,24.2,37.3,24,36.6,23.5z M40.2,22.3c0.4-0.3,0.6-0.7,0.8-1.1
		c0.1-0.5,0.2-1,0.2-1.7s-0.1-1.2-0.2-1.7c-0.2-0.5-0.4-0.9-0.8-1.1c-0.4-0.3-0.8-0.4-1.3-0.4c-0.5,0-0.9,0.1-1.3,0.4
		c-0.4,0.3-0.6,0.7-0.8,1.1c-0.1,0.4-0.2,1-0.2,1.7c0,0.7,0.1,1.3,0.2,1.7c0.1,0.5,0.4,0.9,0.8,1.1c0.4,0.3,0.8,0.4,1.3,0.4
		C39.5,22.7,39.9,22.6,40.2,22.3z"/>
	<path class="st2" d="M45.3,24c0,0-0.1-0.1-0.1-0.2V11.7c0-0.1,0-0.1,0.1-0.2c0,0,0.1-0.1,0.2-0.1h1.2c0.1,0,0.2,0,0.2,0.1
		c0,0,0.1,0.1,0.1,0.2v6.8c0,0,0,0.1,0,0.1c0,0,0,0,0.1,0l3.3-3.5c0.1-0.1,0.2-0.1,0.3-0.1h1.4c0.1,0,0.2,0,0.2,0.1
		c0,0.1,0,0.1-0.1,0.2l-2.2,2.6c0,0,0,0.1,0,0.1l2.7,5.8l0,0.1c0,0.1-0.1,0.2-0.2,0.2h-1.3c-0.2,0-0.3-0.1-0.3-0.2L48.9,19
		c0,0,0,0-0.1,0c0,0-0.1,0-0.1,0L47,20.9c0,0,0,0.1,0,0.1v2.8c0,0.1,0,0.2-0.1,0.2s-0.1,0.1-0.2,0.1h-1.2C45.4,24.1,45.4,24,45.3,24
		z"/>
	<path class="st2" d="M65.9,23.8l-0.6-2c0,0-0.1-0.1-0.1-0.1h-5.1c0,0-0.1,0-0.1,0.1l-0.6,2c0,0.1-0.2,0.2-0.3,0.2h-1.3
		c-0.2,0-0.3-0.1-0.2-0.3l3.9-12.1c0-0.1,0.2-0.2,0.3-0.2h1.7c0.2,0,0.3,0.1,0.3,0.2l4,12.1c0,0,0,0.1,0,0.1c0,0.1-0.1,0.2-0.2,0.2
		h-1.3C66.1,24.1,66,24,65.9,23.8z M60.6,20.4h4.2c0.1,0,0.1,0,0.1-0.1l-2.1-6.7c0,0,0-0.1-0.1-0.1c0,0,0,0-0.1,0.1l-2.1,6.7
		C60.5,20.3,60.5,20.4,60.6,20.4z"/>
	<path class="st2" d="M77.5,19.5c0,0.9-0.1,1.6-0.3,2.2c-0.3,0.8-0.7,1.4-1.3,1.9c-0.6,0.4-1.3,0.7-2.2,0.7c-0.4,0-0.8-0.1-1.2-0.2
		c-0.4-0.2-0.7-0.4-0.9-0.7c0,0,0,0-0.1,0c0,0,0,0,0,0.1v3.9c0,0.1,0,0.2-0.1,0.2s-0.1,0.1-0.2,0.1H70c-0.1,0-0.2,0-0.2-0.1
		s-0.1-0.1-0.1-0.2V15.2c0-0.1,0-0.1,0.1-0.2c0,0,0.1-0.1,0.2-0.1h1.2c0.1,0,0.2,0,0.2,0.1c0,0,0.1,0.1,0.1,0.2v0.5c0,0,0,0.1,0,0.1
		c0,0,0,0,0.1,0c0.3-0.3,0.6-0.5,0.9-0.7s0.7-0.2,1.2-0.2c0.9,0,1.6,0.2,2.2,0.6c0.6,0.4,1,1,1.3,1.8C77.4,17.8,77.5,18.6,77.5,19.5
		z M75.7,19.5c0-0.9-0.2-1.7-0.5-2.2c-0.4-0.7-0.9-1-1.7-1c-0.7,0-1.2,0.3-1.6,1c-0.3,0.5-0.4,1.3-0.4,2.3c0,1,0.2,1.8,0.5,2.3
		c0.4,0.6,0.9,0.9,1.5,0.9c0.7,0,1.2-0.3,1.6-0.9C75.5,21.2,75.7,20.5,75.7,19.5z"/>
	<path class="st2" d="M87.5,19.5c0,0.9-0.1,1.6-0.3,2.2c-0.3,0.8-0.7,1.4-1.3,1.9c-0.6,0.4-1.3,0.7-2.2,0.7c-0.4,0-0.8-0.1-1.2-0.2
		c-0.4-0.2-0.7-0.4-0.9-0.7c0,0,0,0-0.1,0c0,0,0,0,0,0.1v3.9c0,0.1,0,0.2-0.1,0.2s-0.1,0.1-0.2,0.1h-1.2c-0.1,0-0.2,0-0.2-0.1
		s-0.1-0.1-0.1-0.2V15.2c0-0.1,0-0.1,0.1-0.2c0,0,0.1-0.1,0.2-0.1h1.2c0.1,0,0.2,0,0.2,0.1c0,0,0.1,0.1,0.1,0.2v0.5c0,0,0,0.1,0,0.1
		c0,0,0,0,0.1,0c0.3-0.3,0.6-0.5,0.9-0.7s0.7-0.2,1.2-0.2c0.9,0,1.6,0.2,2.2,0.6c0.6,0.4,1,1,1.3,1.8C87.4,17.8,87.5,18.6,87.5,19.5
		z M85.8,19.5c0-0.9-0.2-1.7-0.5-2.2c-0.4-0.7-0.9-1-1.7-1c-0.7,0-1.2,0.3-1.6,1c-0.3,0.5-0.4,1.3-0.4,2.3c0,1,0.2,1.8,0.5,2.3
		c0.4,0.6,0.9,0.9,1.5,0.9c0.7,0,1.2-0.3,1.6-0.9C85.6,21.2,85.8,20.5,85.8,19.5z"/>
	<path class="st2" d="M91.2,23.5c-0.7-0.5-1.1-1.1-1.4-1.9c-0.2-0.6-0.3-1.4-0.3-2.2c0-0.9,0.1-1.6,0.3-2.2c0.3-0.8,0.7-1.4,1.4-1.9
		s1.5-0.7,2.4-0.7c0.9,0,1.6,0.2,2.3,0.7s1.1,1.1,1.4,1.8c0.2,0.6,0.3,1.3,0.3,2.2c0,0.8-0.1,1.6-0.3,2.2c-0.3,0.8-0.7,1.4-1.4,1.9
		c-0.7,0.4-1.4,0.7-2.3,0.7C92.6,24.2,91.8,24,91.2,23.5z M94.8,22.3c0.4-0.3,0.6-0.7,0.8-1.1c0.1-0.5,0.2-1,0.2-1.7
		s-0.1-1.2-0.2-1.7c-0.2-0.5-0.4-0.9-0.8-1.1s-0.8-0.4-1.3-0.4c-0.5,0-0.9,0.1-1.3,0.4c-0.4,0.3-0.6,0.7-0.8,1.1
		c-0.1,0.4-0.2,1-0.2,1.7c0,0.7,0.1,1.3,0.2,1.7c0.1,0.5,0.4,0.9,0.8,1.1c0.4,0.3,0.8,0.4,1.3,0.4C94,22.7,94.4,22.6,94.8,22.3z"/>
	<path class="st2" d="M99.9,13.2c-0.2-0.2-0.3-0.5-0.3-0.8c0-0.3,0.1-0.6,0.3-0.8c0.2-0.2,0.5-0.3,0.9-0.3s0.6,0.1,0.9,0.3
		c0.2,0.2,0.3,0.5,0.3,0.8c0,0.3-0.1,0.6-0.3,0.8c-0.2,0.2-0.5,0.3-0.9,0.3S100.2,13.4,99.9,13.2z M100,24c0,0-0.1-0.1-0.1-0.2v-8.6
		c0-0.1,0-0.1,0.1-0.2c0,0,0.1-0.1,0.2-0.1h1.2c0.1,0,0.2,0,0.2,0.1c0,0,0.1,0.1,0.1,0.2v8.6c0,0.1,0,0.2-0.1,0.2s-0.1,0.1-0.2,0.1
		h-1.2C100.1,24.1,100.1,24,100,24z"/>
	<path class="st2" d="M110.8,15.6c0.6,0.6,0.9,1.3,0.9,2.3v5.9c0,0.1,0,0.2-0.1,0.2c0,0-0.1,0.1-0.2,0.1h-1.2c-0.1,0-0.2,0-0.2-0.1
		s-0.1-0.1-0.1-0.2v-5.5c0-0.6-0.2-1.1-0.5-1.5s-0.8-0.6-1.4-0.6c-0.5,0-1,0.2-1.3,0.5s-0.6,0.7-0.6,1.2v5.8c0,0.1,0,0.2-0.1,0.2
		c0,0-0.1,0.1-0.2,0.1h-1.2c-0.1,0-0.2,0-0.2-0.1s-0.1-0.1-0.1-0.2v-8.6c0-0.1,0-0.1,0.1-0.2c0,0,0.1-0.1,0.2-0.1h1.2
		c0.1,0,0.2,0,0.2,0.1c0,0,0.1,0.1,0.1,0.2v0.5c0,0,0,0.1,0,0.1c0,0,0,0,0.1,0c0.5-0.6,1.3-1,2.3-1
		C109.5,14.8,110.3,15.1,110.8,15.6z"/>
	<path class="st2" d="M118.7,16.2c0,0-0.1,0.1-0.2,0.1h-1.9c-0.1,0-0.1,0-0.1,0.1v4.7c0,0.5,0.1,0.9,0.3,1.1
		c0.2,0.2,0.6,0.3,1.1,0.3h0.4c0.1,0,0.2,0,0.2,0.1c0,0,0.1,0.1,0.1,0.2v0.9c0,0.2-0.1,0.3-0.3,0.3l-0.7,0c-0.9,0-1.6-0.2-2.1-0.5
		c-0.5-0.3-0.7-0.9-0.7-1.8v-5.3c0-0.1,0-0.1-0.1-0.1h-1c-0.1,0-0.2,0-0.2-0.1c0,0-0.1-0.1-0.1-0.2v-0.9c0-0.1,0-0.1,0.1-0.2
		c0,0,0.1-0.1,0.2-0.1h1c0.1,0,0.1,0,0.1-0.1v-2c0-0.1,0-0.1,0.1-0.2s0.1-0.1,0.2-0.1h1.1c0.1,0,0.2,0,0.2,0.1s0.1,0.1,0.1,0.2v2
		c0,0.1,0,0.1,0.1,0.1h1.9c0.1,0,0.2,0,0.2,0.1c0,0,0.1,0.1,0.1,0.2V16C118.8,16.1,118.7,16.2,118.7,16.2z"/>
	<path class="st2" d="M132.7,15.6c0.5,0.5,0.8,1.3,0.8,2.3v5.9c0,0.1,0,0.2-0.1,0.2s-0.1,0.1-0.2,0.1H132c-0.1,0-0.2,0-0.2-0.1
		s-0.1-0.1-0.1-0.2v-5.6c0-0.6-0.2-1.1-0.5-1.4s-0.8-0.5-1.3-0.5c-0.6,0-1,0.2-1.4,0.5c-0.4,0.3-0.5,0.8-0.5,1.4v5.6
		c0,0.1,0,0.2-0.1,0.2c0,0-0.1,0.1-0.2,0.1h-1.2c-0.1,0-0.2,0-0.2-0.1c0,0-0.1-0.1-0.1-0.2v-5.6c0-0.6-0.2-1.1-0.5-1.4
		c-0.3-0.4-0.8-0.5-1.3-0.5s-1,0.2-1.3,0.5c-0.3,0.3-0.5,0.8-0.5,1.4v5.6c0,0.1,0,0.2-0.1,0.2s-0.1,0.1-0.2,0.1h-1.2
		c-0.1,0-0.2,0-0.2-0.1c0,0-0.1-0.1-0.1-0.2v-8.6c0-0.1,0-0.1,0.1-0.2c0,0,0.1-0.1,0.2-0.1h1.2c0.1,0,0.2,0,0.2,0.1
		c0,0,0.1,0.1,0.1,0.2v0.5c0,0,0,0.1,0,0.1c0,0,0,0,0.1,0c0.5-0.6,1.3-0.9,2.3-0.9c0.6,0,1.1,0.1,1.6,0.4c0.4,0.2,0.8,0.6,1,1
		c0,0,0.1,0,0.1,0c0.3-0.5,0.7-0.8,1.1-1s1-0.3,1.6-0.3C131.4,14.8,132.2,15,132.7,15.6z"/>
	<path class="st2" d="M141.9,21.6c0.1-0.1,0.1-0.2,0.2-0.2c0.1,0,0.1,0,0.2,0.1l0.7,0.5c0.1,0.1,0.1,0.1,0.1,0.2l0,0.1
		c-0.3,0.6-0.8,1.1-1.4,1.4s-1.3,0.5-2.1,0.5c-0.9,0-1.6-0.2-2.2-0.6c-0.6-0.4-1-0.9-1.3-1.6c-0.3-0.7-0.5-1.6-0.5-2.6
		c0-0.9,0.1-1.5,0.2-2c0.2-0.8,0.7-1.5,1.3-2c0.7-0.5,1.4-0.7,2.4-0.7c1.2,0,2,0.3,2.6,0.9c0.6,0.6,1,1.5,1.2,2.6
		c0.1,0.4,0.1,1,0.1,1.6c0,0.2-0.1,0.3-0.3,0.3h-5.7c-0.1,0-0.1,0-0.1,0.1c0,0.5,0.1,0.8,0.1,1c0.1,0.5,0.4,0.9,0.8,1.1
		c0.4,0.3,0.9,0.4,1.5,0.4C140.8,22.7,141.5,22.3,141.9,21.6z M138.3,16.6c-0.3,0.3-0.6,0.6-0.7,1c-0.1,0.3-0.1,0.6-0.2,1
		c0,0.1,0,0.1,0.1,0.1h4.1c0.1,0,0.1,0,0.1-0.1c0-0.4-0.1-0.7-0.1-0.9c-0.1-0.5-0.4-0.8-0.7-1.1c-0.4-0.3-0.8-0.4-1.3-0.4
		S138.6,16.4,138.3,16.6z"/>
	<path class="st2" d="M152.2,15.6c0.6,0.6,0.9,1.3,0.9,2.3v5.9c0,0.1,0,0.2-0.1,0.2c0,0-0.1,0.1-0.2,0.1h-1.2c-0.1,0-0.2,0-0.2-0.1
		c0,0-0.1-0.1-0.1-0.2v-5.5c0-0.6-0.2-1.1-0.5-1.5c-0.4-0.4-0.8-0.6-1.4-0.6c-0.5,0-1,0.2-1.3,0.5c-0.4,0.3-0.6,0.7-0.6,1.2v5.8
		c0,0.1,0,0.2-0.1,0.2c0,0-0.1,0.1-0.2,0.1H146c-0.1,0-0.2,0-0.2-0.1s-0.1-0.1-0.1-0.2v-8.6c0-0.1,0-0.1,0.1-0.2
		c0,0,0.1-0.1,0.2-0.1h1.2c0.1,0,0.2,0,0.2,0.1c0,0,0.1,0.1,0.1,0.2v0.5c0,0,0,0.1,0,0.1c0,0,0,0,0.1,0c0.5-0.6,1.3-1,2.3-1
		C150.8,14.8,151.6,15.1,152.2,15.6z"/>
	<path class="st2" d="M160,16.2c0,0-0.1,0.1-0.2,0.1H158c-0.1,0-0.1,0-0.1,0.1v4.7c0,0.5,0.1,0.9,0.3,1.1c0.2,0.2,0.6,0.3,1.1,0.3
		h0.4c0.1,0,0.2,0,0.2,0.1c0,0,0.1,0.1,0.1,0.2v0.9c0,0.2-0.1,0.3-0.3,0.3l-0.7,0c-0.9,0-1.6-0.2-2.1-0.5c-0.5-0.3-0.7-0.9-0.7-1.8
		v-5.3c0-0.1,0-0.1-0.1-0.1h-1c-0.1,0-0.2,0-0.2-0.1c0,0-0.1-0.1-0.1-0.2v-0.9c0-0.1,0-0.1,0.1-0.2c0,0,0.1-0.1,0.2-0.1h1
		c0.1,0,0.1,0,0.1-0.1v-2c0-0.1,0-0.1,0.1-0.2c0,0,0.1-0.1,0.2-0.1h1.1c0.1,0,0.2,0,0.2,0.1c0,0,0.1,0.1,0.1,0.2v2
		c0,0.1,0,0.1,0.1,0.1h1.9c0.1,0,0.2,0,0.2,0.1c0,0,0.1,0.1,0.1,0.2V16C160.1,16.1,160.1,16.2,160,16.2z"/>
</g>
</svg>
