<?xml version="1.0" encoding="utf-8"?>
<!-- Generator: Adobe Illustrator 22.1.0, SVG Export Plug-In . SVG Version: 6.00 Build 0)  -->
<svg version="1.1" id="contact_button_hover.svg" xmlns="http://www.w3.org/2000/svg" xmlns:xlink="http://www.w3.org/1999/xlink"
	 x="0px" y="0px" viewBox="0 0 103.5 36.9" style="enable-background:new 0 0 103.5 36.9;" xml:space="preserve">
<style type="text/css">
	.st0{fill:#008A60;stroke:#008A60;stroke-width:2.46;}
	.st1{enable-background:new    ;}
	.st2{fill:#F7F5EF;}
</style>
<path id="Rectangle_7_copy_22" class="st0" d="M9.2,1.2h85c4.4,0,8,3.6,8,8v18.5c0,4.4-3.6,8-8,8h-85c-4.4,0-8-3.6-8-8V9.2
	C1.2,4.8,4.8,1.2,9.2,1.2z"/>
<g class="st1">
	<path class="st2" d="M23.3,23.8c-0.7-0.3-1.2-0.8-1.6-1.5c-0.4-0.6-0.6-1.4-0.6-2.2v-4.7c0-0.8,0.2-1.5,0.6-2.2
		c0.4-0.6,0.9-1.1,1.6-1.4c0.7-0.3,1.4-0.5,2.3-0.5c0.9,0,1.6,0.2,2.3,0.5c0.7,0.3,1.2,0.8,1.6,1.4c0.4,0.6,0.6,1.3,0.6,2.1
		c0,0.1-0.1,0.2-0.3,0.2l-1.2,0.1h-0.1c-0.1,0-0.1,0-0.1,0c0,0-0.1,0-0.1-0.1v-0.1c0-0.8-0.2-1.4-0.7-1.9c-0.5-0.5-1.1-0.7-1.9-0.7
		s-1.5,0.2-2,0.7c-0.5,0.5-0.7,1.1-0.7,1.9v4.8c0,0.8,0.2,1.4,0.7,1.9c0.5,0.5,1.1,0.7,2,0.7s1.5-0.2,1.9-0.7
		c0.5-0.5,0.7-1.1,0.7-1.9c0-0.1,0-0.1,0.1-0.2c0,0,0.1,0,0.2,0l1.2,0.1c0.2,0,0.3,0.1,0.3,0.1v0.1c0,0.8-0.2,1.5-0.6,2.1
		c-0.4,0.6-0.9,1.1-1.6,1.4c-0.7,0.3-1.4,0.5-2.3,0.5C24.8,24.3,24,24.1,23.3,23.8z"/>
	<path class="st2" d="M33.8,23.6c-0.7-0.5-1.1-1.1-1.4-1.9c-0.2-0.6-0.3-1.4-0.3-2.2c0-0.9,0.1-1.6,0.3-2.2c0.3-0.8,0.7-1.4,1.4-1.9
		c0.7-0.5,1.5-0.7,2.4-0.7c0.9,0,1.6,0.2,2.3,0.7s1.1,1.1,1.4,1.8c0.2,0.6,0.3,1.3,0.3,2.2c0,0.8-0.1,1.6-0.3,2.2
		c-0.3,0.8-0.7,1.4-1.4,1.9s-1.4,0.7-2.3,0.7C35.2,24.3,34.5,24.1,33.8,23.6z M37.4,22.4c0.4-0.3,0.6-0.7,0.8-1.1
		c0.1-0.5,0.2-1,0.2-1.7c0-0.7-0.1-1.2-0.2-1.7c-0.2-0.5-0.4-0.9-0.8-1.1c-0.4-0.3-0.8-0.4-1.3-0.4c-0.5,0-0.9,0.1-1.3,0.4
		c-0.4,0.3-0.6,0.7-0.8,1.1c-0.1,0.4-0.2,1-0.2,1.7c0,0.7,0.1,1.3,0.2,1.7c0.1,0.5,0.4,0.9,0.8,1.1c0.4,0.3,0.8,0.4,1.3,0.4
		C36.6,22.8,37.1,22.7,37.4,22.4z"/>
	<path class="st2" d="M48.9,15.7c0.6,0.6,0.9,1.3,0.9,2.3v5.9c0,0.1,0,0.2-0.1,0.2c0,0-0.1,0.1-0.2,0.1h-1.2c-0.1,0-0.2,0-0.2-0.1
		c0,0-0.1-0.1-0.1-0.2v-5.5c0-0.6-0.2-1.1-0.5-1.5c-0.4-0.4-0.8-0.6-1.4-0.6c-0.5,0-1,0.2-1.3,0.5c-0.4,0.3-0.6,0.7-0.6,1.2v5.8
		c0,0.1,0,0.2-0.1,0.2c0,0-0.1,0.1-0.2,0.1h-1.2c-0.1,0-0.2,0-0.2-0.1c0,0-0.1-0.1-0.1-0.2v-8.6c0-0.1,0-0.1,0.1-0.2
		c0,0,0.1-0.1,0.2-0.1h1.2c0.1,0,0.2,0,0.2,0.1c0,0,0.1,0.1,0.1,0.2v0.5c0,0,0,0.1,0,0.1c0,0,0,0,0.1,0c0.5-0.6,1.3-1,2.3-1
		C47.6,14.8,48.3,15.1,48.9,15.7z"/>
	<path class="st2" d="M56.8,16.3c0,0-0.1,0.1-0.2,0.1h-1.9c-0.1,0-0.1,0-0.1,0.1v4.7c0,0.5,0.1,0.9,0.3,1.1c0.2,0.2,0.6,0.3,1.1,0.3
		h0.4c0.1,0,0.2,0,0.2,0.1c0,0,0.1,0.1,0.1,0.2v0.9c0,0.2-0.1,0.3-0.3,0.3l-0.7,0c-0.9,0-1.6-0.2-2.1-0.5c-0.5-0.3-0.7-0.9-0.7-1.8
		v-5.3c0-0.1,0-0.1-0.1-0.1h-1c-0.1,0-0.2,0-0.2-0.1c0,0-0.1-0.1-0.1-0.2v-0.9c0-0.1,0-0.1,0.1-0.2c0,0,0.1-0.1,0.2-0.1h1
		c0.1,0,0.1,0,0.1-0.1v-2c0-0.1,0-0.1,0.1-0.2c0,0,0.1-0.1,0.2-0.1h1.1c0.1,0,0.2,0,0.2,0.1s0.1,0.1,0.1,0.2v2c0,0.1,0,0.1,0.1,0.1
		h1.9c0.1,0,0.2,0,0.2,0.1c0,0,0.1,0.1,0.1,0.2v0.9C56.9,16.2,56.8,16.3,56.8,16.3z"/>
	<path class="st2" d="M64.3,15.2c0.6,0.3,1,0.6,1.3,1.1s0.4,1,0.4,1.6v6c0,0.1,0,0.2-0.1,0.2c0,0-0.1,0.1-0.2,0.1h-1.2
		c-0.1,0-0.2,0-0.2-0.1c0,0-0.1-0.1-0.1-0.2v-0.5c0,0,0-0.1,0-0.1c0,0,0,0-0.1,0c-0.3,0.3-0.7,0.6-1.2,0.7c-0.5,0.2-1,0.3-1.5,0.3
		c-0.9,0-1.6-0.2-2.2-0.7c-0.6-0.5-0.9-1.1-0.9-2c0-0.9,0.3-1.7,1-2.2c0.7-0.5,1.6-0.8,2.8-0.8h2c0.1,0,0.1,0,0.1-0.1V18
		c0-0.5-0.2-0.9-0.5-1.2c-0.3-0.3-0.8-0.4-1.4-0.4c-0.5,0-0.9,0.1-1.2,0.3c-0.3,0.2-0.5,0.4-0.6,0.8c0,0.2-0.2,0.2-0.3,0.2L59,17.4
		c-0.1,0-0.2,0-0.2-0.1c0,0-0.1-0.1-0.1-0.2c0.1-0.7,0.5-1.2,1.2-1.7c0.7-0.4,1.5-0.7,2.5-0.7C63.1,14.8,63.8,15,64.3,15.2z
		 M63.6,22.3c0.5-0.3,0.7-0.8,0.7-1.3v-1c0-0.1,0-0.1-0.1-0.1h-1.7c-0.7,0-1.3,0.1-1.7,0.4c-0.4,0.3-0.6,0.7-0.6,1.2
		c0,0.4,0.2,0.8,0.5,1c0.3,0.2,0.7,0.3,1.2,0.3C62.5,22.8,63.1,22.7,63.6,22.3z"/>
	<path class="st2" d="M69.7,23.6c-0.7-0.5-1.1-1.1-1.3-1.9c-0.2-0.6-0.3-1.3-0.3-2.2c0-0.8,0.1-1.6,0.3-2.2c0.2-0.8,0.7-1.4,1.4-1.8
		c0.7-0.5,1.4-0.7,2.4-0.7c0.9,0,1.7,0.2,2.4,0.7c0.7,0.5,1.1,1,1.3,1.7c0.1,0.2,0.1,0.3,0.1,0.5v0c0,0.1-0.1,0.2-0.2,0.3l-1.2,0.2
		h-0.1c-0.1,0-0.2-0.1-0.3-0.2l-0.1-0.2c-0.1-0.4-0.3-0.8-0.7-1c-0.4-0.3-0.8-0.4-1.4-0.4c-0.5,0-1,0.1-1.3,0.4
		c-0.4,0.3-0.6,0.6-0.7,1.1c-0.1,0.4-0.2,1-0.2,1.7c0,0.7,0.1,1.3,0.2,1.7c0.1,0.5,0.4,0.9,0.7,1.1c0.4,0.3,0.8,0.4,1.3,0.4
		c0.5,0,1-0.1,1.3-0.4c0.4-0.3,0.6-0.6,0.7-1l0-0.1v0c0-0.1,0-0.1,0.1-0.2s0.1-0.1,0.2-0.1l1.2,0.2c0.2,0,0.2,0.1,0.2,0.3
		c0,0,0,0.2-0.1,0.3c-0.2,0.7-0.6,1.3-1.3,1.8c-0.7,0.4-1.5,0.7-2.4,0.7C71.2,24.3,70.4,24,69.7,23.6z"/>
	<path class="st2" d="M82.4,16.3c0,0-0.1,0.1-0.2,0.1h-1.9c-0.1,0-0.1,0-0.1,0.1v4.7c0,0.5,0.1,0.9,0.3,1.1c0.2,0.2,0.6,0.3,1.1,0.3
		h0.4c0.1,0,0.2,0,0.2,0.1c0,0,0.1,0.1,0.1,0.2v0.9c0,0.2-0.1,0.3-0.3,0.3l-0.7,0c-0.9,0-1.6-0.2-2.1-0.5c-0.5-0.3-0.7-0.9-0.7-1.8
		v-5.3c0-0.1,0-0.1-0.1-0.1h-1c-0.1,0-0.2,0-0.2-0.1c0,0-0.1-0.1-0.1-0.2v-0.9c0-0.1,0-0.1,0.1-0.2c0,0,0.1-0.1,0.2-0.1h1
		c0.1,0,0.1,0,0.1-0.1v-2c0-0.1,0-0.1,0.1-0.2s0.1-0.1,0.2-0.1H80c0.1,0,0.2,0,0.2,0.1s0.1,0.1,0.1,0.2v2c0,0.1,0,0.1,0.1,0.1h1.9
		c0.1,0,0.2,0,0.2,0.1c0,0,0.1,0.1,0.1,0.2v0.9C82.5,16.2,82.5,16.3,82.4,16.3z"/>
</g>
</svg>
