<?xml version="1.0" encoding="utf-8"?>
<!-- Generator: Adobe Illustrator 22.1.0, SVG Export Plug-In . SVG Version: 6.00 Build 0)  -->
<svg version="1.1" id="home_button_hover.svg" xmlns="http://www.w3.org/2000/svg" xmlns:xlink="http://www.w3.org/1999/xlink"
	 x="0px" y="0px" viewBox="0 0 103.5 36.9" style="enable-background:new 0 0 103.5 36.9;" xml:space="preserve">
<style type="text/css">
	.st0{fill:#008A60;stroke:#008A60;stroke-width:2.46;}
	.st1{enable-background:new    ;}
	.st2{fill:#F7F5EF;}
</style>
<path id="Rectangle_7_copy_23" class="st0" d="M9.2,1.2h85c4.4,0,8,3.6,8,8v18.5c0,4.4-3.6,8-8,8h-85c-4.4,0-8-3.6-8-8V9.2
	C1.2,4.8,4.8,1.2,9.2,1.2z"/>
<g class="st1">
	<path class="st2" d="M37.1,11.6c0,0,0.1-0.1,0.2-0.1h1.2c0.1,0,0.2,0,0.2,0.1c0,0,0.1,0.1,0.1,0.2v12.1c0,0.1,0,0.2-0.1,0.2
		c0,0-0.1,0.1-0.2,0.1h-1.2c-0.1,0-0.2,0-0.2-0.1c0,0-0.1-0.1-0.1-0.2v-5.2c0-0.1,0-0.1-0.1-0.1h-5.1c-0.1,0-0.1,0-0.1,0.1v5.2
		c0,0.1,0,0.2-0.1,0.2c0,0-0.1,0.1-0.2,0.1h-1.2c-0.1,0-0.2,0-0.2-0.1c0,0-0.1-0.1-0.1-0.2V11.8c0-0.1,0-0.1,0.1-0.2
		c0,0,0.1-0.1,0.2-0.1h1.2c0.1,0,0.2,0,0.2,0.1c0,0,0.1,0.1,0.1,0.2V17c0,0.1,0,0.1,0.1,0.1h5.1C37,17,37,17,37,17v-5.1
		C37,11.7,37,11.7,37.1,11.6z"/>
	<path class="st2" d="M42.9,23.6c-0.7-0.5-1.1-1.1-1.4-1.9c-0.2-0.6-0.3-1.4-0.3-2.2c0-0.9,0.1-1.6,0.3-2.2c0.3-0.8,0.7-1.4,1.4-1.9
		c0.7-0.5,1.5-0.7,2.4-0.7c0.9,0,1.6,0.2,2.3,0.7s1.1,1.1,1.4,1.8c0.2,0.6,0.3,1.3,0.3,2.2c0,0.8-0.1,1.6-0.3,2.2
		c-0.3,0.8-0.7,1.4-1.4,1.9s-1.4,0.7-2.3,0.7C44.3,24.3,43.5,24.1,42.9,23.6z M46.5,22.4c0.4-0.3,0.6-0.7,0.8-1.1
		c0.1-0.5,0.2-1,0.2-1.7c0-0.7-0.1-1.2-0.2-1.7c-0.2-0.5-0.4-0.9-0.8-1.1c-0.4-0.3-0.8-0.4-1.3-0.4c-0.5,0-0.9,0.1-1.3,0.4
		c-0.4,0.3-0.6,0.7-0.8,1.1c-0.1,0.4-0.2,1-0.2,1.7c0,0.7,0.1,1.3,0.2,1.7c0.1,0.5,0.4,0.9,0.8,1.1c0.4,0.3,0.8,0.4,1.3,0.4
		C45.7,22.8,46.1,22.7,46.5,22.4z"/>
	<path class="st2" d="M63.3,15.7c0.5,0.5,0.8,1.3,0.8,2.3v5.9c0,0.1,0,0.2-0.1,0.2c0,0-0.1,0.1-0.2,0.1h-1.2c-0.1,0-0.2,0-0.2-0.1
		c0,0-0.1-0.1-0.1-0.2v-5.6c0-0.6-0.2-1.1-0.5-1.4c-0.3-0.4-0.8-0.5-1.3-0.5s-1,0.2-1.4,0.5c-0.4,0.3-0.5,0.8-0.5,1.4v5.6
		c0,0.1,0,0.2-0.1,0.2c0,0-0.1,0.1-0.2,0.1h-1.2c-0.1,0-0.2,0-0.2-0.1c0,0-0.1-0.1-0.1-0.2v-5.6c0-0.6-0.2-1.1-0.5-1.4
		c-0.3-0.4-0.8-0.5-1.3-0.5c-0.6,0-1,0.2-1.3,0.5c-0.3,0.3-0.5,0.8-0.5,1.4v5.6c0,0.1,0,0.2-0.1,0.2c0,0-0.1,0.1-0.2,0.1h-1.2
		c-0.1,0-0.2,0-0.2-0.1c0,0-0.1-0.1-0.1-0.2v-8.6c0-0.1,0-0.1,0.1-0.2c0,0,0.1-0.1,0.2-0.1H53c0.1,0,0.2,0,0.2,0.1
		c0,0,0.1,0.1,0.1,0.2v0.5c0,0,0,0.1,0,0.1c0,0,0,0,0.1,0c0.5-0.6,1.3-0.9,2.3-0.9c0.6,0,1.1,0.1,1.6,0.4c0.4,0.2,0.8,0.6,1,1
		c0,0,0.1,0,0.1,0c0.3-0.5,0.7-0.8,1.1-1s1-0.3,1.6-0.3C62,14.8,62.8,15.1,63.3,15.7z"/>
	<path class="st2" d="M72.5,21.7c0.1-0.1,0.1-0.2,0.2-0.2c0.1,0,0.1,0,0.2,0.1l0.7,0.5c0.1,0.1,0.1,0.1,0.1,0.2l0,0.1
		c-0.3,0.6-0.8,1.1-1.4,1.4s-1.3,0.5-2.1,0.5c-0.9,0-1.6-0.2-2.2-0.6c-0.6-0.4-1-0.9-1.3-1.6c-0.3-0.7-0.5-1.6-0.5-2.6
		c0-0.9,0.1-1.5,0.2-2c0.2-0.8,0.7-1.5,1.3-2c0.7-0.5,1.4-0.7,2.4-0.7c1.2,0,2,0.3,2.6,0.9s1,1.5,1.2,2.6c0.1,0.4,0.1,1,0.1,1.6
		c0,0.2-0.1,0.3-0.3,0.3h-5.7c-0.1,0-0.1,0-0.1,0.1c0,0.5,0.1,0.8,0.1,1c0.1,0.5,0.4,0.9,0.8,1.1c0.4,0.3,0.9,0.4,1.5,0.4
		C71.4,22.8,72.1,22.4,72.5,21.7z M68.9,16.7c-0.3,0.3-0.6,0.6-0.7,1c-0.1,0.3-0.1,0.6-0.2,1c0,0.1,0,0.1,0.1,0.1h4.1
		c0.1,0,0.1,0,0.1-0.1c0-0.4-0.1-0.7-0.1-0.9c-0.1-0.5-0.4-0.8-0.7-1.1c-0.4-0.3-0.8-0.4-1.3-0.4S69.2,16.4,68.9,16.7z"/>
</g>
</svg>
