<?xml version="1.0" encoding="utf-8"?>
<!-- Generator: Adobe Illustrator 24.0.0, SVG Export Plug-In . SVG Version: 6.00 Build 0)  -->
<svg version="1.1" id="Layer_1" xmlns="http://www.w3.org/2000/svg" xmlns:xlink="http://www.w3.org/1999/xlink" x="0px" y="0px"
	 viewBox="0 0 100 100" style="enable-background:new 0 0 100 100;" xml:space="preserve">
<style type="text/css">
	.st0{fill:#FFFFFF;}
	.st1{fill:#E3DDD6;}
	.st2{fill:#83311C;}
	.st3{fill:#C64F36;}
	.st4{fill:none;stroke:#AF462E;stroke-width:0.75;stroke-linecap:round;stroke-linejoin:round;}
	.st5{fill:none;stroke:#AF462E;stroke-width:0.75;stroke-linecap:round;stroke-linejoin:round;stroke-dasharray:10.44,1.74;}
	.st6{fill:none;stroke:#AF462E;stroke-width:0.75;stroke-linecap:round;stroke-linejoin:round;stroke-dasharray:11,1.83;}
	.st7{fill:none;stroke:#AF462E;stroke-width:0.75;stroke-linecap:round;stroke-linejoin:round;stroke-dasharray:10.2,1.7;}
	.st8{fill:none;stroke:#AF462E;stroke-width:0.75;stroke-linecap:round;stroke-linejoin:round;stroke-dasharray:11.56,1.93;}
	.st9{clip-path:url(#SVGID_2_);}
	.st10{opacity:0.29;}
</style>
<title>icon_wallet</title>
<g>
	<g id="Layer_2_1_">
		<g id="_1">
			<g id="icon_wallet">
				<circle class="st0" cx="50" cy="50" r="50"/>
				<path class="st1" d="M83.6,31.6c-0.1-2.7-2.4-4.8-5.1-4.6c0,0,0,0,0,0h-0.1c-1.7-3-5.1-4.6-8.4-4.1l-46.4,6.8
					c-0.5,0.1-1.1,0.2-1.6,0.4l-1.8,0.1c-2.7,0.4-4.5,2.9-4.1,5.5c0,0,0,0,0,0l5.7,38.9c0.4,2.7,2.9,4.5,5.6,4.1L81,76
					c2.7-0.1,4.8-2.4,4.6-5.1c0,0,0,0,0,0L83.6,31.6z"/>
				<path class="st2" d="M20.6,27.6l46.4-6.8c4.6-0.7,8.8,2.5,9.5,7l4.7,32.1c0.7,4.6-2.5,8.8-7,9.5l-46.4,6.8
					c-4.6,0.7-8.8-2.5-9.5-7l-4.7-32.1C12.9,32.5,16.1,28.3,20.6,27.6z"/>
				<path class="st3" d="M78.1,73.9l-53.8,2.8c-2.7,0.4-5.1-1.4-5.5-4.1c0,0,0,0,0,0l-5.7-38.9c-0.4-2.7,1.5-5.2,4.1-5.5l58.4-3.2
					c2.7-0.1,5,1.9,5.1,4.6c0,0,0,0,0,0l2,39.3C82.9,71.4,80.8,73.7,78.1,73.9z"/>
				<polyline class="st4" points="24.6,33.2 18.5,33.5 19.4,39.5 				"/>
				<line class="st5" x1="19.6" y1="41.2" x2="23.1" y2="64.7"/>
				<polyline class="st4" points="23.2,65.5 24.1,71.5 30.1,71.2 				"/>
				<line class="st6" x1="32" y1="71.1" x2="69.8" y2="69"/>
				<polyline class="st4" points="70.7,69 76.8,68.7 76.2,62.6 				"/>
				<line class="st7" x1="76.1" y1="60.9" x2="74" y2="37.9"/>
				<polyline class="st4" points="73.9,37 73.3,31 67.3,31.3 				"/>
				<line class="st8" x1="65.3" y1="31.3" x2="25.5" y2="33.2"/>
				<g>
					<defs>
						<path id="SVGID_1_" d="M78.1,73.9l-53.8,2.8c-2.7,0.4-5.1-1.4-5.5-4.1c0,0,0,0,0,0l-5.7-38.9c-0.4-2.7,1.5-5.2,4.1-5.5
							l58.4-3.2c2.7-0.1,5,1.9,5.1,4.6c0,0,0,0,0,0l2,39.3C82.9,71.4,80.8,73.7,78.1,73.9z"/>
					</defs>
					<clipPath id="SVGID_2_">
						<use xlink:href="#SVGID_1_"  style="overflow:visible;"/>
					</clipPath>
					<g class="st9">
						<g class="st10">
							<path class="st1" d="M61,91.3c-0.5-0.1-4.9-0.2-6.7-0.6c1.4-0.3,4-1,4.3-1.1c0.2,0,0.3-0.2,0.3-0.3c0,0,0,0,0,0
								c0-0.2-0.2-0.3-0.3-0.3c0,0,0,0,0,0c-1.5,0-3.1,0.1-4.6,0.3c1.3-0.9,4.7-2,5.6-2.6c0.9-0.6,0.3,2.2,1.7,1.3
								c0.5-0.3-0.6-2.4-1-3s-1.9-2.4-2.4-2c-1.4,0.9,1.6,1.3,0.6,2c-1,0.7-3.5,3.1-4.8,4c0.8-1.2,2-3.7,2.2-3.9
								c0-0.1,0-0.3-0.1-0.3c-0.1-0.1-0.3,0-0.4,0.1c0,0,0,0,0,0c-1,1.1-1.8,2.3-2.7,3.5c0.3-1.8,1.9-5.9,2-6.4
								c0.1-0.6,0.3-1-0.8-1.2s-1.1,0.2-1.2,0.8c-0.1,0.5-0.1,4.9-0.4,6.7c-0.3-1.4-1.2-4-1.2-4.3c0-0.2-0.2-0.3-0.3-0.3
								c0,0,0,0,0,0c-0.2,0-0.3,0.2-0.3,0.3c0,0,0,0,0,0c0,0.2,0.2,3,0.5,4.5c-0.8-1.3-2.2-4.7-2.9-5.6c-0.7-0.9,2.2-0.3,1.3-1.7
								c-0.4-0.5-2.1,0.4-3,1l0,0c-0.9,0.6-2.4,1.8-2,2.4c0.9,1.4,1.3-1.6,2-0.6c0.7,1,3.2,3.5,4,4.7c-1.2-0.8-3.7-2-4-2.1
								c-0.1-0.1-0.3,0-0.4,0.1c0,0,0,0,0,0c-0.1,0.1,0,0.3,0.1,0.4c0,0,0,0,0,0c1.1,1,2.3,1.9,3.6,2.7c-1.8-0.3-6-2-6.4-2.1
								c-0.6-0.1-1-0.3-1.2,0.8c-0.2,1.1,0.2,1.1,0.8,1.2c0.5,0.1,4.9,0.2,6.7,0.5c-1.4,0.3-4.1,1.1-4.3,1.1c-0.2,0-0.3,0.2-0.3,0.3
								s0.2,0.3,0.3,0.3l0,0c0.2,0,3-0.2,4.5-0.4c-1.3,0.9-4.6,2.2-5.5,2.8c-0.9,0.6-0.3-2.2-1.7-1.3c-0.5,0.4,0.4,2.1,1,3l0,0
								c0.6,0.9,1.9,2.4,2.4,2c1.4-0.9-1.6-1.3-0.6-2s3.4-3.2,4.7-4c-0.7,1.2-2,3.7-2.1,3.9c-0.1,0.1-0.1,0.3,0.1,0.4c0,0,0,0,0,0
								c0.1,0.1,0.3,0,0.4-0.1c0,0,0,0,0,0c0.2-0.2,1.9-2.3,2.7-3.5c-0.3,1.8-1.9,5.9-2,6.4c-0.1,0.6-0.3,1,0.8,1.2
								c1.1,0.2,1.1-0.2,1.2-0.8c0.1-0.5,0.1-4.9,0.4-6.7c0.4,1.4,0.9,2.9,1.4,4.3c0,0.2,0.2,0.3,0.3,0.3c0,0,0,0,0,0
								c0.2,0,0.3-0.1,0.3-0.3c0,0,0,0,0,0c0-0.3-0.3-3-0.5-4.5c0.9,1.3,2.3,4.6,2.9,5.5s-2.2,0.3-1.3,1.7c0.4,0.5,2.1-0.4,3-1l0,0
								c0.9-0.6,2.4-1.8,2-2.4c-0.9-1.4-1.3,1.6-2,0.6c-0.7-1-3.3-3.4-4.2-4.6c1.2,0.7,3.8,1.9,4,2c0.1,0.1,0.3,0.1,0.4-0.1
								c0,0,0,0,0,0c0.1-0.1,0-0.3-0.1-0.4c0,0,0,0,0,0c-0.2-0.2-2.3-1.9-3.6-2.6c1.8,0.3,6,1.9,6.5,2c0.6,0.1,1,0.3,1.2-0.8
								S61.6,91.4,61,91.3z M51.6,92.4c-1-0.2-1.6-1.1-1.5-2.1s1.1-1.6,2.1-1.5s1.6,1.1,1.5,2.1c0,0,0,0,0,0
								C53.5,91.9,52.6,92.6,51.6,92.4L51.6,92.4z"/>
							<path class="st1" d="M47,79.5c0.1-0.1,1.6-2.2,2.7-0.9c1.1,1.3-1.3,2.1-1.5,2.2c-0.7,0.2-2,0.4-2,0.4
								C46.4,80.6,46.6,80,47,79.5z"/>
							<path class="st1" d="M46.4,79.2c0-0.1,0.8-2.6-0.9-2.7c-1.7-0.1-0.9,2.3-0.8,2.6c0.3,0.7,0.9,1.8,0.9,1.8
								C45.9,80.3,46.1,79.8,46.4,79.2z"/>
							<path class="st1" d="M43.2,81.2c-0.1,0-2.7-0.5-2-2c0.7-1.5,2.5,0.2,2.7,0.4c0.5,0.6,1.2,1.6,1.2,1.6
								C44.4,81.2,43.8,81.2,43.2,81.2z"/>
							<path class="st1" d="M43.2,81.8c-0.2,0-2.7,0.4-2.1,1.9c0.6,1.5,2.5-0.1,2.7-0.3c0.5-0.5,1.3-1.6,1.3-1.6
								C44.4,81.8,43.8,81.8,43.2,81.8z"/>
							<path class="st1" d="M41.7,89.8l0.5,3.2l2.3-0.8C44.5,92.2,42.4,92.7,41.7,89.8z"/>
							<path class="st1" d="M42.1,87.5l1.7-2.8l1.8,1.6C45.6,86.4,43.8,85.1,42.1,87.5z"/>
							<path class="st1" d="M52.8,80.4l-3.3,0.5l0.8,2.3C50.4,83.2,49.9,81.1,52.8,80.4z"/>
							<path class="st1" d="M56.7,79.3c0-1.4-1.1-2.6-2.6-2.6c-1,0-1.8,0.5-2.3,1.4c-0.1,0.1-0.1,0.3-0.2,0.4
								c-1.2-1-2.7-1.9-3.3-2.3c3.4,1.9,6.5-1,6.5-1l0,0c0,0,2,3.8,5.8,3C59.8,78.4,58.1,78.8,56.7,79.3z"/>
							<path class="st1" d="M40.7,89c-0.1,0-1.2,0.1-1.1-0.6c0.1-0.7,1.1-0.2,1.2-0.2c0.2,0.2,0.5,0.3,0.7,0.5
								C41.3,88.8,41,88.9,40.7,89z"/>
							<path class="st1" d="M39.5,91.1c-1.4-0.4-2.1-1.9-1.7-3.2c0.3-1,1.2-1.7,2.3-1.8c0.2,0,0.3,0,0.5,0c-0.4-1.5-0.8-3.2-0.9-3.9
								c0.5,3.9-3.3,5.7-3.3,5.7l0,0c0,0,2.8,3.2,0.7,6.5C37.5,93.7,38.5,92.3,39.5,91.1z"/>
							<circle class="st1" cx="34.2" cy="87.4" r="1.2"/>
							<path class="st1" d="M27.4,96.3c-0.5-0.1-4.9-0.2-6.7-0.6c1.4-0.3,4-1,4.3-1.1c0.2,0,0.3-0.2,0.3-0.3S25,94,24.8,94l0,0
								c-1.5,0-3.1,0.1-4.6,0.3c1.3-0.9,4.7-2,5.6-2.6c0.9-0.6,0.3,2.2,1.7,1.3c0.5-0.3-0.6-2.4-1-3c-0.4-0.6-1.9-2.4-2.4-2
								c-1.4,0.9,1.6,1.3,0.6,2c-1,0.7-3.5,3.1-4.8,4c0.7-1.2,2-3.7,2.2-3.9c0.1-0.1,0.1-0.3-0.1-0.4c0,0,0,0,0,0
								c-0.2-0.1-0.3,0-0.4,0.2c0,0,0,0,0,0c-1,1.1-1.9,2.3-2.7,3.5c0.3-1.8,1.9-5.9,2-6.4c0.1-0.6,0.3-1-0.8-1.2s-1.1,0.2-1.2,0.8
								c-0.1,0.5-0.1,4.9-0.4,6.7c-0.3-1.4-1.2-4-1.2-4.3c0-0.2-0.2-0.3-0.3-0.3c0,0,0,0,0,0c-0.2,0-0.3,0.2-0.3,0.3c0,0,0,0,0,0
								c0,0.2,0.2,3,0.5,4.5c-0.9-1.3-2.2-4.6-2.8-5.6c-0.6-0.9,2.2-0.3,1.3-1.7c-0.4-0.5-2.1,0.4-3,1l0,0c-0.9,0.6-2.4,1.8-2,2.4
								c0.9,1.4,1.3-1.6,2-0.6s3.2,3.4,4.1,4.7c-1.3-0.7-3.7-2-4-2.1c-0.1-0.1-0.3-0.1-0.4,0.1c0,0,0,0,0,0c-0.1,0.1,0,0.3,0.1,0.4
								c0,0,0,0,0,0c1.1,1,2.3,1.9,3.6,2.7c-1.8-0.3-5.9-2-6.4-2.1c-0.6-0.1-1-0.3-1.2,0.8s0.2,1.1,0.8,1.2c0.5,0.1,4.9,0.2,6.7,0.5
								c-1.4,0.3-4.1,1.1-4.3,1.1c-0.2,0-0.3,0.2-0.3,0.3c0,0,0,0,0,0c0,0.2,0.2,0.3,0.3,0.3c0,0,0,0,0,0c0.2,0,3-0.2,4.5-0.4
								c-1.3,0.9-4.6,2.2-5.5,2.8c-0.9,0.6-0.3-2.2-1.7-1.3c-0.5,0.4,0.4,2.1,1,3l0,0c0.6,0.9,1.9,2.4,2.4,2c1.4-0.9-1.6-1.3-0.6-2
								c1-0.7,3.4-3.2,4.7-4c-0.8,1.2-2,3.7-2.1,3.9c-0.1,0.1,0,0.3,0.1,0.4c0,0,0,0,0,0c0.1,0.1,0.3,0,0.4-0.1c0,0,0,0,0,0
								c0.1-0.2,1.9-2.3,2.7-3.5c-0.3,1.8-1.9,5.9-2,6.4c-0.1,0.6-0.3,1,0.8,1.2s1.1-0.2,1.2-0.8c0.1-0.5,0.1-4.9,0.4-6.7
								c0.3,1.4,1.1,4,1.2,4.3c0,0.2,0.2,0.3,0.3,0.3c0,0,0,0,0,0c0.2,0,0.3-0.2,0.3-0.3c0,0,0,0,0,0c0-0.3-0.3-3-0.5-4.5
								c0.9,1.3,2.3,4.6,2.9,5.5s-2.2,0.3-1.3,1.7c0.4,0.5,2.1-0.4,3-1l0,0c0.9-0.6,2.4-1.8,2-2.4c-0.9-1.4-1.3,1.6-2,0.6
								c-0.7-1-3.3-3.4-4.2-4.7c1.2,0.7,3.9,1.9,4,2c0.1,0.1,0.3,0,0.4-0.1c0,0,0,0,0,0c0.1-0.1,0-0.3-0.1-0.4c0,0,0,0,0,0
								c-0.2-0.2-2.3-1.9-3.6-2.6c1.8,0.3,6,1.9,6.4,2c0.6,0.1,1,0.3,1.2-0.8C28.3,96.4,28,96.4,27.4,96.3z M18,97.4
								c-1-0.2-1.6-1.1-1.5-2.1c0.2-1,1.1-1.6,2.1-1.5c1,0.2,1.6,1.1,1.5,2.1c0,0,0,0,0,0C19.9,96.9,18.9,97.5,18,97.4z"/>
							<path class="st1" d="M26.7,87c0-0.1-0.7-2.7-2.2-1.9s0.4,2.5,0.6,2.6c0.6,0.5,1.7,1.1,1.7,1.1C26.8,88.2,26.8,87.6,26.7,87z"
								/>
							<path class="st1" d="M27.3,86.9c0-0.2,0.3-2.7,1.8-2.2s0,2.5-0.2,2.7c-0.5,0.6-1.5,1.4-1.5,1.4
								C27.4,88.2,27.4,87.5,27.3,86.9z"/>
							<path class="st1" d="M29.6,89.9c0.1,0,2.7,0.5,2.6-1.1c-0.1-1.7-2.4-0.7-2.6-0.6c-0.6,0.3-1.2,0.6-1.7,1
								C28.4,89.5,29,89.7,29.6,89.9z"/>
							<path class="st1" d="M29.2,90.6c0.1,0.1,2.1,1.8,0.8,2.8s-2-1.4-2.1-1.7c-0.2-0.7-0.3-2-0.3-2C28.2,90,28.7,90.3,29.2,90.6z"
								/>
							<path class="st1" d="M28.3,96.5l-0.5-3.2l-2.3,0.8C25.5,94.1,27.6,93.6,28.3,96.5z"/>
							<path class="st1" d="M21.1,85.8l2.8,1.7l-1.6,1.8C22.3,89.3,23.6,87.6,21.1,85.8z"/>
							<path class="st1" d="M19.2,85.4l-3.2,0.5l0.8,2.3C16.7,88.1,16.3,86,19.2,85.4z"/>
							<path class="st1" d="M30.4,95.1c1.4,0.4,2.1,1.9,1.7,3.2c-0.3,1-1.2,1.7-2.3,1.8c-0.2,0-0.3,0-0.5,0c0.4,1.5,0.7,3.2,0.9,3.9
								c-0.5-3.9,3.3-5.7,3.3-5.7l0,0c0,0-2.8-3.2-0.7-6.5C32.4,92.5,31.4,93.9,30.4,95.1z"/>
							<path class="st1" d="M20.6,84.7c0-0.1,0.6-1.1-0.1-1.3c-0.7-0.2-0.6,0.9-0.6,1c0.1,0.3,0.1,0.6,0.2,0.9
								C20.3,85.1,20.5,84.9,20.6,84.7z"/>
							<path class="st1" d="M23,84.3c0-1.4-1.1-2.6-2.5-2.6c-1,0-1.9,0.5-2.3,1.4c-0.1,0.1-0.1,0.3-0.2,0.4
								c-1.2-0.9-2.7-1.9-3.3-2.3c3.4,1.9,6.5-1,6.5-1l0,0c0,0,2,3.8,5.8,3C26.2,83.4,24.5,83.8,23,84.3z"/>
							<circle class="st1" cx="21.4" cy="78.1" r="1.2"/>
							<path class="st1" d="M60.8,91.3c-0.5-0.1-4.9-0.2-6.7-0.6c1.4-0.3,4-1,4.3-1.1c0.2,0,0.3-0.1,0.3-0.3c0-0.2-0.1-0.3-0.3-0.3
								c0,0,0,0-0.1,0c-1.5,0-3.1,0.1-4.6,0.3c1.3-0.9,4.7-2,5.6-2.6s0.3,2.2,1.7,1.3c0.5-0.3-0.6-2.4-1-3c-0.4-0.6-1.9-2.4-2.4-2
								c-1.4,0.9,1.6,1.3,0.6,2s-3.5,3.1-4.8,4c0.8-1.2,2-3.7,2.2-3.9c0.1-0.1,0-0.3-0.1-0.4c0,0,0,0,0,0c-0.1-0.1-0.3,0-0.4,0.1
								c0,0,0,0,0,0c-0.2,0.2-1.9,2.3-2.7,3.5c0.3-1.8,1.9-5.9,2-6.4c0.1-0.6,0.3-1-0.8-1.2s-1.1,0.2-1.2,0.8
								c-0.1,0.5-0.1,4.9-0.4,6.7c-0.3-1.4-0.7-2.9-1.2-4.3c0-0.2-0.2-0.3-0.3-0.3c-0.2,0-0.3,0.2-0.3,0.3c0,0,0,0,0,0
								c0,0.2,0.2,3,0.5,4.5c-0.9-1.3-2.2-4.6-2.8-5.6c-0.6-0.9,2.2-0.3,1.3-1.7c-0.4-0.5-2.1,0.4-3,1l0,0c-0.9,0.6-2.4,1.8-2,2.4
								c0.9,1.4,1.3-1.6,2-0.6c0.7,1,3.2,3.5,4.1,4.7c-1.2-0.7-3.7-2-4-2.1c-0.1-0.1-0.3,0-0.4,0.1c0,0,0,0,0,0
								c-0.1,0.1,0,0.3,0.1,0.4c0,0,0,0,0,0c1.1,1,2.3,1.9,3.5,2.7c-1.8-0.3-5.9-2-6.4-2.1c-0.6-0.1-1-0.3-1.2,0.8
								c-0.2,1.1,0.2,1.1,0.8,1.2c0.5,0.1,4.9,0.2,6.7,0.5c-1.4,0.3-4.1,1.1-4.3,1.1c-0.2,0-0.3,0.2-0.3,0.3c0,0,0,0,0,0
								c0,0.2,0.1,0.3,0.3,0.3c0,0,0,0,0,0c0.2,0,3-0.2,4.5-0.4c-1.3,0.9-4.6,2.2-5.5,2.8c-0.9,0.6-0.3-2.2-1.7-1.3
								c-0.5,0.4,0.4,2.1,1,3l0,0c0.6,0.9,1.9,2.4,2.4,2c1.4-0.9-1.6-1.3-0.6-2c1-0.7,3.4-3.2,4.7-4c-0.7,1.2-2,3.7-2.1,3.9
								c-0.1,0.1-0.1,0.3,0.1,0.4c0,0,0,0,0,0c0.1,0.1,0.3,0,0.4-0.1c0,0,0,0,0,0c0.2-0.2,1.9-2.3,2.7-3.5c-0.3,1.8-1.9,5.9-2,6.4
								c-0.1,0.6-0.3,1,0.8,1.2c1.1,0.2,1.1-0.2,1.2-0.8c0.1-0.5,0.1-4.9,0.4-6.7c0.3,1.4,0.7,2.9,1.2,4.3c0,0.2,0.2,0.3,0.3,0.3
								c0.2,0,0.3-0.1,0.3-0.3c0,0,0,0,0,0c0-0.3-0.3-3-0.5-4.5c0.9,1.3,2.3,4.6,2.9,5.5s-2.2,0.3-1.3,1.7c0.4,0.5,2.1-0.4,3-1l0,0
								c0.9-0.6,2.3-1.8,2-2.4c-0.9-1.4-1.3,1.6-2,0.6c-0.7-1-3.3-3.3-4.2-4.6c1.2,0.8,3.8,1.9,4.1,2c0.1,0.1,0.3,0,0.4-0.1
								c0,0,0,0,0,0c0.1-0.1,0-0.3-0.1-0.4c0,0,0,0,0,0c-0.2-0.2-2.3-1.9-3.6-2.6c1.8,0.3,6,1.9,6.5,2c0.6,0.1,1,0.3,1.2-0.8
								S61.5,91.5,60.8,91.3z M51.4,92.4c-1-0.2-1.6-1.1-1.5-2.1s1.1-1.6,2.1-1.5c1,0.2,1.6,1.1,1.5,2.1c0,0,0,0,0,0
								C53.4,92,52.4,92.6,51.4,92.4z"/>
							<path class="st1" d="M46.8,79.5c0.1-0.1,1.6-2.2,2.7-1c1.1,1.2-1.3,2.2-1.5,2.3c-0.7,0.2-2,0.4-2,0.4
								C46.2,80.6,46.5,80.1,46.8,79.5z"/>
							<path class="st1" d="M46.2,79.2c0-0.1,0.8-2.6-0.9-2.7s-0.9,2.3-0.8,2.6c0.3,0.7,0.9,1.8,0.9,1.8
								C45.7,80.3,46,79.8,46.2,79.2z"/>
							<path class="st1" d="M43,81.2c-0.1,0-2.7-0.5-2-2c0.7-1.5,2.5,0.2,2.7,0.4c0.5,0.6,1.2,1.6,1.2,1.6
								C44.2,81.2,43.6,81.2,43,81.2z"/>
							<path class="st1" d="M43,81.8c-0.2,0-2.7,0.4-2.1,1.9c0.6,1.5,2.5-0.1,2.7-0.3c0.5-0.6,1.3-1.6,1.3-1.6
								C44.2,81.8,43.6,81.8,43,81.8z"/>
							<path class="st1" d="M41.5,89.9l0.5,3.2l2.3-0.8C44.3,92.3,42.2,92.8,41.5,89.9z"/>
							<path class="st1" d="M42,87.6l1.7-2.8l1.8,1.6C45.4,86.4,43.7,85.1,42,87.6z"/>
							<path class="st1" d="M52.7,80.4l-3.3,0.5l0.8,2.3C50.2,83.2,49.7,81.1,52.7,80.4z"/>
							<path class="st1" d="M56.5,79.4c0-1.4-1.1-2.6-2.6-2.6c-1,0-1.8,0.5-2.3,1.4c-0.1,0.1-0.1,0.3-0.2,0.4
								c-1.2-0.9-2.7-1.9-3.3-2.3c3.4,1.9,6.5-1,6.5-1l0,0c0,0,2,3.8,5.8,3C59.6,78.4,58,78.9,56.5,79.4z"/>
							<path class="st1" d="M40.6,89c-0.1,0-1.2,0.1-1.1-0.6c0.1-0.7,1.1-0.2,1.2-0.2c0.3,0.2,0.7,0.5,0.7,0.5
								C41.1,88.8,40.8,88.9,40.6,89z"/>
							<path class="st1" d="M39.4,91.1c-1.3-0.5-2-2-1.5-3.3c0.3-0.9,1.1-1.5,2.1-1.7c0.2,0,0.3,0,0.5,0c-0.4-1.5-0.8-3.2-0.9-3.9
								c0.5,3.9-3.3,5.7-3.3,5.7l0,0c0,0,2.8,3.2,0.7,6.5C37.4,93.7,38.3,92.3,39.4,91.1z"/>
							<circle class="st1" cx="34" cy="87.5" r="1.2"/>
							
								<ellipse transform="matrix(0.9855 -0.1697 0.1697 0.9855 -15.297 7.2618)" class="st1" cx="34.8" cy="93.1" rx="1.7" ry="3.7"/>
							<path class="st1" d="M27.2,96.3c-0.5-0.1-4.9-0.2-6.7-0.6c1.4-0.3,4-1,4.3-1.1c0.2,0,0.3-0.2,0.3-0.3c0,0,0,0,0,0
								c0-0.2-0.2-0.3-0.3-0.3c0,0,0,0,0,0c-1.5,0-3.1,0.1-4.6,0.3c1.3-0.9,4.7-2,5.6-2.6c0.9-0.6,0.3,2.2,1.7,1.3
								c0.5-0.3-0.6-2.4-1-3c-0.4-0.6-1.9-2.4-2.4-2c-1.4,0.9,1.6,1.3,0.6,2c-1,0.7-3.5,3.1-4.8,4c0.7-1.2,2-3.7,2.2-3.9
								c0.1-0.1,0-0.3-0.1-0.4c0,0,0,0,0,0c-0.1-0.1-0.3,0-0.4,0.1c0,0,0,0,0,0c-1,1.1-1.8,2.3-2.7,3.5c0.3-1.8,1.9-5.9,2-6.4
								c0.1-0.6,0.3-1-0.8-1.2s-1.1,0.2-1.2,0.8c-0.1,0.5-0.1,4.9-0.4,6.7c-0.3-1.4-1.2-4-1.2-4.3c0-0.2-0.2-0.3-0.3-0.3
								c-0.2,0-0.3,0.2-0.3,0.3c0,0,0,0,0,0c0,0.2,0.2,3,0.5,4.5c-0.9-1.3-2.2-4.6-2.8-5.6c-0.6-0.9,2.2-0.3,1.3-1.7
								c-0.4-0.5-2.1,0.4-3,1l0,0c-0.9,0.6-2.4,1.8-2,2.4c0.9,1.4,1.3-1.6,2-0.6c0.7,1,3.3,3.5,4.2,4.8c-1.3-0.8-3.7-2-4-2.1
								c-0.1-0.1-0.3,0-0.4,0.1c0,0,0,0,0,0c-0.1,0.1,0,0.3,0.1,0.4c0,0,0,0,0,0c1.1,1,2.3,1.9,3.6,2.7c-1.8-0.3-5.9-2-6.4-2.1
								c-0.6-0.1-1-0.3-1.2,0.8s0.2,1.1,0.8,1.2c0.5,0.1,4.9,0.2,6.7,0.5c-1.4,0.3-4.1,1.1-4.3,1.1c-0.2,0-0.3,0.2-0.3,0.3
								c0,0,0,0,0,0c0,0.2,0.2,0.3,0.3,0.3c0,0,0,0,0,0c0.2,0,3-0.2,4.5-0.4c-1.3,0.9-4.6,2.2-5.5,2.8s-0.3-2.2-1.7-1.3
								c-0.5,0.4,0.4,2.1,1,3l0,0c0.6,0.9,1.9,2.4,2.4,2c1.4-0.9-1.6-1.3-0.6-2c1-0.7,3.4-3.2,4.7-4c-0.8,1.2-2,3.7-2.1,3.9
								c-0.1,0.1-0.1,0.3,0.1,0.4c0,0,0,0,0,0c0.1,0.1,0.3,0,0.4-0.1c0,0,0,0,0,0c0.2-0.2,1.9-2.3,2.7-3.5c-0.3,1.8-1.9,5.9-2,6.4
								c-0.1,0.6-0.3,1,0.8,1.2s1.1-0.2,1.2-0.8c0.1-0.5,0.1-4.9,0.4-6.7c0.3,1.4,0.7,2.9,1.2,4.3c0,0.2,0.2,0.3,0.3,0.3
								c0,0,0,0,0,0c0.2,0,0.3-0.2,0.3-0.3c0,0,0,0,0,0c0-0.3-0.3-3-0.5-4.5c0.9,1.3,2.3,4.6,2.9,5.5c0.6,0.9-2.2,0.3-1.3,1.7
								c0.4,0.5,2.1-0.4,3-1l0,0c0.9-0.6,2.4-1.8,2-2.4c-0.9-1.4-1.3,1.6-2,0.6c-0.7-1-3.3-3.4-4.2-4.6c1.2,0.7,3.9,1.9,4,2
								c0.1,0.1,0.3,0,0.4-0.1c0,0,0,0,0,0c0.1-0.1,0-0.3-0.1-0.4c0,0,0,0,0,0c-0.2-0.2-2.3-1.9-3.6-2.6c1.8,0.3,6,1.9,6.4,2
								c0.6,0.1,1,0.3,1.2-0.8C28.3,96.5,27.8,96.4,27.2,96.3z M17.8,97.4c-1-0.2-1.6-1.1-1.4-2.1c0.2-1,1.1-1.6,2.1-1.4
								c1,0.2,1.6,1.1,1.4,2.1C19.7,96.9,18.8,97.6,17.8,97.4C17.8,97.4,17.8,97.4,17.8,97.4z"/>
							<path class="st1" d="M26.5,87c0-0.2-0.7-2.7-2.2-1.9c-1.5,0.8,0.4,2.5,0.6,2.6c0.6,0.5,1.7,1.1,1.7,1.1
								C26.7,88.2,26.6,87.6,26.5,87z"/>
							<path class="st1" d="M27.2,86.9c0-0.2,0.3-2.7,1.8-2.2c1.6,0.5,0,2.5-0.2,2.7c-0.5,0.6-1.5,1.4-1.5,1.4
								C27.2,88.2,27.2,87.6,27.2,86.9z"/>
							<path class="st1" d="M29.4,89.9c0.1,0,2.7,0.5,2.6-1.1c-0.1-1.7-2.4-0.7-2.6-0.6c-0.7,0.4-1.7,1.1-1.7,1.1
								C28.3,89.5,28.8,89.8,29.4,89.9z"/>
							<path class="st1" d="M29.1,90.7c0.1,0.1,2.1,1.8,0.8,2.7c-1.3,1-2-1.4-2.1-1.7c-0.2-0.7-0.3-2-0.3-2
								C28,90,28.6,90.3,29.1,90.7z"/>
							<path class="st1" d="M28.1,96.5l-0.4-3.3l-2.3,0.8C25.4,94.1,27.5,93.6,28.1,96.5z"/>
							<path class="st1" d="M21,85.9l2.8,1.7l-1.6,1.8C22.2,89.3,23.4,87.6,21,85.9z"/>
							<path class="st1" d="M19,85.4l-3.2,0.5l0.8,2.3C16.6,88.1,16.1,86,19,85.4z"/>
							<path class="st1" d="M30.2,95.1c1.4,0.4,2.1,1.9,1.7,3.2c-0.3,1-1.2,1.7-2.3,1.8c-0.2,0-0.3,0-0.5,0c0.4,1.5,0.7,3.2,0.9,3.9
								c-0.5-3.9,3.3-5.7,3.3-5.7l0,0c0,0-2.8-3.2-0.7-6.5C31.9,93,31.1,94.1,30.2,95.1z"/>
							<path class="st1" d="M20.4,84.7c0-0.1,0.6-1.1-0.2-1.3s-0.6,0.9-0.6,1c0.1,0.3,0.2,0.9,0.2,0.9
								C20.1,85.2,20.3,84.9,20.4,84.7z"/>
							<path class="st1" d="M22.9,84.3c0-1.4-1.1-2.6-2.6-2.6c-1,0-1.9,0.5-2.3,1.4c-0.1,0.1-0.1,0.3-0.2,0.4
								c-1.2-1-2.7-1.9-3.3-2.3c3.4,1.9,6.5-1,6.5-1l0,0c0,0,2,3.8,5.8,3C26,83.4,24.3,83.8,22.9,84.3z"/>
							<circle class="st1" cx="21.3" cy="78.1" r="1.2"/>
							<path class="st1" d="M56.1,58.2c-0.5-0.1-4.9-0.2-6.7-0.6c1.4-0.3,4-1,4.3-1.1c0.2,0,0.3-0.1,0.3-0.3c0-0.2-0.1-0.3-0.3-0.3
								c0,0,0,0-0.1,0c-1.5,0-3.1,0.1-4.6,0.3c1.3-0.9,4.7-2,5.6-2.6s0.3,2.2,1.7,1.3c0.5-0.3-0.6-2.4-1-3c-0.4-0.6-1.9-2.4-2.4-2
								c-1.4,0.9,1.6,1.3,0.6,2s-3.5,3.1-4.8,4c0.8-1.2,2-3.7,2.2-3.9c0.1-0.1,0-0.3-0.1-0.4c0,0,0,0,0,0c-0.1-0.1-0.3,0-0.4,0.1
								c0,0,0,0,0,0c-0.2,0.2-1.9,2.3-2.7,3.5c0.3-1.8,2-5.9,2-6.4c0.1-0.6,0.3-1-0.8-1.2c-1.1-0.2-1.1,0.2-1.2,0.8
								c-0.1,0.5-0.1,4.9-0.4,6.7c-0.3-1.4-0.7-2.9-1.2-4.3c0-0.2-0.2-0.3-0.3-0.3c-0.2,0-0.3,0.1-0.3,0.3c0,0,0,0,0,0
								c0,0.2,0.2,3,0.5,4.5c-0.9-1.3-2.2-4.6-2.8-5.6s2.2-0.3,1.3-1.7c-0.4-0.5-2.1,0.4-3,1l0,0c-0.9,0.6-2.4,1.8-2,2.4
								c0.9,1.4,1.3-1.6,2-0.6c0.7,1,3.2,3.5,4.1,4.7c-1.2-0.7-3.7-2-4-2.1c-0.1-0.1-0.3,0-0.4,0.1c0,0,0,0,0,0
								c-0.1,0.1,0,0.3,0.1,0.4c0,0,0,0,0,0c1.1,1,2.3,1.9,3.5,2.7c-1.8-0.3-5.9-2-6.4-2.1c-0.6-0.1-1-0.3-1.2,0.8s0.2,1.1,0.8,1.2
								c0.5,0.1,4.9,0.2,6.7,0.5c-1.4,0.3-4.1,1.1-4.3,1.1c-0.2,0-0.3,0.2-0.3,0.3c0,0,0,0,0,0c0,0.2,0.2,0.3,0.3,0.3c0,0,0,0,0,0
								c0.2,0,3-0.2,4.5-0.4c-1.3,0.9-4.6,2.2-5.5,2.8s-0.3-2.2-1.7-1.3c-0.5,0.4,0.4,2.1,1,3l0,0c0.6,0.9,1.9,2.4,2.4,2
								c1.4-0.9-1.6-1.3-0.6-2s3.5-3.2,4.7-4c-0.7,1.2-2,3.7-2.1,3.9c-0.1,0.1,0,0.3,0.1,0.4c0,0,0,0,0,0c0.1,0.1,0.3,0,0.4-0.1
								c0,0,0,0,0,0c0.2-0.2,1.9-2.3,2.7-3.5c-0.3,1.8-1.9,5.9-2,6.4c-0.1,0.6-0.3,1,0.8,1.2s1.1-0.2,1.2-0.8
								c0.1-0.5,0.1-4.9,0.4-6.7c0.3,1.4,0.7,2.9,1.2,4.3c0,0.2,0.2,0.3,0.3,0.3c0.2,0,0.3-0.1,0.3-0.3c0,0,0,0,0,0
								c0-0.3-0.3-3-0.5-4.5c0.9,1.3,2.3,4.6,2.9,5.5c0.6,0.9-2.2,0.3-1.3,1.7c0.4,0.5,2.1-0.4,3-1l0,0c0.9-0.6,2.4-1.8,2-2.4
								c-0.9-1.4-1.3,1.6-2,0.6c-0.7-1-3.3-3.4-4.2-4.6c1.3,0.7,3.9,1.9,4.1,2c0.1,0.1,0.3,0,0.4-0.1c0,0,0,0,0,0
								c0.1-0.1,0-0.3-0.1-0.4c0,0,0,0,0,0c-0.2-0.2-2.3-1.9-3.6-2.6c1.8,0.3,6,1.9,6.5,2c0.6,0.1,1,0.3,1.2-0.8
								C57.1,58.3,56.8,58.3,56.1,58.2z M46.7,59.3c-1-0.2-1.6-1.2-1.4-2.2c0.2-1,1.2-1.6,2.2-1.4c1,0.2,1.6,1.1,1.4,2.1
								C48.7,58.8,47.7,59.5,46.7,59.3C46.7,59.3,46.7,59.3,46.7,59.3z"/>
							<path class="st1" d="M38.6,66.1c0,0.1,0.8,2.6,2.2,1.8c1.4-0.8-0.5-2.4-0.7-2.6c-0.6-0.4-1.7-1-1.7-1
								C38.4,64.9,38.5,65.5,38.6,66.1z"/>
							<path class="st1" d="M37.9,66.2c0,0.1-0.2,2.7-1.8,2.2s-0.1-2.5,0.1-2.7c0.5-0.6,1.5-1.4,1.5-1.4
								C37.8,65,37.9,65.6,37.9,66.2z"/>
							<path class="st1" d="M35.6,63.3c-0.1,0-2.7-0.5-2.6,1.2c0.1,1.7,2.4,0.7,2.6,0.5c0.7-0.4,1.7-1.1,1.7-1.1
								C36.8,63.6,36.2,63.4,35.6,63.3z"/>
							<path class="st1" d="M35.8,62.6c-0.1-0.1-2.4-1.3-1.3-2.5c1.1-1.2,2.3,0.9,2.4,1.2c0.3,0.7,0.7,1.9,0.7,1.9
								C36.9,63.1,36.3,62.9,35.8,62.6z"/>
							<path class="st1" d="M46.2,67.7l3.2-0.5l-0.9-2.3C48.6,64.9,49.1,67,46.2,67.7z"/>
							<path class="st1" d="M36.8,56.7l0.5,3.2l2.3-0.8C39.6,59.1,37.5,59.6,36.8,56.7z"/>
							<path class="st1" d="M44.1,67.3l-2.8-1.6l1.6-1.8C42.8,63.8,41.6,65.6,44.1,67.3z"/>
							<path class="st1" d="M34.6,57.9c-1.4-0.4-2.1-1.9-1.7-3.2c0.3-1,1.2-1.7,2.3-1.8c0.2,0,0.3,0,0.5,0c-0.4-1.5-0.8-3.2-0.9-3.9
								c0.5,3.9-3.3,5.7-3.3,5.7l0,0c0,0,2.8,3.2,0.7,6.5C32.6,60.5,33.6,59.1,34.6,57.9z"/>
							<path class="st1" d="M44.5,68.4c0,0.1-0.6,1.1,0.2,1.3c0.7,0.2,0.6-0.9,0.6-1c-0.1-0.3-0.2-0.9-0.2-0.9
								C44.8,68,44.6,68.2,44.5,68.4z"/>
							<path class="st1" d="M42.1,68.8c0,1.4,1.1,2.6,2.5,2.6c1,0,1.9-0.5,2.3-1.4c0.1-0.1,0.1-0.3,0.2-0.4c1.2,0.9,2.7,1.8,3.3,2.3
								C47,69.9,44,72.9,44,72.9l0,0c0,0-2-3.8-5.8-3C38.9,69.7,40.6,69.3,42.1,68.8z"/>
							<circle class="st1" cx="43.8" cy="75" r="1.2"/>
							<path class="st1" d="M61,91.3c-0.5-0.1-4.9-0.2-6.7-0.6c1.4-0.3,4-1,4.3-1.1c0.2,0,0.3-0.2,0.3-0.3c0-0.2-0.2-0.3-0.3-0.3
								c-1.5,0-3.1,0.1-4.6,0.3c1.3-0.9,4.7-2,5.6-2.6s0.3,2.2,1.7,1.3c0.5-0.3-0.6-2.4-1-3c-0.4-0.6-1.9-2.4-2.4-2
								c-1.4,0.9,1.6,1.3,0.6,2c-1,0.7-3.5,3.1-4.8,4c0.8-1.2,2-3.7,2.2-3.9c0.1-0.1,0-0.3-0.1-0.4c0,0,0,0,0,0
								c-0.1-0.1-0.3,0-0.4,0.1c0,0,0,0,0,0c-0.2,0.2-1.9,2.3-2.7,3.5c0.3-1.8,2-5.9,2-6.4c0.1-0.6,0.3-1-0.8-1.2s-1.1,0.2-1.2,0.8
								c-0.1,0.5-0.1,4.9-0.4,6.7c-0.3-1.4-0.7-2.9-1.2-4.3c-0.1-0.3-0.3-0.3-0.3-0.3c-0.2,0-0.3,0.2-0.3,0.3c0,0,0,0,0,0
								c0,0.2,0.2,3,0.5,4.5c-0.9-1.3-2.2-4.6-2.8-5.6c-0.6-0.9,2.2-0.3,1.3-1.7c-0.4-0.5-2.1,0.4-3,1l0,0c-0.9,0.6-2.4,1.8-2,2.4
								c0.9,1.4,1.3-1.6,2-0.6c0.7,1,3.2,3.5,4.1,4.7c-1.2-0.7-3.7-2-4-2.1c-0.1-0.1-0.3-0.1-0.4,0.1c0,0,0,0,0,0
								c-0.1,0.1,0,0.3,0.1,0.4c0,0,0,0,0,0c1.1,1,2.3,1.9,3.5,2.7c-1.8-0.3-5.9-2-6.4-2.1c-0.6-0.1-1-0.3-1.2,0.8s0.2,1.1,0.8,1.2
								c0.5,0.1,4.9,0.2,6.7,0.5c-1.4,0.3-4.1,1.1-4.3,1.1c-0.2,0-0.3,0.2-0.3,0.3c0,0,0,0,0,0c0,0.2,0.1,0.3,0.3,0.3c0,0,0,0,0,0
								c0.2,0,3-0.2,4.5-0.4c-1.3,0.9-4.6,2.2-5.5,2.8c-0.9,0.6-0.3-2.2-1.7-1.3c-0.5,0.4,0.4,2.1,1,3l0,0c0.6,0.9,1.9,2.4,2.4,2
								c1.4-0.9-1.6-1.3-0.6-2c1-0.7,3.4-3.2,4.7-4c-0.7,1.2-2,3.7-2.1,3.9c-0.1,0.1,0,0.3,0.1,0.4c0,0,0,0,0,0
								c0.1,0.1,0.3,0,0.4-0.1c0,0,0,0,0,0c0.2-0.2,1.9-2.3,2.7-3.5c-0.3,1.8-1.9,5.9-2,6.4c-0.1,0.6-0.3,1,0.8,1.2s1.1-0.2,1.2-0.8
								c0.1-0.5,0.1-4.9,0.4-6.7c0.4,1.4,0.8,2.9,1.3,4.3c0.1,0.3,0.3,0.3,0.3,0.3c0.2,0,0.3-0.2,0.3-0.3c0,0,0,0,0,0
								c0-0.3-0.3-3-0.5-4.5c0.9,1.3,2.3,4.6,2.9,5.5c0.6,0.9-2.2,0.3-1.3,1.7c0.4,0.5,2.1-0.4,3-1l0,0c0.9-0.6,2.4-1.8,2-2.4
								c-0.9-1.4-1.3,1.6-2,0.6c-0.7-1-3.3-3.4-4.2-4.6c1.2,0.8,3.8,1.9,4,2c0.1,0.1,0.3,0,0.4-0.1c0,0,0,0,0,0
								c0.1-0.1,0-0.3-0.1-0.4c0,0,0,0,0,0c-0.2-0.2-2.3-1.9-3.6-2.6c1.8,0.3,6,1.9,6.5,2c0.6,0.1,1,0.3,1.2-0.8S61.6,91.4,61,91.3z
								 M51.6,92.4c-1-0.2-1.6-1.1-1.5-2.1c0.2-1,1.1-1.6,2.1-1.5c1,0.2,1.6,1.1,1.5,2.1c0,0,0,0,0,0C53.5,91.9,52.6,92.6,51.6,92.4
								z"/>
							<path class="st1" d="M52.8,80.4l-3.3,0.5l0.8,2.3C50.4,83.1,49.9,81,52.8,80.4z"/>
							<path class="st1" d="M56.6,79.3c0-1.4-1.1-2.6-2.5-2.6c-1,0-1.9,0.5-2.3,1.4c-0.1,0.1-0.1,0.3-0.2,0.4
								c-1.2-0.9-2.7-1.9-3.3-2.3c3.4,1.9,6.5-1,6.5-1l0,0c0,0,2,3.8,5.8,3C59.8,78.4,58.1,78.8,56.6,79.3z"/>
							
								<ellipse transform="matrix(0.9893 -0.1456 0.1456 0.9893 -10.2747 7.9536)" class="st1" cx="49.2" cy="74.2" rx="3.7" ry="1.7"/>
							<path class="st1" d="M22.5,63.1c-0.5-0.1-4.9-0.2-6.7-0.6c1.4-0.3,4-1,4.3-1.1c0.2,0,0.3-0.2,0.3-0.3c0-0.2-0.2-0.3-0.3-0.3
								l0,0c-1.5,0-3.1,0.1-4.6,0.3c1.3-0.9,4.7-2,5.6-2.6c0.9-0.6,0.3,2.2,1.7,1.3c0.5-0.3-0.6-2.4-1-3c-0.4-0.6-1.9-2.4-2.4-2
								c-1.4,0.9,1.6,1.3,0.6,2c-1,0.7-3.5,3.1-4.8,4c0.8-1.2,2-3.7,2.2-3.9c0.1-0.1,0-0.3-0.1-0.4c0,0,0,0,0,0
								c-0.1-0.1-0.3,0-0.4,0.1c0,0,0,0,0,0c-1,1.1-1.9,2.3-2.7,3.5c0.3-1.8,1.9-5.9,2-6.4c0.1-0.6,0.3-1-0.8-1.2s-1.1,0.2-1.2,0.8
								C14,53.8,14,58.3,13.6,60c-0.3-1.4-0.7-2.9-1.2-4.3c0-0.2-0.2-0.3-0.3-0.3c0,0,0,0,0,0c-0.2,0-0.3,0.2-0.3,0.3c0,0,0,0,0,0
								c0,0.2,0.2,3,0.5,4.5c-0.9-1.3-2.2-4.6-2.8-5.6c-0.6-0.9,2.2-0.3,1.3-1.7c-0.4-0.5-2.1,0.4-3,1l0,0c-0.9,0.6-2.4,1.8-2,2.4
								c0.9,1.4,1.3-1.6,2-0.6s3.2,3.5,4.1,4.7c-1.2-0.8-3.7-2-4-2.1c-0.1-0.1-0.3-0.1-0.4,0.1c0,0,0,0,0,0c-0.1,0.1,0,0.3,0.1,0.4
								c0,0,0,0,0,0c1.1,1,2.3,1.9,3.5,2.7c-1.8-0.3-5.9-2-6.4-2.1c-0.6-0.1-1-0.3-1.2,0.8c-0.2,1.1,0.2,1.1,0.8,1.2
								c0.5,0.1,4.9,0.2,6.7,0.5c-1.4,0.3-4.1,1.1-4.3,1.1c-0.2,0-0.3,0.2-0.3,0.3c0,0.2,0.2,0.3,0.3,0.3c0.2,0,3-0.2,4.5-0.4
								c-1.3,0.9-4.6,2.2-5.6,2.8s-0.2-2.2-1.6-1.3c-0.5,0.4,0.4,2.1,1,3l0,0c0.6,0.9,1.9,2.4,2.4,2c1.4-0.9-1.6-1.3-0.6-2
								s3.4-3.2,4.7-4c-0.7,1.2-2,3.7-2.1,3.9c-0.1,0.1-0.1,0.3,0.1,0.4c0,0,0,0,0,0c0.1,0.1,0.3,0,0.4-0.1c0,0,0,0,0,0
								c0.9-1.1,1.8-2.3,2.7-3.5c-0.3,1.8-1.9,5.9-2,6.4c-0.1,0.6-0.3,1,0.8,1.2s1.1-0.2,1.2-0.8c0.1-0.5,0.1-4.9,0.4-6.7
								c0.3,1.4,0.7,2.9,1.2,4.3c0,0.2,0.2,0.3,0.3,0.3c0,0,0,0,0,0c0.2,0,0.3-0.1,0.3-0.3c0,0,0,0,0,0c0-0.3-0.3-3-0.5-4.5
								c0.9,1.3,2.3,4.6,2.9,5.5s-2.2,0.3-1.3,1.7c0.4,0.5,2.1-0.4,3-1l0,0c0.9-0.6,2.3-1.8,2-2.4c-0.9-1.4-1.3,1.6-2,0.6
								c-0.7-1-3.4-3.4-4.3-4.7c1.2,0.7,3.8,1.9,4.1,2c0.1,0.1,0.3,0,0.4-0.1c0,0,0,0,0,0c0.1-0.1,0-0.3-0.1-0.4c0,0,0,0,0,0
								c-0.2-0.2-2.3-1.9-3.6-2.6c1.8,0.3,6,1.9,6.5,2c0.6,0.1,1,0.3,1.2-0.8C23.5,63.3,23.1,63.3,22.5,63.1z M13.1,64.2
								c-1-0.2-1.6-1.1-1.5-2.1c0.2-1,1.1-1.6,2.1-1.5c1,0.2,1.6,1.1,1.5,2.1c0,0,0,0,0,0C15,63.8,14.1,64.4,13.1,64.2z"/>
							<path class="st1" d="M18.2,73.4c-0.1,0.1-1.6,2.2-2.7,1c-1.1-1.2,1.2-2.2,1.5-2.2c0.7-0.2,1.3-0.3,2-0.4
								C18.8,72.4,18.5,72.9,18.2,73.4z"/>
							<path class="st1" d="M18.8,73.7c0,0.1-0.7,2.7,0.9,2.7s0.9-2.3,0.8-2.6c-0.3-0.7-0.9-1.8-0.9-1.8
								C19.3,72.6,19.1,73.2,18.8,73.7z"/>
							<path class="st1" d="M22,71.7c0.1,0,2.7,0.5,2,2s-2.5-0.2-2.7-0.4c-0.5-0.6-1.2-1.6-1.2-1.6C20.7,71.7,21.4,71.7,22,71.7z"/>
							<path class="st1" d="M22,71.1c0.2,0,2.7-0.4,2.1-2c-0.6-1.5-2.5,0.1-2.7,0.3C20.9,70,20.2,71,20.2,71
								C20.8,71.1,21.4,71.1,22,71.1z"/>
							<path class="st1" d="M21.8,53.8c0-0.1-0.7-2.7-2.2-1.9c-1.5,0.8,0.4,2.5,0.6,2.6c0.5,0.4,1.1,0.8,1.7,1.1
								C21.9,55.1,21.9,54.4,21.8,53.8z"/>
							<path class="st1" d="M22.5,53.8c0-0.2,0.3-2.7,1.8-2.2c1.6,0.5,0,2.5-0.2,2.7c-0.5,0.5-1,0.9-1.5,1.4
								C22.6,55,22.5,54.4,22.5,53.8z"/>
							<path class="st1" d="M24.7,56.8c0.1,0,2.7,0.5,2.6-1.1c-0.1-1.7-2.4-0.7-2.6-0.6C24,55.4,23,56.1,23,56.1
								C23.6,56.4,24.1,56.6,24.7,56.8z"/>
							<path class="st1" d="M24.4,57.5c0.1,0.1,2.1,1.8,0.8,2.8c-1.3,1-2-1.4-2.1-1.7c-0.2-0.7-0.3-2-0.3-2
								C23.3,56.8,23.9,57.2,24.4,57.5z"/>
							<path class="st1" d="M24.3,64.1c0.1,0,1.2-0.1,1.1,0.6c-0.1,0.7-1.1,0.2-1.2,0.2c-0.2-0.2-0.5-0.3-0.7-0.5
								C23.8,64.2,24,64.1,24.3,64.1z"/>
							<path class="st1" d="M8.5,51.3c0.1-0.1,1.6-2.2,2.7-0.9c1.1,1.3-1.3,2.1-1.5,2.2c-0.7,0.2-2,0.4-2,0.4
								C7.8,52.4,8.1,51.8,8.5,51.3z"/>
							<path class="st1" d="M7.9,51c0-0.1,0.8-2.6-0.9-2.7S6,50.6,6.1,50.9C6.4,51.6,7,52.7,7,52.7C7.3,52.1,7.6,51.6,7.9,51z"/>
							<path class="st1" d="M4.7,53c-0.1,0-2.7-0.5-2-2s2.5,0.2,2.7,0.4C5.8,51.9,6.5,53,6.5,53C5.9,53,5.3,53,4.7,53z"/>
							<path class="st1" d="M4.6,53.6c-0.2,0-2.7,0.4-2.1,1.9s2.5-0.1,2.7-0.3c0.5-0.5,1.3-1.6,1.3-1.6C5.9,53.6,5.3,53.6,4.6,53.6z
								"/>
							<path class="st1" d="M4.9,71.1c0,0.2,0.8,2.6,2.2,1.8s-0.5-2.5-0.7-2.6c-0.6-0.4-1.7-1-1.7-1C4.8,69.9,4.8,70.5,4.9,71.1z"/>
							<path class="st1" d="M4.3,71.1c0,0.2-0.2,2.7-1.8,2.2s0-2.5,0.1-2.7c0.5-0.6,1.5-1.4,1.5-1.4C4.2,69.9,4.3,70.5,4.3,71.1z"/>
							<path class="st1" d="M2,68.2c-0.2,0-2.7-0.5-2.6,1.2c0.1,1.7,2.4,0.7,2.6,0.5c0.7-0.3,1.7-1.1,1.7-1.1
								C3.1,68.6,2.6,68.4,2,68.2z"/>
							<path class="st1" d="M2.2,67.6c-0.1,0-2.4-1.3-1.3-2.5c1.1-1.2,2.3,0.9,2.4,1.2c0.3,0.6,0.5,1.3,0.7,1.9
								C3.3,68,2.7,67.8,2.2,67.6z"/>
							<path class="st1" d="M23.4,63.4L23,60.1l-2.3,0.8C20.6,60.9,22.8,60.5,23.4,63.4z"/>
							<path class="st1" d="M16.2,52.7l2.8,1.7l-1.6,1.8C17.5,56.2,18.7,54.5,16.2,52.7z"/>
							<path class="st1" d="M23.1,65.3l-1.6,2.9l-1.8-1.5C19.6,66.6,21.4,67.7,23.1,65.3z"/>
							<path class="st1" d="M12.6,72.6l3.2-0.5l-0.9-2.3C14.9,69.8,15.4,71.9,12.6,72.6z"/>
							<path class="st1" d="M3.2,61.7l0.5,3.2l2.3-0.8C5.9,64.1,3.9,64.6,3.2,61.7z"/>
							<path class="st1" d="M10.4,72.3l-2.9-1.6l1.6-1.8C9.2,68.8,8,70.6,10.4,72.3z"/>
							<path class="st1" d="M3.6,59.4l1.7-2.9l1.8,1.6C7.1,58.1,5.3,56.9,3.6,59.4z"/>
							<path class="st1" d="M14.3,52.2L11,52.7l0.8,2.3C11.9,55,11.4,52.9,14.3,52.2z"/>
							<path class="st1" d="M25.5,62c1.3,0.5,2,2,1.5,3.3c-0.3,0.9-1.2,1.6-2.1,1.7c-0.2,0-0.3,0-0.5,0c0.4,1.5,0.7,3.2,0.9,3.9
								c-0.5-3.9,3.4-5.6,3.4-5.6l0,0c0,0-2.8-3.2-0.7-6.5C27.2,59.8,26.4,60.9,25.5,62z"/>
							<path class="st1" d="M15.7,51.5c0-0.1,0.6-1.1-0.2-1.3c-0.7-0.2-0.6,0.9-0.6,1c0.1,0.3,0.1,0.6,0.2,0.9
								C15.4,52,15.6,51.7,15.7,51.5z"/>
							<path class="st1" d="M18.1,51.2c0-1.4-1.1-2.6-2.6-2.6c-1,0-1.8,0.5-2.3,1.4c-0.1,0.1-0.1,0.3-0.2,0.4
								c-1.2-0.9-2.7-1.8-3.3-2.3c3.4,1.9,6.5-1,6.5-1l0,0c0,0,2,3.8,5.8,3C21.3,50.2,19.6,50.6,18.1,51.2z"/>
							<path class="st1" d="M2.2,60.8c-0.1,0-1.2,0.1-1.1-0.6C1.2,59.5,2.2,60,2.3,60c0.2,0.2,0.5,0.3,0.7,0.5
								C2.8,60.6,2.5,60.7,2.2,60.8z"/>
							<path class="st1" d="M1,62.9c-1.4-0.4-2.1-1.9-1.7-3.2c0.3-1,1.2-1.7,2.3-1.8c0.2,0,0.3,0,0.5,0c-0.4-1.5-0.8-3.2-0.9-3.9
								c0.5,3.9-3.3,5.7-3.3,5.7l0,0c0,0,2.8,3.2,0.7,6.5C-1,65.5,0,64.1,1,62.9z"/>
							<path class="st1" d="M10.9,73.3c0,0.1-0.6,1.1,0.2,1.3c0.7,0.2,0.6-0.9,0.6-1c-0.1-0.3-0.2-0.9-0.2-0.9
								C11.2,72.9,11,73.1,10.9,73.3z"/>
							<path class="st1" d="M8.5,73.7c0,1.4,1.1,2.6,2.5,2.6c1,0,1.9-0.5,2.3-1.4c0.1-0.1,0.1-0.3,0.2-0.4c1.3,0.9,2.7,1.8,3.4,2.3
								c-3.4-1.9-6.5,1.1-6.5,1.1l0,0c0,0-2-3.8-5.8-3C5.3,74.6,7,74.2,8.5,73.7z"/>
							<circle class="st1" cx="16.6" cy="45" r="1.2"/>
							<circle class="st1" cx="30.8" cy="65.9" r="1.2"/>
							<circle class="st1" cx="10.2" cy="79.9" r="1.2"/>
							<circle class="st1" cx="-4.3" cy="59.2" r="1.2"/>
							<path class="st1" d="M55.9,58.2c-0.5-0.1-4.9-0.2-6.7-0.6c1.4-0.3,4-1,4.3-1.1c0.2,0,0.3-0.2,0.3-0.3c0-0.2-0.2-0.3-0.3-0.3
								c-1.5,0-3.1,0.1-4.6,0.3c1.3-0.9,4.7-2,5.6-2.6s0.3,2.2,1.7,1.3c0.5-0.3-0.6-2.4-1-3c-0.4-0.6-1.9-2.4-2.4-2
								c-1.4,0.9,1.6,1.3,0.6,2c-1,0.7-3.5,3.1-4.8,4c0.7-1.2,2-3.7,2.2-3.9c0.1-0.1,0.1-0.3-0.1-0.4c0,0,0,0,0,0
								c-0.1-0.1-0.3,0-0.4,0.1c0,0,0,0,0,0c-0.2,0.2-1.9,2.3-2.7,3.5c0.3-1.8,2-5.9,2-6.4c0.1-0.6,0.3-1-0.8-1.2s-1.1,0.2-1.2,0.8
								c-0.1,0.5-0.1,4.9-0.4,6.7c-0.3-1.4-0.7-2.9-1.2-4.3c0-0.2-0.2-0.3-0.3-0.3c0,0,0,0,0,0c-0.2,0-0.3,0.1-0.3,0.3c0,0,0,0,0,0
								c0,0.2,0.2,3,0.5,4.5c-0.9-1.3-2.2-4.6-2.8-5.6c-0.6-0.9,2.2-0.3,1.3-1.7c-0.4-0.5-2.1,0.4-3,1l0,0c-0.9,0.6-2.3,1.8-2,2.4
								c0.9,1.4,1.3-1.6,2-0.6c0.7,1,3.2,3.5,4.1,4.7c-1.2-0.7-3.7-2-4-2.1c-0.1-0.1-0.3-0.1-0.4,0.1c0,0,0,0,0,0
								c-0.1,0.1,0,0.3,0.1,0.4c0,0,0,0,0,0c1.1,1,2.3,1.9,3.5,2.7c-1.8-0.3-5.9-2-6.4-2.1c-0.6-0.1-1-0.3-1.2,0.8
								c-0.2,1.1,0.2,1.1,0.8,1.2c0.5,0.1,4.9,0.2,6.7,0.5c-1.4,0.3-4.1,1.1-4.3,1.1c-0.2,0-0.3,0.2-0.3,0.3c0,0,0,0,0,0
								c0,0.2,0.2,0.3,0.3,0.3c0,0,0,0,0,0c0.2,0,3-0.2,4.5-0.4c-1.3,0.9-4.6,2.2-5.5,2.8s-0.3-2.2-1.7-1.3c-0.5,0.4,0.4,2.1,1,3
								l0,0c0.6,0.9,1.9,2.4,2.4,2c1.4-0.9-1.6-1.3-0.6-2s3.5-3.2,4.7-4c-0.7,1.2-2,3.7-2.1,3.9c-0.1,0.1,0,0.3,0.1,0.4c0,0,0,0,0,0
								c0.1,0.1,0.3,0,0.4-0.1c0,0,0,0,0,0c0.2-0.2,1.9-2.3,2.7-3.5c-0.3,1.8-1.9,5.9-2,6.4c-0.1,0.6-0.3,1,0.8,1.2s1.1-0.2,1.2-0.8
								c0.1-0.5,0.1-4.9,0.4-6.7c0.4,1.5,1.3,4,1.3,4.3c0,0.3,0.3,0.3,0.3,0.3c0.2,0,0.3-0.2,0.3-0.3c0,0,0,0,0,0
								c0-0.3-0.3-3-0.5-4.5c0.9,1.3,2.3,4.6,2.9,5.5c0.6,0.9-2.2,0.3-1.3,1.7c0.4,0.5,2.1-0.4,3-1l0,0c0.9-0.6,2.4-1.8,2-2.4
								c-0.9-1.4-1.3,1.6-2,0.6s-3.3-3.4-4.2-4.6c1.3,0.8,3.9,1.9,4.1,2c0.1,0.1,0.3,0,0.4-0.1c0,0,0,0,0,0c0.1-0.1,0-0.3-0.1-0.4
								c0,0,0,0,0,0c-0.2-0.2-2.3-1.9-3.6-2.6c1.8,0.3,6,1.9,6.4,2c0.6,0.1,1,0.3,1.2-0.8C57.1,58.4,56.6,58.3,55.9,58.2z
								 M46.5,59.3c-1-0.2-1.6-1.1-1.5-2.1s1.1-1.6,2.1-1.5c1,0.2,1.6,1.1,1.5,2.1c0,0,0,0,0,0C48.5,58.8,47.5,59.5,46.5,59.3
								L46.5,59.3z"/>
							<path class="st1" d="M51.7,68.5c-0.1,0.1-1.6,2.2-2.7,1c-1.1-1.2,1.3-2.2,1.5-2.2c0.7-0.2,2-0.4,2-0.4
								C52.3,67.4,52,68,51.7,68.5z"/>
							<path class="st1" d="M52.3,68.8c0,0.1-0.7,2.7,0.9,2.7c1.7,0.1,0.9-2.3,0.8-2.6c-0.3-0.7-0.9-1.8-0.9-1.8
								C52.8,67.7,52.5,68.2,52.3,68.8z"/>
							<path class="st1" d="M55.5,66.8c0.2,0,2.7,0.5,2,2c-0.7,1.5-2.5-0.2-2.7-0.4c-0.5-0.6-1.2-1.6-1.2-1.6
								C54.2,66.8,54.8,66.8,55.5,66.8z"/>
							<path class="st1" d="M55.5,66.1c0.2,0,2.7-0.4,2.1-1.9c-0.6-1.5-2.5,0.1-2.7,0.3c-0.5,0.6-1.3,1.6-1.3,1.6
								C54.3,66.2,54.9,66.2,55.5,66.1z"/>
							<path class="st1" d="M55.3,48.9c0-0.1-0.7-2.7-2.2-1.9c-1.5,0.8,0.4,2.5,0.6,2.6c0.6,0.5,1.7,1.1,1.7,1.1
								C55.4,50.1,55.4,49.5,55.3,48.9z"/>
							<path class="st1" d="M55.9,48.9c0-0.1,0.3-2.7,1.8-2.2c1.6,0.5,0,2.5-0.2,2.7c-0.5,0.5-1.5,1.4-1.5,1.4
								C56,50.1,55.9,49.5,55.9,48.9z"/>
							<path class="st1" d="M58.2,51.8c0.2,0,2.7,0.5,2.6-1.1c-0.1-1.7-2.4-0.7-2.6-0.6c-0.7,0.3-1.7,1-1.7,1
								C57,51.4,57.6,51.7,58.2,51.8z"/>
							<path class="st1" d="M57.8,52.6c0.1,0.1,2.1,1.8,0.8,2.8c-1.3,1-2.1-1.4-2.1-1.7c-0.2-0.7-0.3-2-0.3-2
								C56.8,51.9,57.3,52.2,57.8,52.6z"/>
							<path class="st1" d="M57.8,59.1c0.1,0,1.2-0.1,1.1,0.6c-0.1,0.7-1.1,0.2-1.2,0.2c-0.2-0.2-0.5-0.3-0.7-0.5
								C57.2,59.3,57.5,59.2,57.8,59.1z"/>
							<path class="st1" d="M41.9,46.4c0.1-0.1,1.6-2.2,2.7-1c1.1,1.2-1.3,2.1-1.5,2.2c-0.7,0.2-2,0.4-2,0.4
								C41.3,47.4,41.6,46.9,41.9,46.4z"/>
							<path class="st1" d="M41.3,46.1c0.1-0.1,0.8-2.6-0.9-2.7c-1.7-0.1-0.9,2.3-0.8,2.6c0.3,0.7,0.9,1.8,0.9,1.8
								C40.8,47.2,41.1,46.7,41.3,46.1z"/>
							<path class="st1" d="M38.1,48.1c-0.2,0-2.7-0.5-2-2c0.7-1.5,2.5,0.2,2.7,0.4c0.5,0.6,1.2,1.6,1.2,1.6
								C39.4,48.1,38.8,48.1,38.1,48.1z"/>
							<path class="st1" d="M38.1,48.7c-0.2,0-2.7,0.4-2.1,1.9s2.5-0.1,2.7-0.3c0.5-0.5,0.9-1,1.3-1.6
								C39.4,48.7,38.7,48.7,38.1,48.7z"/>
							<path class="st1" d="M38.4,66.1c0,0.1,0.8,2.6,2.2,1.8c1.4-0.8-0.5-2.5-0.7-2.6c-0.6-0.4-1.1-0.7-1.7-1
								C38.3,65,38.3,65.6,38.4,66.1z"/>
							<path class="st1" d="M37.8,66.2c0,0.2-0.2,2.7-1.8,2.2c-1.6-0.5-0.1-2.5,0.1-2.7c0.5-0.5,1-0.9,1.5-1.4
								C37.7,65,37.8,65.6,37.8,66.2z"/>
							<path class="st1" d="M35.4,63.3c-0.1,0-2.7-0.5-2.6,1.2c0.1,1.7,2.4,0.6,2.6,0.5c0.7-0.4,1.7-1.1,1.7-1.1
								C36.6,63.6,36,63.4,35.4,63.3z"/>
							<path class="st1" d="M35.6,62.7c-0.1-0.1-2.4-1.3-1.3-2.5c1.1-1.2,2.3,1,2.4,1.2c0.3,0.7,0.7,1.9,0.7,1.9
								C36.8,63.1,36.2,62.9,35.6,62.7z"/>
							<path class="st1" d="M56.9,58.4l-0.5-3.2L54.2,56C54.2,56,56.2,55.5,56.9,58.4z"/>
							<path class="st1" d="M49.7,47.8l2.8,1.6l-1.7,1.8C50.9,51.3,52.2,49.5,49.7,47.8z"/>
							<path class="st1" d="M56.6,60.3l-1.6,2.9l-1.8-1.6C53.1,61.6,54.9,62.8,56.6,60.3z"/>
							<path class="st1" d="M46,67.7l3.2-0.5l-0.9-2.3C48.4,64.9,48.9,67,46,67.7z"/>
							<path class="st1" d="M36.6,56.7l0.5,3.2l2.3-0.8C39.4,59.1,37.3,59.6,36.6,56.7z"/>
							<path class="st1" d="M43.9,67.3l-2.8-1.6l1.6-1.8C42.7,63.9,41.5,65.6,43.9,67.3z"/>
							<path class="st1" d="M37.1,54.5l1.7-2.9l1.8,1.6C40.6,53.2,38.8,52,37.1,54.5z"/>
							<path class="st1" d="M47.8,47.3l-3.2,0.5l0.8,2.3C45.3,50,44.8,48,47.8,47.3z"/>
							<path class="st1" d="M59,57c1.4,0.4,2.1,1.9,1.7,3.2c-0.3,1-1.2,1.7-2.3,1.8c-0.2,0-0.3,0-0.5,0c0.4,1.5,0.8,3.2,0.9,3.9
								c-0.5-3.9,3.3-5.7,3.3-5.7l0,0c0,0-2.8-3.2-0.7-6.5C61,54.5,60,55.9,59,57z"/>
							<path class="st1" d="M49.2,46.6c0-0.1,0.6-1.1-0.1-1.3s-0.6,0.9-0.6,1c0.1,0.3,0.2,0.9,0.2,0.9C48.9,47,49.1,46.8,49.2,46.6z
								"/>
							<path class="st1" d="M51.6,46.2c0-1.4-1.1-2.6-2.5-2.6c-1.1,0-2.2,0.7-2.5,1.8c-1.2-0.9-2.7-1.9-3.3-2.3c3.4,1.9,6.5-1,6.5-1
								l0,0c0,0,2,3.8,5.8,3C54.8,45.3,53.1,45.7,51.6,46.2z"/>
							<path class="st1" d="M35.7,55.8c-0.1,0-1.2,0.1-1.1-0.6c0.1-0.7,1.1-0.2,1.2-0.2c0.2,0.2,0.5,0.3,0.7,0.5
								C36.2,55.7,36,55.8,35.7,55.8z"/>
							<path class="st1" d="M34.5,58c-1.4-0.4-2.1-1.9-1.7-3.2c0.3-1,1.2-1.7,2.3-1.8c0.2,0,0.3,0,0.5,0c-0.4-1.5-0.8-3.2-0.9-3.9
								c0.5,3.9-3.3,5.7-3.3,5.7l0,0c0,0,2.8,3.2,0.7,6.5C32.8,60.1,33.6,59,34.5,58z"/>
							<path class="st1" d="M44.3,68.4c0,0.1-0.6,1.1,0.2,1.3s0.6-0.9,0.6-1c-0.1-0.3-0.1-0.6-0.2-0.9C44.6,68,44.5,68.2,44.3,68.4z
								"/>
							<path class="st1" d="M41.9,68.8c0,1.4,1.1,2.6,2.5,2.6c1,0,1.9-0.5,2.3-1.4c0.1-0.1,0.1-0.3,0.2-0.4c1.2,0.9,2.7,1.8,3.3,2.3
								c-3.4-1.9-6.5,1-6.5,1l0,0c0,0-2-3.8-5.8-3C38.8,69.7,40.4,69.3,41.9,68.8z"/>
							<circle class="st1" cx="50" cy="40.1" r="1.2"/>
							<circle class="st1" cx="64.3" cy="60.9" r="1.2"/>
							<circle class="st1" cx="43.7" cy="75" r="1.2"/>
							<circle class="st1" cx="29.1" cy="54.3" r="1.2"/>
							<path class="st1" d="M60.8,91.3c-0.5-0.1-4.9-0.2-6.7-0.6c1.4-0.3,4-1,4.3-1.1c0.2,0,0.3-0.2,0.3-0.3c0-0.2-0.2-0.3-0.3-0.3
								c-1.5,0-3.1,0.1-4.6,0.3c1.3-0.9,4.7-2,5.6-2.6c0.9-0.6,0.3,2.2,1.7,1.3c0.5-0.3-0.6-2.4-1-3c-0.4-0.6-1.9-2.4-2.4-2
								c-1.4,0.9,1.6,1.3,0.6,2c-1,0.7-3.5,3.1-4.8,4c0.7-1.2,2-3.7,2.2-3.9c0.1-0.1,0.1-0.3-0.1-0.4c0,0,0,0,0,0
								c-0.1-0.1-0.3,0-0.4,0.1c0,0,0,0,0,0c-1,1.1-1.9,2.3-2.7,3.5c0.3-1.8,1.9-5.9,2-6.4c0.1-0.6,0.3-1-0.8-1.2
								c-1.1-0.2-1.1,0.2-1.2,0.8c-0.1,0.5-0.1,4.9-0.4,6.7c-0.3-1.4-0.7-2.9-1.2-4.3c0-0.2-0.2-0.3-0.4-0.2c-0.2,0-0.3,0.1-0.3,0.3
								c0,0,0,0,0,0c0,0.2,0.2,3,0.5,4.5c-0.9-1.3-2.2-4.6-2.8-5.6c-0.6-0.9,2.2-0.3,1.3-1.7c-0.4-0.5-2.1,0.4-3,1l0,0
								c-0.9,0.6-2.4,1.8-2,2.4c0.9,1.4,1.3-1.6,2-0.6c0.7,1,3.2,3.5,4.1,4.7c-1.3-0.8-3.7-2-4-2.1c-0.1-0.1-0.3-0.1-0.4,0.1
								c0,0,0,0,0,0c-0.1,0.1,0,0.3,0.1,0.4c0,0,0,0,0,0c1.1,1,2.3,1.9,3.6,2.7c-1.8-0.3-5.9-2-6.4-2.1c-0.6-0.1-1-0.3-1.2,0.8
								c-0.2,1.1,0.2,1.1,0.8,1.2c0.5,0.1,4.9,0.2,6.7,0.5c-1.4,0.3-4.1,1.1-4.3,1.1c-0.2,0-0.3,0.2-0.3,0.3c0,0,0,0,0,0
								c0,0.2,0.2,0.3,0.3,0.3c0,0,0,0,0,0c0.2,0,3-0.2,4.5-0.4c-1.3,0.9-4.6,2.2-5.5,2.8c-0.9,0.6-0.3-2.2-1.7-1.3
								c-0.5,0.4,0.4,2.1,1,3l0,0c0.6,0.9,1.9,2.4,2.4,2c1.4-0.9-1.6-1.3-0.6-2s3.5-3.2,4.7-4c-0.8,1.2-2,3.7-2.1,3.9
								c-0.1,0.1,0,0.3,0.1,0.4c0,0,0,0,0,0c0.1,0.1,0.3,0,0.4-0.1c0,0,0,0,0,0c0.1-0.2,1.9-2.3,2.7-3.5c-0.3,1.8-1.9,5.9-2,6.4
								c-0.1,0.6-0.3,1,0.8,1.2c1.1,0.2,1.1-0.2,1.2-0.8c0.1-0.5,0.1-4.9,0.4-6.7c0.3,1.4,1.1,4,1.2,4.3c0,0.2,0.2,0.3,0.3,0.3
								c0,0,0,0,0,0c0.2,0,0.3-0.2,0.3-0.3c0,0,0,0,0,0c0-0.3-0.3-3-0.5-4.5c0.9,1.3,2.3,4.6,2.9,5.5c0.6,0.9-2.2,0.3-1.3,1.7
								c0.4,0.5,2.1-0.4,3-1l0,0c0.9-0.6,2.4-1.8,2-2.4c-0.9-1.4-1.3,1.6-2,0.6c-0.7-1-3.3-3.4-4.2-4.6c1.3,0.7,3.9,1.9,4,2
								c0.1,0.1,0.3,0,0.4-0.1c0.1-0.1,0-0.3-0.1-0.4c-0.2-0.2-2.3-1.9-3.6-2.6c1.8,0.3,6,1.9,6.4,2c0.6,0.1,1,0.3,1.2-0.8
								C61.8,91.5,61.5,91.4,60.8,91.3z M51.4,92.4c-1-0.2-1.6-1.1-1.5-2.1c0.2-1,1.1-1.6,2.1-1.5c1,0.2,1.6,1.1,1.5,2.1
								c0,0,0,0,0,0C53.4,91.9,52.4,92.6,51.4,92.4C51.4,92.4,51.4,92.4,51.4,92.4z"/>
							<path class="st1" d="M56.6,101.6c-0.1,0.1-1.6,2.2-2.7,1s1.3-2.2,1.5-2.2c0.7-0.2,1.3-0.3,2-0.4
								C57.2,100.5,56.9,101.1,56.6,101.6z"/>
							<path class="st1" d="M57.2,101.9c0,0.1-0.7,2.7,0.9,2.7c1.7,0.1,0.9-2.3,0.8-2.6c-0.3-0.7-0.9-1.8-0.9-1.8
								C57.7,100.7,57.4,101.3,57.2,101.9z"/>
							<path class="st1" d="M60.3,99.9c0.2,0,2.7,0.5,2,2c-0.7,1.6-2.5-0.2-2.7-0.4c-0.5-0.6-1.2-1.6-1.2-1.6
								C59.1,99.8,59.7,99.8,60.3,99.9z"/>
							<path class="st1" d="M60.3,99.2c0.2,0,2.7-0.4,2.1-2c-0.6-1.5-2.5,0.1-2.7,0.3c-0.5,0.6-1.3,1.6-1.3,1.6
								C59.1,99.3,59.7,99.3,60.3,99.2z"/>
							<path class="st1" d="M60.1,82c0-0.1-0.7-2.7-2.2-1.9c-1.5,0.8,0.4,2.5,0.6,2.6c0.5,0.4,1.1,0.8,1.7,1.1
								C60.3,83.2,60.2,82.6,60.1,82z"/>
							<path class="st1" d="M60.8,82c0-0.2,0.3-2.7,1.8-2.2s0,2.5-0.2,2.7C62,83,61,83.8,61,83.8C60.9,83.2,60.8,82.6,60.8,82z"/>
							<path class="st1" d="M63.1,85c0.2,0,2.7,0.5,2.6-1.1c-0.1-1.7-2.4-0.7-2.6-0.6c-0.7,0.4-1.7,1-1.7,1
								C61.9,84.5,62.5,84.8,63.1,85z"/>
							<path class="st1" d="M62.7,85.7c0.1,0.1,2.1,1.8,0.8,2.8s-2-1.4-2.1-1.7c-0.2-0.7-0.3-2-0.3-2C61.7,85.1,62.2,85.4,62.7,85.7
								z"/>
							<path class="st1" d="M62.6,92.2c0.1,0,1.2-0.1,1.1,0.6c-0.1,0.7-1.1,0.2-1.2,0.2c-0.2-0.2-0.5-0.3-0.7-0.5
								C62.1,92.4,62.4,92.3,62.6,92.2z"/>
							<path class="st1" d="M46.8,79.5c0.1-0.1,1.6-2.2,2.7-0.9c1.1,1.3-1.3,2.2-1.5,2.2c-0.7,0.2-2,0.4-2,0.4
								C46.2,80.6,46.5,80,46.8,79.5z"/>
							<path class="st1" d="M46.2,79.2c0-0.1,0.8-2.7-0.9-2.7c-1.7-0.1-0.9,2.3-0.8,2.6c0.3,0.7,0.9,1.8,0.9,1.8
								C45.7,80.3,46,79.8,46.2,79.2z"/>
							<path class="st1" d="M43,81.2c-0.2,0-2.7-0.5-2-2c0.7-1.5,2.5,0.2,2.7,0.4c0.4,0.5,0.8,1.1,1.2,1.6
								C44.2,81.2,43.6,81.2,43,81.2z"/>
							<path class="st1" d="M43,81.8c-0.1,0-2.7,0.4-2.1,1.9c0.6,1.5,2.5-0.1,2.7-0.3c0.5-0.5,1.3-1.6,1.3-1.6
								C44.2,81.8,43.6,81.8,43,81.8z"/>
							<path class="st1" d="M43.3,99.2c0,0.2,0.8,2.6,2.2,1.8s-0.5-2.5-0.7-2.6c-0.6-0.4-1.7-1-1.7-1C43.1,98.1,43.2,98.7,43.3,99.2
								z"/>
							<path class="st1" d="M42.6,99.3c0,0.2-0.2,2.7-1.8,2.2c-1.6-0.5,0-2.5,0.1-2.7c0.5-0.6,1.5-1.4,1.5-1.4
								C42.5,98.1,42.6,98.7,42.6,99.3z"/>
							<path class="st1" d="M40.3,96.4c-0.2,0-2.7-0.5-2.6,1.2s2.4,0.6,2.6,0.5C41,97.7,42,97,42,97C41.5,96.7,40.9,96.5,40.3,96.4z
								"/>
							<path class="st1" d="M40.5,95.8c-0.1-0.1-2.4-1.3-1.3-2.5s2.3,0.9,2.4,1.2c0.3,0.6,0.5,1.3,0.7,1.9
								C41.7,96.2,41.1,96,40.5,95.8z"/>
							<path class="st1" d="M61.8,91.5l-0.5-3.2L59,89.1C59,89.1,61.1,88.6,61.8,91.5z"/>
							<path class="st1" d="M54.6,80.9l2.8,1.7l-1.6,1.8C55.8,84.3,57,82.6,54.6,80.9z"/>
							<path class="st1" d="M61.4,93.4l-1.6,2.9L58,94.7C58,94.7,59.8,95.9,61.4,93.4z"/>
							<path class="st1" d="M50.9,100.8l3.2-0.5L53.3,98C53.3,98,53.8,100.1,50.9,100.8z"/>
							<path class="st1" d="M41.5,89.8l0.5,3.2l2.3-0.8C44.3,92.2,42.2,92.7,41.5,89.8z"/>
							<path class="st1" d="M48.8,100.4l-2.8-1.6l1.6-1.8C47.5,97,46.3,98.7,48.8,100.4z"/>
							<path class="st1" d="M41.9,87.5l1.7-2.8l1.8,1.6C45.4,86.4,43.7,85.1,41.9,87.5z"/>
							<path class="st1" d="M52.6,80.4l-3.2,0.5l0.8,2.3C50.2,83.1,49.7,81,52.6,80.4z"/>
							<path class="st1" d="M63.8,90.1c1.4,0.4,2.1,1.9,1.7,3.2c-0.3,1-1.2,1.7-2.3,1.8c-0.2,0-0.3,0-0.5,0c0.4,1.5,0.7,3.2,0.9,3.9
								c-0.5-3.9,3.4-5.7,3.4-5.7l0,0c0,0-2.8-3.2-0.7-6.5C65.9,87.5,64.9,88.9,63.8,90.1z"/>
							<path class="st1" d="M54.1,79.7c0-0.1,0.6-1.1-0.1-1.3c-0.7-0.2-0.6,0.9-0.6,1c0.1,0.3,0.1,0.6,0.2,0.9
								C53.8,80.1,53.9,79.9,54.1,79.7z"/>
							<path class="st1" d="M56.5,79.3c0-1.4-1.1-2.6-2.5-2.6c-1,0-1.9,0.5-2.3,1.4c-0.1,0.1-0.1,0.3-0.2,0.4
								c-1.2-0.9-2.7-1.8-3.3-2.3c3.4,1.9,6.5-1,6.5-1l0,0c0,0,2,3.8,5.8,3C59.6,78.4,58,78.8,56.5,79.3z"/>
							<path class="st1" d="M40.6,88.9c-0.1,0-1.2,0.1-1.1-0.6c0.1-0.7,1.1-0.2,1.2-0.2c0.2,0.2,0.5,0.3,0.7,0.5
								C41.1,88.8,40.8,88.9,40.6,88.9z"/>
							<path class="st1" d="M39.4,91.1c-1.4-0.4-2.1-1.9-1.7-3.2c0.3-1,1.2-1.7,2.3-1.8c0.2,0,0.3,0,0.5,0c-0.4-1.5-0.8-3.2-0.9-3.9
								c0.5,3.9-3.3,5.7-3.3,5.7l0,0c0,0,2.8,3.2,0.7,6.5C37.4,93.6,38.3,92.3,39.4,91.1z"/>
							<path class="st1" d="M49.2,101.5c0,0-0.6,1.1,0.2,1.3c0.7,0.2,0.6-0.9,0.6-1c-0.1-0.3-0.1-0.6-0.2-0.9
								C49.5,101.1,49.4,101.3,49.2,101.5z"/>
							<path class="st1" d="M46.8,101.9c0,1.4,1.1,2.6,2.5,2.6c1,0,1.9-0.5,2.3-1.4c0.1-0.1,0.1-0.3,0.2-0.4
								c1.2,0.9,2.7,1.8,3.3,2.3c-3.4-1.9-6.5,1.1-6.5,1.1l0,0c0,0-2-3.8-5.8-3C43.7,102.8,45.3,102.4,46.8,101.9z"/>
							<circle class="st1" cx="54.9" cy="73.2" r="1.2"/>
							<circle class="st1" cx="69.2" cy="94" r="1.2"/>
							<circle class="st1" cx="48.5" cy="108.1" r="1.2"/>
							<circle class="st1" cx="34" cy="87.4" r="1.2"/>
							<path class="st1" d="M27.4,96.2c-0.5-0.1-4.9-0.2-6.7-0.6c1.4-0.3,4-1,4.3-1.1c0.2,0,0.3-0.2,0.3-0.3c0,0,0,0,0,0
								c0-0.2-0.2-0.3-0.3-0.3c0,0,0,0,0,0c-1.5,0-3.1,0.1-4.6,0.3c1.3-0.9,4.7-2,5.6-2.6c0.9-0.6,0.3,2.2,1.7,1.3
								c0.5-0.3-0.6-2.4-1-3s-1.9-2.4-2.4-2c-1.4,0.9,1.6,1.3,0.6,2c-1,0.7-3.5,3.1-4.8,4c0.7-1.2,2-3.7,2.2-3.9
								c0.1-0.1,0-0.3-0.1-0.4c0,0,0,0,0,0c-0.1-0.1-0.3,0-0.4,0.1c0,0,0,0,0,0c-0.2,0.2-1.9,2.3-2.7,3.5c0.3-1.8,1.9-5.9,2-6.4
								c0.1-0.6,0.3-1-0.8-1.2c-1.1-0.2-1.1,0.2-1.2,0.8c-0.1,0.5-0.1,4.9-0.4,6.7c-0.3-1.4-1.2-4-1.2-4.3c0-0.2-0.2-0.3-0.3-0.3
								c-0.2,0-0.3,0.1-0.3,0.3c0,0,0,0,0,0c0,0.2,0.2,3,0.5,4.5c-0.9-1.3-2.2-4.6-2.8-5.6c-0.6-0.9,2.2-0.3,1.3-1.7
								c-0.4-0.5-2.1,0.4-3,1l0,0c-0.9,0.6-2.4,1.8-2,2.4c0.9,1.4,1.3-1.6,2-0.6s3.2,3.5,4.1,4.7c-1.3-0.7-3.8-2-4-2.1
								c-0.1-0.1-0.3,0-0.4,0.1c0,0,0,0,0,0c-0.1,0.1,0,0.3,0.1,0.4c0,0,0,0,0,0c1.1,1,2.3,1.9,3.6,2.7c-1.8-0.3-5.9-2-6.4-2.1
								c-0.6-0.1-1-0.3-1.2,0.8c-0.2,1.1,0.2,1.1,0.8,1.2c0.5,0.1,4.9,0.2,6.7,0.5c-1.4,0.3-4.1,1.1-4.3,1.1c-0.2,0-0.3,0.2-0.3,0.3
								c0,0,0,0,0,0c0,0.2,0.2,0.3,0.3,0.3c0,0,0,0,0,0c0.2,0,3-0.2,4.5-0.4c-1.3,0.9-4.6,2.2-5.5,2.8c-0.9,0.6-0.3-2.2-1.7-1.3
								c-0.5,0.4,0.4,2.1,1,3l0,0c0.6,0.9,1.9,2.4,2.4,2c1.4-0.9-1.6-1.3-0.6-2s3.4-3.2,4.7-4c-0.8,1.2-2,3.7-2.1,3.9
								c-0.1,0.1-0.1,0.3,0.1,0.4c0,0,0,0,0,0c0.1,0.1,0.3,0,0.4-0.1c0,0,0,0,0,0c0.2-0.2,1.9-2.3,2.7-3.5c-0.3,1.8-1.9,5.9-2,6.4
								c-0.1,0.6-0.3,1,0.8,1.2s1.1-0.2,1.2-0.8c0.1-0.5,0.1-4.9,0.4-6.7c0.3,1.4,0.7,2.9,1.2,4.3c0,0.2,0.2,0.3,0.3,0.3
								c0.2,0,0.3-0.1,0.3-0.3c0,0,0,0,0,0c0-0.3-0.3-3-0.5-4.5c0.9,1.3,2.3,4.6,2.9,5.5c0.6,0.9-2.2,0.3-1.3,1.7
								c0.4,0.5,2.1-0.4,3-1l0,0c0.9-0.6,2.4-1.8,2-2.4c-0.9-1.4-1.3,1.6-2,0.6s-3.3-3.4-4.2-4.6c1.2,0.8,3.8,1.9,4,2
								c0.1,0.1,0.3,0,0.4-0.1c0,0,0,0,0,0c0.1-0.1,0-0.3-0.1-0.4c0,0,0,0,0,0c-0.2-0.2-2.3-1.9-3.6-2.6c1.8,0.3,6,1.9,6.4,2
								c0.6,0.1,1,0.3,1.2-0.8C28.3,96.4,28,96.4,27.4,96.2z M17.9,97.3c-1-0.2-1.6-1.1-1.5-2.1s1.1-1.6,2.1-1.5
								c1,0.2,1.6,1.1,1.5,2.1c0,0,0,0,0,0C19.9,96.9,18.9,97.5,17.9,97.3z"/>
							<path class="st1" d="M26.7,87c0-0.2-0.7-2.7-2.2-1.9s0.4,2.5,0.6,2.6c0.6,0.5,1.7,1.1,1.7,1.1C26.8,88.2,26.8,87.6,26.7,87z"
								/>
							<path class="st1" d="M27.3,86.9c0-0.2,0.3-2.7,1.8-2.2c1.6,0.5,0,2.5-0.2,2.7c-0.5,0.6-1.5,1.4-1.5,1.4
								C27.4,88.1,27.4,87.5,27.3,86.9z"/>
							<path class="st1" d="M29.6,89.9c0.1,0,2.7,0.5,2.6-1.1c-0.1-1.7-2.4-0.7-2.6-0.6c-0.6,0.3-1.2,0.6-1.7,1
								C28.4,89.5,29,89.7,29.6,89.9z"/>
							<path class="st1" d="M29.2,90.6c0.1,0.1,2.1,1.8,0.8,2.8c-1.3,1-2-1.4-2.1-1.7c-0.2-0.7-0.3-2-0.3-2
								C28.2,90,28.7,90.3,29.2,90.6z"/>
							<path class="st1" d="M28.3,96.5l-0.5-3.2l-2.3,0.8C25.5,94.1,27.6,93.6,28.3,96.5z"/>
							<path class="st1" d="M21.1,85.8l2.8,1.7l-1.6,1.8C22.3,89.3,23.6,87.5,21.1,85.8z"/>
							<path class="st1" d="M19.2,85.3l-3.3,0.5l0.8,2.3C16.7,88.1,16.3,86,19.2,85.3z"/>
							<path class="st1" d="M30.4,95.1c1.3,0.5,2,2,1.5,3.3c-0.3,0.9-1.2,1.5-2.1,1.7c-0.2,0-0.3,0-0.5,0c0.4,1.5,0.7,3.2,0.9,3.9
								c-0.5-3.9,3.3-5.7,3.3-5.7l0,0c0,0-2.8-3.2-0.7-6.6C32.4,92.5,31.4,93.9,30.4,95.1z"/>
							<path class="st1" d="M20.6,84.6c0,0,0.6-1.1-0.2-1.3c-0.7-0.2-0.6,0.9-0.6,1c0.1,0.3,0.2,0.9,0.2,0.9
								C20.3,85.1,20.5,84.9,20.6,84.6z"/>
							<path class="st1" d="M23,84.3c0-1.4-1.1-2.6-2.6-2.6c-1,0-1.8,0.5-2.3,1.4c-0.1,0.1-0.1,0.3-0.2,0.4
								c-1.2-0.9-2.7-1.9-3.3-2.3c3.4,1.9,6.5-1,6.5-1l0,0c0,0,2,3.8,5.8,3C26.2,83.4,24.5,83.8,23,84.3z"/>
							<circle class="st1" cx="21.4" cy="78.1" r="1.2"/>
							
								<ellipse transform="matrix(0.9893 -0.1456 0.1456 0.9893 -11.354 3.1111)" class="st1" cx="15.6" cy="79.1" rx="3.7" ry="1.7"/>
							
								<ellipse transform="matrix(0.9893 -0.1456 0.1456 0.9893 -10.2655 7.9958)" class="st1" cx="49.5" cy="74.1" rx="3.7" ry="1.7"/>
							<ellipse transform="matrix(0.9855 -0.1697 0.1697 0.9855 -9.7443 5.9537)" class="st1" cx="30" cy="60" rx="1.7" ry="3.7"/>
							
								<ellipse transform="matrix(0.9855 -0.1697 0.1697 0.9855 -15.297 7.2618)" class="st1" cx="34.8" cy="93.1" rx="1.7" ry="3.7"/>
							<path class="st1" d="M26.4,78.1c-0.2,0-0.3-0.1-0.3-0.2c0,0,0,0,0,0c0-0.2,0.1-0.3,0.2-0.3c0,0,0,0,0,0
								c0.2,0,2.9-0.9,4.3-1.1c-1.7-0.2-3.4-0.4-5.2-0.4c0,0.5,0,1,0.1,1.5c0.1,0.9,0.4,1.7,0.8,2.5c1.4-0.7,3.6-1.6,4.6-2.3
								C29.5,78,26.6,78.1,26.4,78.1z"/>
							<path class="st1" d="M27.4,72.7c0.2,0.1,2.7,1.4,4,2.1c-0.7-1-2.5-2.8-3.5-4c-1.1,0.9-1.8,2.2-2.2,3.5c1.6,0.6,3.3,1.2,5,1.6
								c-1.2-0.8-2.4-1.7-3.6-2.7C27,73.1,27,73,27.1,72.8c0,0,0,0,0,0C27.1,72.7,27.3,72.6,27.4,72.7z"/>
							<path class="st1" d="M38.8,79.9c0.1,0.1,0.2,0.3,0.1,0.4c0,0,0,0,0,0c-0.1,0.1-0.3,0.2-0.4,0.1c0,0,0,0,0,0
								c-0.2-0.1-2.8-1.3-4-2c1,1.3,2.2,2.5,3.3,3.7c1-0.9,1.8-2,2.2-3.3c-1.6-0.6-3.2-1.1-4.8-1.5C36.4,78.1,38.6,79.8,38.8,79.9z"
								/>
							<path class="st1" d="M32.6,78.4c1,0.2,1.9-0.5,2.1-1.5c0.2-1-0.5-1.9-1.5-2.1c-1-0.2-1.9,0.5-2.1,1.5c0,0,0,0,0,0
								C31,77.2,31.6,78.2,32.6,78.4z"/>
							<path class="st1" d="M32.3,78.9c-0.8,1.2-2.5,3.3-2.7,3.5c-0.1,0.1-0.3,0.2-0.4,0.1c0,0,0,0,0,0c-0.1-0.1-0.2-0.2-0.1-0.4
								c0,0,0,0,0,0c0.1-0.2,1.4-2.7,2.1-3.9c-1,0.7-2.7,2.3-3.8,3.3c0.9,1,2.1,1.7,3.4,2.1C31.4,82.1,31.9,80.5,32.3,78.9z"/>
							<path class="st1" d="M31.8,74.5c-0.2-1.4-0.4-4.3-0.5-4.5c0-0.2,0.1-0.3,0.2-0.3c0,0,0,0,0,0c0.2,0,0.3,0.1,0.3,0.3
								c0,0,0,0,0,0c0.1,0.3,1,2.8,1.2,4.3c0.2-1.8,0.3-3.5,0.3-5.3c-0.6,0-1.1,0-1.7,0.1c-0.8,0.1-1.7,0.4-2.4,0.8
								C30.1,71.2,31.1,73.5,31.8,74.5z"/>
							<path class="st1" d="M34.1,78.7c0.2,1.4,0.5,4.2,0.5,4.5c0,0.2-0.1,0.3-0.2,0.3c0,0,0,0,0,0c-0.2,0-0.3-0.1-0.3-0.3
								c0,0,0,0,0,0c-0.5-1.4-0.9-2.8-1.2-4.3c-0.2,1.6-0.3,3.3-0.4,5c0.5,0,1.1,0,1.6-0.1c0.8-0.1,1.6-0.4,2.3-0.8
								C35.6,81.7,34.7,79.6,34.1,78.7z"/>
							<path class="st1" d="M33.6,74.3c0.8-1.2,2.5-3.3,2.7-3.5c0.1-0.1,0.3-0.2,0.4-0.1c0,0,0,0,0,0c0.1,0.1,0.2,0.2,0.1,0.4
								c0,0,0,0,0,0c-0.1,0.2-1.4,2.6-2.2,3.9c1-0.7,2.8-2.4,4-3.4c-0.9-1.1-2.1-1.9-3.5-2.3C34.6,70.9,34,72.6,33.6,74.3z"/>
							<path class="st1" d="M39.7,73.1c-1.6,0.6-3.2,1.3-4.7,2.2c1.5-0.2,3-0.3,4.6-0.3c0.2,0,0.3,0.1,0.3,0.2c0,0,0,0,0,0
								c0,0.2-0.1,0.3-0.3,0.3c0,0,0,0,0,0c-0.2,0.1-2.8,0.8-4.3,1.1c1.2,0.2,3.5,0.4,5,0.4c0.1-0.6,0.1-1.2,0-1.8
								C40.2,74.6,40,73.8,39.7,73.1z"/>
							<path class="st1" d="M22.3,63.2c-0.5-0.1-4.9-0.2-6.7-0.6c1.4-0.3,4-1,4.3-1.1c0.2,0,0.3-0.1,0.3-0.3c0-0.2-0.1-0.3-0.3-0.3
								c0,0,0,0-0.1,0c-1.5,0-3.1,0.1-4.6,0.3c1.3-0.9,4.7-2,5.6-2.6s0.3,2.2,1.7,1.3c0.5-0.3-0.6-2.4-1-3c-0.4-0.6-1.9-2.4-2.4-2
								c-1.4,0.9,1.6,1.3,0.6,2c-1,0.7-3.5,3.1-4.8,4c0.8-1.2,2-3.7,2.2-3.9c0.1-0.1,0-0.3-0.1-0.4c0,0,0,0,0,0
								c-0.1-0.1-0.3,0-0.4,0.1c0,0,0,0,0,0c-0.2,0.2-1.9,2.3-2.7,3.5c0.3-1.8,1.9-5.9,2-6.4c0.1-0.6,0.3-1-0.8-1.2
								s-1.1,0.2-1.2,0.8c-0.1,0.5-0.1,4.9-0.4,6.7c-0.3-1.4-0.7-2.9-1.2-4.3c0-0.2-0.2-0.3-0.3-0.3c-0.2,0-0.3,0.1-0.3,0.3
								c0,0,0,0,0,0c0,0.2,0.2,3,0.5,4.5c-0.9-1.3-2.2-4.6-2.8-5.6c-0.6-0.9,2.2-0.3,1.3-1.7c-0.4-0.5-2.1,0.4-3,1l0,0
								c-0.9,0.6-2.4,1.8-2,2.4c0.9,1.4,1.3-1.6,2-0.6c0.7,1,3.2,3.5,4.1,4.7c-1.2-0.7-3.7-2-4-2.1c-0.1-0.1-0.3,0-0.4,0.1
								c0,0,0,0,0,0c-0.1,0.1,0,0.3,0.1,0.4c0,0,0,0,0,0c1.1,1,2.3,1.9,3.5,2.7c-1.8-0.3-5.9-2-6.4-2.1c-0.6-0.1-1-0.3-1.2,0.8
								s0.2,1.1,0.8,1.2c0.5,0.1,4.9,0.2,6.7,0.5c-1.4,0.3-4.1,1.1-4.3,1.1c-0.2,0-0.3,0.2-0.3,0.3c0,0,0,0,0,0
								c0,0.2,0.2,0.3,0.3,0.3c0,0,0,0,0,0c0.2,0,3-0.2,4.5-0.4c-1.3,0.9-4.6,2.2-5.5,2.8s-0.3-2.2-1.7-1.3c-0.5,0.4,0.4,2.1,1,3
								l0,0c0.6,0.9,1.9,2.4,2.4,2c1.4-0.9-1.6-1.3-0.6-2c1-0.7,3.4-3.2,4.7-4c-0.7,1.2-2,3.7-2.1,3.9c-0.1,0.1,0,0.3,0.1,0.4
								c0,0,0,0,0,0c0.1,0.1,0.3,0,0.4-0.1c0,0,0,0,0,0c0.2-0.2,1.9-2.3,2.7-3.5c-0.3,1.8-1.9,5.9-2,6.4c-0.1,0.6-0.3,1,0.8,1.2
								s1.1-0.2,1.2-0.8c0.1-0.5,0.1-4.9,0.4-6.7c0.3,1.4,0.7,2.9,1.2,4.3c0,0.2,0.2,0.3,0.3,0.3c0.2,0,0.3-0.1,0.3-0.3c0,0,0,0,0,0
								c0-0.3-0.3-3-0.5-4.5c0.9,1.3,2.3,4.6,2.9,5.5c0.6,0.9-2.2,0.3-1.3,1.7c0.4,0.5,2.1-0.4,3-1l0,0c0.9-0.6,2.3-1.8,2-2.4
								c-0.9-1.4-1.3,1.6-2,0.6s-3.3-3.3-4.2-4.6c1.2,0.8,3.8,1.9,4.1,2c0.1,0.1,0.3,0,0.4-0.1c0,0,0,0,0,0c0.1-0.1,0-0.3-0.1-0.4
								c0,0,0,0,0,0c-0.2-0.2-2.3-1.9-3.6-2.6c1.8,0.3,6,1.9,6.5,2c0.6,0.1,1,0.3,1.2-0.8C23.3,63.3,23,63.3,22.3,63.2z M12.9,64.3
								c-1-0.2-1.6-1.1-1.5-2.1c0.2-1,1.1-1.6,2.1-1.5c1,0.2,1.6,1.1,1.5,2.1C14.9,63.8,13.9,64.4,12.9,64.3
								C12.9,64.3,12.9,64.3,12.9,64.3z"/>
							<path class="st1" d="M18.1,73.5c-0.1,0.1-1.6,2.2-2.7,1s1.2-2.2,1.5-2.2c0.7-0.2,2-0.4,2-0.4C18.7,72.4,18.4,72.9,18.1,73.5z
								"/>
							<path class="st1" d="M18.7,73.7c0,0.1-0.7,2.7,0.9,2.7c1.7,0.1,0.9-2.3,0.8-2.6c-0.3-0.7-0.9-1.8-0.9-1.8
								C19.2,72.6,18.9,73.2,18.7,73.7z"/>
							<path class="st1" d="M21.8,71.7c0.1,0,2.7,0.5,2,2c-0.7,1.5-2.5-0.2-2.7-0.4c-0.5-0.6-1.2-1.6-1.2-1.6
								C20.6,71.7,21.2,71.7,21.8,71.7z"/>
							<path class="st1" d="M21.8,71.1c0.2,0,2.7-0.4,2.1-1.9s-2.5,0.1-2.7,0.3C20.7,70,20,71.1,20,71.1
								C20.6,71.1,21.2,71.1,21.8,71.1z"/>
							<path class="st1" d="M24.1,64.1c0.1,0,1.2-0.1,1.1,0.6c-0.1,0.7-1.1,0.2-1.2,0.2c-0.3-0.2-0.7-0.5-0.7-0.5
								C23.6,64.2,23.9,64.2,24.1,64.1z"/>
							<path class="st1" d="M23.3,63.4l-0.5-3.2L20.5,61C20.5,61,22.6,60.5,23.3,63.4z"/>
							<path class="st1" d="M22.9,65.3l-1.6,2.9l-1.8-1.6C19.5,66.6,21.3,67.7,22.9,65.3z"/>
							<path class="st1" d="M12.4,72.6l3.2-0.5l-0.9-2.3C14.7,69.8,15.3,71.9,12.4,72.6z"/>
							<path class="st1" d="M25.3,62c1.3,0.5,2,2,1.5,3.3c-0.3,0.9-1.2,1.5-2.1,1.7c-0.2,0-0.3,0-0.5,0c0.4,1.5,0.7,3.2,0.9,3.9
								c-0.5-3.9,3.3-5.7,3.3-5.7l0,0c0,0-2.8-3.2-0.7-6.5C27,59.9,26.2,60.9,25.3,62z"/>
							<path class="st1" d="M8.3,73.7c0,1.4,1.1,2.6,2.5,2.6c1,0,1.9-0.5,2.3-1.4c0.1-0.1,0.1-0.3,0.2-0.4c1.1,0.8,2.2,1.6,3.4,2.3
								c-3.4-1.9-6.5,1.1-6.5,1.1l0,0c0,0-2-3.8-5.8-3C5.1,74.6,6.8,74.3,8.3,73.7z"/>
							<circle class="st1" cx="30.7" cy="65.9" r="1.2"/>
							<path class="st1" d="M27.2,96.3c-0.5-0.1-4.9-0.2-6.7-0.6c1.4-0.3,4-1,4.3-1.1c0.2,0,0.3-0.2,0.3-0.3c0-0.2-0.2-0.3-0.3-0.3
								l0,0c-1.5,0-3.1,0.1-4.6,0.3c1.3-0.9,4.7-2,5.6-2.6s0.3,2.2,1.7,1.3c0.5-0.3-0.6-2.4-1-3c-0.4-0.6-1.9-2.4-2.4-2
								c-1.4,0.9,1.6,1.3,0.6,2s-3.5,3.1-4.8,4c0.8-1.2,2-3.7,2.2-3.9c0.1-0.1,0-0.3-0.1-0.4c0,0,0,0,0,0c-0.1-0.1-0.3,0-0.4,0.1
								c0,0,0,0,0,0c-0.2,0.2-1.9,2.3-2.7,3.5c0.3-1.8,2-5.9,2-6.4c0.1-0.6,0.3-1-0.8-1.2c-1.1-0.2-1.1,0.2-1.2,0.8
								c-0.1,0.5-0.1,4.9-0.4,6.7c-0.3-1.4-0.7-2.9-1.2-4.3c-0.1-0.3-0.3-0.3-0.3-0.3c-0.2,0-0.3,0.2-0.3,0.3c0,0,0,0,0,0
								c0,0.2,0.2,3,0.5,4.5c-0.9-1.3-2.2-4.6-2.8-5.6c-0.6-0.9,2.2-0.3,1.3-1.7c-0.4-0.5-2.1,0.4-3,1l0,0c-0.9,0.6-2.4,1.8-2,2.4
								c0.9,1.4,1.3-1.6,2-0.6c0.7,1,3.3,3.5,4.2,4.8c-1.2-0.7-3.7-2-4-2.1c-0.1-0.1-0.3,0-0.4,0.1c0,0,0,0,0,0
								c-0.1,0.1,0,0.3,0.1,0.4c0,0,0,0,0,0c1.1,1,2.3,1.9,3.5,2.7c-1.8-0.3-5.9-2-6.4-2.1c-0.6-0.1-1-0.3-1.2,0.8
								c-0.2,1.1,0.2,1.1,0.8,1.2c0.5,0.1,4.9,0.2,6.7,0.5c-1.4,0.3-4.1,1.1-4.3,1.1c-0.2,0-0.3,0.2-0.3,0.3c0,0,0,0,0,0
								c0,0.2,0.2,0.3,0.3,0.3c0,0,0,0,0,0c0.2,0,3-0.2,4.5-0.4c-1.3,0.9-4.6,2.2-5.5,2.8s-0.3-2.2-1.7-1.3c-0.5,0.4,0.4,2.1,1,3
								l0,0c0.6,0.9,1.9,2.4,2.4,2c1.4-0.9-1.6-1.3-0.6-2c1-0.7,3.5-3.2,4.7-4c-0.7,1.2-2,3.7-2.1,3.9c-0.1,0.1,0,0.3,0.1,0.4
								c0,0,0,0,0,0c0.1,0.1,0.3,0,0.4-0.1c0,0,0,0,0,0c0.2-0.2,1.9-2.3,2.7-3.5c-0.3,1.8-1.9,5.9-2,6.4c-0.1,0.6-0.3,1,0.8,1.2
								c1.1,0.2,1.1-0.2,1.2-0.8c0.1-0.5,0.1-4.9,0.4-6.7c0.3,1.4,0.7,2.9,1.2,4.3c0,0.2,0.2,0.3,0.3,0.3c0.2,0,0.3-0.2,0.3-0.3
								c0,0,0,0,0,0c0-0.3-0.3-3-0.5-4.5c0.9,1.3,2.3,4.6,2.9,5.5c0.6,0.9-2.2,0.3-1.3,1.7c0.4,0.5,2.1-0.4,3-1l0,0
								c0.9-0.6,2.4-1.8,2-2.4c-0.9-1.4-1.3,1.6-2,0.6s-3.3-3.4-4.2-4.6c1.3,0.8,3.9,1.9,4.1,2c0.1,0.1,0.3,0,0.4-0.1c0,0,0,0,0,0
								c0.1-0.1,0-0.3-0.1-0.4c0,0,0,0,0,0c-0.2-0.2-2.3-1.9-3.6-2.6c1.8,0.3,6,1.9,6.5,2c0.6,0.1,1,0.3,1.2-0.8
								C28.3,96.5,27.8,96.4,27.2,96.3z M17.8,97.3c-1-0.2-1.6-1.1-1.5-2.1s1.1-1.6,2.1-1.5c1,0.2,1.6,1.1,1.5,2.1c0,0,0,0,0,0
								C19.7,96.9,18.8,97.5,17.8,97.3z"/>
							<path class="st1" d="M26.5,87c0-0.1-0.7-2.7-2.2-1.9s0.4,2.5,0.6,2.6c0.6,0.5,1.7,1.1,1.7,1.1C26.7,88.2,26.6,87.6,26.5,87z"
								/>
							<path class="st1" d="M27.2,86.9c0-0.1,0.3-2.7,1.8-2.2c1.6,0.5,0,2.5-0.2,2.7c-0.5,0.5-1.5,1.4-1.5,1.4
								C27.2,88.1,27.2,87.5,27.2,86.9z"/>
							<path class="st1" d="M29.4,89.9c0.2,0,2.7,0.5,2.6-1.1c-0.1-1.7-2.4-0.7-2.6-0.6c-0.7,0.3-1.7,1-1.7,1
								C28.3,89.5,28.8,89.7,29.4,89.9z"/>
							<path class="st1" d="M29.1,90.6c0.1,0.1,2.1,1.8,0.8,2.8c-1.3,1-2-1.4-2.1-1.7c-0.2-0.7-0.3-2-0.3-2
								C28,90,28.6,90.3,29.1,90.6z"/>
							<path class="st1" d="M28.1,96.5l-0.4-3.2l-2.3,0.8C25.4,94.1,27.5,93.6,28.1,96.5z"/>
							<path class="st1" d="M21,85.8l2.8,1.7l-1.6,1.8C22.2,89.3,23.4,87.5,21,85.8z"/>
							<path class="st1" d="M19,85.3l-3.2,0.5l0.8,2.3C16.6,88.1,16.1,86,19,85.3z"/>
							<path class="st1" d="M30.2,95.1c1.4,0.4,2.1,1.9,1.7,3.2c-0.3,1-1.2,1.7-2.3,1.8c-0.2,0-0.3,0-0.5,0c0.4,1.5,0.8,3.2,0.9,3.9
								c-0.5-3.9,3.3-5.7,3.3-5.7l0,0c0,0-2.8-3.2-0.7-6.5C32.2,92.5,31.2,93.9,30.2,95.1z"/>
							<path class="st1" d="M20.4,84.6c0,0,0.6-1.1-0.1-1.3c-0.7-0.2-0.6,0.9-0.6,1c0.1,0.3,0.2,0.9,0.2,0.9
								C20.1,85.1,20.3,84.9,20.4,84.6z"/>
							<path class="st1" d="M22.8,84.3c0-1.4-1.1-2.6-2.5-2.6c-1,0-1.9,0.5-2.3,1.4c-0.1,0.1-0.1,0.3-0.2,0.4
								c-1.2-0.9-2.7-1.9-3.3-2.3c3.4,1.9,6.5-1,6.5-1l0,0c0,0,2,3.8,5.8,3C26,83.4,24.3,83.8,22.8,84.3z"/>
							<circle class="st1" cx="21.3" cy="78.1" r="1.2"/>
							
								<ellipse transform="matrix(0.9893 -0.1456 0.1456 0.9893 -11.345 3.1519)" class="st1" cx="15.9" cy="79.1" rx="3.7" ry="1.7"/>
							<path class="st1" d="M56.1,58.2c-0.5-0.1-4.9-0.2-6.7-0.6c1.4-0.3,4-1,4.3-1.1c0.2,0,0.3-0.2,0.2-0.3c0,0,0,0,0,0
								c0-0.2-0.2-0.3-0.3-0.3c0,0,0,0,0,0c-1.5,0-3.1,0.1-4.6,0.3c1.3-0.9,4.7-2,5.6-2.6c0.9-0.6,0.3,2.2,1.7,1.3
								c0.5-0.3-0.6-2.4-1-3c-0.4-0.6-1.9-2.4-2.4-2c-1.4,0.9,1.6,1.3,0.6,2c-1,0.7-3.5,3.1-4.8,4c0.7-1.2,2-3.7,2.2-3.9
								c0.1-0.1,0.1-0.3-0.1-0.4c0,0,0,0,0,0c-0.1-0.1-0.3,0-0.4,0.1c0,0,0,0,0,0c-1,1.1-1.9,2.3-2.7,3.5c0.3-1.8,2-5.9,2-6.4
								c0.1-0.6,0.3-1-0.8-1.2c-1.1-0.2-1.1,0.2-1.2,0.8c-0.1,0.5-0.1,4.9-0.4,6.7c-0.3-1.4-0.7-2.9-1.2-4.3c0-0.2-0.2-0.3-0.3-0.3
								c0,0,0,0,0,0c-0.2,0-0.3,0.1-0.3,0.3c0,0,0,0,0,0c0,0.2,0.2,3,0.5,4.5c-0.9-1.3-2.2-4.6-2.8-5.6c-0.6-0.9,2.2-0.3,1.3-1.7
								c-0.4-0.5-2.1,0.4-3,1l0,0c-0.9,0.6-2.4,1.8-2,2.4c0.9,1.4,1.3-1.6,2-0.6c0.7,1,3.2,3.4,4.1,4.7c-1.2-0.8-3.7-2-4-2.1
								c-0.1-0.1-0.3-0.1-0.4,0.1c0,0,0,0,0,0c-0.1,0.1,0,0.3,0.1,0.4c0,0,0,0,0,0c1.1,1,2.3,1.9,3.6,2.7c-1.8-0.3-5.9-2-6.4-2.1
								c-0.6-0.1-1-0.3-1.2,0.8c-0.2,1.1,0.2,1.1,0.8,1.2c0.5,0.1,4.9,0.2,6.7,0.5c-1.4,0.3-4.1,1.1-4.3,1.1c-0.2,0-0.3,0.2-0.3,0.3
								c0,0,0,0,0,0c0,0.2,0.2,0.3,0.3,0.3c0,0,0,0,0,0c0.2,0,3-0.2,4.5-0.4c-1.3,0.9-4.6,2.2-5.5,2.8s-0.3-2.2-1.7-1.3
								c-0.5,0.4,0.4,2.1,1,3l0,0c0.6,0.9,1.9,2.4,2.4,2c1.4-0.9-1.6-1.3-0.6-2c1-0.7,3.5-3.2,4.7-4c-0.8,1.2-2,3.7-2.1,3.9
								c-0.1,0.1,0,0.3,0.1,0.4c0,0,0,0,0,0c0.1,0.1,0.3,0,0.4-0.1c0,0,0,0,0,0c0.1-0.2,1.9-2.3,2.7-3.5c-0.3,1.8-1.9,5.9-2,6.4
								c-0.1,0.6-0.3,1,0.8,1.2c1.1,0.2,1.1-0.2,1.2-0.8c0.1-0.5,0.1-4.9,0.4-6.7c0.3,1.4,1.1,4,1.2,4.3c0,0.2,0.2,0.3,0.3,0.3
								c0,0,0,0,0,0c0.2,0,0.3-0.2,0.3-0.3c0,0,0,0,0,0c0-0.3-0.3-3-0.5-4.5c0.9,1.3,2.3,4.6,2.9,5.5s-2.2,0.3-1.3,1.7
								c0.4,0.5,2.1-0.4,3-1l0,0c0.9-0.6,2.4-1.8,2-2.4c-0.9-1.4-1.3,1.6-2,0.6c-0.7-1-3.3-3.4-4.2-4.6c1.3,0.7,3.9,1.9,4.1,2
								c0.1,0.1,0.3,0,0.4-0.1c0,0,0,0,0,0c0.1-0.1,0-0.3-0.1-0.4c0,0,0,0,0,0c-0.2-0.2-2.3-1.9-3.6-2.6c1.8,0.3,6,1.9,6.4,2
								c0.6,0.1,1,0.3,1.2-0.8C57.1,58.3,56.8,58.3,56.1,58.2z M46.7,59.3c-1-0.2-1.6-1.2-1.4-2.2s1.2-1.6,2.2-1.4
								c1,0.2,1.6,1.1,1.4,2.1C48.7,58.8,47.8,59.4,46.7,59.3C46.8,59.3,46.7,59.3,46.7,59.3z"/>
							<path class="st1" d="M55.9,58.2c-0.5-0.1-4.9-0.2-6.7-0.6c1.4-0.3,4-1,4.3-1.1c0.2,0,0.3-0.2,0.3-0.3c0,0,0,0,0,0
								c0-0.2-0.2-0.3-0.3-0.3c0,0,0,0,0,0c-1.5,0-3,0.1-4.5,0.3c1.3-0.9,4.7-2,5.6-2.6c0.9-0.6,0.3,2.2,1.7,1.3
								c0.5-0.3-0.6-2.4-1-3c-0.4-0.6-1.9-2.4-2.4-2c-1.4,0.9,1.6,1.3,0.6,2c-1,0.7-3.5,3.1-4.8,4c0.8-1.2,2-3.7,2.2-3.9
								c0.1-0.1,0-0.3-0.1-0.4c0,0,0,0,0,0c-0.1-0.1-0.3,0-0.4,0.1c0,0,0,0,0,0c-1,1.1-1.8,2.3-2.7,3.5c0.3-1.8,1.9-5.9,2-6.4
								c0.1-0.6,0.3-1-0.8-1.2s-1.1,0.2-1.2,0.8c-0.1,0.5-0.1,4.9-0.4,6.7c-0.3-1.4-1.2-4-1.2-4.3c0-0.2-0.2-0.3-0.3-0.3
								c0,0,0,0,0,0c-0.2,0-0.3,0.2-0.3,0.3c0,0,0,0,0,0c0,0.2,0.2,3.1,0.5,4.5c-0.9-1.2-2.2-4.6-2.9-5.5c-0.7-0.9,2.2-0.3,1.3-1.7
								c-0.4-0.5-2.1,0.4-3,1l0,0c-0.9,0.6-2.4,1.8-2,2.4c0.9,1.4,1.3-1.6,2-0.6c0.7,1,3.2,3.5,4,4.7c-1.2-0.8-3.7-2-4-2.1
								c-0.1-0.1-0.3,0-0.4,0.1c0,0,0,0,0,0c-0.1,0.1,0,0.3,0.1,0.4c0,0,0,0,0,0c1.1,1,2.3,1.9,3.6,2.7c-1.8-0.3-5.9-2-6.4-2.1
								c-0.6-0.1-1-0.3-1.2,0.8c-0.2,1.1,0.2,1.1,0.8,1.2c0.5,0.1,4.9,0.2,6.7,0.5c-1.4,0.3-4.1,1.1-4.3,1.1c-0.2,0-0.3,0.2-0.3,0.3
								c0,0.2,0.2,0.3,0.3,0.3c0.2,0,3-0.2,4.5-0.4c-1.3,0.9-4.6,2.2-5.5,2.8c-0.9,0.6-0.3-2.2-1.7-1.3c-0.5,0.4,0.4,2.1,1,3l0,0
								c0.6,0.9,1.9,2.4,2.4,2c1.4-0.9-1.6-1.3-0.6-2c1-0.7,3.4-3.2,4.7-4c-0.7,1.2-2,3.7-2.1,3.9c-0.1,0.1-0.1,0.3,0.1,0.4
								c0,0,0,0,0,0c0.1,0.1,0.3,0,0.4-0.1c0,0,0,0,0,0c0.2-0.2,1.9-2.3,2.7-3.5c-0.3,1.8-1.9,5.9-2,6.4c-0.1,0.6-0.3,1,0.8,1.2
								c1.1,0.2,1.1-0.2,1.2-0.8c0.1-0.5,0.1-4.9,0.4-6.7c0.4,1.4,0.9,2.9,1.4,4.3c0,0.2,0.2,0.3,0.3,0.3c0,0,0,0,0,0
								c0.2,0,0.3-0.1,0.3-0.3c0,0,0,0,0,0c0-0.3-0.3-3-0.5-4.5c0.9,1.3,2.3,4.6,2.9,5.5c0.6,0.9-2.2,0.3-1.3,1.7
								c0.4,0.5,2.1-0.4,3-1l0,0c0.9-0.6,2.4-1.8,2-2.4c-0.9-1.4-1.3,1.6-2,0.6s-3.3-3.4-4.2-4.6c1.2,0.7,3.8,1.9,4,2
								c0.1,0.1,0.3,0.1,0.4-0.1c0,0,0,0,0,0c0.1-0.1,0-0.3-0.1-0.4c0,0,0,0,0,0c-0.2-0.2-2.3-1.9-3.6-2.6c1.8,0.3,6,1.9,6.5,2
								c0.6,0.1,1,0.3,1.2-0.8C57,58.3,56.6,58.3,55.9,58.2z M46.5,59.3c-1-0.2-1.6-1.1-1.5-2.1c0.2-1,1.1-1.6,2.1-1.5
								c1,0.2,1.6,1.1,1.5,2.1c0,0,0,0,0,0C48.5,58.8,47.5,59.4,46.5,59.3L46.5,59.3z"/>
							<path class="st1" d="M38.4,66.1c0,0.2,0.8,2.6,2.2,1.8s-0.5-2.5-0.7-2.6c-0.6-0.4-1.7-1-1.7-1C38.2,64.9,38.3,65.5,38.4,66.1
								z"/>
							<path class="st1" d="M37.8,66.2c0,0.2-0.2,2.8-1.8,2.2c-1.6-0.5-0.1-2.5,0.1-2.7c0.5-0.6,1.5-1.4,1.5-1.4
								C37.7,65,37.8,65.6,37.8,66.2z"/>
							<path class="st1" d="M35.4,63.2c-0.2,0-2.7-0.5-2.6,1.2c0.1,1.7,2.4,0.7,2.6,0.5c0.7-0.4,1.7-1.1,1.7-1.1
								C36.6,63.6,36,63.4,35.4,63.2z"/>
							<path class="st1" d="M35.6,62.6c-0.1-0.1-2.4-1.3-1.3-2.5c1.1-1.2,2.3,0.9,2.4,1.2c0.3,0.6,0.5,1.3,0.7,1.9
								C36.8,63,36.2,62.9,35.6,62.6z"/>
							<path class="st1" d="M46,67.7l3.2-0.5l-0.9-2.3C48.4,64.9,48.9,66.9,46,67.7z"/>
							<path class="st1" d="M36.6,56.7l0.5,3.2l2.3-0.8C39.4,59.1,37.3,59.6,36.6,56.7z"/>
							<path class="st1" d="M43.9,67.3l-2.9-1.6l1.6-1.8C42.7,63.8,41.5,65.6,43.9,67.3z"/>
							<path class="st1" d="M34.5,57.9c-1.4-0.4-2.1-1.9-1.7-3.2c0.3-1,1.2-1.7,2.3-1.8c0.2,0,0.3,0,0.5,0c-0.4-1.5-0.8-3.2-0.9-3.9
								c0.5,3.9-3.3,5.7-3.3,5.7l0,0c0,0,2.8,3.2,0.7,6.5C32.5,60.5,33.5,59.1,34.5,57.9z"/>
							<path class="st1" d="M44.3,68.4c0,0-0.6,1.1,0.2,1.3c0.7,0.2,0.6-0.9,0.6-1c-0.1-0.3-0.2-0.9-0.2-0.9
								C44.6,68,44.5,68.2,44.3,68.4z"/>
							<path class="st1" d="M41.9,68.8c0,1.4,1.1,2.6,2.5,2.6c1,0,1.9-0.5,2.3-1.4c0.1-0.1,0.1-0.3,0.2-0.4c1.3,0.9,2.7,1.8,3.4,2.3
								c-3.5-1.9-6.5,1-6.5,1l0,0c0,0-2-3.8-5.8-3C39.3,69.6,40.6,69.2,41.9,68.8z"/>
							<circle class="st1" cx="43.7" cy="75" r="1.2"/>
							<path class="st1" d="M22.5,63.1c-0.5-0.1-4.9-0.2-6.7-0.6c1.4-0.3,4-1,4.3-1.1c0.2,0,0.3-0.2,0.3-0.3c0-0.2-0.2-0.3-0.3-0.3
								c-1.5,0-3.1,0.1-4.6,0.3c1.3-0.9,4.7-2,5.6-2.6c0.9-0.6,0.3,2.2,1.7,1.3c0.5-0.3-0.6-2.4-1-3c-0.4-0.6-1.9-2.4-2.4-2
								c-1.4,0.9,1.6,1.3,0.6,2c-1,0.7-3.5,3.1-4.8,4c0.8-1.2,2-3.7,2.2-3.9c0.1-0.1,0-0.3-0.1-0.4c0,0,0,0,0,0
								c-0.1-0.1-0.3,0-0.4,0.1c0,0,0,0,0,0c-0.2,0.2-1.9,2.3-2.7,3.5c0.3-1.8,2-5.9,2-6.4c0.1-0.6,0.3-1-0.8-1.2s-1.1,0.2-1.2,0.8
								C14,53.8,14,58.3,13.6,60c-0.3-1.4-0.7-2.9-1.2-4.3c0-0.2-0.2-0.3-0.3-0.3c-0.2,0-0.3,0.2-0.3,0.3c0,0,0,0,0,0
								c0,0.2,0.2,3,0.5,4.5c-0.9-1.3-2.2-4.6-2.8-5.6c-0.6-0.9,2.2-0.3,1.3-1.7c-0.4-0.5-2.1,0.4-3,1l0,0c-0.9,0.6-2.4,1.8-2,2.4
								c0.9,1.4,1.3-1.6,2-0.6s3.2,3.5,4.1,4.7c-1.2-0.7-3.7-2-4-2.1c-0.1-0.1-0.3,0-0.4,0.1c0,0,0,0,0,0c-0.1,0.1,0,0.3,0.1,0.4
								c0,0,0,0,0,0c1.1,1,2.3,1.9,3.5,2.7c-1.8-0.3-5.9-2-6.4-2.1c-0.6-0.1-1-0.3-1.2,0.8c-0.2,1.1,0.2,1.1,0.8,1.2
								c0.5,0.1,4.9,0.2,6.7,0.5c-1.4,0.3-4.1,1.1-4.3,1.1c-0.2,0-0.3,0.2-0.3,0.3c0,0,0,0,0,0c0,0.2,0.2,0.3,0.3,0.3c0,0,0,0,0,0
								c0.2,0,3-0.2,4.5-0.4c-1.3,0.9-4.6,2.2-5.5,2.8s-0.2-2.2-1.6-1.3c-0.5,0.4,0.4,2.1,1,3l0,0c0.6,0.9,1.9,2.4,2.4,2
								c1.4-0.9-1.6-1.3-0.6-2c1-0.7,3.4-3.2,4.7-4c-0.7,1.2-2,3.7-2.1,3.9c-0.1,0.1,0,0.3,0.1,0.4c0,0,0,0,0,0
								c0.1,0.1,0.3,0,0.4-0.1c0,0,0,0,0,0c0.2-0.2,1.9-2.3,2.7-3.5c-0.3,1.8-1.9,5.9-2,6.4c-0.1,0.6-0.3,1,0.8,1.2
								c1.1,0.2,1.1-0.2,1.2-0.8c0.1-0.5,0.1-4.9,0.4-6.7c0.3,1.4,0.7,2.9,1.2,4.3c0,0.2,0.2,0.3,0.3,0.3c0.2,0,0.3-0.2,0.3-0.3
								c0,0,0,0,0,0c0-0.3-0.3-3-0.5-4.5c0.9,1.3,2.3,4.6,2.9,5.5c0.6,0.9-2.2,0.3-1.3,1.7c0.4,0.5,2.1-0.4,3-1l0,0
								c0.9-0.6,2.4-1.8,2-2.4c-0.9-1.4-1.3,1.6-2,0.6c-0.7-1-3.4-3.4-4.3-4.7c1.2,0.8,3.8,1.9,4.1,2c0.1,0.1,0.3,0,0.4-0.1
								c0,0,0,0,0,0c0.1-0.1,0-0.3-0.1-0.4c0,0,0,0,0,0c-0.2-0.2-2.3-1.9-3.6-2.6c1.8,0.3,6,1.9,6.5,2c0.6,0.1,1,0.3,1.2-0.8
								C23.5,63.3,23.1,63.2,22.5,63.1z M13.1,64.2c-1-0.2-1.6-1.1-1.5-2.1c0.2-1,1.1-1.6,2.1-1.5c1,0.2,1.6,1.1,1.5,2.1
								c0,0,0,0,0,0C15,63.7,14.1,64.4,13.1,64.2z"/>
							<path class="st1" d="M23.4,63.4L23,60.1l-2.3,0.8C20.6,60.9,22.8,60.4,23.4,63.4z"/>
							<path class="st1" d="M25.5,62c1.4,0.4,2.1,1.9,1.7,3.2c-0.3,1-1.2,1.7-2.3,1.8c-0.2,0-0.3,0-0.5,0c0.4,1.5,0.7,3.2,0.9,3.9
								c-0.5-3.9,3.4-5.7,3.4-5.7l0,0c0,0-2.8-3.2-0.7-6.5C27.5,59.4,26.5,60.8,25.5,62z"/>
							<ellipse transform="matrix(0.9855 -0.1697 0.1697 0.9855 -9.7443 5.9537)" class="st1" cx="30" cy="60" rx="1.7" ry="3.7"/>
							<path class="st1" d="M22.3,63.1c-0.5-0.1-4.9-0.2-6.7-0.6c1.4-0.3,4-1,4.3-1.1c0.2,0,0.3-0.2,0.3-0.3c0,0,0,0,0,0
								c0-0.2-0.2-0.3-0.3-0.3c0,0,0,0,0,0c-1.5,0-3.1,0.1-4.6,0.3c1.3-0.9,4.7-2,5.6-2.6c0.9-0.6,0.3,2.2,1.7,1.3
								c0.5-0.3-0.6-2.4-1-3c-0.4-0.6-1.9-2.4-2.4-2c-1.4,0.9,1.6,1.3,0.6,2c-1,0.7-3.5,3.1-4.8,4c0.7-1.2,2-3.7,2.2-3.9
								c0.1-0.1,0.1-0.3-0.1-0.4c0,0,0,0,0,0c-0.1-0.1-0.3,0-0.4,0.1c0,0,0,0,0,0c-1,1.1-1.9,2.3-2.7,3.5c0.3-1.8,1.9-5.9,2-6.4
								c0.1-0.6,0.3-1-0.8-1.2s-1.1,0.2-1.2,0.8c-0.1,0.5-0.1,4.9-0.4,6.7c-0.3-1.4-1.2-4-1.2-4.3c0-0.2-0.2-0.3-0.3-0.3
								c0,0,0,0,0,0c-0.2,0-0.3,0.1-0.3,0.3c0,0,0,0,0,0c0,0.2,0.2,3,0.5,4.5c-0.9-1.3-2.2-4.6-2.8-5.6c-0.6-0.9,2.2-0.3,1.3-1.7
								c-0.4-0.5-2.1,0.4-3,1l0,0c-0.9,0.6-2.4,1.8-2,2.4c0.9,1.4,1.3-1.6,2-0.6c0.7,1,3.2,3.4,4.1,4.7c-1.3-0.7-3.7-2-4-2.1
								c-0.1-0.1-0.3-0.1-0.4,0.1c0,0,0,0,0,0c-0.1,0.1,0,0.3,0.1,0.4c0,0,0,0,0,0c1.1,1,2.3,1.9,3.6,2.7c-1.8-0.3-5.9-2-6.4-2.1
								c-0.6-0.1-1-0.3-1.2,0.8s0.2,1.1,0.8,1.2c0.5,0.1,4.9,0.2,6.7,0.5c-1.4,0.3-4.1,1.1-4.3,1.1c-0.2,0-0.3,0.2-0.3,0.3
								c0,0,0,0,0,0c0,0.2,0.2,0.3,0.3,0.3c0,0,0,0,0,0c0.2,0,3-0.2,4.5-0.4c-1.3,0.9-4.6,2.2-5.5,2.8C4.6,67,5.2,64.1,3.9,65
								c-0.5,0.4,0.4,2.1,1,3l0,0c0.6,0.9,1.9,2.4,2.4,2c1.4-0.9-1.6-1.3-0.6-2s3.4-3.2,4.7-4c-0.8,1.2-2,3.7-2.1,3.9
								c-0.1,0.1,0,0.3,0.1,0.4c0,0,0,0,0,0c0.1,0.1,0.3,0,0.4-0.1c0,0,0,0,0,0c0.1-0.2,1.9-2.3,2.7-3.5c-0.3,1.8-1.9,5.9-2,6.4
								c-0.1,0.6-0.3,1,0.8,1.2s1.1-0.2,1.2-0.8c0.1-0.5,0.1-4.9,0.4-6.7c0.3,1.4,1.1,4,1.2,4.3c0,0.2,0.2,0.3,0.3,0.3c0,0,0,0,0,0
								c0.2,0,0.3-0.2,0.3-0.3c0,0,0,0,0,0c0-0.3-0.3-3-0.5-4.5c0.9,1.3,2.3,4.6,2.9,5.5s-2.2,0.3-1.3,1.7c0.4,0.5,2.1-0.4,3-1l0,0
								c0.9-0.6,2.4-1.8,2-2.4c-0.9-1.4-1.3,1.6-2,0.6c-0.7-1-3.3-3.4-4.2-4.6c1.2,0.7,3.9,1.9,4,2c0.1,0.1,0.3,0,0.4-0.1
								c0,0,0,0,0,0c0.1-0.1,0-0.3-0.1-0.4c0,0,0,0,0,0c-0.2-0.2-2.3-1.9-3.6-2.6c1.8,0.3,6,1.9,6.4,2c0.6,0.1,1,0.3,1.2-0.8
								C23.3,63.3,23,63.2,22.3,63.1z M12.9,64.2c-1-0.2-1.6-1.1-1.5-2.1c0.2-1,1.1-1.6,2.1-1.5c1,0.2,1.6,1.1,1.5,2.1c0,0,0,0,0,0
								C14.9,63.7,13.9,64.4,12.9,64.2z"/>
							<path class="st1" d="M18.1,73.4c-0.1,0.1-1.6,2.2-2.7,1s1.2-2.2,1.5-2.2c0.7-0.2,2-0.4,2-0.4C18.7,72.3,18.4,72.9,18.1,73.4z
								"/>
							<path class="st1" d="M18.7,73.7c-0.1,0.1-0.7,2.7,0.9,2.7s0.9-2.3,0.8-2.6c-0.3-0.7-0.9-1.8-0.9-1.8
								C19.2,72.6,18.9,73.1,18.7,73.7z"/>
							<path class="st1" d="M21.8,71.7c0.2,0,2.7,0.5,2,2c-0.7,1.5-2.5-0.2-2.7-0.4c-0.5-0.6-1.2-1.6-1.2-1.6
								C20.6,71.7,21.2,71.7,21.8,71.7z"/>
							<path class="st1" d="M21.8,71.1c0.1,0,2.7-0.4,2.1-2c-0.6-1.5-2.5,0.1-2.7,0.3C20.7,70,20,71,20,71
								C20.6,71.1,21.2,71.1,21.8,71.1z"/>
							<path class="st1" d="M24.1,64.1c0.1,0,1.2-0.1,1.1,0.6c-0.1,0.7-1.1,0.2-1.2,0.2c-0.3-0.2-0.7-0.5-0.7-0.5
								C23.6,64.2,23.8,64.1,24.1,64.1z"/>
							<path class="st1" d="M23.3,63.4l-0.5-3.2l-2.3,0.8C20.5,60.9,22.6,60.5,23.3,63.4z"/>
							<path class="st1" d="M22.9,65.2l-1.6,2.9l-1.8-1.6C19.5,66.5,21.2,67.7,22.9,65.2z"/>
							<path class="st1" d="M12.4,72.6l3.2-0.5l-0.9-2.3C14.7,69.8,15.3,71.9,12.4,72.6z"/>
							<path class="st1" d="M25.3,62c1.4,0.4,2.1,1.9,1.7,3.2c-0.3,1-1.2,1.7-2.3,1.8c-0.2,0-0.3,0-0.5,0c0.4,1.5,0.7,3.2,0.9,3.9
								c-0.5-3.9,3.3-5.7,3.3-5.7l0,0c0,0-2.8-3.2-0.7-6.6C27.3,59.4,26.4,60.8,25.3,62z"/>
							<path class="st1" d="M8.3,73.7c0,1.4,1.1,2.6,2.5,2.6c1,0,1.9-0.5,2.3-1.4c0.1-0.1,0.1-0.3,0.2-0.4c1.2,0.9,2.7,1.8,3.3,2.3
								c-3.4-1.9-6.5,1.1-6.5,1.1l0,0c0,0-2-3.8-5.8-3C5.1,74.6,6.8,74.2,8.3,73.7z"/>
							<circle class="st1" cx="30.7" cy="65.9" r="1.2"/>
						</g>
					</g>
				</g>
			</g>
		</g>
	</g>
</g>
</svg>
