<svg xmlns="http://www.w3.org/2000/svg" viewBox="0 0 95.9 95.9"><defs><style>.cls-1{isolation:isolate;}.cls-2{fill:#fff;}.cls-3{fill:#e3ddd6;mix-blend-mode:multiply;}.cls-4{fill:#c64f36;}.cls-5{fill:#eff1f0;}.cls-6{fill:#b7b8b9;}.cls-7{fill:#f8f6ef;}.cls-8{fill:none;}</style></defs><title>icon_network</title><g class="cls-1"><g id="Layer_2" data-name="Layer 2"><g id="_1" data-name="1"><g id="icon_network"><circle class="cls-2" cx="47.95" cy="47.95" r="47.95"/><rect class="cls-3" x="15.48" y="29.11" width="67.32" height="42.96" rx="2.16"/><path class="cls-4" d="M81.36,29.44V39.5H14V29.44a2.16,2.16,0,0,1,2.16-2.16h63A2.16,2.16,0,0,1,81.36,29.44Z"/><path class="cls-5" d="M81.36,39.5V68.08a2.16,2.16,0,0,1-2.16,2.16h-63A2.16,2.16,0,0,1,14,68.08V39.5Z"/><rect class="cls-6" x="25.47" y="52.98" width="44.46" height="2.91" rx="0.77"/><rect class="cls-6" x="25.47" y="47.69" width="44.46" height="2.91" rx="0.77"/><rect class="cls-6" x="25.47" y="58.41" width="44.46" height="2.91" rx="0.77"/><polygon class="cls-7" points="25.76 32.59 23.03 32.59 23.03 29.86 21.27 29.86 21.27 32.59 18.53 32.59 18.53 34.36 21.27 34.36 21.27 37.09 23.03 37.09 23.03 34.36 25.76 34.36 25.76 32.59"/><line class="cls-8" x1="14.5" y1="39.5" x2="13.17" y2="39.5"/></g></g></g></g></svg>