<svg xmlns="http://www.w3.org/2000/svg" viewBox="0 0 99.14 99.14"><defs><style>.cls-1{isolation:isolate;}.cls-2{fill:#fff;}.cls-3{fill:#e3ddd6;mix-blend-mode:multiply;}.cls-4{fill:#c64f36;}.cls-5{fill:#eff1f0;}.cls-6{fill:#b7b8b9;}.cls-7{fill:none;stroke:#c64f36;stroke-linecap:round;stroke-miterlimit:10;}</style></defs><title>icon_calendar</title><g class="cls-1"><g id="Layer_2" data-name="Layer 2"><g id="_1" data-name="1"><g id="icon_calendar"><circle class="cls-2" cx="49.57" cy="49.57" r="49.57"/><rect class="cls-3" x="20.12" y="24.35" width="60.2" height="52.69" rx="2.16"/><path class="cls-4" d="M79,24.75V37.09H18.83V24.75c0-1.47.86-2.65,1.93-2.65H77.09C78.16,22.1,79,23.28,79,24.75Z"/><path class="cls-5" d="M79,37.09V72.14c0,1.46-.86,2.65-1.93,2.65H20.76c-1.07,0-1.93-1.19-1.93-2.65v-35Z"/><rect class="cls-6" x="26.33" y="40.06" width="9.15" height="9.15" rx="0.9"/><rect class="cls-6" x="38.34" y="40.06" width="9.15" height="9.15" rx="0.9"/><rect class="cls-6" x="50.36" y="40.06" width="9.15" height="9.15" rx="0.9"/><rect class="cls-6" x="62.37" y="40.06" width="9.15" height="9.15" rx="0.9"/><rect class="cls-6" x="26.33" y="51.53" width="9.15" height="9.15" rx="0.9"/><rect class="cls-6" x="38.34" y="51.53" width="9.15" height="9.15" rx="0.9"/><rect class="cls-6" x="50.36" y="51.53" width="9.15" height="9.15" rx="0.9"/><rect class="cls-6" x="62.37" y="51.53" width="9.15" height="9.15" rx="0.9"/><rect class="cls-6" x="26.33" y="63" width="9.15" height="9.15" rx="0.9"/><rect class="cls-6" x="38.34" y="63" width="9.15" height="9.15" rx="0.9"/><rect class="cls-6" x="50.36" y="63" width="9.15" height="9.15" rx="0.9"/><rect class="cls-6" x="62.37" y="63" width="9.15" height="9.15" rx="0.9"/><line class="cls-7" x1="50.42" y1="39.92" x2="59.86" y2="48.55"/><line class="cls-7" x1="50.68" y1="49.34" x2="59.64" y2="40.22"/></g></g></g></g></svg>