<svg xmlns="http://www.w3.org/2000/svg" viewBox="0 0 104.96 119.07"><defs><style>.cls-1{isolation:isolate;}.cls-2{fill:#fff;}.cls-3,.cls-8{fill:#e3ddd6;}.cls-3{mix-blend-mode:multiply;}.cls-4{fill:#9cb75a;}.cls-5{fill:#90ad47;}.cls-6{fill:#738f3b;}.cls-7{fill:#c64f36;}.cls-9{fill:#eff1f0;}</style></defs><title>icon_meds</title><g class="cls-1"><g id="Layer_2" data-name="Layer 2"><g id="_1" data-name="1"><g id="icon_meds"><circle class="cls-2" cx="47.54" cy="58.97" r="47.54"/><path class="cls-3" d="M102.89,60.33s-1.09-5.2-.31-6.1a6.87,6.87,0,0,1-3-1.77A5.48,5.48,0,0,0,99.26,51S95.4,56.65,91,62c-1,.31-1.17-.28-.55-1.28l.31-.15s.85-.84,1.93-2.13a2.56,2.56,0,0,1,.26-.2,7.66,7.66,0,0,0,2.19-3.17c1.56-2.55,2.66-5.5,1.42-7.75a9.32,9.32,0,0,1-.41,4.51c.55-2.54.57-4.92,0-5.39a17.6,17.6,0,0,0-3.43-2.12,1.84,1.84,0,0,0-2-.49h.11a1.62,1.62,0,0,0-1.13.33,10.61,10.61,0,0,0-2-.59c-1.34-.91-1.75.19-1.86.66h-.2a.94.94,0,0,0-1.33.06l-.59,0-.38,1.33a6.17,6.17,0,0,0-.43,1.45l0,.08L81,42.9s-3.72,2.65-9.45.68A18.43,18.43,0,0,1,69,46.16l-1.71,0,.41.74a.7.7,0,0,1-.43,0c-.61-.31-2,.43-3.43,1.2l-.05,0-1.54.87h0a3.52,3.52,0,0,1-1.92.56,6.15,6.15,0,0,0,.28,1.08c.07.33.16.82.31,1.57.21,1,1.43,2.43,3,3.92a28.79,28.79,0,0,0,6.2,5.21,20.37,20.37,0,0,1,2.29,2.53,14.16,14.16,0,0,1,2.06,7.54,6.92,6.92,0,0,1-.4,1.14.77.77,0,0,1-.15.16c-1.55,1-2.62,1.31-3.4,1.9L52.87,77.21a1.27,1.27,0,0,1-1.3.05c-.19-.13-.38-.28-.58-.39a3.93,3.93,0,0,1-.58-.62c-.41-.76-1.14-2.38-2-4.48-1-3-2.48-6.24-4-9.62-1.39-3.33-2.74-6.54-3.74-8.77A76.73,76.73,0,0,1,36,37.9,9.88,9.88,0,0,1,35.75,35a9.75,9.75,0,0,1,3.82-6.69s12.6-6,15.31-8.8l.35-.18s2.07-2.82.07-3.3c0-.12-.15-.84-.36-1.72.42-1.09.67-2.85-1.69-3.54a16,16,0,0,0-2.73-.72,5.19,5.19,0,0,1-.45-.37c-.22-.37-.63-1-1.16-1.77a1.17,1.17,0,0,1,0-.32c.12-.91-2.35-3-3.89-3.09-1.42-.9-2.64-1.64-2.64-1.64l-2.19,1S43,1.35,38.47.32c-2,0-.34,1.51-5.63-.14a1.83,1.83,0,0,0-2.06.31v0a3,3,0,0,0-.71,1s-2.46,1-4.27.35S23.18,3.3,23.72,6.05s2.59,8.18,1.27,8.19L17.17,2.29a19.49,19.49,0,0,1-1.31,3.43l0,0,0,0a3,3,0,0,1-.4.55c-.83.79-1.72,3.81-1.17,6.47s-4.08.91-4.14,3.14,1.92,2.64,1.24,3.19l-.89-.82.88.83s0,.05-.09.07c-1,.59-5.79,4.33-5.42,6s-1.27,4.08-1.58,4.58.07,1,.72,1.69c.26,1-1.28,5.72,4.12,5.4a10.53,10.53,0,0,0,2.06-.18l.52-.22c1.38-.31,2.76-.71,4.17-1A24.36,24.36,0,0,1,28.14,37a4.48,4.48,0,0,1,1,.28A28.45,28.45,0,0,1,32.63,40s.15.16.41.49l.09.13a18.75,18.75,0,0,1,1.94,3.3c.21.42.66,1.44,1.28,2.86h0c3.53,8,12.5,29,12.5,29s-1,2.21-.07,3.09,3.31,1.35,4.36-.19l21.69-3.18s9.55,1.3,11.68,7.44,1.61,9.17,3.63,7.09,3-4.95,5.31-5.35-1-2.31-1-3.67a5,5,0,0,1,.65-2,11.71,11.71,0,0,1,2.61-2.41,6.66,6.66,0,0,0,.79-.61c.22-.07.42-.16.65-.22v-.57a.77.77,0,0,0,0-.73v-.67l4.73-.19s.48-1-1.49-1.41,1.62-2.24,1.62-2.24-2.89-4.33.15-5.93C106.47,63.15,102.89,60.33,102.89,60.33ZM48.65,72.59c.59,1.31,1.11,2.44,1.49,3.29A15.17,15.17,0,0,1,48.65,72.59Z"/><g id="LEAVES"><path class="cls-4" d="M40.17,3.65s-4.82,19.53-4.1,22.47c0,0,11.75-11.84,16.8-10.88,0,0,3.06-4.56-3.33-4.72-1.1-.63-2.39-1.88-2.26-2.89s-3-3.52-4.39-3C41.79,3.69,40.51,2.25,40.17,3.65Z"/><path class="cls-4" d="M67.58,46.56S76.5,64.43,73.51,71c0,0,4.95-5.18,5.87-10.34a100.6,100.6,0,0,0,1.17-11.5s-1.44,12-4.3,9.78C73.17,56.55,71.44,52.74,67.58,46.56Z"/><path class="cls-4" d="M71.91,74.57s8-1.43,10.54-3.4c0,0-1.85,2.65-4,2.55A17.08,17.08,0,0,0,87.09,72,22.59,22.59,0,0,1,71.91,74.57Z"/><path class="cls-4" d="M97.44,74.27,87.91,75l4.62,5.44a11.91,11.91,0,0,1,3.58-3.82C98.48,75,97.44,74.27,97.44,74.27Z"/><path class="cls-4" d="M23.46,14.91C23.23,14.57,31.08,38.7,33.6,42,33.6,42,27.68,20.84,23.46,14.91Z"/><path class="cls-5" d="M23.38,14.25l-7.83-12s-.89,3.22-1.72,4-1.71,3.82-1.17,6.47-4.08.91-4.13,3.14,2.16,2.69,1.13,3.28-5.78,4.32-5.42,5.95S3,29.22,2.66,29.72s.08,1,.72,1.69c.28,1.07-1.47,6.3,5.15,5.3S21.14,31.18,31,40a15.5,15.5,0,0,1,2.44,3.92c1.35,2.82,13.78,31.83,13.78,31.83s-1,2.21-.08,3.1,3.31,1.34,4.37-.2l21.68-3.17s9.56,1.29,11.69,7.43,1.6,9.17,3.63,7.09,3-4.95,5.3-5.35-1-2.3-1-3.67a6.41,6.41,0,0,1,4.69-5.21l0-2,4.72-.19s.48-1-1.49-1.41,1.62-2.24,1.62-2.24-2.89-4.33.15-5.93c2.26-.86-1.33-3.68-1.33-3.68s-1.09-5.2-.3-6.1c0,0-3.63-1-3.43-3,0,0-6.49,10.19-8.18,10.75s-1.18-1.5,1.92-3.75,4.38-10.85,3.18-11.8S89.53,42.84,88,44.18c-2.56-1-3.63-.85-3.65.06l-2.28.1-.83,2.85L79.33,42.9s-3.71,2.65-9.45.68c0,0-3,3.85-4.19,3.23s-5.54,2.92-6.91,2.59c0,0,.77,6.1,10.06,12,3.44,2.52,5.08,10.17,3.53,11.19s-2.62,1.31-3.39,1.9L51.26,77.21s-2.15,1.71-4.3-4.82c-4.71-14.32-20.17-35.53-9-44,0,0,13.95-6.66,15.66-9.21s.07-3,.07-3-.82-4.74-1.88-5.22A17.18,17.18,0,0,0,48.64,10s-1.75-3.23-3.7-4.5S40.75,2.9,40.75,2.9l-2.19,1S41.39,1.35,36.85.32c-2,0-.34,1.52-5.62-.14a2.12,2.12,0,0,0-2.77,1.31s-2.46,1-4.27.35S21.57,3.3,22.11,6.05,24.7,14.23,23.38,14.25Z"/><g id="shadows"><path class="cls-6" d="M39.56,3.63S32.67,32.48,34.42,37.9A76,76,0,0,0,39,53.38C42,60.3,48.53,76.59,49.14,76.75s1,.94,1.6.7-2.25.86-1.36,1.9a1.16,1.16,0,0,1-.11-1.83S38.78,54.39,38.39,53.77s-4.62-12.34-4.68-15.94S35.74,10.74,39.56,3.63Z"/><path class="cls-6" d="M38.28,1.35s-6.51,20.3-4.79,27.72C33.49,29.07,30.32,21.62,38.28,1.35Z"/><path class="cls-6" d="M29.17.44s-1.34,26.67,4,35.78C33.16,36.22,26.51,25.25,29.17.44Z"/><path class="cls-6" d="M34.74,46.77s-2.22-9.27-9.32-11.12S7,28.37,4.93,33.32C3,38,9.57,36.63,9.57,36.63s6.94-3.55,17,.41C26.52,37,31.32,37.34,34.74,46.77Z"/><path class="cls-6" d="M53.44,16s-14.65,5-18.28,13.4c-.71,1.12-1.29,4.86-1.29,4.86s-.49-3.76,6.14-7.56,13.6-7.35,13.6-7.35S55.86,16.31,53.44,16Z"/><path class="cls-6" d="M14.2,5.7S30.86,33.8,30.53,36.61C30.53,36.61,17.24,5.78,14.2,5.7Z"/><path class="cls-6" d="M6.58,22s11.24,7.12,12.94,9.22L16.93,28a15.25,15.25,0,0,1,4.4,3.6,25.94,25.94,0,0,0-6.13-7.68c-4.1-3.45-6.33-5.63-6.33-5.63s5.21,4.77,6.84,6.67,2.44,3,2.44,3L8.44,20.4l7.37,6.8Z"/><path class="cls-6" d="M58.93,49.81s7.95,6.68,12.85,13.8S71,74.55,71,74.55s6.22-5.33-2.51-13.45c-3.18-2.52-8.66-6.81-9.11-9.05Z"/><path class="cls-6" d="M67.44,46.16s2.84,8.08,3.65,8.31l-.81-.23-4.57-8.12Z"/><path class="cls-6" d="M62.22,48s5.13,5.81,7.34,10.73c0,0-7.06-9.71-8.89-9.86Z"/><path class="cls-6" d="M81.2,47.31S80.38,60.37,78,63.26c0,0,10-18.22,8.19-19.58s-2,.76-2,.76-.65-1-1.71.06A5.22,5.22,0,0,0,81.2,47.31Z"/><path class="cls-6" d="M87.87,44.43s0,11.16-6.78,20.12l8-4s8.52-8.32,5.8-13.25c0,0,1.46,6.42-6.18,11.82,0,0,2.46-9.17,5-12.36,0,0-3.49,1.64-6,12.33a6.77,6.77,0,0,1-4.45,3.49s6.91-8.8,7.95-18.11c0,0-1.08-1.24-2.21-.66,0,0,1.22-.18.86,1.84s-1.43,8-2.86,9.22C87,54.91,89.33,46.69,87.87,44.43Z"/><path class="cls-6" d="M97.65,51S84,70.88,78.48,71.59c0,0,13-3.93,19.07-16.42A6.09,6.09,0,0,0,97.65,51Z"/><path class="cls-6" d="M100.71,54.5S95,66.11,88,68.27C88,68.27,95.32,67.36,100.71,54.5Z"/><path class="cls-6" d="M102.06,61.57S85.8,75.21,78.43,73.72C78.43,73.72,86.8,75.76,102.06,61.57Z"/></g></g><path class="cls-3" d="M62.36,65c1.83-.72,1.84-1.38,1.84-1.38V54c0-1.22-8.61-2.2-19.23-2.2s-19.23,1-19.23,2.2v9.62s0,.71,2.06,1.47a5.89,5.89,0,0,0-2.28,5.1v39.38s.22,6.62,19.45,6.62c19.8,0,19.8-6.62,19.8-6.62V70.2A5.83,5.83,0,0,0,62.36,65Z"/><g id="PRESCRIPTION_BOTTLE" data-name="PRESCRIPTION BOTTLE"><path class="cls-7" d="M56.31,63.8s6.4-.17,6.4,6.4v39.38s0,6.62-19.81,6.62c-19.23,0-19.45-6.62-19.45-6.62V70.2c0-6.57,6.4-6.4,6.4-6.4Z"/><path class="cls-8" d="M23.67,54v9.62s0,3.17,19.23,3.17,19.23-3.17,19.23-3.17V54Z"/><ellipse class="cls-9" cx="42.9" cy="54.01" rx="19.23" ry="2.21"/><path class="cls-9" d="M23.45,76.5s.11,2.11,19.45,2.12c19.69,0,19.81-2.12,19.81-2.12v24.88s0,2.13-19.81,2.12c-19.45,0-19.45-2.12-19.45-2.12Z"/></g><path class="cls-3" d="M33.71,84.27c1.2-.47,1.21-.91,1.21-.91V77c0-.81-5.67-1.46-12.67-1.46S9.58,76.22,9.58,77v6.33s0,.47,1.37,1a3.86,3.86,0,0,0-1.51,3.36v26S9.58,118,22.25,118c13,0,13-4.36,13-4.36V87.69A3.86,3.86,0,0,0,33.71,84.27Z"/><g id="PRESCRIPTION_BOTTLE-2" data-name="PRESCRIPTION BOTTLE"><path class="cls-7" d="M29.77,84.55S34,84.44,34,88.77v26s0,4.35-13,4.35c-12.67,0-12.82-4.35-12.82-4.35V88.77c0-4.33,4.22-4.22,4.22-4.22Z"/><path class="cls-8" d="M8.27,78.1v6.34s0,2.09,12.67,2.09,12.67-2.09,12.67-2.09V78.1Z"/><ellipse class="cls-9" cx="20.94" cy="78.1" rx="12.67" ry="1.45"/><path class="cls-9" d="M8.12,92.92s.07,1.39,12.82,1.39c13,0,13.05-1.39,13.05-1.39v16.39s0,1.4-13,1.4c-12.82,0-12.82-1.4-12.82-1.4Z"/></g></g></g></g></g></svg>