<svg xmlns="http://www.w3.org/2000/svg" xmlns:xlink="http://www.w3.org/1999/xlink" viewBox="0 0 104.68 108.4"><defs><style>.cls-1,.cls-10,.cls-11,.cls-7,.cls-8,.cls-9{fill:none;}.cls-2{isolation:isolate;}.cls-3{fill:#fff;}.cls-14,.cls-4{fill:#e3ddd6;}.cls-4{mix-blend-mode:multiply;}.cls-5{fill:#83311c;}.cls-6{fill:#c64f36;}.cls-10,.cls-11,.cls-7,.cls-8,.cls-9{stroke:#af462e;stroke-linecap:round;stroke-linejoin:round;stroke-width:0.75px;}.cls-8{stroke-dasharray:10.44 1.74;}.cls-9{stroke-dasharray:11 1.83;}.cls-10{stroke-dasharray:10.2 1.7;}.cls-11{stroke-dasharray:11.56 1.93;}.cls-12{clip-path:url(#clip-path);}.cls-13{opacity:0.29;}</style><clipPath id="clip-path"><path class="cls-1" d="M83,73.26,29.69,76a4.84,4.84,0,0,1-5.5-4.09L18.51,33.37a4.85,4.85,0,0,1,4.09-5.5l57.88-3.22a4.84,4.84,0,0,1,5.09,4.59l2,38.92A4.85,4.85,0,0,1,83,73.26Z"/></clipPath></defs><title>icon_wallet</title><g class="cls-2"><g id="Layer_2" data-name="Layer 2"><g id="_1" data-name="1"><g id="icon_wallet"><circle class="cls-3" cx="55.11" cy="49.57" r="49.57"/><path class="cls-4" d="M88.44,31.3a4.85,4.85,0,0,0-5.1-4.59h-.08a8.29,8.29,0,0,0-8.37-4.05l-46,6.78a7.72,7.72,0,0,0-1.59.4l-1.8.1a4.84,4.84,0,0,0-4.09,5.5L27.05,74a4.87,4.87,0,0,0,5.51,4.1l53.31-2.78a4.84,4.84,0,0,0,4.59-5.09Z"/><rect class="cls-5" x="21.01" y="23.73" width="63.09" height="48.68" rx="8.28" transform="translate(-6.44 8.16) rotate(-8.37)"/><path class="cls-6" d="M83,73.26,29.69,76a4.84,4.84,0,0,1-5.5-4.09L18.51,33.37a4.85,4.85,0,0,1,4.09-5.5l57.88-3.22a4.84,4.84,0,0,1,5.09,4.59l2,38.92A4.85,4.85,0,0,1,83,73.26Z"/><polyline class="cls-7" points="29.88 32.93 23.88 33.2 24.75 39.14"/><line class="cls-8" x1="25.01" y1="40.86" x2="28.43" y2="64.1"/><polyline class="cls-7" points="28.55 64.96 29.43 70.9 35.42 70.57"/><line class="cls-9" x1="37.25" y1="70.47" x2="74.76" y2="68.44"/><polyline class="cls-7" points="75.67 68.39 81.67 68.06 81.12 62.09"/><line class="cls-10" x1="80.96" y1="60.4" x2="78.86" y2="37.54"/><polyline class="cls-7" points="78.78 36.69 78.23 30.72 72.23 30.99"/><line class="cls-11" x1="70.31" y1="31.08" x2="30.84" y2="32.89"/><g class="cls-12"><g class="cls-13"><path class="cls-14" d="M66,90.53c-.47-.09-4.87-.22-6.65-.55,1.42-.25,4-1,4.23-1.08a.3.3,0,0,0,.26-.34.29.29,0,0,0-.34-.25,40,40,0,0,0-4.54.25c1.26-.85,4.67-2,5.59-2.61s.31,2.2,1.68,1.27c.48-.33-.58-2.36-1-3s-1.85-2.39-2.38-2c-1.37.93,1.61,1.31.58,2s-3.48,3.08-4.74,3.93c.75-1.22,2-3.62,2.15-3.82A.28.28,0,0,0,60.7,84a.3.3,0,0,0-.41.12,43.8,43.8,0,0,0-2.66,3.5c.33-1.77,1.93-5.87,2-6.34.12-.63.25-1-.82-1.19s-1.07.18-1.19.81c-.09.47-.08,4.89-.41,6.66-.26-1.42-1.15-4-1.22-4.25a.3.3,0,0,0-.34-.26.29.29,0,0,0-.26.34c0,.21.21,3,.45,4.46C55,86.55,53.67,83.21,53,82.29s2.21-.31,1.28-1.67c-.36-.53-2.07.4-3,1h0c-.9.62-2.33,1.82-2,2.35.93,1.36,1.32-1.61,2-.58s3.2,3.43,4,4.68c-1.23-.75-3.71-2-3.94-2.1a.28.28,0,0,0-.41.12.29.29,0,0,0,.12.4,41,41,0,0,0,3.52,2.71c-1.78-.34-5.9-2-6.36-2.07-.64-.12-1-.25-1.2.81s.18,1.07.82,1.19c.47.09,4.89.2,6.66.53-1.42.25-4.07,1.06-4.25,1.1a.3.3,0,0,0,.09.6c.21,0,3-.16,4.45-.41-1.26.85-4.59,2.15-5.5,2.77s-.32-2.2-1.68-1.28c-.54.36.4,2.07,1,3l0,0c.61.89,1.86,2.38,2.39,2,1.36-.93-1.61-1.32-.58-2s3.42-3.14,4.67-4c-.74,1.23-2,3.68-2.08,3.88a.28.28,0,0,0,.11.41.3.3,0,0,0,.41-.11c.15-.21,1.89-2.28,2.64-3.51-.33,1.77-1.91,5.87-2,6.34-.12.63-.25,1,.81,1.19s1.07-.18,1.19-.81c.09-.47.09-4.87.43-6.64A42.19,42.19,0,0,0,58,96.41a.3.3,0,0,0,.34.26.28.28,0,0,0,.25-.34c0-.27-.27-3-.51-4.42.85,1.25,2.26,4.56,2.88,5.47s-2.21.31-1.28,1.67c.37.54,2.07-.4,3-1h0c.9-.62,2.33-1.82,2-2.34-.94-1.36-1.32,1.6-2,.58s-3.31-3.34-4.17-4.59c1.23.74,3.81,1.89,4,2a.28.28,0,0,0,.41-.11.3.3,0,0,0-.11-.41c-.22-.15-2.32-1.86-3.56-2.61,1.78.33,5.93,1.88,6.4,2,.63.12,1,.25,1.19-.81S66.65,90.65,66,90.53Zm-9.34,1.08a1.81,1.81,0,1,1,2.11-1.44A1.81,1.81,0,0,1,56.68,91.61Z"/><path class="cls-14" d="M52.1,78.81c.09-.12,1.62-2.2,2.68-.94S53.52,80,53.26,80.06c-.72.2-2,.39-2,.39A13.5,13.5,0,0,1,52.1,78.81Z"/><path class="cls-14" d="M51.51,78.52c0-.14.75-2.62-.89-2.7s-.91,2.29-.81,2.54c.28.7.89,1.79.89,1.79A12.45,12.45,0,0,0,51.51,78.52Z"/><path class="cls-14" d="M48.34,80.47c-.14,0-2.68-.5-2-2s2.46.21,2.64.41c.49.56,1.2,1.6,1.2,1.6A13.69,13.69,0,0,1,48.34,80.47Z"/><path class="cls-14" d="M48.33,81.11c-.15,0-2.7.37-2.11,1.9s2.47-.1,2.66-.29c.52-.54,1.27-1.54,1.27-1.54A12.53,12.53,0,0,0,48.33,81.11Z"/><path class="cls-14" d="M46.85,89.07l.5,3.21,2.26-.84S47.55,91.93,46.85,89.07Z"/><path class="cls-14" d="M47.29,86.78,49,84l1.79,1.62S49,84.38,47.29,86.78Z"/><path class="cls-14" d="M57.9,79.71l-3.23.46.81,2.27S55,80.36,57.9,79.71Z"/><path class="cls-14" d="M61.71,78.66a2.57,2.57,0,0,0-4.83-1.25,2.26,2.26,0,0,0-.17.43c-1.23-1-2.65-1.84-3.32-2.26,3.4,1.91,6.43-1,6.43-1h0s2,3.75,5.78,3C64.83,77.75,63.18,78.16,61.71,78.66Z"/><path class="cls-14" d="M45.93,88.19c-.07,0-1.2.13-1.11-.59s1.07-.22,1.17-.16a8.42,8.42,0,0,1,.71.52A5.62,5.62,0,0,1,45.93,88.19Z"/><path class="cls-14" d="M44.72,90.28a2.56,2.56,0,0,1,.59-5,2.26,2.26,0,0,1,.45,0c-.43-1.49-.75-3.13-.89-3.91.54,3.87-3.3,5.62-3.3,5.62h0s2.79,3.17.72,6.47C42.74,92.86,43.71,91.47,44.72,90.28Z"/><circle class="cls-14" cx="39.41" cy="86.68" r="1.23"/><path class="cls-14" d="M32.67,95.44c-.47-.09-4.87-.22-6.64-.56,1.42-.25,4-1,4.22-1.07a.3.3,0,0,0-.08-.6,43.45,43.45,0,0,0-4.54.26c1.26-.85,4.68-2,5.59-2.62s.31,2.2,1.68,1.28c.49-.33-.58-2.37-1-3s-1.85-2.39-2.38-2c-1.36.93,1.61,1.32.58,2s-3.48,3.09-4.73,3.94c.74-1.23,2-3.62,2.14-3.82a.28.28,0,0,0-.11-.41A.3.3,0,0,0,27,89a39.43,39.43,0,0,0-2.67,3.5c.33-1.77,1.93-5.87,2-6.34.12-.63.25-1-.81-1.19s-1.08.18-1.19.81c-.09.47-.09,4.88-.42,6.65-.26-1.41-1.15-4-1.22-4.24a.3.3,0,0,0-.34-.26.29.29,0,0,0-.26.34c0,.21.21,3,.45,4.46-.85-1.25-2.19-4.6-2.81-5.51s2.21-.31,1.27-1.67c-.36-.54-2.06.4-3,1h0c-.9.62-2.33,1.82-2,2.34.94,1.36,1.32-1.6,2-.57s3.2,3.42,4.06,4.67c-1.24-.74-3.71-2-3.94-2.09a.28.28,0,0,0-.41.11.3.3,0,0,0,.11.41,41,41,0,0,0,3.52,2.7c-1.78-.33-5.89-2-6.36-2.06-.64-.12-1-.25-1.19.81s.18,1.07.81,1.19c.47.09,4.89.19,6.67.53-1.43.25-4.07,1.06-4.25,1.1a.3.3,0,0,0-.26.34.29.29,0,0,0,.34.26c.21,0,3-.17,4.45-.41-1.26.85-4.58,2.14-5.5,2.77s-.31-2.21-1.68-1.28c-.53.36.41,2.06,1,3v0c.61.89,1.86,2.38,2.39,2,1.37-.93-1.61-1.32-.58-2s3.42-3.14,4.68-4c-.75,1.23-2,3.68-2.09,3.88a.28.28,0,0,0,.12.41.3.3,0,0,0,.41-.12c.14-.2,1.88-2.28,2.64-3.5-.34,1.77-1.91,5.87-2,6.34-.12.63-.25,1,.81,1.19s1.08-.18,1.2-.81c.08-.47.09-4.87.42-6.64.26,1.42,1.13,3.94,1.21,4.23a.3.3,0,0,0,.34.26.29.29,0,0,0,.26-.34c0-.27-.28-3-.52-4.42.85,1.25,2.26,4.55,2.88,5.47s-2.2.31-1.27,1.67c.36.53,2.06-.4,3-1h0c.9-.62,2.33-1.82,2-2.34-.93-1.37-1.32,1.6-2,.57S26,97.85,25.1,96.6c1.23.74,3.82,1.88,4,2a.29.29,0,0,0,.41-.11.29.29,0,0,0-.11-.41c-.22-.16-2.32-1.86-3.55-2.62,1.77.34,5.92,1.89,6.39,2,.64.12,1,.25,1.19-.81S33.3,95.56,32.67,95.44Zm-9.33,1.08a1.81,1.81,0,1,1,2.11-1.44A1.81,1.81,0,0,1,23.34,96.52Z"/><path class="cls-14" d="M32,86.22c0-.14-.71-2.64-2.15-1.86s.4,2.44.61,2.6c.6.45,1.69,1.08,1.69,1.08A12.9,12.9,0,0,0,32,86.22Z"/><path class="cls-14" d="M32.65,86.17c0-.15.25-2.72,1.81-2.19s0,2.47-.17,2.66C33.77,87.19,32.8,88,32.8,88A13,13,0,0,1,32.65,86.17Z"/><path class="cls-14" d="M34.88,89.14c.14,0,2.68.51,2.61-1.13s-2.37-.7-2.61-.58a19.53,19.53,0,0,0-1.7,1A13.15,13.15,0,0,0,34.88,89.14Z"/><path class="cls-14" d="M34.53,89.87c.12.09,2.1,1.75.79,2.73s-2-1.39-2.1-1.64c-.16-.74-.27-2-.27-2A13,13,0,0,1,34.53,89.87Z"/><path class="cls-14" d="M33.61,95.67l-.48-3.22-2.27.82S32.94,92.8,33.61,95.67Z"/><path class="cls-14" d="M26.48,85.1l2.81,1.65-1.61,1.79S28.89,86.8,26.48,85.1Z"/><path class="cls-14" d="M24.55,84.62l-3.22.45.8,2.28S21.67,85.27,24.55,84.62Z"/><path class="cls-14" d="M35.66,94.28a2.56,2.56,0,0,1-.6,5,2.37,2.37,0,0,1-.46,0c.43,1.49.74,3.13.88,3.91-.52-3.87,3.32-5.61,3.32-5.61h0s-2.78-3.18-.7-6.48C37.65,91.71,36.67,93.1,35.66,94.28Z"/><path class="cls-14" d="M26,83.94c0-.06.56-1.07-.14-1.25s-.6.91-.58,1a8.41,8.41,0,0,0,.23.85A5.18,5.18,0,0,0,26,83.94Z"/><path class="cls-14" d="M28.36,83.57a2.56,2.56,0,0,0-4.82-1.25,2.53,2.53,0,0,0-.18.42c-1.23-.94-2.65-1.84-3.32-2.25,3.41,1.9,6.44-1,6.44-1h0s1.94,3.74,5.77,3C31.48,82.65,29.83,83.06,28.36,83.57Z"/><circle class="cls-14" cx="26.8" cy="77.45" r="1.23"/><path class="cls-14" d="M65.86,90.56c-.47-.09-4.87-.22-6.65-.56,1.42-.25,4-1,4.23-1.08a.3.3,0,1,0-.08-.59,38.33,38.33,0,0,0-4.54.26c1.25-.85,4.67-2,5.59-2.62s.31,2.2,1.68,1.28c.48-.33-.58-2.37-1-3s-1.85-2.39-2.38-2c-1.37.93,1.61,1.32.58,2s-3.48,3.08-4.74,3.94c.75-1.23,2-3.63,2.15-3.82a.28.28,0,0,0-.12-.41.3.3,0,0,0-.41.11c-.16.22-1.91,2.28-2.66,3.5.33-1.77,1.93-5.87,2-6.33.12-.64.25-1-.82-1.19s-1.07.18-1.19.81c-.09.47-.08,4.88-.42,6.65a43.31,43.31,0,0,0-1.21-4.25.3.3,0,0,0-.34-.25.29.29,0,0,0-.26.34c0,.2.21,3,.45,4.46-.85-1.26-2.19-4.6-2.82-5.52s2.21-.3,1.28-1.67c-.36-.53-2.07.41-3,1h0c-.9.63-2.33,1.83-2,2.35.93,1.36,1.32-1.61,2-.58s3.2,3.43,4.06,4.68c-1.23-.74-3.71-2-3.94-2.1a.28.28,0,0,0-.41.12.3.3,0,0,0,.12.41,42.6,42.6,0,0,0,3.51,2.7c-1.77-.34-5.89-2-6.35-2.06-.64-.12-1-.25-1.2.81s.18,1.07.82,1.19c.47.08,4.89.19,6.66.53-1.42.25-4.07,1.06-4.25,1.1a.29.29,0,0,0-.25.34.28.28,0,0,0,.34.25c.2,0,3-.16,4.44-.4-1.25.85-4.58,2.14-5.5,2.76s-.31-2.2-1.67-1.27c-.54.36.4,2.06,1,3l0,0c.61.89,1.85,2.39,2.39,2,1.36-.93-1.61-1.32-.58-2s3.42-3.14,4.67-4c-.74,1.22-2,3.67-2.08,3.88a.27.27,0,0,0,.11.4.29.29,0,0,0,.41-.11c.15-.2,1.89-2.28,2.64-3.51-.33,1.77-1.91,5.88-2,6.35-.12.63-.26,1,.81,1.18s1.07-.17,1.19-.81c.09-.46.09-4.87.43-6.63a43.71,43.71,0,0,0,1.2,4.23.3.3,0,0,0,.34.25.28.28,0,0,0,.26-.33c0-.27-.27-3-.52-4.43.86,1.26,2.27,4.56,2.89,5.48s-2.21.3-1.28,1.67c.37.53,2.07-.4,3-1h0c.89-.62,2.32-1.83,2-2.35-.94-1.36-1.32,1.61-2,.58S59.15,93,58.29,91.71c1.23.75,3.81,1.89,4.05,2a.29.29,0,0,0,.41-.12.3.3,0,0,0-.12-.41c-.21-.15-2.31-1.86-3.55-2.61,1.78.33,5.93,1.89,6.4,2,.63.12,1,.25,1.19-.81S66.49,90.68,65.86,90.56Zm-9.34,1.08a1.81,1.81,0,1,1,2.11-1.44A1.81,1.81,0,0,1,56.52,91.64Z"/><path class="cls-14" d="M51.94,78.84c.08-.13,1.62-2.2,2.68-1S53.36,80,53.1,80.09c-.72.2-2,.38-2,.38A12.89,12.89,0,0,1,51.94,78.84Z"/><path class="cls-14" d="M51.35,78.54c0-.14.75-2.62-.89-2.7s-.91,2.3-.81,2.54c.28.7.89,1.8.89,1.8A14.35,14.35,0,0,0,51.35,78.54Z"/><path class="cls-14" d="M48.18,80.49c-.14,0-2.68-.5-2-2s2.46.21,2.63.41c.5.57,1.21,1.61,1.21,1.61A12.59,12.59,0,0,1,48.18,80.49Z"/><path class="cls-14" d="M48.17,81.13c-.15,0-2.7.38-2.11,1.91s2.47-.1,2.66-.29C49.24,82.2,50,81.2,50,81.2A12.53,12.53,0,0,0,48.17,81.13Z"/><path class="cls-14" d="M46.69,89.09l.5,3.22,2.26-.84S47.38,92,46.69,89.09Z"/><path class="cls-14" d="M47.13,86.8,48.79,84l1.79,1.62S48.84,84.4,47.13,86.8Z"/><path class="cls-14" d="M57.74,79.73l-3.23.46.81,2.27S54.86,80.39,57.74,79.73Z"/><path class="cls-14" d="M61.55,78.69a2.57,2.57,0,0,0-4.83-1.25,3.12,3.12,0,0,0-.18.42c-1.22-.94-2.64-1.84-3.31-2.25,3.4,1.9,6.43-1,6.43-1h0s2,3.75,5.78,3C64.66,77.77,63,78.18,61.55,78.69Z"/><path class="cls-14" d="M45.77,88.21c-.07,0-1.2.13-1.11-.58s1.07-.23,1.17-.17c.28.18.71.52.71.52A5.62,5.62,0,0,1,45.77,88.21Z"/><path class="cls-14" d="M44.56,90.3a2.56,2.56,0,0,1,.58-4.94,2.4,2.4,0,0,1,.46,0c-.43-1.48-.75-3.13-.89-3.9.54,3.86-3.3,5.62-3.3,5.62h0s2.79,3.17.72,6.48C42.58,92.88,43.55,91.49,44.56,90.3Z"/><circle class="cls-14" cx="39.25" cy="86.71" r="1.23"/><ellipse class="cls-14" cx="40.07" cy="92.32" rx="1.66" ry="3.62" transform="translate(-15.08 8.14) rotate(-9.77)"/><path class="cls-14" d="M32.51,95.46c-.47-.09-4.87-.22-6.65-.55,1.43-.25,4-1,4.23-1.08a.3.3,0,0,0,.26-.34.29.29,0,0,0-.34-.25,40.14,40.14,0,0,0-4.54.25c1.26-.85,4.67-2,5.59-2.61s.31,2.2,1.68,1.27c.49-.33-.58-2.36-1-3s-1.85-2.39-2.38-2c-1.37.93,1.61,1.31.58,2s-3.48,3.08-4.73,3.93c.74-1.22,2-3.62,2.14-3.82a.28.28,0,0,0-.12-.41.3.3,0,0,0-.41.12,43.8,43.8,0,0,0-2.66,3.5c.33-1.77,1.93-5.87,2-6.34.12-.63.25-1-.81-1.19s-1.08.18-1.2.81c-.08.47-.08,4.89-.41,6.66-.26-1.42-1.15-4-1.22-4.25a.31.31,0,0,0-.34-.26.29.29,0,0,0-.26.34c0,.21.21,3,.45,4.46-.85-1.25-2.19-4.59-2.81-5.51s2.2-.31,1.27-1.67c-.36-.53-2.06.4-3,1h0c-.9.62-2.33,1.83-2,2.35.93,1.36,1.32-1.61,2-.58S21.11,91.76,22,93c-1.24-.75-3.71-2-3.94-2.1a.28.28,0,0,0-.41.12.3.3,0,0,0,.11.41,43.77,43.77,0,0,0,3.52,2.7c-1.78-.34-5.89-2-6.36-2.07-.64-.12-1-.25-1.19.81s.18,1.07.81,1.19c.47.09,4.89.2,6.67.53-1.43.25-4.08,1.06-4.25,1.1a.3.3,0,0,0-.26.34.29.29,0,0,0,.34.26c.21,0,3-.16,4.45-.41-1.26.85-4.59,2.15-5.5,2.77s-.31-2.2-1.68-1.28c-.53.37.41,2.07,1,3v0c.61.89,1.86,2.38,2.39,2,1.36-.93-1.61-1.32-.58-2s3.42-3.14,4.68-4c-.75,1.23-2,3.68-2.09,3.88a.28.28,0,0,0,.11.41.3.3,0,0,0,.41-.11c.15-.21,1.89-2.28,2.65-3.51-.34,1.77-1.91,5.87-2,6.34-.12.63-.25,1,.81,1.19s1.08-.18,1.19-.81c.09-.47.1-4.87.43-6.64a42.19,42.19,0,0,0,1.21,4.23.3.3,0,0,0,.34.26.29.29,0,0,0,.26-.34c0-.27-.28-3-.52-4.42.85,1.25,2.26,4.56,2.88,5.47s-2.21.31-1.27,1.67c.36.54,2.06-.4,3-1h0c.9-.62,2.33-1.82,2-2.34-.94-1.36-1.32,1.6-2,.58s-3.31-3.34-4.17-4.59c1.23.74,3.82,1.89,4,2a.29.29,0,0,0,.41-.12.29.29,0,0,0-.11-.41c-.22-.15-2.32-1.86-3.55-2.61,1.77.33,5.92,1.88,6.39,2,.64.12,1,.25,1.19-.81S33.14,95.58,32.51,95.46Zm-9.34,1.08a1.81,1.81,0,1,1,2.12-1.44A1.81,1.81,0,0,1,23.17,96.54Z"/><path class="cls-14" d="M31.83,86.25c0-.15-.71-2.64-2.15-1.86s.4,2.44.61,2.6c.6.45,1.69,1.07,1.69,1.07A12.69,12.69,0,0,0,31.83,86.25Z"/><path class="cls-14" d="M32.49,86.19c0-.15.25-2.72,1.81-2.19s0,2.47-.17,2.66c-.52.55-1.49,1.35-1.49,1.35A13.22,13.22,0,0,1,32.49,86.19Z"/><path class="cls-14" d="M34.72,89.16c.14,0,2.68.51,2.61-1.13s-2.37-.7-2.61-.58c-.67.35-1.7,1.06-1.7,1.06A13.61,13.61,0,0,0,34.72,89.16Z"/><path class="cls-14" d="M34.37,89.9c.12.08,2.1,1.74.79,2.72s-2-1.38-2.11-1.64c-.15-.74-.26-2-.26-2A12.85,12.85,0,0,1,34.37,89.9Z"/><path class="cls-14" d="M33.44,95.7,33,92.47l-2.27.82S32.78,92.82,33.44,95.7Z"/><path class="cls-14" d="M26.32,85.12l2.81,1.65-1.61,1.8S28.73,86.82,26.32,85.12Z"/><path class="cls-14" d="M24.39,84.64l-3.22.46.8,2.27S21.51,85.29,24.39,84.64Z"/><path class="cls-14" d="M35.5,94.3a2.56,2.56,0,0,1-.6,5,2.37,2.37,0,0,1-.46,0c.43,1.49.74,3.14.88,3.91-.53-3.86,3.32-5.61,3.32-5.61h0s-2.78-3.18-.7-6.48A40.35,40.35,0,0,1,35.5,94.3Z"/><path class="cls-14" d="M25.81,84c0-.06.56-1.07-.15-1.24s-.59.91-.57,1c.06.33.23.86.23.86A5.57,5.57,0,0,0,25.81,84Z"/><path class="cls-14" d="M28.2,83.6a2.57,2.57,0,0,0-4.83-1.26,2.26,2.26,0,0,0-.17.43c-1.23-1-2.65-1.84-3.32-2.26,3.41,1.91,6.43-1,6.43-1h0s1.94,3.75,5.77,3C31.32,82.68,29.67,83.09,28.2,83.6Z"/><circle class="cls-14" cx="26.64" cy="77.47" r="1.23"/><path class="cls-14" d="M61.18,57.68c-.47-.08-4.87-.22-6.64-.55,1.42-.25,4-1,4.23-1.08a.3.3,0,1,0-.08-.59,38.33,38.33,0,0,0-4.54.26c1.25-.86,4.67-2,5.59-2.62s.31,2.2,1.67,1.27c.49-.33-.57-2.36-1-3S58.53,49,58,49.38c-1.36.93,1.62,1.32.58,2s-3.48,3.08-4.73,3.94c.75-1.23,2-3.63,2.15-3.83a.28.28,0,0,0-.12-.4.3.3,0,0,0-.41.11c-.16.22-1.91,2.27-2.67,3.5.34-1.77,1.94-5.87,2-6.34.12-.63.25-1-.82-1.18s-1.07.17-1.19.81c-.09.46-.08,4.88-.42,6.65a43.31,43.31,0,0,0-1.21-4.25.3.3,0,0,0-.34-.25.28.28,0,0,0-.26.33c0,.21.2,3,.45,4.46-.86-1.25-2.19-4.59-2.82-5.51s2.21-.3,1.28-1.67c-.37-.53-2.07.4-3,1h0c-.9.62-2.33,1.83-2,2.35.94,1.36,1.33-1.61,2-.58s3.2,3.43,4.06,4.68c-1.23-.74-3.71-2-3.94-2.1a.28.28,0,0,0-.41.12.3.3,0,0,0,.12.41,42.6,42.6,0,0,0,3.51,2.7c-1.77-.34-5.89-2-6.36-2.07-.63-.12-1-.25-1.19.81s.18,1.07.82,1.19c.46.09,4.88.2,6.66.53-1.42.26-4.07,1.06-4.25,1.11a.29.29,0,0,0-.26.33.29.29,0,0,0,.34.26c.21,0,3-.16,4.45-.41-1.25.86-4.58,2.15-5.5,2.77s-.31-2.2-1.68-1.28c-.53.37.41,2.07,1,3v0c.62.89,1.86,2.38,2.4,2,1.36-.93-1.62-1.32-.59-2s3.43-3.14,4.68-4c-.74,1.23-2,3.68-2.09,3.88a.28.28,0,0,0,.12.41.3.3,0,0,0,.41-.11c.15-.21,1.89-2.28,2.64-3.51-.33,1.77-1.91,5.88-2,6.34-.12.64-.25,1,.82,1.19s1.07-.18,1.19-.81c.09-.47.09-4.87.43-6.64a43.26,43.26,0,0,0,1.2,4.24.3.3,0,0,0,.34.25.28.28,0,0,0,.26-.34c0-.27-.27-3-.52-4.42.86,1.25,2.26,4.56,2.89,5.48s-2.21.3-1.28,1.67c.36.53,2.07-.41,3-1h0c.9-.63,2.33-1.83,2-2.35-.93-1.36-1.32,1.61-2,.58s-3.32-3.34-4.18-4.59c1.24.74,3.82,1.89,4.06,2a.29.29,0,0,0,.41-.12.3.3,0,0,0-.12-.41c-.21-.15-2.32-1.86-3.55-2.61,1.78.33,5.93,1.89,6.4,2,.63.12,1,.25,1.19-.81S61.82,57.8,61.18,57.68Zm-9.33,1.09A1.81,1.81,0,1,1,54,57.32,1.82,1.82,0,0,1,51.85,58.77Z"/><path class="cls-14" d="M43.79,65.56c0,.14.76,2.62,2.19,1.8s-.45-2.42-.67-2.58c-.61-.44-1.71-1-1.71-1A13.46,13.46,0,0,0,43.79,65.56Z"/><path class="cls-14" d="M43.13,65.63c0,.14-.19,2.72-1.76,2.23s-.07-2.47.11-2.67c.51-.56,1.46-1.38,1.46-1.38A12.79,12.79,0,0,1,43.13,65.63Z"/><path class="cls-14" d="M40.83,62.71c-.14,0-2.69-.46-2.58,1.18s2.39.65,2.62.52c.66-.36,1.68-1.09,1.68-1.09A12.42,12.42,0,0,0,40.83,62.71Z"/><path class="cls-14" d="M41,62.1c-.14-.06-2.41-1.28-1.32-2.51s2.28.94,2.39,1.18c.3.69.66,1.89.66,1.89A12.8,12.8,0,0,1,41,62.1Z"/><path class="cls-14" d="M51.33,67.1l3.21-.53-.86-2.26S54.19,66.38,51.33,67.1Z"/><path class="cls-14" d="M42,56.22l.5,3.21,2.26-.84S42.71,59.09,42,56.22Z"/><path class="cls-14" d="M49.24,66.72,46.42,65.1,48,63.29S46.81,65.05,49.24,66.72Z"/><path class="cls-14" d="M39.89,57.43a2.56,2.56,0,0,1,.58-5,2.37,2.37,0,0,1,.46,0c-.43-1.49-.75-3.13-.9-3.91.54,3.87-3.29,5.63-3.29,5.63h0s2.78,3.17.71,6.47C37.9,60,38.88,58.62,39.89,57.43Z"/><path class="cls-14" d="M49.65,67.8c0,.06-.55,1.07.15,1.24s.59-.91.57-1c-.06-.32-.23-.85-.23-.85A5.57,5.57,0,0,0,49.65,67.8Z"/><path class="cls-14" d="M47.27,68.17a2.56,2.56,0,0,0,4.82,1.24,2.3,2.3,0,0,0,.18-.43c1.23.94,2.65,1.83,3.32,2.24-3.41-1.89-6.43,1.06-6.43,1.06h0s-2-3.74-5.78-3C44.15,69.1,45.79,68.69,47.27,68.17Z"/><circle class="cls-14" cx="48.99" cy="74.34" r="1.23"/><path class="cls-14" d="M66,90.52c-.46-.09-4.86-.22-6.64-.56,1.42-.25,4-1,4.23-1.07a.3.3,0,0,0-.08-.6,40.67,40.67,0,0,0-4.54.26c1.25-.85,4.67-2,5.59-2.62s.31,2.2,1.68,1.28c.48-.33-.58-2.37-1-3s-1.85-2.39-2.39-2c-1.36.93,1.62,1.32.59,2s-3.48,3.09-4.74,3.94c.75-1.23,2-3.62,2.15-3.82a.28.28,0,0,0-.12-.41.3.3,0,0,0-.41.11c-.16.22-1.91,2.28-2.67,3.51.34-1.77,1.94-5.87,2-6.34.12-.63.25-1-.82-1.19s-1.07.18-1.19.81c-.09.47-.08,4.88-.42,6.65A42.9,42.9,0,0,0,56,83.25c-.09-.31-.34-.26-.34-.26a.29.29,0,0,0-.26.34c0,.21.2,3,.45,4.46-.86-1.25-2.19-4.6-2.82-5.51s2.21-.31,1.28-1.67c-.36-.54-2.07.4-3,1h0c-.9.62-2.33,1.82-2,2.34.93,1.36,1.32-1.6,2-.58s3.2,3.43,4.06,4.68c-1.23-.74-3.71-2-3.94-2.09a.28.28,0,0,0-.41.11.3.3,0,0,0,.12.41,40.44,40.44,0,0,0,3.51,2.7c-1.77-.33-5.89-2-6.36-2.06-.63-.12-1-.25-1.19.81s.18,1.07.82,1.19c.47.09,4.89.19,6.66.53-1.42.25-4.07,1.06-4.25,1.1a.3.3,0,0,0-.26.34.28.28,0,0,0,.34.25c.21,0,3-.16,4.45-.4-1.25.85-4.58,2.14-5.5,2.76s-.31-2.2-1.67-1.27c-.54.36.4,2.06,1,3v0c.62.9,1.86,2.39,2.4,2,1.36-.93-1.62-1.31-.58-2s3.42-3.14,4.67-4c-.74,1.23-2,3.67-2.09,3.88a.28.28,0,0,0,.12.41.3.3,0,0,0,.41-.12c.15-.2,1.89-2.28,2.64-3.5-.33,1.76-1.91,5.87-2,6.34-.12.63-.25,1,.82,1.19s1.07-.18,1.19-.81c.09-.47.09-4.87.43-6.64A43.71,43.71,0,0,0,58,96.4c.09.31.34.26.34.26a.29.29,0,0,0,.26-.34c0-.27-.27-3-.52-4.43.86,1.26,2.26,4.56,2.89,5.48s-2.21.31-1.28,1.67c.37.53,2.07-.4,3-1h0c.9-.62,2.33-1.82,2-2.35-.94-1.36-1.33,1.61-2,.58s-3.32-3.34-4.17-4.59c1.23.75,3.81,1.89,4,2a.29.29,0,0,0,.41-.11.3.3,0,0,0-.12-.41c-.21-.16-2.32-1.87-3.55-2.62,1.78.34,5.93,1.89,6.4,2,.63.12,1,.25,1.19-.81S66.65,90.64,66,90.52ZM56.68,91.6a1.81,1.81,0,1,1,2.11-1.44A1.81,1.81,0,0,1,56.68,91.6Z"/><path class="cls-14" d="M57.9,79.69l-3.23.46.81,2.27S55,80.35,57.9,79.69Z"/><path class="cls-14" d="M61.7,78.65a2.56,2.56,0,0,0-4.82-1.25,3.79,3.79,0,0,0-.18.42c-1.23-.94-2.64-1.84-3.31-2.25,3.4,1.9,6.43-1,6.43-1h0s2,3.74,5.78,3C64.82,77.73,63.18,78.14,61.7,78.65Z"/><ellipse class="cls-14" cx="54.33" cy="73.55" rx="3.62" ry="1.66" transform="translate(-10.13 8.69) rotate(-8.37)"/><path class="cls-14" d="M27.84,62.59c-.47-.09-4.87-.22-6.65-.55,1.42-.25,4-1,4.23-1.08a.3.3,0,0,0-.08-.6,43.31,43.31,0,0,0-4.54.26c1.26-.85,4.67-2,5.59-2.62s.31,2.21,1.68,1.28c.48-.33-.58-2.36-1-3s-1.85-2.39-2.38-2c-1.37.93,1.61,1.32.58,2s-3.48,3.08-4.74,3.93c.75-1.23,2-3.62,2.15-3.82a.28.28,0,0,0-.12-.41.3.3,0,0,0-.41.12,42,42,0,0,0-2.66,3.5c.33-1.77,1.93-5.87,2-6.34.12-.63.25-1-.82-1.19s-1.07.18-1.19.81c-.09.47-.08,4.89-.42,6.65a43.75,43.75,0,0,0-1.21-4.24.3.3,0,0,0-.34-.26.29.29,0,0,0-.26.34c0,.21.21,3,.45,4.46-.85-1.25-2.19-4.59-2.82-5.51s2.21-.31,1.28-1.67c-.36-.53-2.07.4-3,1h0c-.9.62-2.33,1.82-2,2.34.93,1.37,1.32-1.6,2-.57s3.21,3.43,4.06,4.68c-1.23-.75-3.71-2-3.94-2.1a.28.28,0,0,0-.41.11.3.3,0,0,0,.12.41,40.44,40.44,0,0,0,3.51,2.7c-1.77-.33-5.89-2-6.35-2.06-.64-.12-1-.25-1.2.81s.18,1.07.82,1.19c.47.09,4.89.2,6.66.53-1.42.25-4.07,1.06-4.25,1.1a.3.3,0,0,0,.09.6c.21,0,3-.17,4.45-.41-1.26.85-4.59,2.15-5.51,2.77S11,63.58,9.61,64.51c-.54.36.4,2.06,1,3l0,0c.61.89,1.86,2.38,2.39,2,1.36-.93-1.61-1.32-.58-2s3.42-3.15,4.67-4c-.74,1.23-2,3.68-2.08,3.88a.28.28,0,0,0,.11.41.3.3,0,0,0,.41-.12,43.53,43.53,0,0,0,2.64-3.5c-.33,1.77-1.91,5.87-2,6.34-.12.63-.25,1,.81,1.19s1.07-.18,1.19-.81c.09-.47.09-4.87.43-6.64a42.19,42.19,0,0,0,1.21,4.23.3.3,0,0,0,.34.26.28.28,0,0,0,.25-.34c0-.27-.27-3-.51-4.42.85,1.25,2.26,4.56,2.88,5.47s-2.21.31-1.28,1.67c.37.54,2.07-.4,3-1h0c.89-.62,2.32-1.82,2-2.34-.94-1.36-1.32,1.6-2,.57S21.13,65,20.27,63.75c1.23.74,3.81,1.89,4.05,2a.29.29,0,0,0,.41-.11.3.3,0,0,0-.12-.41c-.21-.15-2.31-1.86-3.55-2.62,1.78.34,5.93,1.89,6.4,2,.63.12,1,.25,1.19-.81S28.47,62.71,27.84,62.59ZM18.5,63.67a1.81,1.81,0,1,1,2.11-1.44A1.81,1.81,0,0,1,18.5,63.67Z"/><path class="cls-14" d="M23.61,72.8c-.08.13-1.59,2.22-2.66,1s1.23-2.14,1.48-2.21a19.78,19.78,0,0,1,2-.42A12.86,12.86,0,0,1,23.61,72.8Z"/><path class="cls-14" d="M24.21,73.09c0,.14-.72,2.63.92,2.68s.88-2.3.78-2.55c-.29-.69-.91-1.78-.91-1.78A14,14,0,0,0,24.21,73.09Z"/><path class="cls-14" d="M27.35,71.1c.14,0,2.69.46,2,2s-2.47-.18-2.64-.38c-.51-.56-1.23-1.58-1.23-1.58A12.61,12.61,0,0,1,27.35,71.1Z"/><path class="cls-14" d="M27.35,70.46c.15,0,2.7-.41,2.08-1.94s-2.46.14-2.64.33c-.52.55-1.26,1.56-1.26,1.56A13.67,13.67,0,0,0,27.35,70.46Z"/><path class="cls-14" d="M27.15,53.37c0-.14-.7-2.63-2.14-1.85s.4,2.43.61,2.59a19.15,19.15,0,0,0,1.69,1.08A13.45,13.45,0,0,0,27.15,53.37Z"/><path class="cls-14" d="M27.82,53.32c0-.15.25-2.72,1.8-2.19s0,2.47-.17,2.66A18.73,18.73,0,0,1,28,55.13,13,13,0,0,1,27.82,53.32Z"/><path class="cls-14" d="M30.05,56.29c.14,0,2.68.51,2.6-1.13s-2.37-.7-2.6-.58c-.67.35-1.71,1.05-1.71,1.05A12.87,12.87,0,0,0,30.05,56.29Z"/><path class="cls-14" d="M29.7,57c.12.09,2.1,1.75.78,2.73s-2-1.38-2.1-1.64c-.16-.74-.27-2-.27-2A13.63,13.63,0,0,1,29.7,57Z"/><path class="cls-14" d="M29.61,63.52c.07,0,1.2-.12,1.1.59s-1.06.22-1.16.16a8.42,8.42,0,0,1-.71-.52A5.62,5.62,0,0,1,29.61,63.52Z"/><path class="cls-14" d="M13.92,50.87c.08-.12,1.62-2.2,2.68-.94s-1.26,2.12-1.52,2.19c-.72.2-2,.39-2,.39A13.5,13.5,0,0,1,13.92,50.87Z"/><path class="cls-14" d="M13.33,50.58c0-.14.75-2.62-.89-2.7s-.91,2.29-.81,2.54c.28.7.89,1.79.89,1.79A13.92,13.92,0,0,0,13.33,50.58Z"/><path class="cls-14" d="M10.16,52.53c-.14,0-2.68-.51-2-2s2.46.21,2.64.41c.49.56,1.2,1.6,1.2,1.6A13.69,13.69,0,0,1,10.16,52.53Z"/><path class="cls-14" d="M10.15,53.16c-.15,0-2.7.38-2.11,1.91s2.47-.1,2.66-.29c.52-.54,1.27-1.55,1.27-1.55A14.24,14.24,0,0,0,10.15,53.16Z"/><path class="cls-14" d="M10.44,70.46c0,.15.77,2.62,2.19,1.81s-.45-2.43-.67-2.58c-.61-.44-1.71-1-1.71-1A13.21,13.21,0,0,0,10.44,70.46Z"/><path class="cls-14" d="M9.78,70.53c0,.15-.19,2.72-1.76,2.23S8,70.29,8.13,70.1c.51-.56,1.46-1.38,1.46-1.38A12.59,12.59,0,0,1,9.78,70.53Z"/><path class="cls-14" d="M7.49,67.61c-.15,0-2.7-.45-2.59,1.19s2.39.65,2.62.52C8.18,69,9.2,68.23,9.2,68.23A13.76,13.76,0,0,0,7.49,67.61Z"/><path class="cls-14" d="M7.69,67C7.56,67,5.28,65.73,6.37,64.5s2.28.94,2.39,1.18a20,20,0,0,1,.67,1.89A12.78,12.78,0,0,1,7.69,67Z"/><path class="cls-14" d="M28.77,62.82,28.3,59.6,26,60.42S28.1,60,28.77,62.82Z"/><path class="cls-14" d="M21.65,52.25l2.81,1.65-1.61,1.79S24.06,54,21.65,52.25Z"/><path class="cls-14" d="M28.43,64.69l-1.6,2.84L25,66S26.77,67.13,28.43,64.69Z"/><path class="cls-14" d="M18,72l3.22-.53-.86-2.25S20.85,71.28,18,72Z"/><path class="cls-14" d="M8.67,61.12l.5,3.22,2.26-.84S9.37,64,8.67,61.12Z"/><path class="cls-14" d="M15.9,71.63,13.07,70l1.59-1.81S13.47,70,15.9,71.63Z"/><path class="cls-14" d="M9.11,58.84,10.77,56l1.79,1.62S10.82,56.43,9.11,58.84Z"/><path class="cls-14" d="M19.72,51.77l-3.23.45.81,2.28S16.84,52.42,19.72,51.77Z"/><path class="cls-14" d="M30.82,61.43a2.56,2.56,0,0,1-.6,4.95,2.26,2.26,0,0,1-.45,0c.42,1.49.74,3.13.88,3.91C30.12,66.44,34,64.69,34,64.69h0s-2.78-3.18-.7-6.48A40.32,40.32,0,0,1,30.82,61.43Z"/><path class="cls-14" d="M21.14,51.09c0-.06.55-1.07-.15-1.24s-.59.91-.57,1a8.41,8.41,0,0,0,.23.85A6.49,6.49,0,0,0,21.14,51.09Z"/><path class="cls-14" d="M23.53,50.72a2.57,2.57,0,0,0-4.83-1.25,2.47,2.47,0,0,0-.17.42c-1.23-.94-2.65-1.83-3.32-2.25,3.4,1.91,6.43-1,6.43-1h0s1.95,3.74,5.78,3C26.65,49.81,25,50.21,23.53,50.72Z"/><path class="cls-14" d="M7.75,60.25c-.07,0-1.2.13-1.11-.59s1.07-.22,1.17-.16a8.42,8.42,0,0,1,.71.52A7.64,7.64,0,0,1,7.75,60.25Z"/><path class="cls-14" d="M6.54,62.34a2.56,2.56,0,0,1,.59-5,2.26,2.26,0,0,1,.45,0c-.43-1.49-.75-3.13-.89-3.91.54,3.86-3.3,5.62-3.3,5.62h0s2.79,3.17.72,6.48C4.56,64.91,5.53,63.53,6.54,62.34Z"/><path class="cls-14" d="M16.31,72.71c0,.05-.56,1.06.15,1.24s.59-.92.57-1c-.07-.33-.24-.85-.24-.85A5.9,5.9,0,0,0,16.31,72.71Z"/><path class="cls-14" d="M13.92,73.08a2.56,2.56,0,0,0,4.83,1.23,2.47,2.47,0,0,0,.17-.42c1.24.94,2.65,1.83,3.33,2.24-3.41-1.89-6.43,1.06-6.43,1.06h0s-2-3.74-5.79-3C10.8,74,12.45,73.59,13.92,73.08Z"/><circle class="cls-14" cx="21.96" cy="44.6" r="1.23"/><circle class="cls-14" cx="36.1" cy="65.3" r="1.23"/><circle class="cls-14" cx="15.64" cy="79.24" r="1.23"/><circle class="cls-14" cx="1.23" cy="58.74" r="1.23"/><path class="cls-14" d="M61,57.71c-.47-.09-4.87-.22-6.64-.56,1.42-.25,4-1,4.23-1.07a.3.3,0,0,0-.09-.6,40.64,40.64,0,0,0-4.53.26c1.25-.85,4.67-2,5.59-2.62s.31,2.2,1.67,1.28c.49-.33-.57-2.37-1-3s-1.86-2.39-2.39-2c-1.36.93,1.61,1.32.58,2s-3.48,3.09-4.73,3.94c.74-1.23,2-3.63,2.14-3.82a.28.28,0,0,0-.11-.41.3.3,0,0,0-.41.11c-.16.22-1.91,2.28-2.67,3.51.34-1.77,1.94-5.87,2-6.34.12-.63.26-1-.81-1.19s-1.07.18-1.19.81c-.09.47-.09,4.88-.42,6.65A39.65,39.65,0,0,0,51,50.44a.3.3,0,0,0-.34-.26.28.28,0,0,0-.25.34c0,.21.2,3,.45,4.46-.86-1.25-2.2-4.6-2.82-5.51s2.21-.31,1.28-1.67c-.37-.54-2.07.4-3,1h0c-.89.62-2.32,1.82-2,2.34.94,1.36,1.32-1.6,2-.58s3.2,3.43,4.06,4.68c-1.23-.74-3.71-2-3.94-2.09a.28.28,0,0,0-.41.11.3.3,0,0,0,.12.41,40.44,40.44,0,0,0,3.51,2.7c-1.77-.33-5.89-2-6.36-2.06-.63-.12-1-.25-1.19.81s.18,1.07.81,1.19c.47.09,4.89.19,6.67.53-1.42.25-4.07,1.06-4.25,1.1a.3.3,0,0,0-.26.34.29.29,0,0,0,.34.25c.21,0,3-.16,4.45-.4-1.25.85-4.58,2.14-5.5,2.76s-.31-2.2-1.68-1.27c-.53.36.41,2.06,1,2.95v0c.61.9,1.86,2.39,2.39,2,1.37-.93-1.61-1.31-.58-2s3.43-3.14,4.68-4c-.74,1.23-2,3.67-2.09,3.88a.28.28,0,0,0,.12.41.3.3,0,0,0,.41-.12c.15-.2,1.89-2.28,2.64-3.51-.33,1.77-1.91,5.88-2,6.35-.12.63-.25,1,.82,1.19s1.07-.18,1.19-.81c.09-.47.09-4.87.42-6.64C52.08,60.77,53,63.3,53,63.59s.34.26.34.26a.29.29,0,0,0,.26-.34c0-.27-.27-3-.52-4.43.86,1.26,2.26,4.56,2.89,5.48s-2.21.31-1.28,1.67c.36.53,2.07-.4,3-1h0c.9-.62,2.33-1.82,2-2.35-.93-1.36-1.32,1.61-2,.58s-3.32-3.34-4.18-4.59c1.24.75,3.82,1.89,4.06,2a.29.29,0,0,0,.41-.12.29.29,0,0,0-.12-.4c-.21-.16-2.32-1.87-3.55-2.62,1.77.34,5.93,1.89,6.39,2,.64.12,1,.25,1.2-.81S61.66,57.83,61,57.71Zm-9.33,1.08a1.81,1.81,0,1,1,2.11-1.44A1.81,1.81,0,0,1,51.69,58.79Z"/><path class="cls-14" d="M56.8,67.92c-.08.12-1.59,2.22-2.67,1s1.24-2.14,1.49-2.22c.72-.21,2-.41,2-.41A12.35,12.35,0,0,1,56.8,67.92Z"/><path class="cls-14" d="M57.4,68.2c0,.14-.72,2.64.92,2.69s.88-2.31.78-2.55c-.29-.69-.92-1.78-.92-1.78A12.58,12.58,0,0,0,57.4,68.2Z"/><path class="cls-14" d="M60.53,66.21c.15,0,2.69.47,2,2s-2.46-.18-2.64-.38c-.5-.56-1.22-1.59-1.22-1.59A14.2,14.2,0,0,1,60.53,66.21Z"/><path class="cls-14" d="M60.54,65.57c.15,0,2.7-.41,2.08-1.93s-2.47.13-2.65.33c-.51.55-1.25,1.56-1.25,1.56A12.49,12.49,0,0,0,60.54,65.57Z"/><path class="cls-14" d="M60.34,48.49c0-.14-.7-2.64-2.15-1.86s.4,2.44.61,2.6c.6.45,1.69,1.08,1.69,1.08A12.9,12.9,0,0,0,60.34,48.49Z"/><path class="cls-14" d="M61,48.43c0-.14.25-2.71,1.81-2.19s0,2.47-.17,2.67c-.52.54-1.49,1.34-1.49,1.34A13.22,13.22,0,0,1,61,48.43Z"/><path class="cls-14" d="M63.23,51.4c.15,0,2.68.52,2.61-1.12s-2.37-.7-2.6-.58c-.67.34-1.71,1-1.71,1A12.14,12.14,0,0,0,63.23,51.4Z"/><path class="cls-14" d="M62.89,52.14c.11.09,2.09,1.75.78,2.73s-2.05-1.39-2.1-1.65c-.16-.73-.27-2-.27-2A13.63,13.63,0,0,1,62.89,52.14Z"/><path class="cls-14" d="M62.8,58.64c.06,0,1.19-.13,1.1.59s-1.07.22-1.16.16a8.22,8.22,0,0,1-.71-.53A6.1,6.1,0,0,1,62.8,58.64Z"/><path class="cls-14" d="M47.11,46c.08-.13,1.62-2.2,2.68-1s-1.27,2.13-1.52,2.2c-.73.2-2,.38-2,.38A12.67,12.67,0,0,1,47.11,46Z"/><path class="cls-14" d="M46.51,45.69c.05-.14.76-2.62-.88-2.7s-.92,2.3-.82,2.55c.29.69.9,1.79.9,1.79A13.2,13.2,0,0,0,46.51,45.69Z"/><path class="cls-14" d="M43.35,47.64c-.15,0-2.68-.5-2-2s2.46.22,2.63.41c.5.57,1.2,1.61,1.2,1.61A12.46,12.46,0,0,1,43.35,47.64Z"/><path class="cls-14" d="M43.34,48.28c-.15,0-2.71.38-2.11,1.91s2.47-.1,2.65-.29a19.15,19.15,0,0,0,1.28-1.55A12.62,12.62,0,0,0,43.34,48.28Z"/><path class="cls-14" d="M43.63,65.58c0,.14.76,2.62,2.19,1.81s-.46-2.43-.67-2.59a19.69,19.69,0,0,0-1.71-1A13.21,13.21,0,0,0,43.63,65.58Z"/><path class="cls-14" d="M43,65.65c0,.15-.19,2.72-1.76,2.23s-.07-2.47.11-2.67a19.2,19.2,0,0,1,1.45-1.37A13.72,13.72,0,0,1,43,65.65Z"/><path class="cls-14" d="M40.67,62.73c-.14,0-2.69-.45-2.58,1.19s2.38.64,2.62.52c.66-.36,1.68-1.1,1.68-1.1A14,14,0,0,0,40.67,62.73Z"/><path class="cls-14" d="M40.88,62.13c-.14-.07-2.41-1.29-1.32-2.52s2.28,1,2.39,1.19c.3.69.66,1.89.66,1.89A12.8,12.8,0,0,1,40.88,62.13Z"/><path class="cls-14" d="M62,57.94l-.48-3.22-2.26.82S61.29,55.07,62,57.94Z"/><path class="cls-14" d="M54.83,47.37,57.64,49,56,50.81S57.25,49.07,54.83,47.37Z"/><path class="cls-14" d="M61.61,59.81,60,62.64l-1.82-1.57S60,62.25,61.61,59.81Z"/><path class="cls-14" d="M51.17,67.12l3.21-.53-.86-2.25S54,66.4,51.17,67.12Z"/><path class="cls-14" d="M41.85,56.24l.51,3.22,2.26-.84S42.55,59.11,41.85,56.24Z"/><path class="cls-14" d="M49.08,66.74l-2.82-1.62,1.59-1.81S46.65,65.07,49.08,66.74Z"/><path class="cls-14" d="M42.29,54,44,51.16l1.78,1.61S44,51.55,42.29,54Z"/><path class="cls-14" d="M52.9,46.88l-3.22.46.81,2.27S50,47.54,52.9,46.88Z"/><path class="cls-14" d="M64,56.55a2.56,2.56,0,0,1-.6,5,2.36,2.36,0,0,1-.46,0c.43,1.49.75,3.13.89,3.91-.53-3.87,3.31-5.61,3.31-5.61h0s-2.77-3.18-.69-6.48C66,54,65,55.37,64,56.55Z"/><path class="cls-14" d="M54.32,46.2c0-.05.56-1.06-.14-1.24s-.6.91-.58,1c.06.32.23.85.23.85A5.57,5.57,0,0,0,54.32,46.2Z"/><path class="cls-14" d="M56.71,45.84a2.56,2.56,0,0,0-5-.83c-1.23-.94-2.64-1.84-3.32-2.25,3.41,1.9,6.44-1,6.44-1h0s1.94,3.74,5.78,3C59.83,44.92,58.18,45.33,56.71,45.84Z"/><path class="cls-14" d="M40.93,55.36c-.06,0-1.19.13-1.1-.58s1.06-.23,1.16-.17a8.22,8.22,0,0,1,.71.53A5.61,5.61,0,0,1,40.93,55.36Z"/><path class="cls-14" d="M39.73,57.46a2.56,2.56,0,0,1,.58-5,2.37,2.37,0,0,1,.46,0c-.43-1.49-.76-3.14-.9-3.91.54,3.86-3.29,5.62-3.29,5.62h0s2.78,3.17.71,6.48A40.18,40.18,0,0,1,39.73,57.46Z"/><path class="cls-14" d="M49.49,67.82c0,.06-.55,1.07.15,1.24s.59-.91.57-1a8.41,8.41,0,0,0-.23-.85A5.18,5.18,0,0,0,49.49,67.82Z"/><path class="cls-14" d="M47.1,68.2a2.56,2.56,0,0,0,4.83,1.23,2.53,2.53,0,0,0,.18-.42c1.23.93,2.65,1.82,3.32,2.24-3.41-1.9-6.43,1-6.43,1h0s-2-3.73-5.78-3C44,69.12,45.63,68.71,47.1,68.2Z"/><circle class="cls-14" cx="55.15" cy="39.72" r="1.23"/><circle class="cls-14" cx="69.29" cy="60.42" r="1.23"/><circle class="cls-14" cx="48.83" cy="74.36" r="1.23"/><circle class="cls-14" cx="34.42" cy="53.86" r="1.23"/><path class="cls-14" d="M65.85,90.52c-.47-.09-4.87-.22-6.64-.55,1.42-.26,4-1,4.22-1.08a.3.3,0,0,0-.08-.6,43.45,43.45,0,0,0-4.54.26c1.26-.85,4.68-2,5.59-2.62s.31,2.21,1.68,1.28c.49-.33-.58-2.36-1-3s-1.85-2.39-2.38-2c-1.36.93,1.61,1.32.58,2s-3.48,3.08-4.73,3.93c.74-1.23,2-3.62,2.14-3.82a.28.28,0,0,0-.11-.41.3.3,0,0,0-.41.12,41.51,41.51,0,0,0-2.67,3.5c.33-1.77,1.93-5.87,2-6.34.12-.63.25-1-.81-1.19s-1.07.18-1.19.81c-.09.47-.09,4.89-.42,6.65a43.05,43.05,0,0,0-1.22-4.24A.3.3,0,0,0,55.5,83a.28.28,0,0,0-.25.34c0,.21.2,3,.45,4.46-.86-1.25-2.2-4.6-2.82-5.51s2.21-.31,1.28-1.67c-.37-.53-2.07.4-3,1h0c-.9.62-2.33,1.82-2,2.34.94,1.36,1.32-1.6,2-.57s3.2,3.43,4.06,4.68c-1.24-.75-3.71-2-3.94-2.1a.28.28,0,0,0-.41.11.3.3,0,0,0,.11.41,41,41,0,0,0,3.52,2.7c-1.78-.33-5.89-2-6.36-2.06-.63-.12-1-.25-1.19.81s.18,1.07.81,1.19c.47.09,4.89.2,6.67.53-1.42.25-4.07,1.06-4.25,1.1a.3.3,0,0,0-.26.34.29.29,0,0,0,.34.26c.21,0,3-.17,4.45-.41-1.26.85-4.58,2.14-5.5,2.77s-.31-2.21-1.68-1.28c-.53.36.41,2.06,1,3v0c.61.89,1.86,2.38,2.39,2,1.37-.93-1.61-1.32-.58-2s3.43-3.15,4.68-4c-.75,1.23-2,3.68-2.09,3.88a.28.28,0,0,0,.12.41.3.3,0,0,0,.41-.12c.14-.2,1.88-2.27,2.64-3.5-.34,1.77-1.91,5.87-2,6.34-.12.63-.25,1,.81,1.19s1.08-.18,1.2-.81c.08-.47.09-4.87.42-6.64.26,1.42,1.13,3.94,1.21,4.23a.3.3,0,0,0,.34.26.29.29,0,0,0,.26-.34c0-.27-.27-3-.52-4.42.85,1.25,2.26,4.56,2.88,5.47s-2.2.31-1.27,1.67c.36.54,2.07-.4,3-1h0c.9-.62,2.33-1.82,2-2.34-.93-1.36-1.32,1.6-2,.57s-3.31-3.33-4.17-4.58c1.24.74,3.82,1.89,4,2a.3.3,0,1,0,.3-.52c-.22-.15-2.32-1.86-3.55-2.62,1.77.34,5.92,1.89,6.39,2,.64.12,1,.25,1.19-.81S66.48,90.64,65.85,90.52ZM56.52,91.6a1.81,1.81,0,1,1,2.11-1.44A1.79,1.79,0,0,1,56.52,91.6Z"/><path class="cls-14" d="M61.63,100.73c-.09.12-1.59,2.22-2.67,1s1.24-2.14,1.49-2.21a19.22,19.22,0,0,1,2-.42A13.84,13.84,0,0,1,61.63,100.73Z"/><path class="cls-14" d="M62.23,101c0,.14-.73,2.63.91,2.68s.89-2.3.79-2.55c-.29-.69-.92-1.78-.92-1.78A12.93,12.93,0,0,0,62.23,101Z"/><path class="cls-14" d="M65.36,99c.15,0,2.69.46,2,2s-2.46-.18-2.64-.38c-.5-.56-1.22-1.58-1.22-1.58A12.5,12.5,0,0,1,65.36,99Z"/><path class="cls-14" d="M65.37,98.39c.15,0,2.7-.41,2.08-1.94s-2.47.14-2.65.33c-.52.55-1.26,1.56-1.26,1.56A13.77,13.77,0,0,0,65.37,98.39Z"/><path class="cls-14" d="M65.17,81.3c0-.14-.71-2.63-2.15-1.85s.4,2.43.61,2.59a19.15,19.15,0,0,0,1.69,1.08A12.9,12.9,0,0,0,65.17,81.3Z"/><path class="cls-14" d="M65.83,81.25c0-.15.25-2.72,1.81-2.19s0,2.47-.17,2.66C67,82.27,66,83.06,66,83.06A13,13,0,0,1,65.83,81.25Z"/><path class="cls-14" d="M68.06,84.22c.15,0,2.68.51,2.61-1.13s-2.37-.7-2.61-.58c-.67.35-1.7,1-1.7,1A13.15,13.15,0,0,0,68.06,84.22Z"/><path class="cls-14" d="M67.71,85c.12.09,2.1,1.75.79,2.73s-2-1.38-2.1-1.64c-.16-.74-.27-2-.27-2A13,13,0,0,1,67.71,85Z"/><path class="cls-14" d="M67.63,91.45c.06,0,1.19-.13,1.1.59s-1.07.22-1.17.16a8.42,8.42,0,0,1-.71-.52A5.45,5.45,0,0,1,67.63,91.45Z"/><path class="cls-14" d="M51.94,78.8c.08-.12,1.61-2.2,2.67-.94S53.35,80,53.1,80.05c-.73.2-2,.39-2,.39A12.58,12.58,0,0,1,51.94,78.8Z"/><path class="cls-14" d="M51.34,78.51c0-.14.76-2.63-.88-2.7s-.92,2.29-.82,2.54c.28.7.89,1.79.89,1.79A12.45,12.45,0,0,0,51.34,78.51Z"/><path class="cls-14" d="M48.18,80.46c-.15,0-2.68-.51-2-2s2.46.21,2.64.41a19.21,19.21,0,0,1,1.2,1.6A13.55,13.55,0,0,1,48.18,80.46Z"/><path class="cls-14" d="M48.16,81.09c-.14,0-2.7.38-2.1,1.91s2.47-.1,2.65-.29c.52-.54,1.28-1.55,1.28-1.55A14.43,14.43,0,0,0,48.16,81.09Z"/><path class="cls-14" d="M48.46,98.39c0,.15.76,2.62,2.19,1.81s-.46-2.43-.67-2.58c-.61-.44-1.72-1-1.72-1A12.19,12.19,0,0,0,48.46,98.39Z"/><path class="cls-14" d="M47.8,98.46c0,.15-.2,2.72-1.76,2.23S46,98.22,46.15,98c.5-.56,1.45-1.38,1.45-1.38A13.72,13.72,0,0,1,47.8,98.46Z"/><path class="cls-14" d="M45.5,95.54c-.15,0-2.69-.45-2.58,1.19s2.38.64,2.62.52c.66-.36,1.68-1.09,1.68-1.09A13.48,13.48,0,0,0,45.5,95.54Z"/><path class="cls-14" d="M45.71,94.94c-.14-.06-2.41-1.29-1.33-2.51s2.29.94,2.39,1.18a20,20,0,0,1,.67,1.89A12.8,12.8,0,0,1,45.71,94.94Z"/><path class="cls-14" d="M66.79,90.75l-.48-3.22L64,88.35S66.12,87.88,66.79,90.75Z"/><path class="cls-14" d="M59.66,80.18l2.81,1.65-1.61,1.79S62.07,81.88,59.66,80.18Z"/><path class="cls-14" d="M66.44,92.62l-1.6,2.84L63,93.88S64.79,95.06,66.44,92.62Z"/><path class="cls-14" d="M56,99.93l3.21-.53-.86-2.25S58.86,99.21,56,99.93Z"/><path class="cls-14" d="M46.68,89.05l.51,3.22,2.26-.84S47.38,91.92,46.68,89.05Z"/><path class="cls-14" d="M53.91,99.56l-2.82-1.62,1.59-1.82S51.48,97.88,53.91,99.56Z"/><path class="cls-14" d="M47.12,86.77,48.78,84l1.79,1.62S48.83,84.36,47.12,86.77Z"/><path class="cls-14" d="M57.73,79.7l-3.22.45.8,2.28S54.85,80.35,57.73,79.7Z"/><path class="cls-14" d="M68.84,89.36a2.56,2.56,0,0,1-.6,5,2.37,2.37,0,0,1-.46,0c.43,1.49.74,3.13.88,3.91C68.14,94.37,72,92.62,72,92.62h0s-2.78-3.18-.7-6.48C70.83,86.79,69.85,88.18,68.84,89.36Z"/><path class="cls-14" d="M59.15,79c0-.06.56-1.07-.14-1.24s-.6.91-.58,1a8.41,8.41,0,0,0,.23.85A5.18,5.18,0,0,0,59.15,79Z"/><path class="cls-14" d="M61.54,78.65a2.56,2.56,0,0,0-4.82-1.25,2.53,2.53,0,0,0-.18.42c-1.23-.94-2.65-1.83-3.32-2.25,3.41,1.91,6.44-1,6.44-1h0s1.94,3.74,5.77,3C64.66,77.74,63,78.14,61.54,78.65Z"/><path class="cls-14" d="M45.76,88.18c-.06,0-1.19.13-1.1-.59s1.06-.22,1.16-.16a8.42,8.42,0,0,1,.71.52A7.64,7.64,0,0,1,45.76,88.18Z"/><path class="cls-14" d="M44.56,90.27a2.56,2.56,0,0,1,.58-5,2.36,2.36,0,0,1,.46,0c-.43-1.49-.76-3.13-.9-3.91.54,3.86-3.3,5.62-3.3,5.62h0s2.79,3.17.72,6.48C42.57,92.84,43.55,91.46,44.56,90.27Z"/><path class="cls-14" d="M54.32,100.64s-.55,1.06.15,1.24.59-.92.57-1a8.41,8.41,0,0,0-.23-.85A5.57,5.57,0,0,0,54.32,100.64Z"/><path class="cls-14" d="M51.93,101a2.56,2.56,0,0,0,4.83,1.23,3.79,3.79,0,0,0,.18-.42c1.23.94,2.65,1.83,3.32,2.24-3.41-1.89-6.43,1.06-6.43,1.06h0s-2-3.74-5.79-3C48.82,101.94,50.46,101.52,51.93,101Z"/><circle class="cls-14" cx="59.98" cy="72.53" r="1.23"/><circle class="cls-14" cx="74.11" cy="93.23" r="1.23"/><circle class="cls-14" cx="53.66" cy="107.17" r="1.23"/><circle class="cls-14" cx="39.24" cy="86.67" r="1.23"/><path class="cls-14" d="M32.67,95.42c-.47-.08-4.87-.21-6.65-.55,1.43-.25,4-1,4.23-1.08a.3.3,0,0,0,.26-.34.29.29,0,0,0-.34-.25,38.43,38.43,0,0,0-4.54.26c1.26-.86,4.67-2,5.59-2.62s.31,2.2,1.68,1.27c.48-.33-.58-2.36-1-3s-1.85-2.38-2.38-2c-1.37.93,1.61,1.32.58,2s-3.48,3.08-4.73,3.94c.74-1.23,2-3.63,2.14-3.82a.28.28,0,0,0-.12-.41.3.3,0,0,0-.41.11c-.16.22-1.91,2.28-2.66,3.5.33-1.77,1.93-5.87,2-6.33.12-.64.25-1-.81-1.19s-1.08.17-1.2.81c-.08.46-.08,4.88-.41,6.65-.26-1.42-1.15-4-1.22-4.25a.3.3,0,0,0-.34-.25.28.28,0,0,0-.26.33c0,.21.21,3,.45,4.46-.85-1.25-2.19-4.59-2.82-5.51s2.21-.3,1.28-1.67c-.36-.53-2.07.4-3,1h0c-.9.62-2.33,1.83-2,2.35.93,1.36,1.32-1.61,2-.58s3.2,3.43,4.06,4.68c-1.24-.74-3.72-2-3.95-2.1a.28.28,0,0,0-.41.12.3.3,0,0,0,.12.41,41.5,41.5,0,0,0,3.52,2.7c-1.78-.34-5.89-2-6.36-2.07-.64-.11-1-.25-1.19.82s.17,1.07.81,1.18c.47.09,4.89.2,6.66.53-1.42.26-4.07,1.06-4.25,1.11a.28.28,0,0,0-.25.33.29.29,0,0,0,.34.26c.21,0,3-.16,4.45-.4-1.26.85-4.59,2.14-5.5,2.76s-.32-2.2-1.68-1.27c-.54.36.4,2.06,1,3l0,0c.61.89,1.86,2.38,2.39,2,1.36-.93-1.61-1.32-.58-2s3.42-3.14,4.68-4c-.75,1.23-2,3.68-2.09,3.88a.28.28,0,0,0,.11.41.3.3,0,0,0,.41-.11c.15-.2,1.89-2.28,2.65-3.51-.34,1.77-1.91,5.88-2,6.34-.12.64-.25,1,.81,1.19s1.07-.17,1.19-.81c.09-.46.1-4.87.43-6.64a42.59,42.59,0,0,0,1.21,4.24.3.3,0,0,0,.34.25.28.28,0,0,0,.25-.34c0-.27-.27-3-.51-4.42.85,1.25,2.26,4.56,2.88,5.48s-2.21.3-1.28,1.67c.37.53,2.07-.41,3-1h0c.9-.62,2.33-1.83,2-2.35-.94-1.36-1.32,1.61-2,.58S26,97.83,25.1,96.58c1.23.75,3.81,1.89,4,2a.29.29,0,0,0,.41-.12.29.29,0,0,0-.11-.41c-.22-.15-2.32-1.86-3.55-2.61,1.77.33,5.92,1.89,6.39,2,.63.12,1,.26,1.19-.81S33.3,95.54,32.67,95.42Zm-9.34,1.09a1.81,1.81,0,1,1,2.11-1.44A1.82,1.82,0,0,1,23.33,96.51Z"/><path class="cls-14" d="M32,86.21c0-.15-.71-2.64-2.15-1.86s.4,2.44.61,2.6c.6.45,1.69,1.07,1.69,1.07A14.45,14.45,0,0,0,32,86.21Z"/><path class="cls-14" d="M32.65,86.15c0-.15.25-2.72,1.8-2.19s0,2.47-.16,2.66C33.77,87.17,32.8,88,32.8,88A13.22,13.22,0,0,1,32.65,86.15Z"/><path class="cls-14" d="M34.88,89.12c.14,0,2.68.51,2.61-1.13s-2.37-.7-2.61-.57a19.53,19.53,0,0,0-1.7,1A13,13,0,0,0,34.88,89.12Z"/><path class="cls-14" d="M34.53,89.86c.12.09,2.1,1.74.78,2.73s-2-1.39-2.1-1.65c-.15-.74-.26-2-.26-2A12.35,12.35,0,0,1,34.53,89.86Z"/><path class="cls-14" d="M33.6,95.66l-.47-3.22-2.27.81S32.94,92.78,33.6,95.66Z"/><path class="cls-14" d="M26.48,85.08l2.81,1.65-1.61,1.8S28.89,86.78,26.48,85.08Z"/><path class="cls-14" d="M24.55,84.6l-3.23.46.81,2.27S21.67,85.26,24.55,84.6Z"/><path class="cls-14" d="M35.66,94.27a2.56,2.56,0,0,1-.6,4.94,2.37,2.37,0,0,1-.46,0c.43,1.49.74,3.14.88,3.91-.53-3.86,3.32-5.61,3.32-5.61h0S36,94.34,38.1,91C37.65,91.7,36.67,93.08,35.66,94.27Z"/><path class="cls-14" d="M26,83.92s.55-1.06-.15-1.24-.59.91-.57,1c.06.33.23.86.23.86A5.57,5.57,0,0,0,26,83.92Z"/><path class="cls-14" d="M28.36,83.56a2.57,2.57,0,0,0-4.83-1.25,1.94,1.94,0,0,0-.17.42c-1.23-.94-2.65-1.84-3.32-2.25,3.4,1.9,6.43-1,6.43-1h0s1.94,3.75,5.77,3C31.48,82.64,29.83,83.05,28.36,83.56Z"/><circle class="cls-14" cx="26.8" cy="77.44" r="1.23"/><ellipse class="cls-14" cx="20.99" cy="78.46" rx="3.62" ry="1.66" transform="translate(-11.2 3.89) rotate(-8.37)"/><ellipse class="cls-14" cx="54.62" cy="73.51" rx="3.62" ry="1.66" transform="translate(-10.12 8.73) rotate(-8.37)"/><ellipse class="cls-14" cx="35.24" cy="59.47" rx="1.66" ry="3.62" transform="translate(-9.58 6.84) rotate(-9.77)"/><ellipse class="cls-14" cx="40.07" cy="92.32" rx="1.66" ry="3.62" transform="translate(-15.08 8.14) rotate(-9.77)"/><path class="cls-14" d="M31.71,77.45a.28.28,0,0,1-.34-.25.29.29,0,0,1,.25-.34c.18,0,2.83-.85,4.25-1.1a48.18,48.18,0,0,0-5.13-.43,7,7,0,0,0,.07,1.51,7.37,7.37,0,0,0,.81,2.45c1.38-.67,3.57-1.59,4.54-2.24C34.74,77.29,31.92,77.43,31.71,77.45Z"/><path class="cls-14" d="M32.72,72.07c.23.12,2.71,1.35,3.94,2.09-.68-1-2.44-2.78-3.45-3.93A7.46,7.46,0,0,0,31,73.72,42.94,42.94,0,0,0,36,75.29a39.45,39.45,0,0,1-3.52-2.7.3.3,0,0,1-.12-.41A.28.28,0,0,1,32.72,72.07Z"/><path class="cls-14" d="M44,79.26a.3.3,0,0,1,.11.41.29.29,0,0,1-.41.11c-.24-.12-2.82-1.26-4-2A43.45,43.45,0,0,0,43,81.41a7.47,7.47,0,0,0,2.23-3.32,47.24,47.24,0,0,0-4.79-1.45C41.67,77.39,43.77,79.1,44,79.26Z"/><path class="cls-14" d="M37.87,77.7a1.81,1.81,0,1,0-1.44-2.11A1.81,1.81,0,0,0,37.87,77.7Z"/><path class="cls-14" d="M37.57,78.19c-.75,1.22-2.49,3.3-2.64,3.5a.3.3,0,0,1-.41.12.28.28,0,0,1-.11-.41c.11-.21,1.34-2.65,2.08-3.88-1,.65-2.64,2.27-3.79,3.28a7.52,7.52,0,0,0,3.42,2.11A44,44,0,0,0,37.57,78.19Z"/><path class="cls-14" d="M37.05,73.89c-.24-1.42-.43-4.25-.45-4.46a.29.29,0,0,1,.26-.34.3.3,0,0,1,.34.26c.07.26,1,2.82,1.22,4.24a47.39,47.39,0,0,0,.34-5.24,7.92,7.92,0,0,0-1.68.06,7.63,7.63,0,0,0-2.39.78C35.38,70.56,36.37,72.89,37.05,73.89Z"/><path class="cls-14" d="M39.3,78c.24,1.42.48,4.16.51,4.43a.28.28,0,0,1-.25.34.3.3,0,0,1-.34-.26A43,43,0,0,1,38,78.27a44.49,44.49,0,0,0-.35,4.91,8.53,8.53,0,0,0,1.59-.06,7.79,7.79,0,0,0,2.32-.75C40.87,81,39.93,78.93,39.3,78Z"/><path class="cls-14" d="M38.82,73.66c.75-1.23,2.5-3.29,2.66-3.51a.3.3,0,0,1,.41-.11.28.28,0,0,1,.12.41c-.11.2-1.4,2.59-2.15,3.82,1-.67,2.79-2.34,4-3.33a7.41,7.41,0,0,0-3.43-2.27A44.39,44.39,0,0,0,38.82,73.66Z"/><path class="cls-14" d="M44.85,72.51a41.75,41.75,0,0,0-4.68,2.14,40.67,40.67,0,0,1,4.54-.26.29.29,0,0,1,.34.26.3.3,0,0,1-.26.34c-.22.05-2.81.82-4.23,1.07,1.16.22,3.43.35,5,.44a7.43,7.43,0,0,0,0-1.82A7.83,7.83,0,0,0,44.85,72.51Z"/><path class="cls-14" d="M27.68,62.61c-.47-.08-4.87-.21-6.65-.55,1.42-.25,4-1,4.23-1.08a.3.3,0,1,0-.08-.59,38.33,38.33,0,0,0-4.54.26c1.25-.86,4.67-2,5.59-2.62s.31,2.2,1.68,1.27c.48-.33-.58-2.36-1-3s-1.85-2.39-2.38-2c-1.37.93,1.61,1.32.58,2s-3.48,3.08-4.74,3.94c.75-1.23,2-3.63,2.15-3.82a.28.28,0,0,0-.12-.41.3.3,0,0,0-.41.11c-.16.22-1.91,2.28-2.66,3.5.33-1.77,1.93-5.87,2-6.33.12-.64.25-1-.82-1.19s-1.07.17-1.19.81c-.09.46-.08,4.88-.42,6.65a43.31,43.31,0,0,0-1.21-4.25.3.3,0,0,0-.34-.25.28.28,0,0,0-.26.33c0,.21.2,3,.45,4.46-.85-1.25-2.19-4.59-2.82-5.51s2.21-.3,1.28-1.67c-.36-.53-2.07.4-3,1h0c-.9.62-2.33,1.83-2,2.35.93,1.36,1.32-1.61,2-.58s3.2,3.43,4.06,4.68c-1.23-.74-3.71-2-3.94-2.1a.28.28,0,0,0-.41.12.3.3,0,0,0,.12.41,42.6,42.6,0,0,0,3.51,2.7c-1.77-.34-5.89-2-6.36-2.07-.63-.12-1-.25-1.19.82s.18,1.06.82,1.18c.47.09,4.89.2,6.66.53-1.42.26-4.07,1.06-4.25,1.11a.29.29,0,0,0-.26.33.3.3,0,0,0,.35.26c.2,0,3-.16,4.44-.4-1.25.85-4.58,2.14-5.5,2.76s-.31-2.2-1.67-1.27c-.54.36.4,2.06,1,2.95l0,0c.61.89,1.85,2.38,2.39,2,1.36-.93-1.62-1.32-.58-2s3.42-3.14,4.67-4c-.74,1.23-2,3.68-2.09,3.88a.28.28,0,0,0,.12.41.3.3,0,0,0,.41-.11c.15-.2,1.89-2.28,2.64-3.51-.33,1.77-1.91,5.88-2,6.34-.11.64-.25,1,.82,1.19s1.07-.18,1.19-.81c.09-.46.09-4.87.43-6.64a43.26,43.26,0,0,0,1.2,4.24.3.3,0,0,0,.34.25.28.28,0,0,0,.26-.34c0-.27-.27-3-.52-4.42.86,1.25,2.26,4.56,2.89,5.48s-2.21.3-1.28,1.67c.37.53,2.07-.41,3-1h0c.89-.62,2.32-1.83,2-2.35-.94-1.36-1.32,1.61-2,.58S21,65,20.11,63.77c1.23.75,3.81,1.89,4.05,2a.29.29,0,0,0,.41-.12.3.3,0,0,0-.12-.41c-.21-.15-2.32-1.86-3.55-2.61,1.78.33,5.93,1.89,6.4,2,.63.12,1,.26,1.19-.81S28.31,62.73,27.68,62.61ZM18.34,63.7a1.81,1.81,0,1,1,2.11-1.45A1.81,1.81,0,0,1,18.34,63.7Z"/><path class="cls-14" d="M23.45,72.82c-.08.13-1.59,2.22-2.66,1s1.23-2.14,1.48-2.21c.73-.21,2-.41,2-.41A12.43,12.43,0,0,1,23.45,72.82Z"/><path class="cls-14" d="M24.05,73.11c0,.14-.72,2.63.92,2.69s.88-2.31.78-2.55c-.29-.7-.91-1.79-.91-1.79A12.55,12.55,0,0,0,24.05,73.11Z"/><path class="cls-14" d="M27.19,71.12c.14,0,2.69.47,2,2s-2.47-.18-2.64-.37c-.51-.56-1.23-1.59-1.23-1.59A12.61,12.61,0,0,1,27.19,71.12Z"/><path class="cls-14" d="M27.19,70.48c.15,0,2.7-.41,2.08-1.93s-2.46.13-2.65.32c-.51.55-1.25,1.57-1.25,1.57A12.55,12.55,0,0,0,27.19,70.48Z"/><path class="cls-14" d="M29.45,63.55c.06,0,1.19-.13,1.1.59s-1.06.22-1.16.16c-.28-.18-.71-.53-.71-.53A6.1,6.1,0,0,1,29.45,63.55Z"/><path class="cls-14" d="M28.61,62.85l-.47-3.22-2.27.81S27.94,60,28.61,62.85Z"/><path class="cls-14" d="M28.27,64.71l-1.6,2.84L24.84,66S26.61,67.16,28.27,64.71Z"/><path class="cls-14" d="M17.82,72,21,71.5l-.85-2.26S20.68,71.31,17.82,72Z"/><path class="cls-14" d="M30.66,61.46a2.56,2.56,0,0,1-.6,4.94,2.26,2.26,0,0,1-.45,0c.42,1.49.74,3.14.88,3.91-.53-3.86,3.31-5.61,3.31-5.61h0s-2.77-3.18-.69-6.48A40.14,40.14,0,0,1,30.66,61.46Z"/><path class="cls-14" d="M13.76,73.1a2.56,2.56,0,0,0,4.83,1.24,2.26,2.26,0,0,0,.17-.43,39.66,39.66,0,0,0,3.33,2.24c-3.41-1.89-6.43,1.06-6.43,1.06h0s-2-3.74-5.79-3C10.64,74,12.29,73.62,13.76,73.1Z"/><circle class="cls-14" cx="35.94" cy="65.33" r="1.23"/><path class="cls-14" d="M32.5,95.43c-.47-.09-4.87-.22-6.64-.56,1.42-.25,4-1,4.23-1.07a.3.3,0,0,0-.08-.6,40.67,40.67,0,0,0-4.54.26c1.25-.85,4.67-2,5.59-2.62s.31,2.2,1.67,1.28c.49-.33-.57-2.37-1-3s-1.85-2.39-2.39-2c-1.36.93,1.62,1.32.58,2s-3.48,3.08-4.73,3.94c.75-1.23,2-3.63,2.15-3.82a.28.28,0,0,0-.12-.41.3.3,0,0,0-.41.11c-.16.22-1.91,2.28-2.67,3.51.34-1.77,1.94-5.87,2-6.34.12-.63.25-1-.82-1.19s-1.07.18-1.19.81c-.09.47-.08,4.88-.42,6.65a42.9,42.9,0,0,0-1.21-4.24c-.09-.31-.34-.26-.34-.26a.29.29,0,0,0-.26.34c0,.21.2,3,.45,4.46-.86-1.26-2.19-4.6-2.82-5.51s2.21-.31,1.28-1.67c-.37-.54-2.07.4-3,1h0c-.9.62-2.33,1.82-2,2.34.94,1.36,1.33-1.6,2-.58S21.1,91.72,22,93c-1.23-.74-3.71-2-3.94-2.1a.28.28,0,0,0-.41.12.3.3,0,0,0,.12.41,40.44,40.44,0,0,0,3.51,2.7c-1.77-.33-5.89-2-6.36-2.06-.63-.12-1-.25-1.19.81s.18,1.07.82,1.19c.46.09,4.88.19,6.66.53-1.42.25-4.07,1.06-4.25,1.1a.3.3,0,0,0-.26.34.29.29,0,0,0,.34.25c.21,0,3-.16,4.45-.4-1.25.85-4.58,2.14-5.5,2.76s-.31-2.2-1.68-1.27c-.53.36.41,2.06,1,3v0c.62.9,1.86,2.39,2.4,2,1.36-.93-1.62-1.31-.59-2s3.43-3.14,4.68-4c-.74,1.23-2,3.67-2.09,3.88a.28.28,0,0,0,.12.41.3.3,0,0,0,.41-.12c.15-.2,1.89-2.28,2.64-3.51-.33,1.77-1.91,5.88-2,6.35-.12.63-.25,1,.82,1.19s1.07-.18,1.19-.81c.09-.47.09-4.87.43-6.64a43.71,43.71,0,0,0,1.2,4.23.32.32,0,0,0,.34.26.29.29,0,0,0,.26-.34c0-.27-.27-3-.52-4.43.86,1.26,2.26,4.56,2.89,5.48s-2.21.31-1.28,1.67c.36.53,2.07-.4,3-1h0c.9-.62,2.33-1.82,2-2.35-.93-1.36-1.32,1.61-2,.58s-3.32-3.34-4.18-4.59c1.24.75,3.82,1.89,4.06,2a.29.29,0,0,0,.41-.12.29.29,0,0,0-.12-.4c-.21-.16-2.32-1.87-3.55-2.62,1.78.34,5.93,1.89,6.4,2,.63.12,1,.25,1.19-.81S33.14,95.55,32.5,95.43Zm-9.33,1.08a1.81,1.81,0,1,1,2.11-1.44A1.81,1.81,0,0,1,23.17,96.51Z"/><path class="cls-14" d="M31.82,86.21c0-.14-.7-2.64-2.15-1.86s.4,2.44.61,2.6C30.89,87.4,32,88,32,88A12.9,12.9,0,0,0,31.82,86.21Z"/><path class="cls-14" d="M32.48,86.15c0-.14.26-2.71,1.81-2.19s0,2.47-.17,2.67c-.52.54-1.48,1.34-1.48,1.34A12.71,12.71,0,0,1,32.48,86.15Z"/><path class="cls-14" d="M34.71,89.12c.15,0,2.68.52,2.61-1.12s-2.37-.7-2.6-.58c-.67.34-1.71,1-1.71,1A12.14,12.14,0,0,0,34.71,89.12Z"/><path class="cls-14" d="M34.37,89.86c.11.09,2.09,1.75.78,2.73s-2-1.39-2.1-1.65c-.16-.73-.27-2-.27-2A13.63,13.63,0,0,1,34.37,89.86Z"/><path class="cls-14" d="M33.44,95.66,33,92.44l-2.27.82S32.77,92.79,33.44,95.66Z"/><path class="cls-14" d="M26.31,85.09l2.81,1.65-1.61,1.79S28.73,86.79,26.31,85.09Z"/><path class="cls-14" d="M24.38,84.6l-3.22.46L22,87.33S21.51,85.26,24.38,84.6Z"/><path class="cls-14" d="M35.49,94.27a2.56,2.56,0,0,1-.6,5,2.36,2.36,0,0,1-.46,0c.43,1.49.75,3.13.89,3.91-.53-3.87,3.31-5.61,3.31-5.61h0s-2.77-3.18-.69-6.48C37.49,91.7,36.5,93.08,35.49,94.27Z"/><path class="cls-14" d="M25.8,83.92s.56-1.06-.14-1.24-.6.91-.57,1c.06.32.22.85.22.85A5.57,5.57,0,0,0,25.8,83.92Z"/><path class="cls-14" d="M28.19,83.56a2.56,2.56,0,0,0-4.82-1.25,3.79,3.79,0,0,0-.18.42c-1.23-.94-2.64-1.84-3.31-2.25,3.4,1.9,6.43-1,6.43-1h0s2,3.74,5.78,3C31.31,82.64,29.67,83.05,28.19,83.56Z"/><circle class="cls-14" cx="26.63" cy="77.44" r="1.23"/><ellipse class="cls-14" cx="21.27" cy="78.42" rx="3.62" ry="1.66" transform="translate(-11.19 3.93) rotate(-8.37)"/><path class="cls-14" d="M61.18,57.67c-.47-.09-4.87-.22-6.64-.55,1.42-.26,4-1,4.23-1.08A.29.29,0,0,0,59,55.7a.3.3,0,0,0-.34-.26,43.45,43.45,0,0,0-4.54.26c1.26-.85,4.68-2,5.59-2.62s.32,2.21,1.68,1.28c.49-.33-.57-2.37-1-3S58.52,49,58,49.36c-1.36.93,1.61,1.32.58,2s-3.48,3.09-4.73,3.94c.74-1.23,2-3.62,2.14-3.82a.28.28,0,0,0-.11-.41.3.3,0,0,0-.41.12,41.51,41.51,0,0,0-2.67,3.5c.34-1.77,1.94-5.87,2-6.34.12-.63.25-1-.81-1.19s-1.07.18-1.19.81c-.09.47-.09,4.88-.42,6.65a40.39,40.39,0,0,0-1.22-4.24.3.3,0,0,0-.34-.26.28.28,0,0,0-.25.34c0,.21.2,3,.45,4.46-.86-1.25-2.2-4.6-2.82-5.51s2.21-.31,1.28-1.67c-.37-.53-2.07.4-3,1h0c-.9.62-2.33,1.82-2,2.34.94,1.36,1.32-1.6,2-.57s3.2,3.42,4.06,4.68c-1.23-.75-3.71-2-3.94-2.1a.28.28,0,0,0-.41.11.3.3,0,0,0,.11.41,41,41,0,0,0,3.52,2.7c-1.78-.33-5.89-2-6.36-2.06-.63-.12-1-.25-1.19.81s.18,1.07.81,1.19c.47.09,4.89.19,6.67.53-1.42.25-4.07,1.06-4.25,1.1a.3.3,0,0,0-.26.34.29.29,0,0,0,.34.26c.21,0,3-.17,4.45-.41-1.26.85-4.58,2.14-5.5,2.77s-.31-2.21-1.68-1.28c-.53.36.41,2.06,1,3v0c.61.89,1.86,2.38,2.39,2,1.37-.93-1.61-1.32-.58-2s3.43-3.14,4.68-4c-.75,1.23-2,3.68-2.09,3.88a.28.28,0,0,0,.12.41.3.3,0,0,0,.41-.12c.14-.2,1.89-2.28,2.64-3.5-.34,1.77-1.91,5.87-2,6.34-.12.63-.25,1,.82,1.19s1.07-.18,1.19-.81c.09-.47.09-4.87.42-6.64.26,1.42,1.13,3.94,1.21,4.23a.3.3,0,0,0,.34.26.29.29,0,0,0,.26-.34c0-.27-.27-3-.52-4.42.86,1.25,2.26,4.56,2.89,5.47s-2.21.31-1.28,1.67c.36.53,2.07-.4,3-1h0c.9-.62,2.33-1.82,2-2.34-.93-1.36-1.32,1.6-2,.57s-3.31-3.33-4.17-4.58c1.24.74,3.82,1.88,4.06,2a.29.29,0,0,0,.41-.11.3.3,0,0,0-.12-.41c-.21-.16-2.32-1.86-3.55-2.62,1.77.34,5.92,1.89,6.39,2,.64.12,1,.25,1.2-.81S61.82,57.79,61.18,57.67Zm-9.33,1.08A1.81,1.81,0,1,1,54,57.31,1.8,1.8,0,0,1,51.85,58.75Z"/><path class="cls-14" d="M61,57.67c-.47-.09-4.87-.22-6.65-.55,1.42-.25,4-1,4.23-1.08a.3.3,0,0,0,.26-.34.29.29,0,0,0-.34-.25A40.14,40.14,0,0,0,54,55.7c1.26-.85,4.67-2,5.59-2.61s.31,2.2,1.68,1.27c.48-.33-.58-2.36-1-3s-1.85-2.39-2.38-2c-1.37.93,1.61,1.31.58,2s-3.48,3.08-4.74,3.93c.75-1.22,2-3.62,2.15-3.82a.28.28,0,0,0-.12-.41.3.3,0,0,0-.41.12,43.8,43.8,0,0,0-2.66,3.5c.33-1.77,1.93-5.87,2-6.34.12-.63.25-1-.82-1.19s-1.07.18-1.19.81c-.09.47-.08,4.89-.41,6.66-.26-1.42-1.15-4-1.22-4.25a.3.3,0,0,0-.34-.26.29.29,0,0,0-.26.34c0,.21.21,3.05.45,4.46C50,53.69,48.67,50.35,48,49.43s2.21-.31,1.28-1.67c-.36-.53-2.07.4-3,1h0c-.9.62-2.33,1.82-2,2.35.93,1.36,1.32-1.61,2-.58s3.2,3.43,4,4.68c-1.23-.75-3.71-2-3.94-2.1a.28.28,0,0,0-.41.12.29.29,0,0,0,.12.4,41,41,0,0,0,3.52,2.71c-1.78-.34-5.89-2-6.36-2.07-.64-.12-1-.25-1.2.81s.18,1.07.82,1.19c.47.09,4.89.2,6.66.53-1.42.25-4.07,1.06-4.25,1.1a.3.3,0,0,0,.09.6c.21,0,3-.16,4.45-.41-1.26.85-4.59,2.15-5.5,2.77s-.32-2.2-1.68-1.28c-.54.36.4,2.07,1,3l0,0c.61.89,1.86,2.38,2.39,2,1.36-.93-1.61-1.32-.58-2s3.42-3.14,4.67-4c-.74,1.23-2,3.68-2.08,3.88a.28.28,0,0,0,.11.41.3.3,0,0,0,.41-.11c.15-.21,1.89-2.28,2.64-3.51-.33,1.77-1.91,5.87-2,6.34-.12.63-.25,1,.81,1.19s1.07-.18,1.19-.81c.09-.47.1-4.87.43-6.64A42.19,42.19,0,0,0,53,63.55a.3.3,0,0,0,.34.26.28.28,0,0,0,.25-.34c0-.27-.27-3-.51-4.42C54,60.3,55.37,63.61,56,64.52s-2.21.31-1.28,1.67c.37.54,2.07-.4,3-1h0c.9-.62,2.33-1.82,2-2.34-.94-1.36-1.32,1.6-2,.58s-3.31-3.34-4.17-4.59c1.23.74,3.81,1.89,4,2a.28.28,0,0,0,.41-.11.3.3,0,0,0-.11-.41c-.22-.15-2.32-1.86-3.56-2.61,1.78.33,5.93,1.88,6.4,2,.63.12,1,.25,1.19-.81S61.65,57.79,61,57.67Zm-9.34,1.08a1.81,1.81,0,1,1,2.11-1.44A1.81,1.81,0,0,1,51.68,58.75Z"/><path class="cls-14" d="M43.62,65.54c0,.15.77,2.62,2.19,1.81s-.45-2.43-.67-2.58c-.61-.44-1.71-1-1.71-1A13.21,13.21,0,0,0,43.62,65.54Z"/><path class="cls-14" d="M43,65.61c0,.15-.19,2.73-1.75,2.23s-.07-2.47.1-2.66c.51-.56,1.46-1.38,1.46-1.38A12.59,12.59,0,0,1,43,65.61Z"/><path class="cls-14" d="M40.67,62.69c-.15,0-2.7-.45-2.58,1.19s2.38.65,2.61.52c.66-.36,1.68-1.09,1.68-1.09A13.76,13.76,0,0,0,40.67,62.69Z"/><path class="cls-14" d="M40.87,62.09c-.13-.06-2.41-1.28-1.32-2.51s2.28.94,2.39,1.18a20,20,0,0,1,.67,1.89A12.78,12.78,0,0,1,40.87,62.09Z"/><path class="cls-14" d="M51.16,67.09l3.22-.54-.86-2.25S54,66.36,51.16,67.09Z"/><path class="cls-14" d="M41.85,56.21l.5,3.21,2.26-.84S42.55,59.07,41.85,56.21Z"/><path class="cls-14" d="M49.08,66.71l-2.83-1.62,1.6-1.81S46.65,65,49.08,66.71Z"/><path class="cls-14" d="M39.72,57.42a2.56,2.56,0,0,1,.59-5,2.26,2.26,0,0,1,.45,0c-.43-1.49-.75-3.13-.89-3.91.54,3.87-3.3,5.62-3.3,5.62h0s2.79,3.17.72,6.47C37.74,60,38.71,58.61,39.72,57.42Z"/><path class="cls-14" d="M49.49,67.79s-.56,1.06.15,1.24.59-.91.57-1c-.07-.32-.23-.85-.23-.85A5.57,5.57,0,0,0,49.49,67.79Z"/><path class="cls-14" d="M47.1,68.16a2.56,2.56,0,0,0,4.83,1.23A2.17,2.17,0,0,0,52.1,69c1.24.94,2.65,1.83,3.33,2.24C52,69.32,49,72.27,49,72.27h0s-2-3.74-5.79-3A39.65,39.65,0,0,0,47.1,68.16Z"/><circle class="cls-14" cx="48.82" cy="74.32" r="1.23"/><path class="cls-14" d="M27.83,62.58c-.46-.09-4.86-.22-6.64-.56,1.42-.25,4-1,4.23-1.07a.3.3,0,0,0-.08-.6,38.33,38.33,0,0,0-4.54.26c1.25-.85,4.67-2,5.59-2.62s.31,2.2,1.68,1.28c.48-.33-.58-2.37-1-3s-1.85-2.39-2.39-2c-1.36.93,1.62,1.32.58,2s-3.48,3.08-4.73,3.94c.75-1.23,2-3.63,2.15-3.82a.28.28,0,0,0-.12-.41.3.3,0,0,0-.41.11c-.16.22-1.91,2.28-2.67,3.5.34-1.76,1.94-5.87,2-6.33.12-.64.25-1-.82-1.19s-1.07.18-1.19.81c-.09.47-.08,4.88-.42,6.65a43.31,43.31,0,0,0-1.21-4.25.3.3,0,0,0-.34-.25.29.29,0,0,0-.26.34c0,.2.2,3,.45,4.46-.86-1.26-2.19-4.6-2.82-5.51s2.21-.31,1.28-1.68c-.36-.53-2.07.41-3,1h0c-.9.63-2.33,1.83-2,2.35.93,1.36,1.32-1.61,2-.58s3.2,3.43,4.06,4.68c-1.23-.74-3.71-2-3.94-2.1a.28.28,0,0,0-.41.12.3.3,0,0,0,.12.41,42.6,42.6,0,0,0,3.51,2.7c-1.77-.33-5.89-2-6.36-2.06-.63-.12-1-.25-1.19.81s.18,1.07.82,1.19c.46.09,4.89.19,6.66.53-1.42.25-4.07,1.06-4.25,1.1a.3.3,0,0,0-.26.34.29.29,0,0,0,.34.25c.21,0,3-.16,4.45-.4-1.25.85-4.58,2.14-5.5,2.76S11,63.57,9.61,64.5c-.54.36.4,2.06,1,3v0c.62.89,1.86,2.39,2.4,2,1.36-.93-1.62-1.32-.58-2s3.42-3.14,4.67-4c-.74,1.22-2,3.67-2.09,3.88a.29.29,0,0,0,.12.41.3.3,0,0,0,.41-.12c.15-.2,1.89-2.28,2.64-3.51-.33,1.77-1.91,5.88-2,6.35-.12.63-.25,1,.82,1.18s1.07-.17,1.19-.81c.09-.46.09-4.87.43-6.63a43.71,43.71,0,0,0,1.2,4.23.32.32,0,0,0,.34.26.29.29,0,0,0,.26-.34c0-.27-.27-3-.52-4.43.86,1.26,2.26,4.56,2.89,5.48s-2.21.31-1.28,1.67c.36.53,2.07-.4,3-1h0c.9-.62,2.33-1.83,2-2.35-.93-1.36-1.32,1.61-2,.58S21.12,65,20.27,63.73c1.23.75,3.81,1.89,4.05,2a.29.29,0,0,0,.41-.12.3.3,0,0,0-.12-.41c-.21-.15-2.32-1.86-3.55-2.61,1.78.34,5.93,1.89,6.4,2,.63.12,1,.25,1.19-.81S28.47,62.7,27.83,62.58ZM18.5,63.66a1.81,1.81,0,1,1,2.11-1.44A1.81,1.81,0,0,1,18.5,63.66Z"/><path class="cls-14" d="M28.77,62.81l-.47-3.22L26,60.41S28.1,59.93,28.77,62.81Z"/><path class="cls-14" d="M30.82,61.42a2.56,2.56,0,0,1-.6,5,3.38,3.38,0,0,1-.45,0c.42,1.48.74,3.13.88,3.91C30.12,66.42,34,64.68,34,64.68h0s-2.77-3.17-.69-6.47C32.82,58.85,31.83,60.23,30.82,61.42Z"/><ellipse class="cls-14" cx="35.24" cy="59.47" rx="1.66" ry="3.62" transform="translate(-9.58 6.84) rotate(-9.77)"/><path class="cls-14" d="M27.67,62.58c-.47-.09-4.87-.22-6.64-.56,1.42-.25,4-1,4.22-1.07a.3.3,0,0,0,.26-.34.29.29,0,0,0-.34-.26,43.45,43.45,0,0,0-4.54.26c1.26-.85,4.68-2,5.59-2.62s.31,2.2,1.68,1.28c.49-.33-.58-2.37-1-3s-1.85-2.39-2.38-2c-1.36.93,1.61,1.32.58,2s-3.48,3.09-4.73,3.94c.74-1.23,2-3.62,2.14-3.82a.28.28,0,0,0-.11-.41.3.3,0,0,0-.41.12,39.43,39.43,0,0,0-2.67,3.5c.33-1.77,1.93-5.87,2-6.34.12-.63.25-1-.81-1.19s-1.07.18-1.19.81c-.09.47-.09,4.88-.42,6.65-.26-1.41-1.15-4-1.22-4.24a.3.3,0,0,0-.34-.26.28.28,0,0,0-.25.34c0,.21.2,3,.45,4.46-.86-1.25-2.2-4.6-2.82-5.51S16.91,54,16,52.67c-.36-.54-2.06.4-3,1h0c-.9.62-2.33,1.82-2,2.34.94,1.36,1.32-1.6,2-.57s3.2,3.42,4.06,4.67c-1.24-.74-3.71-2-3.94-2.09a.28.28,0,0,0-.41.11.3.3,0,0,0,.11.41,41,41,0,0,0,3.52,2.7c-1.78-.33-5.89-2-6.36-2.06-.64-.12-1-.25-1.19.81s.18,1.07.81,1.19c.47.09,4.89.19,6.67.53-1.42.25-4.07,1.06-4.25,1.1a.3.3,0,0,0-.26.34.29.29,0,0,0,.34.26c.21,0,3-.17,4.45-.41-1.26.85-4.58,2.14-5.5,2.77s-.31-2.21-1.68-1.28c-.53.36.41,2.06,1,3v0c.61.89,1.86,2.38,2.39,2,1.37-.93-1.61-1.32-.58-2s3.42-3.14,4.68-4c-.75,1.23-2,3.68-2.09,3.88a.28.28,0,0,0,.12.41.3.3,0,0,0,.41-.12c.14-.2,1.88-2.28,2.64-3.5-.34,1.77-1.91,5.87-2,6.34-.12.63-.25,1,.81,1.19s1.08-.18,1.2-.81c.08-.47.09-4.87.42-6.64.26,1.42,1.13,3.94,1.21,4.23a.3.3,0,0,0,.34.26.29.29,0,0,0,.26-.34c0-.27-.28-3-.52-4.42.85,1.25,2.26,4.55,2.88,5.47s-2.2.31-1.27,1.67c.36.53,2.06-.4,3-1h0c.9-.62,2.33-1.82,2-2.34-.93-1.37-1.32,1.6-2,.57S21,65,20.1,63.74c1.23.74,3.82,1.88,4,2a.29.29,0,0,0,.41-.11.29.29,0,0,0-.11-.41c-.22-.16-2.32-1.86-3.55-2.62,1.77.34,5.92,1.89,6.39,2,.64.12,1,.25,1.19-.81S28.3,62.7,27.67,62.58Zm-9.33,1.08a1.81,1.81,0,1,1,2.11-1.44A1.81,1.81,0,0,1,18.34,63.66Z"/><path class="cls-14" d="M23.45,72.79c-.09.12-1.59,2.22-2.67,1s1.23-2.14,1.49-2.22c.72-.21,2-.41,2-.41A13.84,13.84,0,0,1,23.45,72.79Z"/><path class="cls-14" d="M24.05,73.08c-.05.14-.73,2.63.91,2.68s.89-2.3.79-2.55c-.3-.69-.92-1.78-.92-1.78A12.26,12.26,0,0,0,24.05,73.08Z"/><path class="cls-14" d="M27.18,71.08c.15,0,2.69.47,2,2s-2.46-.18-2.64-.38c-.5-.56-1.22-1.59-1.22-1.59A14.2,14.2,0,0,1,27.18,71.08Z"/><path class="cls-14" d="M27.19,70.45c.14,0,2.7-.42,2.08-1.94s-2.47.14-2.65.33c-.52.55-1.26,1.56-1.26,1.56A13.77,13.77,0,0,0,27.19,70.45Z"/><path class="cls-14" d="M29.44,63.51c.07,0,1.2-.13,1.11.59s-1.07.22-1.17.16c-.28-.18-.71-.52-.71-.52A5.62,5.62,0,0,1,29.44,63.51Z"/><path class="cls-14" d="M28.61,62.81l-.48-3.22-2.27.82S27.94,59.94,28.61,62.81Z"/><path class="cls-14" d="M28.26,64.68l-1.6,2.83-1.82-1.57S26.6,67.12,28.26,64.68Z"/><path class="cls-14" d="M17.82,72,21,71.46l-.86-2.25S20.68,71.27,17.82,72Z"/><path class="cls-14" d="M30.66,61.42a2.56,2.56,0,0,1-.6,5,2.37,2.37,0,0,1-.46,0c.43,1.49.74,3.13.88,3.91-.52-3.87,3.32-5.61,3.32-5.61h0S31,61.5,33.1,58.2C32.65,58.85,31.67,60.24,30.66,61.42Z"/><path class="cls-14" d="M13.75,73.07a2.56,2.56,0,0,0,4.83,1.23,3.79,3.79,0,0,0,.18-.42c1.23.93,2.65,1.83,3.32,2.24-3.41-1.89-6.43,1.06-6.43,1.06h0s-2-3.73-5.79-3C10.64,74,12.28,73.58,13.75,73.07Z"/><circle class="cls-14" cx="35.93" cy="65.29" r="1.23"/></g></g></g></g></g></g></svg>