<?xml version="1.0" encoding="utf-8"?>
<!-- Generator: Adobe Illustrator 24.0.0, SVG Export Plug-In . SVG Version: 6.00 Build 0)  -->
<svg version="1.1" id="Layer_1" xmlns="http://www.w3.org/2000/svg" xmlns:xlink="http://www.w3.org/1999/xlink" x="0px" y="0px"
	 viewBox="0 0 100 113.4" style="enable-background:new 0 0 100 113.4;" xml:space="preserve">
<style type="text/css">
	.st0{fill:#FFFFFF;}
	.st1{fill:#E3DDD6;}
	.st2{fill:#9CB75A;}
	.st3{fill:#90AD47;}
	.st4{fill:#738F3B;}
	.st5{fill:#C64F36;}
	.st6{fill:#EFF1F0;}
</style>
<title>icon_meds</title>
<g>
	<g id="Layer_2_1_">
		<g id="_1">
			<g id="icon_meds">
				<circle class="st0" cx="45.3" cy="56.2" r="45.3"/>
				<path class="st1" d="M98,57.5c0,0-1-5-0.3-5.8c-1.1-0.3-2.1-0.9-2.9-1.7c0-0.5-0.1-0.9-0.3-1.4c0,0-3.7,5.4-7.9,10.5
					c-1,0.3-1.1-0.3-0.5-1.2l0.3-0.1c0,0,0.8-0.8,1.8-2c0.1-0.1,0.2-0.1,0.2-0.2c0.9-0.8,1.7-1.9,2.1-3c1.5-2.4,2.5-5.2,1.4-7.4
					c0.2,1.4,0.1,2.9-0.4,4.3c0.5-2.4,0.5-4.7,0-5.1c-1-0.8-2.1-1.5-3.3-2c-0.5-0.5-1.2-0.7-1.9-0.5h0.1c-0.4,0-0.8,0.1-1.1,0.3
					c-0.6-0.2-1.3-0.4-1.9-0.6c-1.3-0.9-1.7,0.2-1.8,0.6h-0.2c-0.4-0.3-0.9-0.3-1.3,0.1c0,0,0,0,0,0h-0.6l-0.4,1.3
					c-0.2,0.4-0.3,0.9-0.4,1.4v0.1l-1.8-4.1c0,0-3.5,2.5-9,0.6c-0.7,0.9-1.5,1.7-2.4,2.5h-1.6l0.4,0.7c-0.1,0-0.3,0-0.4,0
					c-0.6-0.3-1.9,0.4-3.3,1.1h0l-1.5,0.8l0,0c-0.5,0.4-1.2,0.5-1.8,0.5c0.1,0.4,0.1,0.7,0.3,1c0.1,0.3,0.2,0.8,0.3,1.5
					c0.2,1,1.4,2.3,2.9,3.7c1.7,1.9,3.7,3.6,5.9,5c0.8,0.7,1.5,1.5,2.2,2.4c1.3,2.2,2,4.7,2,7.2c-0.1,0.4-0.2,0.7-0.4,1.1
					c0,0.1-0.1,0.1-0.1,0.2c-1.5,1-2.5,1.2-3.2,1.8l-16.8,2.5c-0.4,0.2-0.8,0.3-1.2,0c-0.2-0.1-0.4-0.3-0.6-0.4
					c-0.2-0.2-0.4-0.4-0.6-0.6c-0.4-0.7-1.1-2.3-1.9-4.3c-1-2.9-2.4-5.9-3.8-9.2C41,56,39.7,53,38.8,50.8c-2-4.7-3.5-9.7-4.5-14.8
					c-0.2-0.9-0.3-1.8-0.2-2.8c0.3-2.5,1.6-4.8,3.6-6.4c0,0,12-5.7,14.6-8.4l0.3-0.2c0,0,2-2.7,0.1-3.1c0-0.1-0.1-0.8-0.3-1.6
					c0.4-1,0.6-2.7-1.6-3.4c-0.8-0.3-1.7-0.5-2.6-0.7c-0.1-0.1-0.3-0.2-0.4-0.4c-0.2-0.4-0.6-1-1.1-1.7c0-0.1,0-0.2,0-0.3
					c0.1-0.9-2.2-2.9-3.7-2.9c-1.4-0.9-2.5-1.6-2.5-1.6l-2.1,1c0,0,2.7-2.4-1.6-3.4c-1.9,0-0.3,1.4-5.4-0.1c-0.7-0.3-1.4-0.2-2,0.3
					l0,0c-0.3,0.3-0.5,0.6-0.7,1c0,0-2.3,1-4.1,0.3c-1.7-0.6-2.5,1.4-2,4c0.5,2.6,2.5,7.8,1.2,7.8L16.4,2.1
					c-0.3,1.1-0.7,2.2-1.2,3.3l0,0l0,0c-0.1,0.2-0.2,0.4-0.4,0.5c-0.8,0.8-1.6,3.6-1.1,6.2c0.5,2.5-3.9,0.9-3.9,3
					c-0.1,2.1,1.8,2.5,1.2,3L10,17.4l0.8,0.8c0,0,0,0-0.1,0.1c-1,0.6-5.5,4.1-5.2,5.7c0.4,1.6-1.2,3.9-1.5,4.4
					c-0.3,0.5,0.1,1,0.7,1.6c0.2,1-1.2,5.5,3.9,5.1c0.7,0,1.3-0.1,2-0.2l0.5-0.2c1.3-0.3,2.6-0.7,4-1c4-0.5,8,0,11.7,1.5
					c0.3,0.1,0.6,0.1,1,0.3c1.2,0.8,2.3,1.6,3.3,2.6c0,0,0.1,0.2,0.4,0.5l0.1,0.1c0.7,1,1.3,2,1.8,3.1c0.2,0.4,0.6,1.4,1.2,2.7l0,0
					c3.4,7.6,11.9,27.6,11.9,27.6s-1,2.1-0.1,2.9c0.9,0.8,3.2,1.3,4.2-0.2l20.7-3c0,0,9.1,1.2,11.1,7.1c2,5.9,1.5,8.7,3.5,6.8
					c1.9-2,2.9-4.7,5.1-5.1c2.2-0.4-1-2.2-1-3.5c0.1-0.7,0.3-1.3,0.6-1.9c0.7-0.9,1.5-1.7,2.5-2.3c0.3-0.2,0.5-0.4,0.8-0.6
					c0.2-0.1,0.4-0.2,0.6-0.2v-0.5c0.1-0.2,0.1-0.5,0-0.7v-0.6l4.5-0.2c0,0,0.5-1-1.4-1.3s1.5-2.1,1.5-2.1s-2.8-4.1,0.1-5.7
					C101.5,60.1,98,57.5,98,57.5z M46.4,69.1c0.6,1.2,1.1,2.3,1.4,3.1C47.2,71.3,46.7,70.2,46.4,69.1z"/>
				<g id="LEAVES">
					<path class="st2" d="M38.3,3.4c0,0-4.6,18.6-3.9,21.4c0,0,11.2-11.3,16-10.4c0,0,2.9-4.3-3.2-4.5c-1-0.6-2.3-1.8-2.2-2.8
						c0.1-1-2.9-3.4-4.2-2.9C39.8,3.5,38.6,2.1,38.3,3.4z"/>
					<path class="st2" d="M64.4,44.3c0,0,8.5,17,5.7,23.3c0,0,4.7-4.9,5.6-9.9c0.6-3.6,1-7.3,1.1-11c0,0-1.4,11.4-4.1,9.3
						C69.7,53.9,68.1,50.2,64.4,44.3z"/>
					<path class="st2" d="M68.5,71c0,0,7.6-1.4,10-3.2c0,0-1.8,2.5-3.8,2.4c2.8,0.2,5.7-0.4,8.2-1.6C78.6,71.1,73.5,71.9,68.5,71z"
						/>
					<path class="st2" d="M92.9,70.7l-9.1,0.7l4.4,5.2c0.9-1.5,2-2.7,3.4-3.6C93.8,71.4,92.9,70.7,92.9,70.7z"/>
					<path class="st2" d="M22.4,14.2C22.1,13.8,29.6,36.8,32,40C32,40,26.4,19.8,22.4,14.2z"/>
					<path class="st3" d="M22.3,13.5L14.8,2.1c0,0-0.8,3.1-1.6,3.8c-0.8,0.7-1.6,3.6-1.1,6.2s-3.9,0.9-3.9,3s2.1,2.6,1.1,3.1
						c-1,0.6-5.5,4.1-5.2,5.7s-1.2,3.9-1.5,4.4s0.1,1,0.7,1.6c0.3,1-1.4,6,4.9,5.1s12-5.3,21.4,3.1c1,1.1,1.7,2.4,2.3,3.7
						C33.2,44.5,45,72.2,45,72.2s-1,2.1-0.1,3s3.2,1.3,4.2-0.2l20.7-3c0,0,9.1,1.2,11.1,7.1s1.5,8.7,3.5,6.8c1.9-2,2.9-4.7,5.1-5.1
						c2.2-0.4-1-2.2-1-3.5c0.4-2.4,2.1-4.3,4.5-5v-1.9l4.5-0.2c0,0,0.5-1-1.4-1.3s1.5-2.1,1.5-2.1s-2.8-4.1,0.1-5.7
						c2.2-0.8-1.3-3.5-1.3-3.5s-1-5-0.3-5.8c0,0-3.5-1-3.3-2.9c0,0-6.2,9.7-7.8,10.2c-1.6,0.5-1.1-1.4,1.8-3.6
						c3-2.1,4.2-10.3,3-11.2c-1.1-0.9-4.6-3.4-6.1-2.1c-2.4-1-3.5-0.8-3.5,0.1l-2.2,0.1l-0.8,2.7l-1.8-4.1c0,0-3.5,2.5-9,0.6
						c0,0-2.9,3.7-4,3.1S57.3,47.4,56,47c0,0,0.7,5.8,9.6,11.4c3.3,2.4,4.8,9.7,3.4,10.7c-1.5,1-2.5,1.2-3.2,1.8l-16.9,2.6
						c0,0-2,1.6-4.1-4.6C40.3,55.3,25.5,35.1,36.2,27c0,0,13.3-6.3,14.9-8.8s0.1-2.9,0.1-2.9s-0.8-4.5-1.8-5c-1-0.4-2-0.7-3-0.9
						c0,0-1.7-3.1-3.5-4.3c-1.9-1.2-4-2.5-4-2.5l-2.1,1c0,0,2.7-2.4-1.6-3.4c-1.9,0-0.3,1.4-5.4-0.1c-1-0.4-2.2,0.1-2.6,1.2
						c0,0,0,0.1,0,0.1c0,0-2.3,1-4.1,0.3c-1.7-0.6-2.5,1.4-2,4C21.6,8.4,23.5,13.5,22.3,13.5z"/>
					<g id="shadows">
						<path class="st4" d="M37.7,3.4c0,0-6.6,27.5-4.9,32.7c0.9,5.1,2.4,10,4.4,14.8c2.9,6.6,9.1,22.1,9.7,22.3
							c0.6,0.2,1,0.9,1.5,0.7c0.6-0.2-2.1,0.8-1.3,1.8c-0.5-0.3-0.6-1-0.3-1.5c0.1-0.1,0.1-0.1,0.2-0.2c0,0-10-22-10.4-22.6
							c-0.4-0.6-4.4-11.8-4.5-15.2S34.1,10.2,37.7,3.4z"/>
						<path class="st4" d="M36.5,1.3c0,0-6.2,19.3-4.6,26.4C31.9,27.7,28.9,20.6,36.5,1.3z"/>
						<path class="st4" d="M27.8,0.4c0,0-1.3,25.4,3.8,34.1C31.6,34.5,25.3,24,27.8,0.4z"/>
						<path class="st4" d="M33.1,44.5c0,0-2.1-8.8-8.9-10.6C17.5,32.2,6.7,27,4.7,31.7c-1.8,4.5,4.4,3.2,4.4,3.2s6.6-3.4,16.2,0.4
							C25.3,35.2,29.8,35.5,33.1,44.5z"/>
						<path class="st4" d="M50.9,15.2c0,0-14,4.8-17.4,12.8c-0.7,1.1-1.2,4.6-1.2,4.6s-0.5-3.6,5.9-7.2s13-7,13-7
							S53.2,15.5,50.9,15.2z"/>
						<path class="st4" d="M13.5,5.4c0,0,15.9,26.8,15.6,29.5C29.1,34.9,16.4,5.5,13.5,5.4z"/>
						<path class="st4" d="M6.3,20.9c0,0,10.7,6.8,12.3,8.8l-2.5-3.1c1.6,0.9,3,2,4.2,3.4c-1.5-2.8-3.4-5.3-5.8-7.3
							c-3.9-3.3-6-5.4-6-5.4s5,4.5,6.5,6.4c1.6,1.8,2.3,2.9,2.3,2.9L8,19.4l7,6.5L6.3,20.9z"/>
						<path class="st4" d="M56.2,47.4c0,0,7.6,6.4,12.2,13.2S67.7,71,67.7,71s5.9-5.1-2.4-12.8c-3-2.4-8.3-6.5-8.7-8.6L56.2,47.4z"
							/>
						<path class="st4" d="M64.3,44c0,0,2.7,7.7,3.5,7.9L67,51.7l-4.4-7.7L64.3,44z"/>
						<path class="st4" d="M59.3,45.7c0,0,4.9,5.5,7,10.2c0,0-6.7-9.3-8.5-9.4L59.3,45.7z"/>
						<path class="st4" d="M77.4,45c0,0-0.8,12.4-3,15.2c0,0,9.5-17.4,7.8-18.7c-1.7-1.3-1.9,0.7-1.9,0.7s-0.6-1-1.6,0.1
							C77.9,43.1,77.5,44.1,77.4,45z"/>
						<path class="st4" d="M83.7,42.3c0,0,0,10.6-6.5,19.2l7.6-3.8c0,0,8.1-7.9,5.5-12.6c0,0,1.4,6.1-5.9,11.3c0,0,2.3-8.7,4.8-11.8
							c0,0-3.3,1.6-5.7,11.7c-0.9,1.7-2.4,2.9-4.2,3.3c0,0,6.6-8.4,7.6-17.3c0,0-1-1.2-2.1-0.6c0,0,1.2-0.2,0.8,1.8
							c-0.3,1.9-1.4,7.6-2.7,8.8C82.9,52.3,85.1,44.5,83.7,42.3z"/>
						<path class="st4" d="M93.1,48.6c0,0-13,18.9-18.3,19.6c0,0,12.4-3.7,18.2-15.6C93.5,51.3,93.5,49.9,93.1,48.6z"/>
						<path class="st4" d="M96,51.9c0,0-5.4,11.1-12.1,13.1C83.9,65,90.8,64.2,96,51.9z"/>
						<path class="st4" d="M97.3,58.6c0,0-15.5,13-22.5,11.6C74.7,70.2,82.7,72.2,97.3,58.6z"/>
					</g>
				</g>
				<path class="st1" d="M59.4,61.9c1.7-0.7,1.8-1.3,1.8-1.3v-9.2c0-1.2-8.2-2.1-18.3-2.1s-18.3,1-18.3,2.1v9.2c0,0,0,0.7,2,1.4
					c-1.5,1.2-2.3,3-2.2,4.9v37.5c0,0,0.2,6.3,18.5,6.3c18.9,0,18.9-6.3,18.9-6.3V66.9C61.9,64.9,61,63,59.4,61.9z"/>
				<g id="PRESCRIPTION_BOTTLE">
					<path class="st5" d="M53.7,60.8c0,0,6.1-0.2,6.1,6.1v37.5c0,0,0,6.3-18.9,6.3c-18.3,0-18.5-6.3-18.5-6.3V66.9
						c0-6.3,6.1-6.1,6.1-6.1L53.7,60.8z"/>
					<path class="st1" d="M22.6,51.4v9.2c0,0,0,3,18.3,3s18.3-3,18.3-3v-9.2H22.6z"/>
					<ellipse class="st6" cx="40.9" cy="51.4" rx="18.3" ry="2.1"/>
					<path class="st6" d="M22.3,72.9c0,0,0.1,2,18.5,2c18.8,0,18.9-2,18.9-2v23.7c0,0,0,2-18.9,2c-18.5,0-18.5-2-18.5-2V72.9z"/>
				</g>
				<path class="st1" d="M32.1,80.3c1.1-0.4,1.2-0.9,1.2-0.9v-6.1c0-0.8-5.4-1.4-12.1-1.4S9.1,72.6,9.1,73.3v6c0,0,0,0.4,1.3,1
					c-1,0.8-1.5,2-1.4,3.2v24.8c0,0,0.1,4.1,12.2,4.1c12.4,0,12.4-4.2,12.4-4.2V83.5C33.7,82.3,33.1,81,32.1,80.3z"/>
				<g id="PRESCRIPTION_BOTTLE-2">
					<path class="st5" d="M28.4,80.5c0,0,4-0.1,4,4v24.8c0,0,0,4.1-12.4,4.1c-12.1,0-12.2-4.1-12.2-4.1V84.6c0-4.1,4-4,4-4
						L28.4,80.5z"/>
					<path class="st1" d="M7.9,74.4v6c0,0,0,2,12.1,2s12.1-2,12.1-2v-6H7.9z"/>
					<ellipse class="st6" cx="20" cy="74.4" rx="12.1" ry="1.4"/>
					<path class="st6" d="M7.7,88.5c0,0,0.1,1.3,12.2,1.3c12.4,0,12.4-1.3,12.4-1.3v15.6c0,0,0,1.3-12.4,1.3
						c-12.2,0-12.2-1.3-12.2-1.3L7.7,88.5z"/>
				</g>
			</g>
		</g>
	</g>
</g>
</svg>
