<svg xmlns="http://www.w3.org/2000/svg" viewBox="0 0 91.78 91.78"><defs><style>.cls-1{fill:#00363b;}.cls-2{fill:#eff1f0;}</style></defs><title>icon_90min</title><g id="Layer_2" data-name="Layer 2"><g id="_1" data-name="1"><g id="FOLLOWUP"><g id="icon_90min"><circle class="cls-1" cx="45.89" cy="45.89" r="45.89"/><path class="cls-2" d="M21.27,32v7.52A4,4,0,0,1,20,42.69a4.89,4.89,0,0,1-3.4,1.17,4.74,4.74,0,0,1-3.3-1.13,3.83,3.83,0,0,1-1.26-3v-.26a.29.29,0,0,1,.32-.32h1.08a.39.39,0,0,1,.23.06.18.18,0,0,1,.08.16v.22a2.67,2.67,0,0,0,.8,2,2.83,2.83,0,0,0,2.05.77,3,3,0,0,0,2.14-.81,2.79,2.79,0,0,0,.85-2.13v-3.5a.08.08,0,0,0,0-.08s-.07,0-.1.06a3.7,3.7,0,0,1-3.18,1.4,4.52,4.52,0,0,1-2.54-.68,4.27,4.27,0,0,1-1.56-1.9,6.63,6.63,0,0,1-.5-2.75A6.47,6.47,0,0,1,12,29.57a4.42,4.42,0,0,1,1.62-2.17,4.76,4.76,0,0,1,2.77-.77,5,5,0,0,1,2.92.82A4.38,4.38,0,0,1,21,29.77,8,8,0,0,1,21.27,32Zm-3,3.27a2.75,2.75,0,0,0,1-1.44,5.65,5.65,0,0,0,.29-1.95,5.5,5.5,0,0,0-.24-1.76,2.83,2.83,0,0,0-2.87-2,3.11,3.11,0,0,0-1.79.51,2.71,2.71,0,0,0-1,1.51A5.16,5.16,0,0,0,13.34,32a4.33,4.33,0,0,0,.34,1.93,2.68,2.68,0,0,0,1,1.4,3.06,3.06,0,0,0,1.78.5A3,3,0,0,0,18.25,35.3Z"/><path class="cls-2" d="M25.92,42.59A4.71,4.71,0,0,1,24.54,39V31.43a4.63,4.63,0,0,1,1.38-3.53,5.08,5.08,0,0,1,3.69-1.32,5.22,5.22,0,0,1,3.73,1.33,4.63,4.63,0,0,1,1.4,3.52V39a4.68,4.68,0,0,1-1.4,3.55,5.22,5.22,0,0,1-3.73,1.32A5.08,5.08,0,0,1,25.92,42.59Zm6.17-1.07A3.13,3.13,0,0,0,33,39.14V31.36A3.15,3.15,0,0,0,32.1,29a3.47,3.47,0,0,0-2.49-.89,3.36,3.36,0,0,0-2.44.89,3.17,3.17,0,0,0-.91,2.37v7.78a3.15,3.15,0,0,0,.91,2.38,3.32,3.32,0,0,0,2.44.9A3.45,3.45,0,0,0,32.09,41.52Z"/><path class="cls-2" d="M37.39,37.31v-.89a.28.28,0,0,1,.31-.32H46a.28.28,0,0,1,.31.32v.89a.27.27,0,0,1-.31.31H37.7A.27.27,0,0,1,37.39,37.31Z"/><path class="cls-2" d="M51.85,26.8H53a.28.28,0,0,1,.31.31V43.36a.28.28,0,0,1-.31.31H51.94a.28.28,0,0,1-.31-.31V28.68a.11.11,0,0,0,0-.1h-.11L49,29.64a.26.26,0,0,1-.14,0c-.15,0-.22-.09-.22-.27v-.74a.38.38,0,0,1,.22-.36l2.63-1.4A.73.73,0,0,1,51.85,26.8Z"/><path class="cls-2" d="M57,43.36v-.9a.55.55,0,0,1,.15-.38q1.8-2.14,5.44-6.7,2.26-2.87,2.27-4.46A2.62,2.62,0,0,0,64,28.87a3.3,3.3,0,0,0-2.27-.77,3.09,3.09,0,0,0-2.21.79A2.59,2.59,0,0,0,58.69,31v.67a.28.28,0,0,1-.31.31H57.27a.28.28,0,0,1-.32-.31v-.89a3.91,3.91,0,0,1,1.39-3,5.07,5.07,0,0,1,3.38-1.13,5.64,5.64,0,0,1,2.56.55,4,4,0,0,1,2.31,3.74q0,2-2.26,4.94-1.09,1.42-4,5l-1,1.2a.08.08,0,0,0,0,.1s0,0,.09,0h7.38a.28.28,0,0,1,.31.32v.87a.28.28,0,0,1-.31.31H57.32A.28.28,0,0,1,57,43.36Z"/><path class="cls-2" d="M71.58,42.59A4.7,4.7,0,0,1,70.21,39V31.43a4.63,4.63,0,0,1,1.37-3.53,5.12,5.12,0,0,1,3.69-1.32A5.2,5.2,0,0,1,79,27.91a4.63,4.63,0,0,1,1.4,3.52V39A4.68,4.68,0,0,1,79,42.59a5.2,5.2,0,0,1-3.73,1.32A5.12,5.12,0,0,1,71.58,42.59Zm6.17-1.07a3.1,3.1,0,0,0,.94-2.38V31.36A3.15,3.15,0,0,0,77.76,29a3.47,3.47,0,0,0-2.49-.89,3.37,3.37,0,0,0-2.44.89,3.17,3.17,0,0,0-.91,2.37v7.78a3.15,3.15,0,0,0,.91,2.38,3.34,3.34,0,0,0,2.44.9A3.44,3.44,0,0,0,77.75,41.52Z"/><path class="cls-2" d="M9.9,61.22A.28.28,0,0,1,9.85,61l1.54-12.56a.35.35,0,0,1,.1-.2.33.33,0,0,1,.22-.08h1.22a.29.29,0,0,1,.3.19l2.43,5q0,.12.12,0l3.69-5a.36.36,0,0,1,.34-.19H21a.25.25,0,0,1,.2.08.23.23,0,0,1,.05.2L19.73,61a.35.35,0,0,1-.1.21.32.32,0,0,1-.22.07h-1.2a.21.21,0,0,1-.17-.07A.24.24,0,0,1,18,61l1.16-9.52c0-.05,0-.08,0-.08a.06.06,0,0,0-.08,0l-3,4.16a.41.41,0,0,1-.36.19h-.58a.29.29,0,0,1-.3-.19l-1.93-4.16s-.05-.05-.07,0-.05,0-.06.08L11.6,61a.31.31,0,0,1-.11.21.26.26,0,0,1-.19.07H10.1A.26.26,0,0,1,9.9,61.22Z"/><path class="cls-2" d="M22.76,61.22a.24.24,0,0,1-.05-.21l1.54-12.56a.3.3,0,0,1,.1-.2.33.33,0,0,1,.22-.08h1.2a.21.21,0,0,1,.17.08.23.23,0,0,1,0,.2L24.45,61a.3.3,0,0,1-.1.21.29.29,0,0,1-.2.07H23A.24.24,0,0,1,22.76,61.22Z"/><path class="cls-2" d="M27.48,61.22a.28.28,0,0,1-.05-.21L29,48.45a.35.35,0,0,1,.1-.2.33.33,0,0,1,.22-.08h1.16a.29.29,0,0,1,.3.19l4.42,9.28s0,0,.06,0,0,0,.06-.08l1.12-9.15a.35.35,0,0,1,.1-.2.32.32,0,0,1,.2-.08h1.2a.26.26,0,0,1,.2.08.23.23,0,0,1,0,.2L36.62,61a.36.36,0,0,1-.11.21.28.28,0,0,1-.21.07H35.12a.29.29,0,0,1-.3-.19L30.4,51.77s0-.05-.06-.05,0,0-.06.09L29.18,61a.31.31,0,0,1-.11.21.26.26,0,0,1-.19.07h-1.2A.26.26,0,0,1,27.48,61.22Z"/><path class="cls-2" d="M41,60.45a3.46,3.46,0,0,1-1.07-2.68c0-.13,0-.34,0-.64l1-8.68a.31.31,0,0,1,.32-.28h1.2a.25.25,0,0,1,.2.08.26.26,0,0,1,0,.2l-1.09,8.72a3.53,3.53,0,0,0,0,.39,2.25,2.25,0,0,0,.66,1.69,2.42,2.42,0,0,0,1.76.64,3,3,0,0,0,2.06-.75,3,3,0,0,0,1-2l1.07-8.72a.34.34,0,0,1,.09-.2.29.29,0,0,1,.21-.08h1.2a.26.26,0,0,1,.2.08.23.23,0,0,1,0,.2l-1.06,8.68A5,5,0,0,1,48,59.39a4.6,4.6,0,0,1-1.75,1.52,5.43,5.43,0,0,1-2.41.53A4.1,4.1,0,0,1,41,60.45Z"/><path class="cls-2" d="M61,48.25a.26.26,0,0,1,.05.2l-.14,1a.3.3,0,0,1-.1.2.28.28,0,0,1-.2.08H57.23a.08.08,0,0,0-.09.09L55.77,61a.3.3,0,0,1-.32.28h-1.2a.22.22,0,0,1-.19-.07A.24.24,0,0,1,54,61L55.4,49.84c0-.06,0-.09-.1-.09H52.1a.25.25,0,0,1-.2-.08.26.26,0,0,1,0-.2l.14-1a.34.34,0,0,1,.09-.2.29.29,0,0,1,.21-.08h8.52A.25.25,0,0,1,61,48.25Z"/><path class="cls-2" d="M71.45,49.65a.33.33,0,0,1-.22.08H64.9a.14.14,0,0,0-.12.09l-.48,4c0,.07,0,.1.07.1H68.7a.24.24,0,0,1,.2.07.28.28,0,0,1,0,.21l-.12,1a.29.29,0,0,1-.32.28H64.19c-.07,0-.1,0-.1.1l-.5,4.08c0,.06,0,.1.07.1H70a.24.24,0,0,1,.2.07.28.28,0,0,1,.05.21l-.13,1a.36.36,0,0,1-.11.21.26.26,0,0,1-.19.07H61.92a.24.24,0,0,1-.2-.07.28.28,0,0,1,0-.21l1.54-12.56a.35.35,0,0,1,.1-.2.33.33,0,0,1,.22-.08h7.91a.25.25,0,0,1,.18.08.23.23,0,0,1,0,.2l-.11,1A.35.35,0,0,1,71.45,49.65Z"/><path class="cls-2" d="M73.42,60.58a2.79,2.79,0,0,1-1.1-2.33,3.79,3.79,0,0,1,0-.46l0-.45a.31.31,0,0,1,.11-.21.26.26,0,0,1,.19-.07h1.16a.24.24,0,0,1,.2.07.24.24,0,0,1,.05.21l0,.35a1.29,1.29,0,0,0,0,.25,1.69,1.69,0,0,0,.71,1.4,3.2,3.2,0,0,0,2,.55,3.06,3.06,0,0,0,2.05-.62,2,2,0,0,0,.73-1.6,1.45,1.45,0,0,0-.62-1.18,12.37,12.37,0,0,0-2.2-1.16c-.78-.34-1.4-.63-1.86-.89a3.49,3.49,0,0,1-1.13-1,2.48,2.48,0,0,1-.45-1.51,3.71,3.71,0,0,1,.58-2.09,3.63,3.63,0,0,1,1.62-1.36A5.82,5.82,0,0,1,77.87,48a4.65,4.65,0,0,1,3,.88,2.88,2.88,0,0,1,1.09,2.36c0,.11,0,.27,0,.49l0,.28a.35.35,0,0,1-.1.21.26.26,0,0,1-.2.07H80.38a.28.28,0,0,1-.2-.06.21.21,0,0,1-.05-.18l0-.22a2.11,2.11,0,0,0,0-.3,1.75,1.75,0,0,0-.67-1.42,2.91,2.91,0,0,0-1.9-.55,3,3,0,0,0-1.92.56A1.93,1.93,0,0,0,75,51.71a1.36,1.36,0,0,0,.29.87,2.49,2.49,0,0,0,.84.63c.37.19.92.43,1.66.73s1.38.63,1.86.9a3.77,3.77,0,0,1,1.18,1,2.5,2.5,0,0,1,.47,1.54c0,.1,0,.25,0,.45a3.74,3.74,0,0,1-1.51,2.6,5.42,5.42,0,0,1-3.33,1A4.76,4.76,0,0,1,73.42,60.58Z"/></g></g></g></g></svg>