<?xml version="1.0" encoding="utf-8"?>
<!-- Generator: Adobe Illustrator 24.0.0, SVG Export Plug-In . SVG Version: 6.00 Build 0)  -->
<svg version="1.1" id="Layer_1" xmlns="http://www.w3.org/2000/svg" xmlns:xlink="http://www.w3.org/1999/xlink" x="0px" y="0px"
	 viewBox="0 0 100 100" style="enable-background:new 0 0 100 100;" xml:space="preserve">
<style type="text/css">
	.st0{fill:none;}
	.st1{fill:#FFFFFF;}
	.st2{fill:#E3DDD6;}
	.st3{fill:#EFF1F0;}
	.st4{fill:#C64F36;}
	.st5{fill:#B6B7B8;}
	.st6{fill:none;stroke:#C64F36;stroke-linecap:round;stroke-miterlimit:10;}
</style>
<title>icon_calendar</title>
<path class="st0" d="M79.5,25.2v12.3H19.3V25.2c0-1.5,0.9-2.6,1.9-2.6h56.3C78.6,22.5,79.5,23.7,79.5,25.2z"/>
<g>
	<circle class="st1" cx="50" cy="50" r="50"/>
	<g>
		<g id="icon_x5F_calendar">
			<g>
				<path class="st2" d="M82.6,80.1H20.9c-1.2,0-2.2-1-2.2-2.2V24.5c0-1.2,1-2.2,2.2-2.2h61.7c1.2,0,2.2,1,2.2,2.2V78
					C84.7,79.2,83.8,80.1,82.6,80.1z"/>
				<path class="st3" d="M83.3,36.3v38.5c0,1.6-1,2.9-2.1,2.9H19.4c-1.2,0-2.1-1.3-2.1-2.9V36.3H83.3z"/>
				<path class="st4" d="M83.3,23v13.5H17.3V23c0-1.6,1-2.9,2.1-2.9h61.8C82.4,20.1,83.3,21.4,83.3,23z"/>
				<g>
					<path class="st5" d="M34.7,49.6h-8.2c-0.5,0-0.9-0.4-0.9-0.9v-8.2c0-0.5,0.4-0.9,0.9-0.9h8.2c0.5,0,0.9,0.4,0.9,0.9v8.2
						C35.5,49.2,35.1,49.6,34.7,49.6z"/>
					<path class="st5" d="M47.8,49.6h-8.2c-0.5,0-0.9-0.4-0.9-0.9v-8.2c0-0.5,0.4-0.9,0.9-0.9h8.2c0.5,0,0.9,0.4,0.9,0.9v8.2
						C48.7,49.2,48.3,49.6,47.8,49.6z"/>
					<path class="st5" d="M61,49.6h-8.2c-0.5,0-0.9-0.4-0.9-0.9v-8.2c0-0.5,0.4-0.9,0.9-0.9H61c0.5,0,0.9,0.4,0.9,0.9v8.2
						C61.9,49.2,61.5,49.6,61,49.6z"/>
					<path class="st5" d="M74.2,49.6H66c-0.5,0-0.9-0.4-0.9-0.9v-8.2c0-0.5,0.4-0.9,0.9-0.9h8.2c0.5,0,0.9,0.4,0.9,0.9v8.2
						C75.1,49.2,74.7,49.6,74.2,49.6z"/>
				</g>
				<g>
					<path class="st5" d="M34.7,62.2h-8.2c-0.5,0-0.9-0.4-0.9-0.9V53c0-0.5,0.4-0.9,0.9-0.9h8.2c0.5,0,0.9,0.4,0.9,0.9v8.2
						C35.5,61.8,35.1,62.2,34.7,62.2z"/>
					<path class="st5" d="M47.8,62.2h-8.2c-0.5,0-0.9-0.4-0.9-0.9V53c0-0.5,0.4-0.9,0.9-0.9h8.2c0.5,0,0.9,0.4,0.9,0.9v8.2
						C48.7,61.8,48.3,62.2,47.8,62.2z"/>
					<path class="st5" d="M61,62.2h-8.2c-0.5,0-0.9-0.4-0.9-0.9V53c0-0.5,0.4-0.9,0.9-0.9H61c0.5,0,0.9,0.4,0.9,0.9v8.2
						C61.9,61.8,61.5,62.2,61,62.2z"/>
					<path class="st5" d="M74.2,62.2H66c-0.5,0-0.9-0.4-0.9-0.9V53c0-0.5,0.4-0.9,0.9-0.9h8.2c0.5,0,0.9,0.4,0.9,0.9v8.2
						C75.1,61.8,74.7,62.2,74.2,62.2z"/>
				</g>
				<g>
					<path class="st5" d="M34.7,74.8h-8.2c-0.5,0-0.9-0.4-0.9-0.9v-8.2c0-0.5,0.4-0.9,0.9-0.9h8.2c0.5,0,0.9,0.4,0.9,0.9v8.2
						C35.5,74.4,35.1,74.8,34.7,74.8z"/>
					<path class="st5" d="M47.8,74.8h-8.2c-0.5,0-0.9-0.4-0.9-0.9v-8.2c0-0.5,0.4-0.9,0.9-0.9h8.2c0.5,0,0.9,0.4,0.9,0.9v8.2
						C48.7,74.4,48.3,74.8,47.8,74.8z"/>
					<path class="st5" d="M61,74.8h-8.2c-0.5,0-0.9-0.4-0.9-0.9v-8.2c0-0.5,0.4-0.9,0.9-0.9H61c0.5,0,0.9,0.4,0.9,0.9v8.2
						C61.9,74.4,61.5,74.8,61,74.8z"/>
					<path class="st5" d="M74.2,74.8H66c-0.5,0-0.9-0.4-0.9-0.9v-8.2c0-0.5,0.4-0.9,0.9-0.9h8.2c0.5,0,0.9,0.4,0.9,0.9v8.2
						C75.1,74.4,74.7,74.8,74.2,74.8z"/>
				</g>
				<line class="st6" x1="51.9" y1="39.4" x2="62.3" y2="48.9"/>
				<line class="st6" x1="52.2" y1="49.7" x2="62.1" y2="39.7"/>
			</g>
		</g>
		<g>
			<path class="st2" d="M37.7,31.6c2.1,0,3.8-1.7,3.8-3.8S39.8,24,37.7,24c-2.1,0-3.8,1.7-3.8,3.8S35.6,31.6,37.7,31.6z"/>
			<g>
				<path class="st2" d="M15.3,35.2"/>
			</g>
			<path class="st2" d="M66.4,30.8C62,30.9,53.3,30.1,52.7,30c-1,0-0.9-0.9-0.9-0.9s0-0.8,0.9-0.9c0.6,0,9-1.3,13.4-1.4
				c-3.5-1.2-10.7-2.6-15.4-3.6c-0.3,1.5-0.5,3.1-0.5,4.6c0,2.7,0.5,5.4,1.4,7.8C56.1,34.2,63.2,32.4,66.4,30.8z"/>
			<path class="st2" d="M75,23c-2.9-1-6.1,0.5-7.1,3.4c-1,2.9,0.5,6.1,3.4,7.1c2.9,1,6.1-0.5,7.1-3.4C79.4,27.2,77.9,24,75,23z"/>
			<path class="st2" d="M33.9,27.7c0,2.1,1.7,3.8,3.8,3.8c2.1,0,3.8-1.7,3.8-3.8s-1.7-3.8-3.8-3.8C35.6,23.9,33.9,25.6,33.9,27.7z"
				/>
			<g>
				<path class="st2" d="M69.2,22.2c-0.3-0.7-0.8-1.5-1.3-2.4h-1.7C67.3,20.7,68.4,21.5,69.2,22.2z"/>
				<path class="st2" d="M66.6,25.3c-1.6-1.4-3.7-3.5-5.6-5.5h-5.9C59.1,22,63.7,24.4,66.6,25.3z"/>
			</g>
			<g>
				<path class="st2" d="M83.3,25.4V24c-1.4,0.4-2.7,0.9-3.6,1.3C80.7,25.3,82,25.3,83.3,25.4z"/>
				<path class="st2" d="M83.3,29.6c-1.1,0.1-2.2,0.2-3.1,0.2c0.8,0.3,1.9,0.6,3.1,0.9V29.6z"/>
			</g>
			<g>
				<path class="st2" d="M76.7,34.6c0.3,0.5,0.6,1.1,1,1.7H79C78.1,35.7,77.3,35.1,76.7,34.6z"/>
				<path class="st2" d="M83.3,34.9V33c-1.4-0.6-2.7-1.2-3.7-1.5C80.7,32.4,82,33.6,83.3,34.9z"/>
			</g>
			<g>
				<path class="st2" d="M75.5,35.1c0,0.4,0,0.8,0,1.2h0.5C75.9,35.9,75.7,35.4,75.5,35.1z"/>
				<path class="st2" d="M71.6,36.3c0-0.3,0-0.7,0-1c-0.1,0.3-0.2,0.6-0.3,1H71.6z"/>
			</g>
			<g>
				<path class="st2" d="M69,36.3h0.7c0.2-0.5,0.4-1,0.5-1.4C69.8,35.3,69.4,35.8,69,36.3z"/>
				<path class="st2" d="M64.2,36.3c1.1-1.5,2.2-2.9,3.1-3.9c-1.7,0.8-4,2.3-6.5,3.9H64.2z"/>
			</g>
			<g>
				<path class="st2" d="M37.1,36.3c-0.9-1.5-1.2-2.6-1.2-2.6l0,0c0,0-2.2,1.6-5.6,2.6H37.1z"/>
				<path class="st2" d="M17.3,35.2c0.4,0.3,0.8,0.7,1.3,1.1h1.6c-0.9-0.3-1.9-0.8-2.8-1.3V35.2z"/>
			</g>
			<path class="st2" d="M17.3,33.3c0.7,0.1,1.5,0.1,2.3,0.1c0.2,0,0.5,0,0.7,0c0.2,0,0.5,0,0.7,0c6.1,0,11.1-2.3,11.1-5.1
				c0-2.8-5-5.1-11.1-5.1c-0.2,0-0.5,0-0.7,0c-0.2,0-0.5,0-0.7,0c-0.8,0-1.6,0-2.3,0.1V33.3z"/>
			<path class="st2" d="M24.5,21.6c-0.5-0.5-1.3-1.1-2.1-1.8h-0.8C22.5,20.3,23.5,20.9,24.5,21.6z"/>
			<path class="st2" d="M36.9,19.9h-6c0.3,1,1.1,1.8,2.5,2.1C35.4,22.3,36.4,21.3,36.9,19.9z"/>
		</g>
	</g>
</g>
</svg>
