<svg xmlns="http://www.w3.org/2000/svg" viewBox="0 0 91.7 91.7"><defs><style>.cls-1{fill:#00363b;}.cls-2{fill:#eff1f0;}</style></defs><title>icon_50min</title><g id="Layer_2" data-name="Layer 2"><g id="_1" data-name="1"><g id="FOLLOWUP"><g id="icon_50min"><circle class="cls-1" cx="45.85" cy="45.85" r="45.85"/><path class="cls-2" d="M46.18,34.05A8.63,8.63,0,0,1,46,36.1a4.37,4.37,0,0,1-1.66,2.47,5.37,5.37,0,0,1-5.95,0,4.38,4.38,0,0,1-1.66-2.34,6.9,6.9,0,0,1-.22-1v0a.25.25,0,0,1,.09-.21.32.32,0,0,1,.23-.08h1.12a.31.31,0,0,1,.34.32,1.36,1.36,0,0,0,.1.41,2.87,2.87,0,0,0,1,1.67A3,3,0,0,0,41.3,38a2.91,2.91,0,0,0,2-.66,3.11,3.11,0,0,0,1-1.81,5.67,5.67,0,0,0,.15-1.44,10.71,10.71,0,0,0-.12-1.61,2.48,2.48,0,0,0-1-1.7,3.33,3.33,0,0,0-2-.59,3.8,3.8,0,0,0-1.85.44,2.25,2.25,0,0,0-1.1,1.22.37.37,0,0,1-.37.27H36.79a.29.29,0,0,1-.32-.32V22.56a.28.28,0,0,1,.32-.31h8.39a.27.27,0,0,1,.31.31v.88a.28.28,0,0,1-.31.32H38.32a.11.11,0,0,0-.12.12l0,5.83c0,.06,0,.1,0,.11s.06,0,.09,0a4.16,4.16,0,0,1,1.44-.85,5.07,5.07,0,0,1,1.73-.29,5,5,0,0,1,2.93.84A3.79,3.79,0,0,1,46,31.85,11.48,11.48,0,0,1,46.18,34.05Z"/><path class="cls-2" d="M50.52,38.22a4.74,4.74,0,0,1-1.39-3.59v-7.7a4.68,4.68,0,0,1,1.39-3.57A5.15,5.15,0,0,1,54.25,22,5.31,5.31,0,0,1,58,23.37a4.68,4.68,0,0,1,1.41,3.56v7.7A4.71,4.71,0,0,1,58,38.22a5.31,5.31,0,0,1-3.78,1.34A5.15,5.15,0,0,1,50.52,38.22Zm6.24-1.07a3.19,3.19,0,0,0,1-2.42V26.86a3.15,3.15,0,0,0-.94-2.39,3.5,3.5,0,0,0-2.52-.9,3.4,3.4,0,0,0-2.47.9,3.17,3.17,0,0,0-.92,2.39v7.87a3.21,3.21,0,0,0,.92,2.42,3.4,3.4,0,0,0,2.47.9A3.51,3.51,0,0,0,56.76,37.15Z"/><path class="cls-2" d="M9.89,58.66a.24.24,0,0,1,0-.21L11.4,45.74a.31.31,0,0,1,.33-.28H13a.29.29,0,0,1,.3.19l2.47,5.08c0,.07.06.07.11,0l3.74-5.08a.36.36,0,0,1,.34-.19h1.23a.26.26,0,0,1,.2.07.28.28,0,0,1,0,.21L19.84,58.45a.35.35,0,0,1-.1.21.32.32,0,0,1-.22.07H18.31a.21.21,0,0,1-.18-.07.24.24,0,0,1-.05-.21l1.17-9.64c0-.05,0-.08,0-.08s-.06,0-.09.05l-3,4.21a.4.4,0,0,1-.36.18h-.58a.3.3,0,0,1-.31-.18l-1.95-4.21s-.05-.06-.08-.05,0,0-.05.08l-1.18,9.64a.35.35,0,0,1-.1.21.31.31,0,0,1-.2.07H10.09A.27.27,0,0,1,9.89,58.66Z"/><path class="cls-2" d="M22.9,58.66a.24.24,0,0,1,0-.21l1.55-12.71a.31.31,0,0,1,.11-.21.3.3,0,0,1,.21-.07H26a.24.24,0,0,1,.18.07.28.28,0,0,1,.05.21L24.62,58.45a.35.35,0,0,1-.1.21.31.31,0,0,1-.2.07H23.1A.26.26,0,0,1,22.9,58.66Z"/><path class="cls-2" d="M27.68,58.66a.24.24,0,0,1,0-.21l1.55-12.71a.31.31,0,0,1,.11-.21.3.3,0,0,1,.21-.07h1.18a.29.29,0,0,1,.3.19L35.47,55s0,.06.05,0,0,0,.06-.08l1.14-9.26a.35.35,0,0,1,.1-.21.31.31,0,0,1,.2-.07h1.22a.27.27,0,0,1,.2.07.24.24,0,0,1,0,.21L36.93,58.45a.31.31,0,0,1-.11.21.3.3,0,0,1-.21.07h-1.2a.29.29,0,0,1-.3-.19L30.63,49.1s0-.06-.05-.05,0,0-.06.09L29.4,58.45a.35.35,0,0,1-.1.21.31.31,0,0,1-.2.07H27.88A.26.26,0,0,1,27.68,58.66Z"/><path class="cls-2" d="M41.33,57.88a3.53,3.53,0,0,1-1.08-2.71c0-.13,0-.34,0-.65l1.06-8.78a.3.3,0,0,1,.32-.28h1.21a.24.24,0,0,1,.2.07.24.24,0,0,1,.05.21L42,54.56a3.59,3.59,0,0,0,0,.4,2.28,2.28,0,0,0,.66,1.71,2.51,2.51,0,0,0,1.79.64,3,3,0,0,0,2.08-.76,3,3,0,0,0,1-2l1.08-8.82a.34.34,0,0,1,.09-.21.28.28,0,0,1,.21-.07h1.22a.27.27,0,0,1,.2.07.24.24,0,0,1,0,.21l-1.08,8.78a5.09,5.09,0,0,1-.83,2.29,4.63,4.63,0,0,1-1.78,1.53,5.36,5.36,0,0,1-2.43.54A4.14,4.14,0,0,1,41.33,57.88Z"/><path class="cls-2" d="M61.61,45.53a.28.28,0,0,1,0,.21l-.14,1a.31.31,0,0,1-.3.28H57.79a.09.09,0,0,0-.1.1l-1.38,11.3a.31.31,0,0,1-.32.28H54.77a.26.26,0,0,1-.2-.07.24.24,0,0,1,0-.21l1.4-11.3c0-.07,0-.1-.09-.1H52.59a.26.26,0,0,1-.2-.08.23.23,0,0,1,0-.2l.13-1a.34.34,0,0,1,.09-.21.28.28,0,0,1,.21-.07h8.63A.24.24,0,0,1,61.61,45.53Z"/><path class="cls-2" d="M72.17,47A.31.31,0,0,1,72,47H65.54c-.05,0-.08,0-.11.1l-.49,4c0,.07,0,.1.07.1h4.38a.25.25,0,0,1,.2.08.23.23,0,0,1,0,.2l-.11,1a.31.31,0,0,1-.33.28H64.82c-.06,0-.09,0-.09.1l-.51,4.13c0,.07,0,.1.07.1h6.43a.24.24,0,0,1,.2.07.28.28,0,0,1,0,.21l-.13,1a.36.36,0,0,1-.11.21.29.29,0,0,1-.2.07h-8a.24.24,0,0,1-.2-.07.28.28,0,0,1,0-.21l1.56-12.71a.3.3,0,0,1,.1-.21.32.32,0,0,1,.22-.07h8a.21.21,0,0,1,.18.07.24.24,0,0,1,0,.21l-.11,1A.39.39,0,0,1,72.17,47Z"/><path class="cls-2" d="M74.16,58a2.82,2.82,0,0,1-1.11-2.35c0-.09,0-.25,0-.47l.06-.46a.35.35,0,0,1,.1-.21.31.31,0,0,1,.2-.07h1.18a.26.26,0,0,1,.2.07.24.24,0,0,1,0,.21l0,.36a.79.79,0,0,0,0,.25,1.71,1.71,0,0,0,.72,1.42,3.18,3.18,0,0,0,2,.55,3.1,3.1,0,0,0,2.08-.63,2,2,0,0,0,.73-1.61,1.42,1.42,0,0,0-.63-1.19,12.13,12.13,0,0,0-2.22-1.18,20.69,20.69,0,0,1-1.89-.9,3.55,3.55,0,0,1-1.14-1A2.46,2.46,0,0,1,74,49.27a3.84,3.84,0,0,1,.59-2.12,3.76,3.76,0,0,1,1.64-1.37,5.81,5.81,0,0,1,2.44-.47,4.62,4.62,0,0,1,3,.89,2.9,2.9,0,0,1,1.11,2.39,4,4,0,0,1,0,.49l0,.28a.41.41,0,0,1-.1.21.29.29,0,0,1-.21.08H81.21a.24.24,0,0,1-.2-.07A.18.18,0,0,1,81,49.4l0-.23a1.9,1.9,0,0,0,0-.3,1.78,1.78,0,0,0-.68-1.43,3.58,3.58,0,0,0-3.86,0A2,2,0,0,0,75.77,49a1.31,1.31,0,0,0,.29.87,2.68,2.68,0,0,0,.85.65c.38.19.93.43,1.68.74a20.16,20.16,0,0,1,1.88.9,3.74,3.74,0,0,1,1.19,1,2.55,2.55,0,0,1,.48,1.57c0,.1,0,.25,0,.45a3.79,3.79,0,0,1-1.53,2.63,5.45,5.45,0,0,1-3.36,1A4.83,4.83,0,0,1,74.16,58Z"/></g></g></g></g></svg>