<svg id="ifm.svg" xmlns="http://www.w3.org/2000/svg" width="178" height="111" viewBox="0 0 178 111">
  <defs>
    <style>
      .cls-1 {
        fill: #e3ddd6;
      }

      .cls-2 {
        fill: #008a60;
      }

      .cls-3, .cls-4 {
        fill: #f7f5ef;
      }

      .cls-4 {
        fill-rule: evenodd;
      }
    </style>
  </defs>
  <rect id="Rectangle_13_copy_6" data-name="Rectangle 13 copy 6" class="cls-1" x="5" y="6" width="173" height="105" rx="7" ry="7"/>
  <rect id="Rectangle_13_copy_6-2" data-name="Rectangle 13 copy 6" class="cls-2" width="173" height="105" rx="7" ry="7"/>
  <rect id="Rectangle_14_copy_6" data-name="Rectangle 14 copy 6" class="cls-3" x="20" y="32" width="103" height="1"/>
  <rect id="Rectangle_14_copy_6-2" data-name="Rectangle 14 copy 6" class="cls-3" x="20" y="92" width="103" height="1"/>
  <path id="the_institute_for_functional_medicine_copy" data-name="the institute for functional medicine  copy" class="cls-4" d="M4270.47,638.207h1.17V632.9h2.09v-0.99h-5.35v0.99h2.09v5.31Zm8.15-6.3v2.6h-3.26v-2.6h-1.17v6.3h1.17v-2.7h3.26v2.7h1.17v-6.3h-1.17Zm3.74,5.319v-1.737h3.05v-0.963h-3.05v-1.638h3.43v-0.981h-4.6v6.3h4.73v-0.981h-3.56Zm6.83,0.981h1.17v-6.3h-1.17v6.3Zm7.44-6.3v4.266l-3.47-4.266h-0.97v6.3h1.16v-4.266l3.48,4.266h0.96v-6.3h-1.16Zm4.52,6.39a3.47,3.47,0,0,0,1.4-.252,1.958,1.958,0,0,0,.86-0.675,1.649,1.649,0,0,0,.28-0.945,1.378,1.378,0,0,0-.32-0.972,1.952,1.952,0,0,0-.77-0.535,8.391,8.391,0,0,0-1.15-.338q-0.51-.126-0.81-0.225a1.387,1.387,0,0,1-.49-0.27,0.555,0.555,0,0,1-.19-0.441,0.713,0.713,0,0,1,.34-0.621,1.793,1.793,0,0,1,1.03-.234,3.222,3.222,0,0,1,.87.126,3.511,3.511,0,0,1,.86.369l0.37-.909a3.138,3.138,0,0,0-.96-0.414,4.5,4.5,0,0,0-1.13-.144,3.437,3.437,0,0,0-1.4.252,1.946,1.946,0,0,0-.86.68,1.669,1.669,0,0,0-.28.949,1.41,1.41,0,0,0,.32.986,1.928,1.928,0,0,0,.76.535,9.706,9.706,0,0,0,1.17.342q0.51,0.126.81,0.225a1.348,1.348,0,0,1,.49.275,0.568,0.568,0,0,1,.19.445,0.677,0.677,0,0,1-.34.594,2,2,0,0,1-1.05.225,3.424,3.424,0,0,1-1.13-.193,3.157,3.157,0,0,1-.95-0.5l-0.41.909a3.038,3.038,0,0,0,1.08.549,4.782,4.782,0,0,0,1.41.207h0Zm5.32-.09h1.17V632.9h2.09v-0.99h-5.35v0.99h2.09v5.31Zm3.72,0h1.17v-6.3h-1.17v6.3Zm4.28,0h1.17V632.9h2.09v-0.99h-5.35v0.99h2.09v5.31Zm6.43,0.09a2.72,2.72,0,0,0,2.03-.733,2.84,2.84,0,0,0,.73-2.1v-3.555h-1.16v3.51q0,1.854-1.59,1.854c-1.07,0-1.6-.618-1.6-1.854v-3.51h-1.17v3.555a2.84,2.84,0,0,0,.73,2.1,2.72,2.72,0,0,0,2.03.733h0Zm5.57-.09h1.17V632.9h2.09v-0.99h-5.35v0.99h2.09v5.31Zm4.89-.981v-1.737h3.05v-0.963h-3.05v-1.638h3.43v-0.981h-4.6v6.3h4.73v-0.981h-3.56Zm11.43-4.338v-0.981h-4.6v6.3h1.17v-2.412h3.05V634.8h-3.05v-1.917h3.43Zm4.35,5.409a3.554,3.554,0,0,0,1.73-.418,3.137,3.137,0,0,0,1.22-1.157,3.37,3.37,0,0,0,0-3.33,3.135,3.135,0,0,0-1.22-1.156,3.554,3.554,0,0,0-1.73-.419,3.594,3.594,0,0,0-1.74.419,3.126,3.126,0,0,0-1.22,1.161,3.353,3.353,0,0,0,0,3.321,3.126,3.126,0,0,0,1.22,1.161,3.593,3.593,0,0,0,1.74.418h0Zm0-1.026a2.306,2.306,0,0,1-1.14-.283,2.073,2.073,0,0,1-.79-0.792,2.38,2.38,0,0,1,0-2.277,2.073,2.073,0,0,1,.79-0.792,2.307,2.307,0,0,1,1.14-.284,2.268,2.268,0,0,1,1.13.284,2.006,2.006,0,0,1,.79.792,2.38,2.38,0,0,1,0,2.277,2.006,2.006,0,0,1-.79.792,2.268,2.268,0,0,1-1.13.283h0Zm10.44,0.936-1.45-2.07a2.054,2.054,0,0,0,.99-0.765,2.325,2.325,0,0,0,.02-2.421,2.013,2.013,0,0,0-.93-0.774,3.459,3.459,0,0,0-1.42-.27h-2.6v6.3h1.17v-1.836h1.43q0.15,0,.24-0.009l1.29,1.845h1.26Zm-1.29-4.059a1.129,1.129,0,0,1-.4.932,1.769,1.769,0,0,1-1.16.328h-1.37V632.9h1.37a1.787,1.787,0,0,1,1.16.324,1.115,1.115,0,0,1,.4.927h0Zm-77.16,11.025v-1.566h-8.89v12.6h1.8v-5.094h6.32v-1.548h-6.32v-4.392h7.09Zm7.33,11.178a5.228,5.228,0,0,0,3.92-1.431,5.669,5.669,0,0,0,1.41-4.149v-7.164h-1.75V650.7a4.4,4.4,0,0,1-.92,3.051,3.4,3.4,0,0,1-2.64,1q-3.555,0-3.55-4.05v-7.092h-1.8v7.164a5.714,5.714,0,0,0,1.4,4.14,5.248,5.248,0,0,0,3.93,1.44h0Zm17.81-12.744V653l-7.56-9.4h-1.47v12.6h1.8v-9.4l7.56,9.4h1.47v-12.6h-1.8Zm11.6,12.744a7.07,7.07,0,0,0,2.71-.5,5.658,5.658,0,0,0,2.1-1.476l-1.17-1.134a4.7,4.7,0,0,1-3.55,1.512,5.172,5.172,0,0,1-2.54-.63,4.629,4.629,0,0,1-1.77-1.737,5.106,5.106,0,0,1,0-4.95,4.629,4.629,0,0,1,1.77-1.737,5.172,5.172,0,0,1,2.54-.63,4.7,4.7,0,0,1,3.55,1.494l1.17-1.134a5.533,5.533,0,0,0-2.09-1.467,7.168,7.168,0,0,0-2.7-.5,7.007,7.007,0,0,0-3.42.837,6.091,6.091,0,0,0-2.39,2.3,6.705,6.705,0,0,0,0,6.606,6.132,6.132,0,0,0,2.38,2.3,6.941,6.941,0,0,0,3.41.837h0Zm9.87-.144h1.78V645.173h4.32v-1.566h-10.42v1.566h4.32v11.034Zm8.5,0h1.8v-12.6h-1.8v12.6Zm11.69,0.144a7.007,7.007,0,0,0,3.42-.837,6.158,6.158,0,0,0,2.39-2.3,6.773,6.773,0,0,0,0-6.606,6.158,6.158,0,0,0-2.39-2.3,7.446,7.446,0,0,0-6.86,0,6.26,6.26,0,0,0-2.41,2.313,6.671,6.671,0,0,0,0,6.588,6.26,6.26,0,0,0,2.41,2.313,7.03,7.03,0,0,0,3.44.837h0Zm0-1.6a5.068,5.068,0,0,1-2.52-.63,4.6,4.6,0,0,1-1.76-1.737,5.106,5.106,0,0,1,0-4.95,4.6,4.6,0,0,1,1.76-1.737,5.068,5.068,0,0,1,2.52-.63,4.955,4.955,0,0,1,2.49.63,4.551,4.551,0,0,1,1.74,1.737,5.106,5.106,0,0,1,0,4.95,4.551,4.551,0,0,1-1.74,1.737,4.955,4.955,0,0,1-2.49.63h0Zm18.34-11.142V653l-7.56-9.4h-1.47v12.6h1.8v-9.4l7.56,9.4h1.47v-12.6h-1.8Zm15.38,12.6h1.89l-5.72-12.6h-1.78l-5.71,12.6h1.85l1.39-3.15h6.7Zm-7.45-4.59,2.72-6.174,2.72,6.174h-5.44Zm11.04,4.59h8.62v-1.566h-6.82V643.607h-1.8v12.6Zm-99.59,18-0.02-12.6h-1.48l-5.18,8.856-5.26-8.856h-1.47v12.6h1.73v-9.126l4.55,7.6h0.83l4.55-7.65,0.02,9.18h1.73Zm5.39-1.566v-4.068h6.32v-1.53h-6.32v-3.87h7.09v-1.566h-8.89v12.6h9.14v-1.566h-7.34Zm10.2,1.566h5.31a7.652,7.652,0,0,0,3.54-.792,5.789,5.789,0,0,0,2.41-2.223,6.773,6.773,0,0,0,0-6.57,5.789,5.789,0,0,0-2.41-2.223,7.652,7.652,0,0,0-3.54-.792h-5.31v12.6Zm1.8-1.566v-9.468h3.4a5.814,5.814,0,0,1,2.69.594,4.315,4.315,0,0,1,1.79,1.665,5.177,5.177,0,0,1,0,4.95,4.315,4.315,0,0,1-1.79,1.665,5.814,5.814,0,0,1-2.69.594h-3.4Zm13.2,1.566h1.8v-12.6h-1.8v12.6Zm11.63,0.144a7.07,7.07,0,0,0,2.71-.5,5.658,5.658,0,0,0,2.1-1.476l-1.17-1.134a4.7,4.7,0,0,1-3.55,1.512,5.172,5.172,0,0,1-2.54-.63,4.629,4.629,0,0,1-1.77-1.737,5.106,5.106,0,0,1,0-4.95,4.629,4.629,0,0,1,1.77-1.737,5.172,5.172,0,0,1,2.54-.63,4.7,4.7,0,0,1,3.55,1.494l1.17-1.134a5.533,5.533,0,0,0-2.09-1.467,7.168,7.168,0,0,0-2.7-.5,7.007,7.007,0,0,0-3.42.837,6.091,6.091,0,0,0-2.39,2.3,6.705,6.705,0,0,0,0,6.606,6.132,6.132,0,0,0,2.38,2.3,6.941,6.941,0,0,0,3.41.837h0Zm7.37-.144h1.8v-12.6h-1.8v12.6Zm15.03-12.6V671l-7.56-9.4h-1.47v12.6h1.8v-9.4l7.56,9.4h1.47v-12.6h-1.8Zm7.77,11.034v-4.068h6.32v-1.53h-6.32v-3.87h7.09v-1.566h-8.89v12.6h9.14v-1.566h-7.34Z" transform="translate(-4247 -591)"/>
</svg>
