<svg id="immh.svg" xmlns="http://www.w3.org/2000/svg" width="178" height="111" viewBox="0 0 178 111">
  <defs>
    <style>
      .cls-1, .cls-3 {
        fill: #008a60;
      }

      .cls-2 {
        fill: #f7f5ef;
      }

      .cls-3 {
        fill-rule: evenodd;
      }
    </style>
  </defs>
  <rect id="Rectangle_13_copy_6" data-name="Rectangle 13 copy 6" class="cls-1" x="5" y="6" width="173" height="105" rx="7" ry="7"/>
  <rect id="Rectangle_13_copy_6-2" data-name="Rectangle 13 copy 6" class="cls-2" width="173" height="105" rx="7" ry="7"/>
  <path id="Immh_integrative_medicine_for_mental_health_copy" data-name="Immh integrative medicine  for mental health   copy" class="cls-3" d="M4501.24,648.776h1.8v-12.6h-1.8v12.6Zm19.41,0-0.02-12.6h-1.48l-5.18,8.856-5.26-8.856h-1.47v12.6h1.73V639.65l4.55,7.6h0.83l4.55-7.65,0.02,9.18h1.73Zm17,0-0.02-12.6h-1.48l-5.18,8.856-5.26-8.856h-1.47v12.6h1.73V639.65l4.55,7.6h0.83l4.55-7.65,0.02,9.18h1.73Zm12.62-12.6v5.418h-7.23v-5.418h-1.8v12.6h1.8V643.16h7.23v5.616h1.8v-12.6h-1.8Zm-50.08,23.6h1.17v-6.3h-1.17v6.3Zm7.44-6.3v4.266l-3.47-4.266h-0.97v6.3h1.16V655.51l3.48,4.266h0.96v-6.3h-1.16Zm3.84,6.3h1.17v-5.31h2.09v-0.99h-5.35v0.99h2.09v5.31Zm4.89-.981v-1.737h3.05V656.1h-3.05v-1.638h3.43v-0.981h-4.6v6.3h4.73V658.8h-3.56Zm9.14-.279a2.575,2.575,0,0,1-1.3.324,2.338,2.338,0,0,1-1.17-.288,2.032,2.032,0,0,1-.81-0.792,2.174,2.174,0,0,1-.3-1.134,2.209,2.209,0,0,1,.3-1.152,1.972,1.972,0,0,1,.81-0.783,2.41,2.41,0,0,1,1.18-.279,2.371,2.371,0,0,1,1.74.72l0.73-.72a2.742,2.742,0,0,0-1.09-.765,3.807,3.807,0,0,0-1.44-.261,3.66,3.66,0,0,0-1.75.418,3.273,3.273,0,0,0-1.22,4.487,3.135,3.135,0,0,0,1.22,1.156,3.594,3.594,0,0,0,1.74.419,4.357,4.357,0,0,0,1.33-.207,3.479,3.479,0,0,0,1.13-.594v-2.511h-1.1v1.962Zm8.08,1.26-1.45-2.07a2.054,2.054,0,0,0,.99-0.765,2.325,2.325,0,0,0,.02-2.421,2.013,2.013,0,0,0-.93-0.774,3.459,3.459,0,0,0-1.42-.27h-2.6v6.3h1.17V657.94h1.43q0.15,0,.24-0.009l1.29,1.845h1.26Zm-1.29-4.059a1.127,1.127,0,0,1-.4.931,1.769,1.769,0,0,1-1.16.329h-1.37v-2.511h1.37a1.787,1.787,0,0,1,1.16.324,1.115,1.115,0,0,1,.4.927h0Zm7.62,4.059h1.22l-2.84-6.3h-1.15l-2.84,6.3h1.21l0.62-1.458h3.15Zm-3.38-2.376,1.17-2.754,1.19,2.754h-2.36Zm5.94,2.376h1.17v-5.31h2.09v-0.99h-5.35v0.99h2.09v5.31Zm3.72,0h1.17v-6.3h-1.17v6.3Zm7.59-6.3-2.11,4.86-2.1-4.86h-1.27l2.76,6.3h1.15l2.74-6.3h-1.17Zm2.58,5.319v-1.737h3.05V656.1h-3.05v-1.638h3.43v-0.981h-4.6v6.3h4.73V658.8h-3.56Zm13.73,0.981-0.01-6.3h-0.96l-2.46,4.176-2.5-4.176h-0.97v6.3h1.12v-4.122l2.07,3.4h0.52l2.07-3.456,0.01,4.176h1.11Zm3.27-.981v-1.737h3.05V656.1h-3.05v-1.638h3.43v-0.981h-4.6v6.3h4.73V658.8h-3.56Zm4.83,0.981h2.76a3.948,3.948,0,0,0,1.79-.392,2.849,2.849,0,0,0,1.21-1.107,3.319,3.319,0,0,0,0-3.3,2.849,2.849,0,0,0-1.21-1.107,3.948,3.948,0,0,0-1.79-.391h-2.76v6.3Zm1.17-.99v-4.32h1.53a2.65,2.65,0,0,1,1.22.265,1.911,1.911,0,0,1,.81.756,2.38,2.38,0,0,1,0,2.277,1.911,1.911,0,0,1-.81.756,2.65,2.65,0,0,1-1.22.266h-1.53Zm5.83,0.99h1.17v-6.3h-1.17v6.3Zm5.92,0.09a3.63,3.63,0,0,0,1.42-.27,2.82,2.82,0,0,0,1.08-.783l-0.75-.72a2.207,2.207,0,0,1-1.69.747,2.356,2.356,0,0,1-1.16-.284,2.038,2.038,0,0,1-.8-0.787,2.4,2.4,0,0,1,0-2.286,2.041,2.041,0,0,1,.8-0.788,2.356,2.356,0,0,1,1.16-.283,2.219,2.219,0,0,1,1.69.738l0.75-.711a2.82,2.82,0,0,0-1.08-.783,3.58,3.58,0,0,0-1.41-.27,3.515,3.515,0,0,0-1.72.418,3.137,3.137,0,0,0-1.22,1.157,3.37,3.37,0,0,0,0,3.33,3.042,3.042,0,0,0,1.21,1.156,3.515,3.515,0,0,0,1.72.419h0Zm4.08-.09h1.17v-6.3h-1.17v6.3Zm7.44-6.3v4.266l-3.47-4.266h-0.97v6.3h1.16V655.51l3.48,4.266h0.96v-6.3h-1.16Zm3.73,5.319v-1.737h3.05V656.1h-3.05v-1.638h3.43v-0.981h-4.6v6.3h4.73V658.8h-3.56Zm-101.57,6.662v-0.981h-4.6v6.3h1.17v-2.412h3.05v-0.99h-3.05v-1.917h3.43Zm4.35,5.409a3.554,3.554,0,0,0,1.73-.419,3.135,3.135,0,0,0,1.22-1.156,3.37,3.37,0,0,0,0-3.33,3.137,3.137,0,0,0-1.22-1.157,3.554,3.554,0,0,0-1.73-.418,3.593,3.593,0,0,0-1.74.418,3.126,3.126,0,0,0-1.22,1.161,3.353,3.353,0,0,0,0,3.321,3.126,3.126,0,0,0,1.22,1.161,3.594,3.594,0,0,0,1.74.419h0Zm0-1.026a2.307,2.307,0,0,1-1.14-.284,2.073,2.073,0,0,1-.79-0.792,2.38,2.38,0,0,1,0-2.277,2.073,2.073,0,0,1,.79-0.792,2.306,2.306,0,0,1,1.14-.283,2.268,2.268,0,0,1,1.13.283,2.006,2.006,0,0,1,.79.792,2.38,2.38,0,0,1,0,2.277,2.006,2.006,0,0,1-.79.792,2.268,2.268,0,0,1-1.13.284h0Zm10.44,0.936-1.45-2.07a2.054,2.054,0,0,0,.99-0.765,2.325,2.325,0,0,0,.02-2.421,2.013,2.013,0,0,0-.93-0.774,3.459,3.459,0,0,0-1.42-.27h-2.6v6.3h1.17V668.94h1.43q0.15,0,.24-0.009l1.29,1.845h1.26Zm-1.29-4.059a1.127,1.127,0,0,1-.4.931,1.769,1.769,0,0,1-1.16.329h-1.37v-2.511h1.37a1.787,1.787,0,0,1,1.16.324,1.115,1.115,0,0,1,.4.927h0Zm11.8,4.059-0.01-6.3h-0.96l-2.46,4.176-2.5-4.176h-0.97v6.3h1.12v-4.122l2.07,3.4h0.52l2.07-3.456,0.01,4.176h1.11Zm3.27-.981v-1.737h3.05V667.1h-3.05v-1.638h3.43v-0.981h-4.6v6.3h4.73V669.8h-3.56Zm9.27-5.319v4.266l-3.47-4.266h-0.97v6.3h1.16V666.51l3.48,4.266h0.96v-6.3h-1.16Zm3.84,6.3h1.17v-5.31h2.09v-0.99h-5.35v0.99h2.09v5.31Zm8.44,0h1.22l-2.84-6.3h-1.15l-2.84,6.3h1.21l0.62-1.458h3.15Zm-3.38-2.376,1.17-2.754,1.19,2.754h-2.36Zm5.66,2.376h4.47v-0.99h-3.3v-5.31h-1.17v6.3Zm11.43-6.3v2.6h-3.26v-2.6h-1.17v6.3h1.17v-2.7h3.26v2.7h1.17v-6.3h-1.17Zm3.74,5.319v-1.737h3.05V667.1h-3.05v-1.638h3.43v-0.981h-4.6v6.3h4.73V669.8h-3.56Zm9.55,0.981h1.22l-2.84-6.3h-1.15l-2.84,6.3h1.21l0.62-1.458h3.15Zm-3.38-2.376,1.17-2.754,1.19,2.754h-2.36Zm5.66,2.376h4.47v-0.99h-3.3v-5.31h-1.17v6.3Zm6.28,0h1.17v-5.31h2.09v-0.99h-5.35v0.99h2.09v5.31Zm8.15-6.3v2.6h-3.26v-2.6h-1.17v6.3h1.17v-2.7h3.26v2.7h1.17v-6.3h-1.17Z" transform="translate(-4481 -591)"/>
  <rect id="Rectangle_14_copy_6" data-name="Rectangle 14 copy 6" class="cls-1" x="20" y="32" width="103" height="1"/>
  <rect id="Rectangle_14_copy_6-2" data-name="Rectangle 14 copy 6" class="cls-1" x="20" y="92" width="103" height="1"/>
</svg>
