<svg id="isnpr_hover.svg" xmlns="http://www.w3.org/2000/svg" width="178" height="111" viewBox="0 0 178 111">
  <defs>
    <style>
      .cls-1, .cls-3 {
        fill: #e3ddd6;
      }

      .cls-2 {
        fill: #003b41;
      }

      .cls-3 {
        fill-rule: evenodd;
      }
    </style>
  </defs>
  <rect id="Rectangle_13_copy_7" data-name="Rectangle 13 copy 7" class="cls-1" x="5" y="6" width="173" height="105" rx="7" ry="7"/>
  <rect id="Rectangle_13_copy_7-2" data-name="Rectangle 13 copy 7" class="cls-2" width="173" height="105" rx="7" ry="7"/>
  <path id="ISNPR_International_Society_for_nutritional_psychiatry_researc_copy_2" data-name="ISNPR International Society  for nutritional psychiatry researc copy 2" class="cls-3" d="M4741.24,806.147h1.8v-12.6h-1.8v12.6Zm9.67,0.144a6.762,6.762,0,0,0,2.7-.477,3.634,3.634,0,0,0,1.64-1.3,3.217,3.217,0,0,0,.54-1.809,2.769,2.769,0,0,0-.62-1.89,3.88,3.88,0,0,0-1.49-1.044,17.564,17.564,0,0,0-2.28-.684,15.875,15.875,0,0,1-1.74-.477,2.975,2.975,0,0,1-1.07-.63,1.369,1.369,0,0,1-.43-1.053,1.7,1.7,0,0,1,.76-1.44,3.9,3.9,0,0,1,2.3-.558,6.32,6.32,0,0,1,1.76.261,6.534,6.534,0,0,1,1.69.765l0.6-1.44a5.918,5.918,0,0,0-1.86-.828,8.464,8.464,0,0,0-2.19-.288,6.568,6.568,0,0,0-2.69.486,3.678,3.678,0,0,0-1.61,1.3,3.275,3.275,0,0,0-.53,1.818,2.832,2.832,0,0,0,.62,1.917,3.8,3.8,0,0,0,1.5,1.053,17.778,17.778,0,0,0,2.29.684c0.76,0.18,1.34.342,1.76,0.486a2.828,2.828,0,0,1,1.04.621,1.4,1.4,0,0,1,.42,1.053,1.624,1.624,0,0,1-.77,1.413,4.184,4.184,0,0,1-2.34.531,6.77,6.77,0,0,1-2.31-.4,5.541,5.541,0,0,1-1.85-1.053l-0.66,1.4a5.576,5.576,0,0,0,2.07,1.143,8.681,8.681,0,0,0,2.75.441h0Zm16.36-12.744v9.4l-7.56-9.4h-1.47v12.6h1.8v-9.4l7.56,9.4h1.47v-12.6h-1.8Zm10.88,0h-4.91v12.6h1.8v-3.816h3.11a5.824,5.824,0,0,0,3.85-1.17,4.386,4.386,0,0,0,0-6.444,5.824,5.824,0,0,0-3.85-1.17h0Zm-0.05,7.218h-3.06v-5.652h3.06a4.062,4.062,0,0,1,2.61.729,2.893,2.893,0,0,1,0,4.194,4.062,4.062,0,0,1-2.61.729h0Zm18.52,5.382-2.98-4.23a4.1,4.1,0,0,0,2.05-1.494,4.214,4.214,0,0,0,.72-2.484,3.961,3.961,0,0,0-1.41-3.222,5.824,5.824,0,0,0-3.85-1.17h-4.91v12.6h1.8v-3.834h3.11c0.19,0,.46-0.012.79-0.036l2.72,3.87h1.96Zm-5.52-5.364h-3.06v-5.67h3.06a4.062,4.062,0,0,1,2.61.729,2.542,2.542,0,0,1,.9,2.1,2.568,2.568,0,0,1-.9,2.106,4.027,4.027,0,0,1-2.61.738h0Zm-50.91,16.364h1.17v-6.3h-1.17v6.3Zm7.44-6.3v4.266l-3.47-4.266h-0.97v6.3h1.16v-4.266l3.48,4.266h0.96v-6.3h-1.16Zm3.84,6.3h1.17v-5.31h2.09v-0.99h-5.35v0.99h2.09v5.31Zm4.89-.981v-1.737h3.05v-0.963h-3.05v-1.638h3.43v-0.981h-4.6v6.3h4.73v-0.981h-3.56Zm10.22,0.981-1.45-2.07a2.054,2.054,0,0,0,.99-0.765,2.325,2.325,0,0,0,.02-2.421,2.013,2.013,0,0,0-.93-0.774,3.459,3.459,0,0,0-1.42-.27h-2.6v6.3h1.17v-1.836h1.43q0.15,0,.24-0.009l1.29,1.845h1.26Zm-1.29-4.059a1.127,1.127,0,0,1-.4.931,1.769,1.769,0,0,1-1.16.329h-1.37v-2.511h1.37a1.787,1.787,0,0,1,1.16.324,1.115,1.115,0,0,1,.4.927h0Zm7.34-2.241v4.266l-3.47-4.266h-0.97v6.3h1.16v-4.266l3.48,4.266h0.96v-6.3h-1.16Zm7.28,6.3h1.22l-2.84-6.3h-1.15l-2.84,6.3h1.21l0.62-1.458h3.15Zm-3.38-2.376,1.17-2.754,1.19,2.754h-2.36Zm5.94,2.376h1.17v-5.31h2.09v-0.99h-5.35v0.99h2.09v5.31Zm3.72,0h1.17v-6.3h-1.17v6.3Zm5.95,0.09a3.554,3.554,0,0,0,1.73-.419,3.135,3.135,0,0,0,1.22-1.156,3.37,3.37,0,0,0,0-3.33,3.137,3.137,0,0,0-1.22-1.157,3.554,3.554,0,0,0-1.73-.418,3.593,3.593,0,0,0-1.74.418,3.126,3.126,0,0,0-1.22,1.161,3.353,3.353,0,0,0,0,3.321,3.126,3.126,0,0,0,1.22,1.161,3.594,3.594,0,0,0,1.74.419h0Zm0-1.026a2.307,2.307,0,0,1-1.14-.284,2.073,2.073,0,0,1-.79-0.792,2.38,2.38,0,0,1,0-2.277,2.073,2.073,0,0,1,.79-0.792,2.306,2.306,0,0,1,1.14-.283,2.268,2.268,0,0,1,1.13.283,2.006,2.006,0,0,1,.79.792,2.38,2.38,0,0,1,0,2.277,2.006,2.006,0,0,1-.79.792,2.268,2.268,0,0,1-1.13.284h0Zm9.49-5.364v4.266l-3.47-4.266h-0.97v6.3h1.16v-4.266l3.48,4.266h0.96v-6.3h-1.16Zm7.28,6.3h1.22l-2.84-6.3h-1.15l-2.84,6.3h1.21l0.62-1.458h3.15Zm-3.38-2.376,1.17-2.754,1.19,2.754h-2.36Zm5.66,2.376h4.47v-0.99h-3.3v-5.31h-1.17v6.3Zm8.96,0.09a3.47,3.47,0,0,0,1.4-.252,1.958,1.958,0,0,0,.86-0.675,1.649,1.649,0,0,0,.28-0.945,1.378,1.378,0,0,0-.32-0.972,1.954,1.954,0,0,0-.77-0.536,8.406,8.406,0,0,0-1.15-.337q-0.51-.126-0.81-0.225a1.387,1.387,0,0,1-.49-0.27,0.555,0.555,0,0,1-.19-0.441,0.713,0.713,0,0,1,.34-0.621,1.793,1.793,0,0,1,1.03-.234,3.222,3.222,0,0,1,.87.126,3.511,3.511,0,0,1,.86.369l0.37-.909a3.138,3.138,0,0,0-.96-0.414,4.5,4.5,0,0,0-1.13-.144,3.437,3.437,0,0,0-1.4.252,1.944,1.944,0,0,0-.86.679,1.672,1.672,0,0,0-.28.95,1.407,1.407,0,0,0,.32.985,1.931,1.931,0,0,0,.76.536,9.706,9.706,0,0,0,1.17.342q0.51,0.126.81,0.225a1.347,1.347,0,0,1,.49.274,0.57,0.57,0,0,1,.19.446,0.677,0.677,0,0,1-.34.594,2,2,0,0,1-1.05.225,3.425,3.425,0,0,1-1.13-.194,3.156,3.156,0,0,1-.95-0.5l-0.41.909a3.038,3.038,0,0,0,1.08.549,4.782,4.782,0,0,0,1.41.207h0Zm6.99,0a3.554,3.554,0,0,0,1.73-.419,3.135,3.135,0,0,0,1.22-1.156,3.37,3.37,0,0,0,0-3.33,3.137,3.137,0,0,0-1.22-1.157,3.554,3.554,0,0,0-1.73-.418,3.593,3.593,0,0,0-1.74.418,3.126,3.126,0,0,0-1.22,1.161,3.353,3.353,0,0,0,0,3.321,3.126,3.126,0,0,0,1.22,1.161,3.594,3.594,0,0,0,1.74.419h0Zm0-1.026a2.307,2.307,0,0,1-1.14-.284,2.073,2.073,0,0,1-.79-0.792,2.38,2.38,0,0,1,0-2.277,2.073,2.073,0,0,1,.79-0.792,2.306,2.306,0,0,1,1.14-.283,2.268,2.268,0,0,1,1.13.283,2.006,2.006,0,0,1,.79.792,2.38,2.38,0,0,1,0,2.277,2.006,2.006,0,0,1-.79.792,2.268,2.268,0,0,1-1.13.284h0Zm7.97,1.026a3.63,3.63,0,0,0,1.42-.27,2.82,2.82,0,0,0,1.08-.783l-0.75-.72a2.207,2.207,0,0,1-1.69.747,2.356,2.356,0,0,1-1.16-.284,2.038,2.038,0,0,1-.8-0.787,2.4,2.4,0,0,1,0-2.286,2.041,2.041,0,0,1,.8-0.788,2.356,2.356,0,0,1,1.16-.283,2.219,2.219,0,0,1,1.69.738l0.75-.711a2.82,2.82,0,0,0-1.08-.783,3.58,3.58,0,0,0-1.41-.27,3.515,3.515,0,0,0-1.72.418,3.137,3.137,0,0,0-1.22,1.157,3.37,3.37,0,0,0,0,3.33,3.042,3.042,0,0,0,1.21,1.156,3.515,3.515,0,0,0,1.72.419h0Zm4.08-.09h1.17v-6.3h-1.17v6.3Zm4.17-.981v-1.737h3.05v-0.963h-3.05v-1.638h3.43v-0.981h-4.6v6.3h4.73v-0.981h-3.56Zm6.11,0.981h1.17v-5.31h2.09v-0.99h-5.35v0.99h2.09v5.31Zm8.91-6.3h-1.15l-1.87,3.069-1.84-3.069h-1.25l2.47,4.1v2.205h1.17v-2.223Zm-113.59,11.981v-0.981h-4.6v6.3h1.17v-2.412h3.05v-0.99h-3.05v-1.917h3.43Zm4.35,5.409a3.554,3.554,0,0,0,1.73-.419,3.135,3.135,0,0,0,1.22-1.156,3.37,3.37,0,0,0,0-3.33,3.137,3.137,0,0,0-1.22-1.157,3.554,3.554,0,0,0-1.73-.418,3.593,3.593,0,0,0-1.74.418,3.126,3.126,0,0,0-1.22,1.161,3.353,3.353,0,0,0,0,3.321,3.126,3.126,0,0,0,1.22,1.161,3.594,3.594,0,0,0,1.74.419h0Zm0-1.026a2.307,2.307,0,0,1-1.14-.284,2.073,2.073,0,0,1-.79-0.792,2.38,2.38,0,0,1,0-2.277,2.073,2.073,0,0,1,.79-0.792,2.306,2.306,0,0,1,1.14-.283,2.268,2.268,0,0,1,1.13.283,2.006,2.006,0,0,1,.79.792,2.38,2.38,0,0,1,0,2.277,2.006,2.006,0,0,1-.79.792,2.268,2.268,0,0,1-1.13.284h0Zm10.44,0.936-1.45-2.07a2.054,2.054,0,0,0,.99-0.765,2.325,2.325,0,0,0,.02-2.421,2.013,2.013,0,0,0-.93-0.774,3.459,3.459,0,0,0-1.42-.27h-2.6v6.3h1.17v-1.836h1.43q0.15,0,.24-0.009l1.29,1.845h1.26Zm-1.29-4.059a1.127,1.127,0,0,1-.4.931,1.769,1.769,0,0,1-1.16.329h-1.37v-2.511h1.37a1.787,1.787,0,0,1,1.16.324,1.115,1.115,0,0,1,.4.927h0Zm9.34-2.241v4.266l-3.47-4.266h-0.97v6.3h1.16v-4.266l3.48,4.266h0.96v-6.3h-1.16Zm5.27,6.39a2.721,2.721,0,0,0,2.03-.734,2.837,2.837,0,0,0,.73-2.1v-3.555h-1.16v3.51q0,1.854-1.59,1.854c-1.07,0-1.6-.618-1.6-1.854v-3.51h-1.17V825.4a2.837,2.837,0,0,0,.73,2.1,2.721,2.721,0,0,0,2.03.734h0Zm5.57-.09h1.17v-5.31h2.09v-0.99h-5.35v0.99h2.09v5.31Zm9.11,0-1.45-2.07a2.054,2.054,0,0,0,.99-0.765,2.325,2.325,0,0,0,.02-2.421,2.013,2.013,0,0,0-.93-0.774,3.459,3.459,0,0,0-1.42-.27h-2.6v6.3h1.17v-1.836h1.43q0.15,0,.24-0.009l1.29,1.845h1.26Zm-1.29-4.059a1.127,1.127,0,0,1-.4.931,1.769,1.769,0,0,1-1.16.329h-1.37v-2.511h1.37a1.787,1.787,0,0,1,1.16.324,1.115,1.115,0,0,1,.4.927h0Zm2.9,4.059h1.17v-6.3h-1.17v6.3Zm4.28,0h1.17v-5.31h2.09v-0.99h-5.35v0.99h2.09v5.31Zm3.72,0h1.17v-6.3h-1.17v6.3Zm5.95,0.09a3.554,3.554,0,0,0,1.73-.419,3.135,3.135,0,0,0,1.22-1.156,3.37,3.37,0,0,0,0-3.33,3.137,3.137,0,0,0-1.22-1.157,3.554,3.554,0,0,0-1.73-.418,3.593,3.593,0,0,0-1.74.418,3.126,3.126,0,0,0-1.22,1.161,3.353,3.353,0,0,0,0,3.321,3.126,3.126,0,0,0,1.22,1.161,3.594,3.594,0,0,0,1.74.419h0Zm0-1.026a2.307,2.307,0,0,1-1.14-.284,2.073,2.073,0,0,1-.79-0.792,2.38,2.38,0,0,1,0-2.277,2.073,2.073,0,0,1,.79-0.792,2.306,2.306,0,0,1,1.14-.283,2.268,2.268,0,0,1,1.13.283,2.006,2.006,0,0,1,.79.792,2.38,2.38,0,0,1,0,2.277,2.006,2.006,0,0,1-.79.792,2.268,2.268,0,0,1-1.13.284h0Zm9.49-5.364v4.266l-3.47-4.266h-0.97v6.3h1.16v-4.266l3.48,4.266h0.96v-6.3h-1.16Zm7.28,6.3h1.22l-2.84-6.3h-1.15l-2.84,6.3h1.21l0.62-1.458h3.15Zm-3.38-2.376,1.17-2.754,1.19,2.754h-2.36Zm5.66,2.376h4.47v-0.99h-3.3v-5.31h-1.17v6.3Zm-79.4,4.7h-2.6v6.3h1.17v-1.818h1.43a3.459,3.459,0,0,0,1.42-.27,2,2,0,0,0,.93-0.779,2.327,2.327,0,0,0,0-2.389,2.013,2.013,0,0,0-.93-0.774,3.459,3.459,0,0,0-1.42-.27h0Zm-0.06,3.492h-1.37v-2.5h1.37a1.787,1.787,0,0,1,1.16.324,1.274,1.274,0,0,1,0,1.854,1.787,1.787,0,0,1-1.16.324h0Zm6.42,2.9a3.47,3.47,0,0,0,1.4-.252,1.958,1.958,0,0,0,.86-0.675,1.649,1.649,0,0,0,.28-0.945,1.378,1.378,0,0,0-.32-0.972,1.954,1.954,0,0,0-.77-0.536,8.406,8.406,0,0,0-1.15-.337q-0.51-.126-0.81-0.225a1.387,1.387,0,0,1-.49-0.27,0.555,0.555,0,0,1-.19-0.441,0.713,0.713,0,0,1,.34-0.621,1.793,1.793,0,0,1,1.03-.234,3.222,3.222,0,0,1,.87.126,3.511,3.511,0,0,1,.86.369l0.37-.909a3.138,3.138,0,0,0-.96-0.414,4.5,4.5,0,0,0-1.13-.144,3.437,3.437,0,0,0-1.4.252,1.944,1.944,0,0,0-.86.679,1.672,1.672,0,0,0-.28.95,1.407,1.407,0,0,0,.32.985,1.931,1.931,0,0,0,.76.536,9.706,9.706,0,0,0,1.17.342q0.51,0.126.81,0.225a1.347,1.347,0,0,1,.49.274,0.57,0.57,0,0,1,.19.446,0.677,0.677,0,0,1-.34.594,2,2,0,0,1-1.05.225,3.425,3.425,0,0,1-1.13-.194,3.156,3.156,0,0,1-.95-0.5l-0.41.909a3.038,3.038,0,0,0,1.08.549,4.782,4.782,0,0,0,1.41.207h0Zm9.23-6.39h-1.15l-1.87,3.069-1.84-3.069h-1.25l2.47,4.1v2.205h1.17v-2.223Zm3.73,6.39a3.63,3.63,0,0,0,1.42-.27,2.82,2.82,0,0,0,1.08-.783l-0.75-.72a2.207,2.207,0,0,1-1.69.747,2.356,2.356,0,0,1-1.16-.284,2.038,2.038,0,0,1-.8-0.787,2.4,2.4,0,0,1,0-2.286,2.041,2.041,0,0,1,.8-0.788,2.356,2.356,0,0,1,1.16-.283,2.219,2.219,0,0,1,1.69.738l0.75-.711a2.82,2.82,0,0,0-1.08-.783,3.58,3.58,0,0,0-1.41-.27,3.515,3.515,0,0,0-1.72.418,3.137,3.137,0,0,0-1.22,1.157,3.37,3.37,0,0,0,0,3.33,3.042,3.042,0,0,0,1.21,1.156,3.515,3.515,0,0,0,1.72.419h0Zm8.51-6.39v2.6h-3.26v-2.6h-1.17v6.3h1.17v-2.7h3.26v2.7h1.17v-6.3h-1.17Zm2.57,6.3h1.17v-6.3h-1.17v6.3Zm7.72,0h1.22l-2.84-6.3h-1.15l-2.84,6.3h1.21l0.62-1.458h3.15Zm-3.38-2.376,1.17-2.754,1.19,2.754h-2.36Zm5.94,2.376h1.17v-5.31h2.09v-0.99h-5.35v0.99h2.09v5.31Zm9.11,0-1.45-2.07a2.054,2.054,0,0,0,.99-0.765,2.325,2.325,0,0,0,.02-2.421,2.013,2.013,0,0,0-.93-0.774,3.459,3.459,0,0,0-1.42-.27h-2.6v6.3h1.17v-1.836h1.43q0.15,0,.24-0.009l1.29,1.845h1.26Zm-1.29-4.059a1.127,1.127,0,0,1-.4.931,1.769,1.769,0,0,1-1.16.329h-1.37v-2.511h1.37a1.787,1.787,0,0,1,1.16.324,1.115,1.115,0,0,1,.4.927h0Zm7.09-2.241h-1.15l-1.87,3.069-1.84-3.069h-1.25l2.47,4.1v2.205h1.17v-2.223Zm8.2,6.3-1.45-2.07a2.054,2.054,0,0,0,.99-0.765,2.325,2.325,0,0,0,.02-2.421,2.013,2.013,0,0,0-.93-0.774,3.459,3.459,0,0,0-1.42-.27h-2.6v6.3h1.17v-1.836h1.43q0.15,0,.24-0.009l1.29,1.845h1.26Zm-1.29-4.059a1.127,1.127,0,0,1-.4.931,1.769,1.769,0,0,1-1.16.329h-1.37v-2.511h1.37a1.787,1.787,0,0,1,1.16.324,1.115,1.115,0,0,1,.4.927h0Zm4.07,3.078v-1.737h3.05v-0.963h-3.05v-1.638h3.43v-0.981h-4.6v6.3h4.73v-0.981h-3.56Zm6.79,1.071a3.47,3.47,0,0,0,1.4-.252,1.958,1.958,0,0,0,.86-0.675,1.649,1.649,0,0,0,.28-0.945,1.378,1.378,0,0,0-.32-0.972,1.954,1.954,0,0,0-.77-0.536,8.406,8.406,0,0,0-1.15-.337q-0.51-.126-0.81-0.225a1.387,1.387,0,0,1-.49-0.27,0.555,0.555,0,0,1-.19-0.441,0.713,0.713,0,0,1,.34-0.621,1.793,1.793,0,0,1,1.03-.234,3.222,3.222,0,0,1,.87.126,3.511,3.511,0,0,1,.86.369l0.37-.909a3.138,3.138,0,0,0-.96-0.414,4.5,4.5,0,0,0-1.13-.144,3.437,3.437,0,0,0-1.4.252,1.944,1.944,0,0,0-.86.679,1.672,1.672,0,0,0-.28.95,1.407,1.407,0,0,0,.32.985,1.931,1.931,0,0,0,.76.536,9.706,9.706,0,0,0,1.17.342q0.51,0.126.81,0.225a1.347,1.347,0,0,1,.49.274,0.57,0.57,0,0,1,.19.446,0.677,0.677,0,0,1-.34.594,2,2,0,0,1-1.05.225,3.425,3.425,0,0,1-1.13-.194,3.156,3.156,0,0,1-.95-0.5l-0.41.909a3.038,3.038,0,0,0,1.08.549,4.782,4.782,0,0,0,1.41.207h0Zm5.21-1.071v-1.737h3.05v-0.963h-3.05v-1.638h3.43v-0.981h-4.6v6.3h4.73v-0.981h-3.56Zm9.55,0.981h1.22l-2.84-6.3h-1.15l-2.84,6.3h1.21l0.62-1.458h3.15Zm-3.38-2.376,1.17-2.754,1.19,2.754h-2.36Zm11.05,2.376-1.45-2.07a2.054,2.054,0,0,0,.99-0.765,2.325,2.325,0,0,0,.02-2.421,2.013,2.013,0,0,0-.93-0.774,3.459,3.459,0,0,0-1.42-.27h-2.6v6.3h1.17v-1.836h1.43q0.15,0,.24-0.009l1.29,1.845h1.26Zm-1.29-4.059a1.127,1.127,0,0,1-.4.931,1.769,1.769,0,0,1-1.16.329h-1.37v-2.511h1.37a1.787,1.787,0,0,1,1.16.324,1.115,1.115,0,0,1,.4.927h0Zm5.82,4.149a3.63,3.63,0,0,0,1.42-.27,2.82,2.82,0,0,0,1.08-.783l-0.75-.72a2.207,2.207,0,0,1-1.69.747,2.356,2.356,0,0,1-1.16-.284,2.038,2.038,0,0,1-.8-0.787,2.4,2.4,0,0,1,0-2.286,2.041,2.041,0,0,1,.8-0.788,2.356,2.356,0,0,1,1.16-.283,2.219,2.219,0,0,1,1.69.738l0.75-.711a2.82,2.82,0,0,0-1.08-.783,3.58,3.58,0,0,0-1.41-.27,3.515,3.515,0,0,0-1.72.418,3.137,3.137,0,0,0-1.22,1.157,3.37,3.37,0,0,0,0,3.33,3.042,3.042,0,0,0,1.21,1.156,3.515,3.515,0,0,0,1.72.419h0Zm8.51-6.39v2.6h-3.26v-2.6h-1.17v6.3h1.17v-2.7h3.26v2.7h1.17v-6.3h-1.17Z" transform="translate(-4720 -754)"/>
  <rect id="Rectangle_14_copy_7" data-name="Rectangle 14 copy 7" class="cls-1" x="20" y="32" width="103" height="1"/>
  <rect id="Rectangle_14_copy_7-2" data-name="Rectangle 14 copy 7" class="cls-1" x="20" y="92" width="103" height="1"/>
</svg>
