<svg id="Layer_1" data-name="Layer 1" xmlns="http://www.w3.org/2000/svg" viewBox="0 0 251 50.02"><defs><style>.cls-1{fill:#003b40;}</style></defs><title>location_logo</title><path class="cls-1" d="M47.61,22.52c-1.19,0-12.11,1.73-16.64,1.73,3.39-1.28,9.41-4.4,9.93-4.63a.73.73,0,0,0,.47-.95.74.74,0,0,0-1-.48,102,102,0,0,0-11.07,2.75c2.7-2.68,10.6-7.1,12.57-9.06,2.22-2.21,1.79,5.29,4.73,2.37,1-1-2-4.74-3.94-6.85h0c-1.93-1.92-5.7-5-6.84-3.87C32.94,6.45,40.47,6,38.25,8.23c-2,2-7.15,9.23-9.84,11.92,1.26-3.38,3.32-9.89,3.51-10.43a.7.7,0,0,0-.48-1,.76.76,0,0,0-1,.47c-.29.61-3.66,6.51-4.94,9.88,0-4.52,2-15.38,2-16.57C27.57.93,27.73,0,25,0s-2.56.94-2.56,2.56c0,1.19,2.06,12.08,2.06,16.6a110.41,110.41,0,0,0-5-9.91.76.76,0,0,0-1-.47.71.71,0,0,0-.48,1c.15.51,1.92,7.42,3.19,10.8C18.6,17.83,13.74,10.2,11.77,8.23,9.55,6,17.08,6.45,14.14,3.52,13,2.37,9.23,5.47,7.3,7.39h0c-1.92,2-4.89,5.58-3.76,6.7C6.48,17,6.05,9.52,8.27,11.73c2,2,9.49,7,12.19,9.65C17.07,20.12,10.39,18.23,9.76,18a.72.72,0,0,0-1,.47.76.76,0,0,0,.48,1,107.09,107.09,0,0,0,9.93,5c-4.53,0-15.45-2.13-16.65-2.13C.94,22.37,0,22.21,0,24.92s.94,2.56,2.56,2.56c1.2,0,12.16-1.8,16.69-1.8-3.39,1.28-9.55,4.51-10,4.7a.75.75,0,1,0,.48,1.43c.51-.15,7.4-1.82,10.79-3.08-2.7,2.69-10.31,7.43-12.28,9.39-2.22,2.21-1.79-5.29-4.73-2.37-1.15,1.14,2,4.9,3.88,6.82l0,0c1.93,1.92,5.7,5,6.84,3.87,2.93-2.93-4.59-2.5-2.37-4.71,2-2,7-9.35,9.68-12-1.27,3.38-3.17,10-3.35,10.55a.71.71,0,0,0,.48.95.75.75,0,0,0,1-.47c.27-.57,3.59-6.51,4.88-9.88,0,4.52-2,15.38-2,16.57,0,1.62-.15,2.56,2.57,2.56s2.56-.94,2.56-2.56c0-1.19-2-12.05-2-16.57,1.29,3.37,4.62,9.2,4.95,9.88a.76.76,0,0,0,1,.47.71.71,0,0,0,.48-.95C31.87,39.62,30,33,28.74,29.6c2.69,2.7,7.7,10.2,9.67,12.17C40.62,44,33.1,43.55,36,46.48c1.15,1.15,4.92-1.95,6.85-3.87h0c1.93-2,4.9-5.58,3.77-6.7-2.94-2.92-2.51,4.57-4.73,2.36-2-2-9.73-6.68-12.43-9.37,3.39,1.26,10.29,2.88,10.93,3.06a.72.72,0,0,0,1-.47.75.75,0,0,0-.47-1c-.61-.28-6.59-3.51-10-4.79,4.53,0,15.5,1.89,16.69,1.89,1.63,0,2.57.16,2.57-2.55S49.24,22.52,47.61,22.52Zm-22.52,7A4.54,4.54,0,1,1,29.63,25,4.54,4.54,0,0,1,25.09,29.54Z" transform="translate(0 0.01)"/><polygon class="cls-1" points="91.77 8.88 88.34 8.88 88.34 6.71 98.08 6.71 98.08 8.88 94.65 8.88 94.65 17.38 91.77 17.38 91.77 8.88"/><polygon class="cls-1" points="99.14 6.71 102.01 6.71 102.01 15.21 106.55 15.21 106.55 17.38 99.14 17.38 99.14 6.71"/><polygon class="cls-1" points="120.63 6.71 122.82 6.71 127.65 12.85 127.65 6.71 130.19 6.71 130.19 17.38 128 17.38 123.17 11.24 123.17 17.38 120.63 17.38 120.63 6.71"/><rect class="cls-1" x="147.39" y="6.71" width="2.88" height="10.66"/><rect class="cls-1" x="226.7" y="6.71" width="2.88" height="10.66"/><polygon class="cls-1" points="152.58 6.71 154.77 6.71 159.6 12.85 159.6 6.71 162.14 6.71 162.14 17.38 159.96 17.38 155.12 11.24 155.12 17.38 152.58 17.38 152.58 6.71"/><polygon class="cls-1" points="166.91 8.88 163.48 8.88 163.48 6.71 173.21 6.71 173.21 8.88 169.78 8.88 169.78 17.38 166.91 17.38 166.91 8.88"/><polygon class="cls-1" points="174.55 6.71 181.96 6.71 181.96 8.88 177.43 8.88 177.43 10.68 181.07 10.68 181.07 12.83 177.43 12.83 177.43 15.21 181.96 15.21 181.96 17.38 174.55 17.38 174.55 6.71"/><polygon class="cls-1" points="243.59 6.71 251 6.71 251 8.88 246.47 8.88 246.47 10.68 250.11 10.68 250.11 12.83 246.47 12.83 246.47 15.21 251 15.21 251 17.38 243.59 17.38 243.59 6.71"/><path class="cls-1" d="M183.08,12c0-3.45,2.77-5.56,5.91-5.56a6.84,6.84,0,0,1,3.88,1.06V10a5.29,5.29,0,0,0-3.45-1.24,3.13,3.13,0,0,0-3.32,3.46c0,2.17,1.28,3.4,3.09,3.4a3.32,3.32,0,0,0,1.42-.29V13.57H189v-2h4.28v5.1a11.84,11.84,0,0,1-4.56,1A5.48,5.48,0,0,1,183.08,12Z" transform="translate(0 0.01)"/><polygon class="cls-1" points="219.26 8.88 215.83 8.88 215.83 6.71 225.57 6.71 225.57 8.88 222.14 8.88 222.14 17.38 219.26 17.38 219.26 8.88"/><path class="cls-1" d="M75.29,40.49l1.33-4.34a11,11,0,0,0,6.95,2.94c1.8,0,3.2-.7,3.2-2.24s-1-2-4.12-2.76c-5-1.18-6.77-3.87-6.77-7.14,0-4,3.16-6.62,8.1-6.62a13,13,0,0,1,7.25,2.24l-1.22,4a12.3,12.3,0,0,0-6.11-1.91c-1.58,0-2.57.66-2.57,1.77s.66,1.65,3.16,2.24c5.52,1.29,7.77,3.61,7.77,7.58,0,5.19-4.2,7.14-8.69,7.14A12.77,12.77,0,0,1,75.29,40.49Z" transform="translate(0 0.01)"/><path class="cls-1" d="M112.39,31.88c0-7.14,5.52-11.52,11.89-11.52A13.27,13.27,0,0,1,132,22.57v5.08a10.46,10.46,0,0,0-6.77-2.58c-3.72,0-6.55,2.39-6.55,6.81s2.83,6.81,6.55,6.81A10.46,10.46,0,0,0,132,36.11v5.08a13.27,13.27,0,0,1-7.76,2.21C117.91,43.4,112.39,39,112.39,31.88Z" transform="translate(0 0.01)"/><polygon class="cls-1" points="134.87 20.85 140.83 20.85 140.83 32.71 149.56 32.71 149.56 20.85 155.52 20.85 155.52 42.93 149.56 42.93 149.56 37.75 140.83 37.75 140.83 42.93 134.87 42.93 134.87 20.85"/><rect class="cls-1" x="159.24" y="20.85" width="5.96" height="22.08"/><polygon class="cls-1" points="198.17 25.34 191.07 25.34 191.07 20.85 211.24 20.85 211.24 25.34 204.13 25.34 204.13 42.93 198.17 42.93 198.17 25.34"/><polygon class="cls-1" points="238.34 36.93 231.67 20.85 237.25 20.85 241.4 32.74 245.54 20.85 250.97 20.85 244.3 36.93 244.3 42.93 238.34 42.93 238.34 36.93"/><polygon class="cls-1" points="99.13 37.28 92.46 20.85 98.05 20.85 102.19 32.74 106.33 20.85 111.77 20.85 105.09 37.28 105.09 42.93 99.13 42.93 99.13 37.28"/><path class="cls-1" d="M60.85,6.71H56.3V17.37h2.88V13.85h1.67c2.68,0,3.91-1.62,3.91-3.57S63.53,6.71,60.85,6.71ZM60.16,12h-1V8.61h1a1.52,1.52,0,0,1,1.74,1.67A1.52,1.52,0,0,1,60.16,12Z" transform="translate(0 0.01)"/><path class="cls-1" d="M71.58,6.4A5.64,5.64,0,1,0,77.46,12,5.69,5.69,0,0,0,71.58,6.4Zm0,9c-1.8,0-2.86-1.33-2.86-3.37s1.06-3.38,2.86-3.38S74.4,10,74.4,12,73.36,15.41,71.58,15.41Z" transform="translate(0 0.01)"/><path class="cls-1" d="M87.56,15.61c-.69,0-1.11-.29-1.54-1.09L85.2,13a3,3,0,0,0,2.12-3c0-1.72-1.12-3.28-3.72-3.28H78.75V17.37h2.88V13.26h1l.85,2.05a3.16,3.16,0,0,0,3.2,2.18,5.56,5.56,0,0,0,1.55-.25V15.5A1.53,1.53,0,0,1,87.56,15.61Zm-4.69-4.18H81.63V8.61h1.24c1.11,0,1.6.5,1.6,1.42S84,11.43,82.87,11.43Z" transform="translate(0 0.01)"/><path class="cls-1" d="M114.8,6.71h-2.43l-4.48,10.66h2.79l.89-2.28h4l.9,2.28h2.86Zm-2.54,6.52,1.28-3.36,1.28,3.36Z" transform="translate(0 0.01)"/><path class="cls-1" d="M136.34,6.71h-4.16V17.37h4.16c4.39,0,6.18-2.4,6.18-5.33S140.73,6.71,136.34,6.71Zm-.23,8.44h-1.05V8.93h1.05c2.4,0,3.48,1,3.48,3.11S138.51,15.15,136.11,15.15Z" transform="translate(0 0.01)"/><path class="cls-1" d="M204.44,15.61c-.7,0-1.12-.29-1.55-1.09L202.07,13a3,3,0,0,0,2.12-3c0-1.72-1.12-3.28-3.72-3.28h-4.85V17.37h2.88V13.26h1l.85,2.05a3.16,3.16,0,0,0,3.2,2.18,5.5,5.5,0,0,0,1.55-.25V15.5A1.51,1.51,0,0,1,204.44,15.61Zm-4.69-4.18H198.5V8.61h1.25c1.1,0,1.59.5,1.59,1.42S200.85,11.43,199.75,11.43Z" transform="translate(0 0.01)"/><path class="cls-1" d="M212.34,6.71h-2.43l-4.48,10.66h2.79l.89-2.28h3.95l.9,2.28h2.86Zm-2.54,6.52,1.28-3.36,1.28,3.36Z" transform="translate(0 0.01)"/><path class="cls-1" d="M65.56,20.84H56.14V42.92h6V38.75h3.46c8.1,0,8.1-6.47,8.1-10.51S71.12,20.84,65.56,20.84ZM64.13,33.75h-2v-9h2c2.54,0,3.61,1.32,3.61,3.46C67.74,32.53,66.67,33.75,64.13,33.75Z" transform="translate(0 0.01)"/><path class="cls-1" d="M231.34,39.28c-1.44,0-2.32-.59-3.2-2.25,0,0,3.53-.45,2.68-9.38-.39-4.19-2.31-6.81-7.69-6.81h-10V42.92h6V37.74h3.81c1.47,3.5,3.73,5.44,6.57,5.44a11.41,11.41,0,0,0,3.2-.52v-3.6A3.25,3.25,0,0,1,231.34,39.28Zm-9.72-5.76h-2.57V24.78h2.57c2.29,0,3.32,1,3.32,2.94C224.94,33.26,225,33.52,221.62,33.52Z" transform="translate(0 0.01)"/><path class="cls-1" d="M179.5,20.24c-6,0-10.67,3.35-10.67,10.82V42.94h5.85V37.68h9.46v5.26h6V31.06C190.17,23.59,185.43,20.24,179.5,20.24Zm-4.82,12.55v-1.4c0-3.9,1.55-6,4.75-6s4.71,2.1,4.71,6v1.4Z" transform="translate(0 0.01)"/><polygon class="cls-1" points="239.54 6.71 236.68 14.21 233.8 6.71 230.94 6.71 235.42 17.38 237.85 17.38 242.33 6.71 239.54 6.71"/></svg>