<svg id="loveplants.svg" xmlns="http://www.w3.org/2000/svg" width="178" height="111" viewBox="0 0 178 111">
  <defs>
    <style>
      .cls-1, .cls-3 {
        fill: #008a60;
      }

      .cls-2 {
        fill: #f7f5ef;
      }

      .cls-3 {
        fill-rule: evenodd;
      }
    </style>
  </defs>
  <rect id="Rectangle_13_copy_6" data-name="Rectangle 13 copy 6" class="cls-1" x="5" y="6" width="173" height="105" rx="7" ry="7"/>
  <rect id="Rectangle_13_copy_6-2" data-name="Rectangle 13 copy 6" class="cls-2" width="173" height="105" rx="7" ry="7"/>
  <path id="Love_PLANTS_copy" data-name="Love &amp; PLANTS copy" class="cls-3" d="M4267.24,481.147h8.62v-1.566h-6.82V468.547h-1.8v12.6Zm15.69,0.144a7.007,7.007,0,0,0,3.42-.837,6.158,6.158,0,0,0,2.39-2.3,6.773,6.773,0,0,0,0-6.606,6.158,6.158,0,0,0-2.39-2.3,7.446,7.446,0,0,0-6.86,0,6.26,6.26,0,0,0-2.41,2.313,6.671,6.671,0,0,0,0,6.588,6.26,6.26,0,0,0,2.41,2.313,7.03,7.03,0,0,0,3.44.837h0Zm0-1.6a5.068,5.068,0,0,1-2.52-.63,4.6,4.6,0,0,1-1.76-1.737,5.106,5.106,0,0,1,0-4.95,4.6,4.6,0,0,1,1.76-1.737,5.068,5.068,0,0,1,2.52-.63,4.955,4.955,0,0,1,2.49.63,4.551,4.551,0,0,1,1.74,1.737,5.106,5.106,0,0,1,0,4.95,4.551,4.551,0,0,1-1.74,1.737,4.955,4.955,0,0,1-2.49.63h0Zm18.45-11.142-4.57,10.35-4.54-10.35h-1.94l5.54,12.6h1.79l5.52-12.6h-1.8Zm5.66,11.034v-4.068h6.32v-1.53h-6.32v-3.87h7.09v-1.566h-8.89v12.6h9.14v-1.566h-7.34Zm24.04,0.718-1.5-1.5a7.55,7.55,0,0,0,.98-2.56l-1.24-.4a6.871,6.871,0,0,1-.68,2.032l-2.77-2.752a6.8,6.8,0,0,0,1.83-1.408,2.319,2.319,0,0,0,.55-1.52,2.107,2.107,0,0,0-.75-1.712,3.082,3.082,0,0,0-2.03-.624,3.317,3.317,0,0,0-2.2.688,2.259,2.259,0,0,0-.83,1.824,2.707,2.707,0,0,0,.31,1.232,5.588,5.588,0,0,0,1.04,1.328,7.309,7.309,0,0,0-2.09,1.624,2.835,2.835,0,0,0-.63,1.816,2.47,2.47,0,0,0,.5,1.512,3.285,3.285,0,0,0,1.4,1.032,5.288,5.288,0,0,0,2.02.368,5.161,5.161,0,0,0,3.74-1.44l1.49,1.488Zm-5.61-9.328a1.612,1.612,0,0,1,1.09.336,1.1,1.1,0,0,1,.4.9,1.415,1.415,0,0,1-.43.976,6.765,6.765,0,0,1-1.53,1.072,6.429,6.429,0,0,1-.9-1.088,1.682,1.682,0,0,1-.23-0.832,1.256,1.256,0,0,1,.42-0.984,1.718,1.718,0,0,1,1.18-.376h0ZM4325.08,480a3.051,3.051,0,0,1-1.81-.5,1.514,1.514,0,0,1-.7-1.3,1.869,1.869,0,0,1,.46-1.24,5.649,5.649,0,0,1,1.61-1.192l3.18,3.168a3.736,3.736,0,0,1-2.74,1.056h0Zm-52.93,6.552h-4.91v12.6h1.8v-3.816h3.11a5.824,5.824,0,0,0,3.85-1.17,4.386,4.386,0,0,0,0-6.444,5.824,5.824,0,0,0-3.85-1.17h0Zm-0.05,7.218h-3.06v-5.652h3.06a4.062,4.062,0,0,1,2.61.729,2.893,2.893,0,0,1,0,4.194,4.062,4.062,0,0,1-2.61.729h0Zm8.14,5.382h8.62v-1.566h-6.82V486.547h-1.8v12.6Zm20.41,0h1.89l-5.72-12.6h-1.78l-5.71,12.6h1.85l1.39-3.15h6.7Zm-7.45-4.59,2.72-6.174,2.72,6.174h-5.44Zm20.07-8.01v9.4l-7.56-9.4h-1.47v12.6h1.8v-9.4l7.56,9.4h1.47v-12.6h-1.8Zm8.47,12.6h1.78V488.113h4.32v-1.566h-10.42v1.566h4.32v11.034Zm11.17,0.144a6.762,6.762,0,0,0,2.7-.477,3.634,3.634,0,0,0,1.64-1.3,3.217,3.217,0,0,0,.54-1.809,2.769,2.769,0,0,0-.62-1.89,3.88,3.88,0,0,0-1.49-1.044,17.564,17.564,0,0,0-2.28-.684,15.875,15.875,0,0,1-1.74-.477,2.975,2.975,0,0,1-1.07-.63,1.369,1.369,0,0,1-.43-1.053,1.7,1.7,0,0,1,.76-1.44,3.9,3.9,0,0,1,2.3-.558,6.32,6.32,0,0,1,1.76.261,6.534,6.534,0,0,1,1.69.765l0.6-1.44a5.918,5.918,0,0,0-1.86-.828,8.464,8.464,0,0,0-2.19-.288,6.568,6.568,0,0,0-2.69.486,3.678,3.678,0,0,0-1.61,1.3,3.275,3.275,0,0,0-.53,1.818,2.832,2.832,0,0,0,.62,1.917,3.8,3.8,0,0,0,1.5,1.053,17.778,17.778,0,0,0,2.29.684c0.76,0.18,1.34.342,1.76,0.486a2.828,2.828,0,0,1,1.04.621,1.4,1.4,0,0,1,.42,1.053,1.624,1.624,0,0,1-.77,1.413,4.184,4.184,0,0,1-2.34.531,6.77,6.77,0,0,1-2.31-.405,5.541,5.541,0,0,1-1.85-1.053l-0.66,1.4a5.576,5.576,0,0,0,2.07,1.143,8.681,8.681,0,0,0,2.75.441h0Z" transform="translate(-4247 -422)"/>
  <rect id="Rectangle_14_copy_6" data-name="Rectangle 14 copy 6" class="cls-1" x="20" y="32" width="103" height="1"/>
  <rect id="Rectangle_14_copy_6-2" data-name="Rectangle 14 copy 6" class="cls-1" x="20" y="92" width="103" height="1"/>
</svg>
