<?xml version="1.0" encoding="utf-8"?>
<!-- Generator: Adobe Illustrator 21.1.0, SVG Export Plug-In . SVG Version: 6.00 Build 0)  -->
<svg version="1.1" id="Layer_1" xmlns="http://www.w3.org/2000/svg" xmlns:xlink="http://www.w3.org/1999/xlink" x="0px" y="0px"
	 viewBox="0 0 43.3 43" style="enable-background:new 0 0 43.3 43;" xml:space="preserve">
<style type="text/css">
	.st0{fill:#003B41;}
</style>
<path class="st0" d="M39.1,20c-1,0-9.7,1.4-13.3,1.4c2.7-1,7.5-3.5,7.9-3.7c0.6-0.2,0.4-0.8,0.4-0.8s-0.1-0.5-0.8-0.4
	c-0.5,0.1-6.1,1.2-8.9,2.2c2.2-2.1,8.5-5.7,10-7.2c1.8-1.8,1.4,4.2,3.8,1.9c0.8-0.8-1.5-3.8-3.1-5.5l0,0c-1.5-1.5-4.6-4-5.5-3.1
	c-2.3,2.3,3.7,2,1.9,3.8c-1.6,1.6-5.7,7.4-7.9,9.5c1-2.7,2.7-7.9,2.8-8.3C26.8,9.2,26.2,9,26.2,9s-0.5-0.2-0.8,0.4
	c-0.2,0.5-2.9,5.2-4,7.9c0-3.6,1.6-12.3,1.6-13.2c0-1.3,0.1-2-2-2s-2,0.8-2,2c0,1,1.6,9.7,1.6,13.3c-1-2.7-3.7-7.4-4-7.9
	C16.4,8.8,15.9,9,15.9,9s-0.6,0.1-0.4,0.8c0.1,0.4,1.5,5.9,2.6,8.6c-2.1-2.1-6-8.2-7.6-9.8c-1.8-1.8,4.2-1.4,1.9-3.8
	c-0.9-0.9-3.9,1.6-5.5,3.1l0,0c-1.5,1.5-3.9,4.5-3,5.4c2.3,2.3,2-3.7,3.8-1.9c1.6,1.6,7.6,5.6,9.7,7.7c-2.7-1-8-2.5-8.6-2.7
	c-0.6-0.2-0.8,0.4-0.8,0.4s-0.2,0.5,0.4,0.8c0.4,0.2,5.2,3,7.9,4c-3.6,0-12.3-1.7-13.3-1.7c-1.3,0-2-0.1-2,2s0.8,2,2,2
	c1,0,9.7-1.4,13.3-1.4c-2.7,1-7.6,3.6-8,3.8c-0.6,0.2-0.4,0.8-0.4,0.8s0.1,0.6,0.8,0.4c0.4-0.1,5.9-1.5,8.6-2.5
	c-2.2,2.1-8.2,5.9-9.8,7.5c-1.8,1.8-1.4-4.2-3.8-1.9c-0.9,0.9,1.6,3.9,3.1,5.5l0,0c1.5,1.5,4.6,4,5.5,3.1c2.3-2.3-3.7-2-1.9-3.8
	c1.6-1.6,5.6-7.5,7.7-9.6c-1,2.7-2.5,8-2.7,8.4C15.4,34.9,16,35,16,35s0.5,0.2,0.8-0.4c0.2-0.4,2.9-5.2,3.9-7.9
	c0,3.6-1.6,12.3-1.6,13.2c0,1.3-0.1,2,2,2s2-0.7,2-2c0-1-1.6-9.6-1.6-13.2c1,2.7,3.7,7.4,4,7.9c0.3,0.6,0.8,0.4,0.8,0.4
	s0.6-0.1,0.4-0.8c-0.2-0.5-1.6-5.8-2.7-8.5c2.1,2.1,6.1,8.1,7.7,9.7c1.8,1.8-4.2,1.4-1.9,3.8c0.9,0.9,3.9-1.6,5.5-3.1l0,0
	c1.5-1.5,3.9-4.5,3-5.4c-2.3-2.3-2,3.7-3.8,1.9c-1.6-1.6-7.8-5.3-9.9-7.5c2.7,1,8.2,2.3,8.7,2.4c0.6,0.2,0.8-0.4,0.8-0.4
	s0.2-0.5-0.4-0.8c-0.5-0.2-5.3-2.8-8-3.8c3.6,0,12.4,1.5,13.3,1.5c1.3,0,2,0.1,2-2C41.1,19.9,40.4,20,39.1,20z M21.1,25.6
	c-2,0-3.6-1.6-3.6-3.6s1.6-3.6,3.6-3.6s3.6,1.6,3.6,3.6S23.1,25.6,21.1,25.6z"/>
</svg>
