<?xml version="1.0" encoding="utf-8"?>
<!-- Generator: Adobe Illustrator 22.1.0, SVG Export Plug-In . SVG Version: 6.00 Build 0)  -->
<svg version="1.1" id="pay_button_hover.svg" xmlns="http://www.w3.org/2000/svg" xmlns:xlink="http://www.w3.org/1999/xlink"
	 x="0px" y="0px" viewBox="0 0 86.5 40.3" style="enable-background:new 0 0 86.5 40.3;" xml:space="preserve">
<style type="text/css">
	.st0{fill:#F7F5EF;stroke:#003B41;stroke-width:2.46;}
	.st1{enable-background:new    ;}
	.st2{fill:#003B41;}
</style>
<path id="Rectangle_2_copy_12" class="st0" d="M8.2,1.2h70c3.9,0,7,3.1,7,7l0,0V32c0,3.9-3.1,7-7,7h-70c-3.9,0-7-3.1-7-7V8.2
	C1.2,4.4,4.4,1.2,8.2,1.2L8.2,1.2z"/>
<g class="st1">
	<path class="st2" d="M16.9,15.4c0.6,0.3,1,0.6,1.3,1.1c0.3,0.5,0.5,1,0.5,1.7c0,0.6-0.2,1.2-0.5,1.7c-0.3,0.5-0.8,0.9-1.3,1.1
		c-0.6,0.3-1.3,0.4-2,0.4h-1.8v2.4h-2V15h3.8C15.7,15,16.4,15.1,16.9,15.4z M16.2,19.3c0.3-0.3,0.5-0.6,0.5-1.1
		c0-0.5-0.2-0.9-0.5-1.1s-0.8-0.4-1.4-0.4h-1.7v3.1h1.7C15.4,19.7,15.9,19.6,16.2,19.3z"/>
	<path class="st2" d="M25.1,17.7c0.6,0.5,0.8,1.3,0.8,2.3v3.9h-1.8V23c-0.4,0.6-1.1,0.9-2.1,0.9c-0.5,0-1-0.1-1.4-0.3
		c-0.4-0.2-0.7-0.4-0.9-0.7s-0.3-0.7-0.3-1.1c0-0.6,0.2-1.1,0.7-1.5c0.5-0.4,1.2-0.5,2.2-0.5H24c0-0.4-0.1-0.8-0.4-1
		c-0.3-0.2-0.7-0.3-1.2-0.3c-0.4,0-0.7,0.1-1.1,0.2s-0.6,0.3-0.9,0.5l-0.7-1.4c0.4-0.3,0.8-0.5,1.3-0.6c0.5-0.1,1-0.2,1.6-0.2
		C23.8,16.9,24.6,17.2,25.1,17.7z M23.5,22.4c0.3-0.2,0.4-0.4,0.6-0.7V21h-1.3c-0.8,0-1.2,0.3-1.2,0.8c0,0.3,0.1,0.5,0.3,0.6
		c0.2,0.1,0.5,0.2,0.8,0.2C22.9,22.6,23.2,22.5,23.5,22.4z"/>
	<path class="st2" d="M34.4,17l-3.1,7.2c-0.3,0.8-0.7,1.3-1.2,1.6c-0.5,0.3-1,0.5-1.7,0.5c-0.4,0-0.7-0.1-1-0.2
		c-0.3-0.1-0.6-0.3-0.8-0.5l0.7-1.4c0.2,0.1,0.3,0.2,0.5,0.3c0.2,0.1,0.4,0.1,0.6,0.1c0.3,0,0.5-0.1,0.7-0.2
		c0.2-0.1,0.3-0.3,0.5-0.6l0-0.1L26.6,17h2l1.9,4.6l1.9-4.6H34.4z"/>
	<path class="st2" d="M45.9,17.7c0.5,0.5,0.8,1.2,0.8,2.2v3.9h-2v-3.6c0-0.5-0.1-0.9-0.3-1.2c-0.2-0.3-0.5-0.4-1-0.4
		c-0.5,0-0.8,0.1-1.1,0.4c-0.3,0.3-0.4,0.7-0.4,1.3v3.4h-2v-3.6c0-1.1-0.4-1.6-1.3-1.6c-0.5,0-0.8,0.1-1.1,0.4
		c-0.3,0.3-0.4,0.7-0.4,1.3v3.4h-2V17h1.9v0.8c0.3-0.3,0.6-0.5,0.9-0.7c0.4-0.2,0.8-0.2,1.2-0.2c0.5,0,0.9,0.1,1.3,0.3
		c0.4,0.2,0.7,0.5,0.9,0.8c0.3-0.4,0.6-0.6,1.1-0.8s0.9-0.3,1.4-0.3C44.7,16.9,45.4,17.2,45.9,17.7z"/>
	<path class="st2" d="M55.1,21H50c0.1,0.4,0.3,0.8,0.7,1c0.3,0.2,0.8,0.4,1.3,0.4c0.4,0,0.7-0.1,0.9-0.2c0.3-0.1,0.5-0.3,0.8-0.5
		l1,1.1c-0.6,0.7-1.6,1.1-2.8,1.1c-0.8,0-1.4-0.1-2-0.4c-0.6-0.3-1-0.7-1.4-1.2c-0.3-0.5-0.5-1.1-0.5-1.8c0-0.7,0.2-1.3,0.5-1.8
		s0.7-0.9,1.3-1.2c0.6-0.3,1.2-0.4,1.8-0.4c0.7,0,1.3,0.1,1.8,0.4s1,0.7,1.3,1.2c0.3,0.5,0.5,1.2,0.5,1.9
		C55.1,20.5,55.1,20.7,55.1,21z M50.5,18.8c-0.3,0.3-0.5,0.6-0.6,1h3.3c-0.1-0.4-0.3-0.8-0.6-1c-0.3-0.3-0.7-0.4-1.1-0.4
		C51.2,18.4,50.8,18.6,50.5,18.8z"/>
	<path class="st2" d="M62.6,17.7c0.5,0.5,0.8,1.2,0.8,2.2v3.9h-2v-3.6c0-0.5-0.1-0.9-0.4-1.2c-0.2-0.3-0.6-0.4-1-0.4
		c-0.5,0-0.9,0.2-1.2,0.5s-0.4,0.8-0.4,1.4v3.3h-2V17h1.9v0.8c0.3-0.3,0.6-0.5,1-0.7c0.4-0.2,0.8-0.2,1.3-0.2
		C61.4,16.9,62.1,17.2,62.6,17.7z"/>
	<path class="st2" d="M69.5,23.5c-0.2,0.1-0.4,0.2-0.7,0.3s-0.6,0.1-0.9,0.1c-0.8,0-1.4-0.2-1.9-0.6c-0.4-0.4-0.7-1-0.7-1.8v-2.8h-1
		v-1.5h1v-1.6h2v1.6H69v1.5h-1.7v2.8c0,0.3,0.1,0.5,0.2,0.7s0.4,0.2,0.6,0.2c0.3,0,0.6-0.1,0.8-0.3L69.5,23.5z"/>
	<path class="st2" d="M71.3,23.7c-0.5-0.1-1-0.3-1.3-0.5l0.7-1.4c0.3,0.2,0.7,0.3,1.1,0.5c0.4,0.1,0.8,0.2,1.3,0.2
		c0.8,0,1.2-0.2,1.2-0.6c0-0.2-0.1-0.3-0.3-0.4c-0.2-0.1-0.6-0.2-1-0.2c-0.6-0.1-1-0.2-1.4-0.3c-0.4-0.1-0.7-0.3-0.9-0.6
		s-0.4-0.7-0.4-1.2c0-0.4,0.1-0.8,0.4-1.1c0.2-0.3,0.6-0.6,1.1-0.8s1-0.3,1.7-0.3c0.5,0,1,0.1,1.4,0.2c0.5,0.1,0.9,0.2,1.2,0.4
		l-0.7,1.4c-0.6-0.3-1.2-0.5-2-0.5c-0.4,0-0.7,0.1-0.9,0.2c-0.2,0.1-0.3,0.3-0.3,0.5c0,0.2,0.1,0.4,0.3,0.4c0.2,0.1,0.6,0.2,1.1,0.2
		c0.6,0.1,1,0.2,1.4,0.3s0.7,0.3,0.9,0.6c0.3,0.3,0.4,0.7,0.4,1.2c0,0.4-0.1,0.8-0.4,1.1s-0.6,0.6-1.1,0.8c-0.5,0.2-1.1,0.3-1.7,0.3
		C72.3,23.9,71.8,23.8,71.3,23.7z"/>
</g>
</svg>
