<?xml version="1.0" encoding="utf-8"?>
<!-- Generator: Adobe Illustrator 22.1.0, SVG Export Plug-In . SVG Version: 6.00 Build 0)  -->
<svg version="1.1" id="pay_button.svg" xmlns="http://www.w3.org/2000/svg" xmlns:xlink="http://www.w3.org/1999/xlink" x="0px"
	 y="0px" viewBox="0 0 84 37.8" style="enable-background:new 0 0 84 37.8;" xml:space="preserve">
<style type="text/css">
	.st0{fill:#003B41;}
	.st1{enable-background:new    ;}
	.st2{fill:#F7F5EF;}
</style>
<path id="Rectangle_2_copy_12" class="st0" d="M7,0h70c3.9,0,7,3.1,7,7l0,0v23.8c0,3.9-3.1,7-7,7H7c-3.9,0-7-3.1-7-7V7
	C0,3.1,3.1,0,7,0L7,0z"/>
<g class="st1">
	<path class="st2" d="M15.7,14.2c0.6,0.3,1,0.6,1.3,1.1c0.3,0.5,0.5,1,0.5,1.7c0,0.6-0.2,1.2-0.5,1.7c-0.3,0.5-0.8,0.9-1.3,1.1
		c-0.6,0.3-1.3,0.4-2,0.4h-1.8v2.4h-2v-8.8h3.8C14.5,13.8,15.1,13.9,15.7,14.2z M15,18.1c0.3-0.3,0.5-0.6,0.5-1.1
		c0-0.5-0.2-0.9-0.5-1.1s-0.8-0.4-1.4-0.4h-1.7v3.1h1.7C14.2,18.5,14.6,18.4,15,18.1z"/>
	<path class="st2" d="M23.9,16.5c0.6,0.5,0.8,1.3,0.8,2.3v3.9h-1.8v-0.8c-0.4,0.6-1.1,0.9-2.1,0.9c-0.5,0-1-0.1-1.4-0.3
		c-0.4-0.2-0.7-0.4-0.9-0.7s-0.3-0.7-0.3-1.1c0-0.6,0.2-1.1,0.7-1.5c0.5-0.4,1.2-0.5,2.2-0.5h1.6c0-0.4-0.1-0.8-0.4-1
		c-0.3-0.2-0.7-0.3-1.2-0.3c-0.4,0-0.7,0.1-1.1,0.2s-0.6,0.3-0.9,0.5l-0.7-1.4c0.4-0.3,0.8-0.5,1.3-0.6c0.5-0.1,1-0.2,1.6-0.2
		C22.5,15.7,23.4,16,23.9,16.5z M22.2,21.1c0.3-0.2,0.4-0.4,0.6-0.7v-0.7h-1.3c-0.8,0-1.2,0.3-1.2,0.8c0,0.3,0.1,0.5,0.3,0.6
		c0.2,0.1,0.5,0.2,0.8,0.2C21.7,21.4,22,21.3,22.2,21.1z"/>
	<path class="st2" d="M33.1,15.8L30.1,23c-0.3,0.8-0.7,1.3-1.2,1.6c-0.5,0.3-1,0.5-1.7,0.5c-0.4,0-0.7-0.1-1-0.2
		c-0.3-0.1-0.6-0.3-0.8-0.5l0.7-1.4c0.2,0.1,0.3,0.2,0.5,0.3c0.2,0.1,0.4,0.1,0.6,0.1c0.3,0,0.5-0.1,0.7-0.2
		c0.2-0.1,0.3-0.3,0.5-0.6l0-0.1l-2.9-6.8h2l1.9,4.6l1.9-4.6H33.1z"/>
	<path class="st2" d="M44.7,16.5c0.5,0.5,0.8,1.2,0.8,2.2v3.9h-2V19c0-0.5-0.1-0.9-0.3-1.2c-0.2-0.3-0.5-0.4-1-0.4
		c-0.5,0-0.8,0.1-1.1,0.4c-0.3,0.3-0.4,0.7-0.4,1.3v3.4h-2V19c0-1.1-0.4-1.6-1.3-1.6c-0.5,0-0.8,0.1-1.1,0.4
		c-0.3,0.3-0.4,0.7-0.4,1.3v3.4h-2v-6.8h1.9v0.8c0.3-0.3,0.6-0.5,0.9-0.7c0.4-0.2,0.8-0.2,1.2-0.2c0.5,0,0.9,0.1,1.3,0.3
		c0.4,0.2,0.7,0.5,0.9,0.8c0.3-0.4,0.6-0.6,1.1-0.8s0.9-0.3,1.4-0.3C43.5,15.7,44.2,16,44.7,16.5z"/>
	<path class="st2" d="M53.9,19.7h-5.1c0.1,0.4,0.3,0.8,0.7,1c0.3,0.2,0.8,0.4,1.3,0.4c0.4,0,0.7-0.1,0.9-0.2
		c0.3-0.1,0.5-0.3,0.8-0.5l1,1.1c-0.6,0.7-1.6,1.1-2.8,1.1c-0.8,0-1.4-0.1-2-0.4c-0.6-0.3-1-0.7-1.4-1.2c-0.3-0.5-0.5-1.1-0.5-1.8
		c0-0.7,0.2-1.3,0.5-1.8c0.3-0.5,0.7-0.9,1.3-1.2s1.2-0.4,1.8-0.4c0.7,0,1.3,0.1,1.8,0.4c0.5,0.3,1,0.7,1.3,1.2
		c0.3,0.5,0.5,1.2,0.5,1.9C53.9,19.2,53.9,19.4,53.9,19.7z M49.3,17.6c-0.3,0.3-0.5,0.6-0.6,1H52c-0.1-0.4-0.3-0.8-0.6-1
		c-0.3-0.3-0.7-0.4-1.1-0.4C49.9,17.2,49.6,17.3,49.3,17.6z"/>
	<path class="st2" d="M61.4,16.5c0.5,0.5,0.8,1.2,0.8,2.2v3.9h-2V19c0-0.5-0.1-0.9-0.4-1.2c-0.2-0.3-0.6-0.4-1-0.4
		c-0.5,0-0.9,0.2-1.2,0.5c-0.3,0.3-0.4,0.8-0.4,1.4v3.3h-2v-6.8h1.9v0.8c0.3-0.3,0.6-0.5,1-0.7c0.4-0.2,0.8-0.2,1.3-0.2
		C60.2,15.7,60.8,16,61.4,16.5z"/>
	<path class="st2" d="M68.3,22.3c-0.2,0.1-0.4,0.2-0.7,0.3c-0.3,0.1-0.6,0.1-0.9,0.1c-0.8,0-1.4-0.2-1.9-0.6s-0.7-1-0.7-1.8v-2.8h-1
		V16h1v-1.6h2V16h1.7v1.5h-1.7v2.8c0,0.3,0.1,0.5,0.2,0.7c0.1,0.2,0.4,0.2,0.6,0.2c0.3,0,0.6-0.1,0.8-0.3L68.3,22.3z"/>
	<path class="st2" d="M70,22.5c-0.5-0.1-1-0.3-1.3-0.5l0.7-1.4c0.3,0.2,0.7,0.3,1.1,0.5c0.4,0.1,0.8,0.2,1.3,0.2
		c0.8,0,1.2-0.2,1.2-0.6c0-0.2-0.1-0.3-0.3-0.4s-0.6-0.2-1-0.2c-0.6-0.1-1-0.2-1.4-0.3c-0.4-0.1-0.7-0.3-0.9-0.6
		c-0.3-0.3-0.4-0.7-0.4-1.2c0-0.4,0.1-0.8,0.4-1.1c0.2-0.3,0.6-0.6,1.1-0.8s1-0.3,1.7-0.3c0.5,0,1,0.1,1.4,0.2
		c0.5,0.1,0.9,0.2,1.2,0.4L74,17.7c-0.6-0.3-1.2-0.5-2-0.5c-0.4,0-0.7,0.1-0.9,0.2c-0.2,0.1-0.3,0.3-0.3,0.5c0,0.2,0.1,0.4,0.3,0.4
		c0.2,0.1,0.6,0.2,1.1,0.2c0.6,0.1,1,0.2,1.4,0.3c0.4,0.1,0.7,0.3,0.9,0.6c0.3,0.3,0.4,0.7,0.4,1.2c0,0.4-0.1,0.8-0.4,1.1
		c-0.3,0.3-0.6,0.6-1.1,0.8c-0.5,0.2-1.1,0.3-1.7,0.3C71.1,22.7,70.6,22.6,70,22.5z"/>
</g>
</svg>
