<svg id="Layer_1" data-name="Layer 1" xmlns="http://www.w3.org/2000/svg" viewBox="0 0 95 43.07"><defs><style>.cls-1{fill:#f8f6ef;}.cls-2{fill:#00845b;}.cls-3{fill:#003b41;}.cls-4{fill:#fff;}</style></defs><title>pip_Hippanotice</title><rect class="cls-1" width="95" height="43.07" rx="20.38"/><path class="cls-2" d="M32.83,30.86V32a2,2,0,0,1-2.07,1.93H29.37v1.52h1.24a3.5,3.5,0,0,0,3.73-3.25,1.21,1.21,0,0,0,0-.19V30.86Z"/><path class="cls-3" d="M20.7,32a1.59,1.59,0,0,0-.3.06l-1.23.53a5.21,5.21,0,0,1-1.08.34.5.5,0,0,1-.54-.21c-.07-.11-.06-.14.06-.17l1.06-.27,1.8-.46.14-.05h-.22L19,32.1l-1,.18a1.26,1.26,0,0,1-.61-.06,1,1,0,0,1-.28-.17.3.3,0,0,1-.08-.2,9.25,9.25,0,0,1,1.73-.25,11.2,11.2,0,0,1,2-.19,1.4,1.4,0,0,1,.41.06.37.37,0,0,1,.31.37.56.56,0,0,0,.48.63h0c.08,0,.1.05.05.11a.5.5,0,0,1-.56.14l-.12-.06c-.18-.09-.18-.09-.28.09s-.23.47-.37.69a3.16,3.16,0,0,1-.37.45A.36.36,0,0,1,20,34c-.1,0-.13-.07-.07-.15.18-.25.37-.49.56-.73l.45-.57v-.07s-.07,0-.09,0l-.44.51a3.29,3.29,0,0,1-.66.63.47.47,0,0,1-.51,0c-.11-.06-.12-.1,0-.18l.35-.26c.32-.25.65-.48,1-.73a1.51,1.51,0,0,0,.23-.21v-.06h-.08l-.68.49a4.91,4.91,0,0,1-.87.55.82.82,0,0,1-.46.1.58.58,0,0,1-.25-.09c-.14-.11-.18-.19,0-.27l1.46-.64.75-.39h0Z"/><path class="cls-3" d="M24.29,32c.25.14.49.28.75.4.48.22,1,.42,1.44.62l.15.08v.09a.47.47,0,0,1-.37.22.8.8,0,0,1-.48-.12c-.31-.18-.6-.38-.89-.58l-.64-.45h-.08v.07l.58.48.92.68c.15.11.14.18,0,.24a.53.53,0,0,1-.47-.09,2.74,2.74,0,0,1-.65-.62l-.43-.5h-.05c-.05,0,0,.06,0,.07l.66.84c.12.15.23.31.35.47A.09.09,0,0,1,25,34h0a.54.54,0,0,1-.36-.14,2.11,2.11,0,0,1-.42-.56l-.31-.62c-.11-.21-.09-.13-.21,0a.68.68,0,0,1-.46.1.65.65,0,0,1-.22-.11.14.14,0,0,0-.07-.11l.12-.06a1.45,1.45,0,0,0,.29-.11.46.46,0,0,0,.25-.43c0-.33.06-.4.37-.48a2.8,2.8,0,0,1,1,0,5.43,5.43,0,0,1,.69.09l1,.12,1.38.16c.07,0,.1,0,.07.1a.54.54,0,0,1-.36.33,1.48,1.48,0,0,1-.66.06,13.27,13.27,0,0,1-1.77-.38l-.73-.16h-.22a.09.09,0,0,0,.07,0l.8.23,2.06.51h.1c.16.06.18.11.06.23a.5.5,0,0,1-.51.16,5.21,5.21,0,0,1-1.08-.34L24.65,32l-.3-.06h0Z"/><path class="cls-3" d="M21.67,33.51h-.14a.34.34,0,0,0-.16.1c-.11.18.08.45.23.54a5.26,5.26,0,0,0,.67.34c.25.11.52.18.78.28a1.67,1.67,0,0,1,.4.25c.19.17.2.31,0,.57a.57.57,0,0,1-.16.15.24.24,0,0,1-.28,0,2.41,2.41,0,0,0-.33-.15h0l.35-.17c.11-.06.1-.13,0-.17a4.72,4.72,0,0,0-.53-.18,4,4,0,0,1-1-.35,1.2,1.2,0,0,1-.65-.82.86.86,0,0,1,.61-1,.41.41,0,0,1,.22,0,.75.75,0,0,1,.44.32c.17.26-.31.27-.46.27Zm.27-.37h0Z"/><path class="cls-3" d="M22.32,33.4v-.81a.24.24,0,0,0-.11-.26.48.48,0,0,1-.17-.5.5.5,0,0,1,.45-.36.46.46,0,0,1,.45.38.43.43,0,0,1-.16.47.3.3,0,0,0-.12.29V34.4c0,.07-.05.09-.11.08a.24.24,0,0,1-.2-.24V33.4Z"/><path class="cls-3" d="M23.38,33.51c-.21,0-.8,0-.55-.3h0c.45-.5.84-.34,1.16.21a.77.77,0,0,1-.13.9,1.15,1.15,0,0,1-.22.22.46.46,0,0,1-.64.12c-.09,0-.19-.08-.28-.12L23,34.4c.15-.09.31-.18.45-.28a.45.45,0,0,0,.17-.42.18.18,0,0,0-.1-.14.21.21,0,0,0-.11,0Zm-.2-.36h0Z"/><path class="cls-3" d="M23.34,36.4a1.07,1.07,0,0,1-.07.19c-.09.16-.11.16-.27.06h-.08l-.18-.09a.79.79,0,0,0,.15-.12v-.11a1.67,1.67,0,0,0-.28-.18c-.2-.08-.42-.15-.63-.22a.91.91,0,0,1-.42-.25.46.46,0,0,1,0-.65l0,0a.18.18,0,0,1,.2,0H22l.18.06-.16.09-.09.06c-.09.07-.09.15,0,.2l.3.14.75.3A.65.65,0,0,1,23.34,36.4Z"/><path class="cls-3" d="M22.83,37.35l-.16-.14v-.09s0-.15-.09-.17l-.43-.11H22c-.34-.13-.43-.46-.16-.8A.13.13,0,0,1,22,36a1.08,1.08,0,0,1,.29.09c.1,0,.1.06,0,.13l-.09.07c-.07.08-.06.15.05.2l.28.1a1.39,1.39,0,0,1,.43.12.34.34,0,0,1,.2.36.52.52,0,0,1-.1.23.36.36,0,0,1-.17.07Z"/><path class="cls-3" d="M22.82,37.34a1.12,1.12,0,0,1,.11.25.55.55,0,0,1-.22.57.17.17,0,0,1-.1,0,.22.22,0,0,1-.05-.08V38c0-.06.09-.15,0-.26a.43.43,0,0,0-.24-.22l-.17-.08a.45.45,0,0,1-.3-.43c0-.1,0-.15.11-.13s.29,0,.32.2l.49.25Z"/><path class="cls-3" d="M22.33,37.78a.38.38,0,0,0,0,.15c.06.11.14.21.21.32l.1.14a.64.64,0,0,1-.18-.06.78.78,0,0,1-.46-.71c0-.11.06-.13.15-.08h.07C22.33,37.63,22.42,37.66,22.33,37.78Z"/><path class="cls-3" d="M22.6,35.42h0s0,.12-.05.13a.17.17,0,0,1-.17-.13.67.67,0,0,1,0-.2v-.11c.07,0,.15,0,.18.1s0,.12,0,.19Z"/><path class="cls-3" d="M22.48,39.12c-.12,0-.05-.53,0-.64h.06S22.65,39.12,22.48,39.12Z"/><path class="cls-3" d="M22.38,36.35c0-.1,0-.18.08-.18a.12.12,0,0,1,.13.11h0a.34.34,0,0,1,0,.2h-.1A.76.76,0,0,1,22.38,36.35Z"/><path class="cls-3" d="M22.41,37.79l.05-.08h.06v.18h-.05Z"/><path class="cls-3" d="M22.56,37.07h-.08s0,0,0-.07h0S22.53,37,22.56,37.07Z"/><path class="cls-3" d="M22.27,38.42s0-.06.05-.06h.06v0h-.11Z"/><circle class="cls-3" cx="30.43" cy="8.03" r="4.09"/><path class="cls-4" d="M32.88,6.38h0a.28.28,0,0,0-.4,0h0L29.42,9.44l-1.05-1a.28.28,0,0,0-.4,0h0a.29.29,0,0,0,0,.39l1.44,1.44h0l3.45-3.45a.29.29,0,0,0,0-.41Z"/><path class="cls-2" d="M12.26,14.62V11a2.23,2.23,0,0,1,2.23-2.23h1.09a3.43,3.43,0,0,0,3.35,2.58h6.74a3.06,3.06,0,0,0,.9-.13,5.18,5.18,0,0,1-.83-1.39H18.89a1.83,1.83,0,0,1-.45-3.61,2.58,2.58,0,0,1,.39,0h6.92a4.63,4.63,0,0,1,.81-1.37,3.37,3.37,0,0,0-1-.15H18.83a3.35,3.35,0,0,0-3.25,2.59H14.49A3.73,3.73,0,0,0,10.75,11h0v3.6Z"/><path class="cls-2" d="M33.75,14.62V11.73a5.33,5.33,0,0,1-1.52.95v1.94Z"/><path class="cls-3" d="M12.69,23.64v5.44h-1L9,25.78v3.3H7.71V23.64h1l2.7,3.3v-3.3Z"/><path class="cls-3" d="M15.09,28.81a2.77,2.77,0,0,1,0-4.9,3.41,3.41,0,0,1,3.05,0,2.75,2.75,0,0,1,1.06,1,2.85,2.85,0,0,1,0,2.88,2.75,2.75,0,0,1-1.06,1,3.41,3.41,0,0,1-3.05,0Zm2.4-.93a1.58,1.58,0,0,0,.61-.62,2,2,0,0,0,0-1.8,1.58,1.58,0,0,0-.61-.62,1.68,1.68,0,0,0-.87-.22,1.66,1.66,0,0,0-.87.22,1.52,1.52,0,0,0-.61.62,1.86,1.86,0,0,0,0,1.8,1.52,1.52,0,0,0,.61.62,1.66,1.66,0,0,0,.87.22A1.68,1.68,0,0,0,17.49,27.88Z"/><path class="cls-3" d="M21.59,24.67H19.85v-1h4.74v1H22.85v4.41H21.59Z"/><path class="cls-3" d="M25.26,23.64h1.26v5.44H25.26Z"/><path class="cls-3" d="M28.91,28.81a2.69,2.69,0,0,1-1.06-1,3,3,0,0,1,0-2.9,2.69,2.69,0,0,1,1.06-1,3.17,3.17,0,0,1,1.51-.36,3.11,3.11,0,0,1,1.28.25,2.45,2.45,0,0,1,1,.71l-.81.75a1.73,1.73,0,0,0-1.37-.64,1.79,1.79,0,0,0-.9.22,1.68,1.68,0,0,0-.62.62,2,2,0,0,0,0,1.8,1.68,1.68,0,0,0,.62.62,1.79,1.79,0,0,0,.9.22,1.73,1.73,0,0,0,1.37-.64l.81.74a2.41,2.41,0,0,1-1,.72,3.34,3.34,0,0,1-2.78-.11Z"/><path class="cls-3" d="M37.71,28.07v1H33.5V23.64h4.11v1H34.75v1.18h2.53v1H34.75v1.26Z"/><path class="cls-2" d="M12.86,31.71v-.85H11.35v.85a3.76,3.76,0,0,0,3.74,3.74h1.33V33.93H15.09a2.21,2.21,0,0,1-2.23-2.21Z"/><path class="cls-3" d="M61.39,15.42l1.33-3.84h.67l-1.73,4.66h-.54l-1.73-4.66h.67Z"/><path class="cls-3" d="M65.2,16.24h-.62V11.58h.62Z"/><path class="cls-3" d="M69.49,14.08h-2v1.66h2.35v.5h-3V11.58h2.93v.5H67.46v1.5h2Z"/><path class="cls-3" d="M72.11,14.77l.09.61.13-.55.92-3.25h.52l.9,3.25.13.56.1-.62.72-3.19h.62l-1.13,4.66h-.56l-1-3.4-.08-.35-.07.35-1,3.4h-.56l-1.12-4.66h.61Z"/><path class="cls-2" d="M62.65,21.06H61.09v-.48h1.56Z"/><path class="cls-2" d="M67.2,19.13a1.72,1.72,0,0,0-.66-.79,1.78,1.78,0,0,0-1-.27,1.71,1.71,0,0,0-1,.28,1.67,1.67,0,0,0-.66.79,2.73,2.73,0,0,0-.24,1.18v.34a3,3,0,0,0,.24,1.16,1.75,1.75,0,0,0,.67.77,1.77,1.77,0,0,0,1,.27,1.79,1.79,0,0,0,1-.27,1.64,1.64,0,0,0,.65-.78,2.75,2.75,0,0,0,.23-1.19v-.3A2.78,2.78,0,0,0,67.2,19.13Zm-.38,1.53a2.11,2.11,0,0,1-.33,1.25,1.19,1.19,0,0,1-1.86,0,2.12,2.12,0,0,1-.34-1.26v-.34A2.12,2.12,0,0,1,64.64,19a1.19,1.19,0,0,1,1.85,0,2.12,2.12,0,0,1,.33,1.28Z"/><path class="cls-2" d="M71.17,20.78a1.41,1.41,0,0,0,.65-.48,1.41,1.41,0,0,0-.19-1.8,1.8,1.8,0,0,0-1.21-.36H68.88V22.8h.62V20.91h1.09l1,1.89h.66v0Zm-.73-.37H69.5V18.64h.94a1.09,1.09,0,0,1,.74.23.87.87,0,0,1,.26.67.8.8,0,0,1-.27.63A1.05,1.05,0,0,1,70.44,20.41Z"/><path class="cls-2" d="M74.58,21.06H73v-.48h1.56Z"/><path class="cls-3" d="M51.84,25.72a1.73,1.73,0,0,0-.73-.76A2.1,2.1,0,0,0,50,24.69H48.72v4.66H50a2.27,2.27,0,0,0,1.1-.27,1.79,1.79,0,0,0,.73-.76,2.54,2.54,0,0,0,.25-1.16v-.3A2.45,2.45,0,0,0,51.84,25.72Zm-.35,1.42a1.83,1.83,0,0,1-.4,1.26,1.39,1.39,0,0,1-1.11.45h-.64V25.19h.71a1.3,1.3,0,0,1,1.06.45,1.83,1.83,0,0,1,.38,1.23Z"/><path class="cls-3" d="M56.91,25.68a1.79,1.79,0,0,0-.66-.79,1.84,1.84,0,0,0-1-.27,1.71,1.71,0,0,0-1,.28,1.73,1.73,0,0,0-.66.79,2.73,2.73,0,0,0-.24,1.18v.34a2.79,2.79,0,0,0,.25,1.16,1.67,1.67,0,0,0,.66.77,1.77,1.77,0,0,0,1,.27,1.79,1.79,0,0,0,1-.27,1.76,1.76,0,0,0,.66-.78,2.94,2.94,0,0,0,.23-1.19v-.3A2.94,2.94,0,0,0,56.91,25.68Zm-.39,1.53a2,2,0,0,1-.33,1.25,1.19,1.19,0,0,1-1.86,0A2.12,2.12,0,0,1,54,27.17v-.34a2.05,2.05,0,0,1,.34-1.24,1.19,1.19,0,0,1,1.85,0,2.12,2.12,0,0,1,.33,1.28Z"/><path class="cls-3" d="M59.59,27.88l.09.61.13-.55.92-3.25h.52l.9,3.25.13.56.1-.62.72-3.19h.62l-1.13,4.66H62l-1-3.4L61,25.6l-.07.35-1,3.4h-.56l-1.12-4.66h.61Z"/><path class="cls-3" d="M68.51,29.35h-.62l-2.34-3.59v3.59h-.62V24.69h.62L67.9,28.3V24.69h.61Z"/><path class="cls-3" d="M70.74,28.85H73v.5H70.12V24.69h.62Z"/><path class="cls-3" d="M77.32,25.68a1.67,1.67,0,0,0-.66-.79,1.79,1.79,0,0,0-1-.27,1.73,1.73,0,0,0-1,.28,1.79,1.79,0,0,0-.66.79,2.89,2.89,0,0,0-.23,1.18v.34A2.64,2.64,0,0,0,74,28.37a1.74,1.74,0,0,0,1.64,1,1.84,1.84,0,0,0,1-.27,1.68,1.68,0,0,0,.65-.78,2.94,2.94,0,0,0,.23-1.19v-.3A2.94,2.94,0,0,0,77.32,25.68Zm-.38,1.53a2.11,2.11,0,0,1-.34,1.25,1.18,1.18,0,0,1-1.85,0,2,2,0,0,1-.34-1.26v-.34a2.12,2.12,0,0,1,.34-1.24,1.19,1.19,0,0,1,1.85,0,2.05,2.05,0,0,1,.34,1.28Z"/><path class="cls-3" d="M80.8,24.69h-.54l-1.78,4.66h.63l.44-1.22h2L82,29.35h.63Zm-1.06,2.94.79-2.18.79,2.18Z"/><path class="cls-3" d="M86.85,25.72a1.77,1.77,0,0,0-.72-.76,2.11,2.11,0,0,0-1.08-.27H83.74v4.66H85a2.33,2.33,0,0,0,1.1-.27,1.82,1.82,0,0,0,.72-.76,2.54,2.54,0,0,0,.26-1.16v-.3A2.46,2.46,0,0,0,86.85,25.72Zm-.35,1.42a1.78,1.78,0,0,1-.4,1.26,1.38,1.38,0,0,1-1.1.45h-.65V25.19h.72a1.31,1.31,0,0,1,1.06.45,1.83,1.83,0,0,1,.37,1.23Z"/><path class="cls-3" d="M13.85,15.77v6.7H12.3V19.72h-3v2.75H7.71v-6.7H9.26v2.64h3V15.77Z"/><path class="cls-3" d="M15.44,15.77H17v6.7H15.44Z"/><path class="cls-3" d="M23,16.07a2.16,2.16,0,0,1,1,.84,2.25,2.25,0,0,1,.36,1.29A2.35,2.35,0,0,1,24,19.49a2.16,2.16,0,0,1-1,.84,3.55,3.55,0,0,1-1.54.29H20.14v1.85H18.58v-6.7h2.91A3.58,3.58,0,0,1,23,16.07Zm-.57,3a1,1,0,0,0,.37-.86,1.08,1.08,0,0,0-.37-.87,1.6,1.6,0,0,0-1-.34H20.14v2.33H21.4a1.6,1.6,0,0,0,1.06-.27Z"/><path class="cls-3" d="M30.77,17.27a2.36,2.36,0,0,0-.55-.84,2.63,2.63,0,0,0-.89-.54,3.1,3.1,0,0,0-1.17-.2,3.31,3.31,0,0,0-1.17.2,2.63,2.63,0,0,0-.89.54,2.35,2.35,0,0,0-.58.84,2.84,2.84,0,0,0-.2,1.08v4.1h1.6V20.62h2.47v1.83H31v-4.1A2.87,2.87,0,0,0,30.77,17.27Zm-3.85,2.09v-.88A2,2,0,0,1,27,18a1.15,1.15,0,0,1,.21-.43,1,1,0,0,1,.39-.3,1.24,1.24,0,0,1,.57-.12,1.13,1.13,0,0,1,.57.12,1,1,0,0,1,.39.3,1.72,1.72,0,0,1,.21.43,1.79,1.79,0,0,1,.07.51v.88Z"/><path class="cls-3" d="M37.52,17.27a2.26,2.26,0,0,0-.56-.84,2.49,2.49,0,0,0-.88-.54,3.48,3.48,0,0,0-2.34,0,2.67,2.67,0,0,0-.9.54,2.2,2.2,0,0,0-.57.84,2.84,2.84,0,0,0-.2,1.08v4.1h1.59V20.62h2.47v1.83h1.58v-4.1A2.83,2.83,0,0,0,37.52,17.27Zm-3.86,2.09v-.88a2.22,2.22,0,0,1,.06-.51,1.35,1.35,0,0,1,.22-.43,1,1,0,0,1,.38-.3,1.29,1.29,0,0,1,.58-.12,1.24,1.24,0,0,1,.57.12,1,1,0,0,1,.38.3,1.15,1.15,0,0,1,.21.43,1.79,1.79,0,0,1,.07.51v.88Z"/></svg>