<?xml version="1.0" encoding="utf-8"?>
<!-- Generator: Adobe Illustrator 23.0.6, SVG Export Plug-In . SVG Version: 6.00 Build 0)  -->
<svg version="1.1" id="Layer_1" xmlns="http://www.w3.org/2000/svg" xmlns:xlink="http://www.w3.org/1999/xlink" x="0px" y="0px"
	 viewBox="0 0 95 43.1" style="enable-background:new 0 0 95 43.1;" xml:space="preserve">
<style type="text/css">
	.st0{fill:#F8F6EF;}
	.st1{fill:#00845B;}
	.st2{fill:#003B41;}
	.st3{fill:#FFFFFF;}
</style>
<path class="st0" d="M74.6,43.1H20.4C9.1,43.1,0,33.9,0,22.7v-2.3C0,9.1,9.1,0,20.4,0h54.2C85.9,0,95,9.1,95,20.4v2.3
	C95,33.9,85.9,43.1,74.6,43.1z"/>
<g>
	
		<image style="overflow:visible;opacity:0.21;" width="151" height="173" xlink:href="9DFA62F2A4A04C31.png"  transform="matrix(0.24 0 0 0.24 6.5314 2.8327)">
	</image>
	<g>
		<g>
			<path class="st1" d="M32.8,30.9V32c0,1.2-1,1.9-2.2,1.9h-1.2v1.5h1.2c2.1,0,3.7-1.4,3.7-3.4v-1.2H32.8z"/>
			<g>
				<g>
					<path class="st2" d="M20.7,32c-0.1,0-0.2,0-0.3,0.1c-0.4,0.2-0.8,0.4-1.2,0.5c-0.4,0.2-0.7,0.3-1.1,0.3c-0.2,0-0.4,0-0.5-0.2
						c-0.1-0.1-0.1-0.1,0.1-0.2c0.3-0.1,0.7-0.2,1.1-0.3c0.6-0.2,1.2-0.3,1.8-0.5c0,0,0.1,0,0.1,0c0,0,0,0,0.1,0c0,0-0.1,0-0.1,0
						c-0.1,0-0.1,0-0.2,0c-0.5,0.1-1,0.2-1.4,0.3c-0.3,0.1-0.7,0.1-1,0.2c-0.2,0-0.4,0-0.6-0.1c-0.1,0-0.2-0.1-0.3-0.2
						c0,0-0.1-0.1-0.1-0.2c0-0.1,1.2-0.2,1.7-0.3c0.7-0.1,1.3-0.2,2-0.2c0.1,0,0.3,0,0.4,0.1c0.2,0.1,0.3,0.2,0.3,0.4
						c0,0.4,0.1,0.5,0.5,0.6c0,0,0,0,0.1,0c0.1,0,0.1,0,0,0.1c-0.1,0.2-0.3,0.2-0.6,0.1c0,0-0.1,0-0.1-0.1c-0.2-0.1-0.2-0.1-0.3,0.1
						c-0.1,0.2-0.2,0.5-0.4,0.7c-0.1,0.2-0.2,0.3-0.4,0.4C20.2,34,20.1,34,20,34c-0.1,0-0.1-0.1-0.1-0.2c0.2-0.2,0.4-0.5,0.6-0.7
						c0.1-0.2,0.3-0.4,0.5-0.6c0,0,0,0,0-0.1c0,0-0.1,0-0.1,0c-0.1,0.2-0.3,0.3-0.4,0.5c-0.2,0.2-0.4,0.5-0.7,0.6
						c-0.2,0.1-0.3,0.1-0.5,0c-0.1-0.1-0.1-0.1,0-0.2c0.1-0.1,0.2-0.2,0.4-0.3c0.3-0.2,0.6-0.5,1-0.7c0.1-0.1,0.2-0.1,0.2-0.2
						c0,0,0,0,0-0.1c0,0-0.1,0-0.1,0c-0.2,0.2-0.5,0.3-0.7,0.5c-0.3,0.2-0.6,0.4-0.9,0.6c-0.1,0.1-0.3,0.1-0.5,0.1
						c-0.1,0-0.2,0-0.3-0.1c-0.1-0.1-0.2-0.2,0-0.3c0.5-0.2,1-0.4,1.5-0.6C20.2,32.3,20.4,32.1,20.7,32C20.7,32,20.7,32,20.7,32
						C20.7,32,20.7,32,20.7,32z"/>
					<path class="st2" d="M24.3,32c0.3,0.1,0.5,0.3,0.8,0.4c0.5,0.2,1,0.4,1.4,0.6c0.1,0,0.1,0,0.1,0.1c0,0,0,0.1,0,0.1
						c-0.1,0.1-0.2,0.2-0.4,0.2c-0.2,0-0.3,0-0.5-0.1c-0.3-0.2-0.6-0.4-0.9-0.6c-0.2-0.1-0.4-0.3-0.6-0.5c0,0,0,0-0.1,0
						c0,0,0,0.1,0,0.1c0.2,0.2,0.4,0.3,0.6,0.5c0.3,0.2,0.6,0.5,0.9,0.7c0.1,0.1,0.1,0.2,0,0.2c-0.2,0.1-0.3,0-0.5-0.1
						c-0.3-0.2-0.5-0.4-0.6-0.6c-0.1-0.2-0.3-0.3-0.4-0.5c0,0,0,0,0,0c0,0,0,0.1,0,0.1c0.2,0.3,0.4,0.6,0.7,0.8
						c0.1,0.2,0.2,0.3,0.4,0.5c0.1,0.1,0,0.2-0.1,0.2c-0.1,0-0.3,0-0.4-0.1c-0.2-0.2-0.3-0.3-0.4-0.6c-0.1-0.2-0.2-0.4-0.3-0.6
						c-0.1-0.1-0.1-0.1-0.2-0.1c-0.1,0.1-0.3,0.1-0.5,0.1c-0.1,0-0.2-0.1-0.2-0.1c0,0,0-0.1-0.1-0.1c0,0,0.1,0,0.1-0.1
						c0.1,0,0.2-0.1,0.3-0.1c0.2-0.1,0.3-0.2,0.3-0.4c0-0.3,0.1-0.4,0.4-0.5c0.3-0.1,0.6,0,0.9,0c0.2,0,0.5,0.1,0.7,0.1
						c0.3,0,0.6,0.1,1,0.1c0.5,0.1,0.9,0.1,1.4,0.2c0.1,0,0.1,0,0.1,0.1c-0.1,0.2-0.2,0.3-0.4,0.3c-0.2,0.1-0.4,0.1-0.7,0.1
						c-0.6-0.1-1.2-0.2-1.8-0.4c-0.2-0.1-0.5-0.1-0.7-0.2c0,0-0.1,0-0.1,0c0,0-0.1,0-0.1,0c0,0,0,0,0.1,0c0.3,0.1,0.5,0.2,0.8,0.2
						c0.7,0.2,1.4,0.3,2.1,0.5c0,0,0.1,0,0.1,0c0.2,0.1,0.2,0.1,0.1,0.2c-0.1,0.2-0.3,0.2-0.5,0.2c-0.4-0.1-0.7-0.2-1.1-0.3
						c-0.4-0.2-0.8-0.4-1.2-0.5C24.5,32,24.4,32,24.3,32C24.3,32,24.3,32,24.3,32C24.3,32,24.3,32,24.3,32z"/>
					<path class="st2" d="M21.7,33.5c0,0-0.1,0-0.1,0c-0.1,0-0.1,0-0.2,0.1c-0.1,0.2,0.1,0.4,0.2,0.5c0.2,0.1,0.4,0.2,0.7,0.3
						c0.3,0.1,0.5,0.2,0.8,0.3c0.1,0.1,0.3,0.1,0.4,0.2c0.2,0.2,0.2,0.3,0,0.6c0,0.1-0.1,0.1-0.2,0.2c-0.1,0.1-0.2,0.1-0.3,0
						c-0.1-0.1-0.2-0.1-0.3-0.1c0,0,0,0,0,0c0,0,0,0,0,0c0.1-0.1,0.2-0.1,0.3-0.2c0.1-0.1,0.1-0.1,0-0.2c-0.2-0.1-0.4-0.1-0.5-0.2
						c-0.3-0.1-0.7-0.2-1-0.4c-0.3-0.2-0.6-0.4-0.7-0.8c-0.1-0.4,0.2-0.9,0.6-1c0.1,0,0.1,0,0.2,0c0.2,0.1,0.3,0.2,0.4,0.3
						C22.3,33.5,21.9,33.5,21.7,33.5C21.7,33.5,21.7,33.5,21.7,33.5z M21.9,33.1C21.9,33.1,21.9,33.1,21.9,33.1c-0.1,0-0.1,0-0.1,0
						C21.8,33.2,21.9,33.2,21.9,33.1C21.9,33.2,21.9,33.2,21.9,33.1z"/>
					<path class="st2" d="M22.3,33.4c0-0.3,0-0.5,0-0.8c0-0.1,0-0.2-0.1-0.3C22,32.2,22,32,22,31.8c0-0.2,0.2-0.4,0.4-0.4
						c0.2,0,0.4,0.2,0.5,0.4c0,0.2,0,0.4-0.2,0.5c-0.1,0.1-0.1,0.2-0.1,0.3c0,0.5,0,1.1,0,1.6c0,0.1,0,0.1,0,0.2
						c0,0.1,0,0.1-0.1,0.1c-0.2,0-0.2-0.1-0.2-0.2C22.3,34,22.3,33.7,22.3,33.4C22.3,33.4,22.3,33.4,22.3,33.4z"/>
					<path class="st2" d="M23.4,33.5c-0.2,0-0.8,0-0.5-0.3c0,0,0,0,0,0c0.5-0.5,0.8-0.3,1.2,0.2c0.2,0.3,0.1,0.6-0.1,0.9
						c-0.1,0.1-0.1,0.1-0.2,0.2c-0.2,0.2-0.4,0.3-0.6,0.1c-0.1-0.1-0.2-0.1-0.3-0.1c0.1,0,0.2-0.1,0.3-0.1c0.2-0.1,0.3-0.2,0.4-0.3
						c0.1-0.1,0.2-0.3,0.2-0.4c0-0.1,0-0.1-0.1-0.1C23.5,33.5,23.5,33.5,23.4,33.5C23.4,33.5,23.4,33.5,23.4,33.5z M23.2,33.2
						C23.1,33.1,23.1,33.1,23.2,33.2c-0.1-0.1-0.1,0-0.1,0C23.1,33.2,23.1,33.2,23.2,33.2C23.1,33.2,23.1,33.2,23.2,33.2z"/>
					<path class="st2" d="M23.3,36.4c0,0.1,0,0.1-0.1,0.2c-0.1,0.2-0.1,0.2-0.3,0.1c0,0,0,0-0.1,0c-0.1,0-0.1-0.1-0.2-0.1
						c0.1,0,0.1-0.1,0.1-0.1c0,0,0-0.1,0-0.1c-0.1-0.1-0.2-0.1-0.3-0.2C22.4,36,22.2,36,22,35.9c-0.2-0.1-0.3-0.1-0.4-0.3
						c-0.2-0.2-0.2-0.5,0-0.7c0.1-0.1,0.1-0.1,0.2,0c0.1,0,0.2,0,0.2,0.1c0.1,0,0.1,0,0.2,0.1c-0.1,0-0.1,0.1-0.2,0.1
						c0,0-0.1,0-0.1,0.1c-0.1,0.1-0.1,0.1,0,0.2c0.1,0.1,0.2,0.1,0.3,0.1c0.2,0.1,0.5,0.2,0.7,0.3C23.2,36,23.3,36.2,23.3,36.4z"/>
					<path class="st2" d="M22.8,37.3c-0.1,0-0.1-0.1-0.2-0.1c0,0,0-0.1,0-0.1c0.1-0.1,0-0.2-0.1-0.2c-0.1,0-0.3-0.1-0.4-0.1
						c-0.1,0-0.1,0-0.2,0c-0.3-0.1-0.4-0.5-0.2-0.8c0,0,0.1,0,0.1,0c0.1,0,0.2,0.1,0.3,0.1c0.1,0,0.1,0.1,0,0.1c0,0-0.1,0-0.1,0.1
						c-0.1,0.1-0.1,0.1,0,0.2c0.1,0,0.2,0.1,0.3,0.1c0.1,0,0.3,0.1,0.4,0.1c0.1,0.1,0.2,0.2,0.2,0.4c0,0.1-0.1,0.2-0.1,0.2
						C23,37.3,22.9,37.3,22.8,37.3L22.8,37.3z"/>
					<path class="st2" d="M22.8,37.3c0,0.1,0.1,0.2,0.1,0.3c0,0.2,0,0.4-0.2,0.6c0,0-0.1,0-0.1,0c0,0,0-0.1-0.1-0.1c0,0,0,0,0-0.1
						c0-0.1,0.1-0.2,0-0.3c-0.1-0.1-0.1-0.2-0.2-0.2c-0.1,0-0.1-0.1-0.2-0.1c-0.2-0.1-0.3-0.2-0.3-0.4c0-0.1,0-0.2,0.1-0.1
						c0.1,0,0.3,0,0.3,0.2C22.5,37.2,22.7,37.3,22.8,37.3L22.8,37.3z"/>
					<path class="st2" d="M22.3,37.8c0,0,0,0.1,0,0.1c0.1,0.1,0.1,0.2,0.2,0.3c0,0,0.1,0.1,0.1,0.1c-0.1,0-0.1,0-0.2-0.1
						c-0.3-0.1-0.5-0.4-0.5-0.7c0-0.1,0.1-0.1,0.1-0.1c0,0,0,0,0.1,0C22.3,37.6,22.4,37.7,22.3,37.8z"/>
					<path class="st2" d="M22.6,35.4C22.6,35.4,22.6,35.4,22.6,35.4c0,0.1,0,0.1-0.1,0.2c-0.1,0-0.2-0.1-0.2-0.1c0-0.1,0-0.1,0-0.2
						c0,0,0-0.1,0-0.1c0.1,0,0.1,0,0.2,0.1C22.6,35.3,22.6,35.4,22.6,35.4C22.6,35.4,22.6,35.4,22.6,35.4z"/>
					<path class="st2" d="M22.5,39.1c-0.1,0,0-0.5,0-0.6c0,0,0-0.1,0-0.1c0,0,0.1,0,0.1,0C22.5,38.6,22.6,39.1,22.5,39.1z"/>
					<path class="st2" d="M22.4,36.3c0-0.1,0-0.2,0.1-0.2c0.1,0,0.1,0,0.1,0.1c0,0.1,0,0.1,0,0.2c0,0-0.1,0-0.1,0
						C22.4,36.4,22.4,36.4,22.4,36.3z"/>
					<path class="st2" d="M22.4,37.8C22.4,37.8,22.4,37.7,22.4,37.8c0.1-0.1,0.1-0.1,0.1,0c0,0.1,0,0.1,0,0.2c0,0,0,0,0,0
						C22.4,37.9,22.4,37.8,22.4,37.8z"/>
					<path class="st2" d="M22.6,37.1C22.5,37.1,22.5,37.1,22.6,37.1c-0.1,0-0.1,0-0.1,0C22.5,37,22.5,37,22.6,37.1
						C22.5,37,22.5,37,22.6,37.1z"/>
					<path class="st2" d="M22.3,38.4C22.3,38.4,22.3,38.4,22.3,38.4c0.1-0.1,0.1,0,0.1,0C22.4,38.4,22.3,38.5,22.3,38.4
						C22.3,38.5,22.3,38.5,22.3,38.4C22.3,38.5,22.3,38.4,22.3,38.4z"/>
				</g>
			</g>
			<circle class="st2" cx="30.4" cy="8" r="4.1"/>
			<path class="st3" d="M32.9,6.4L32.9,6.4c-0.1-0.1-0.3-0.1-0.4,0l-3.1,3.1l-1.1-1.1c-0.1-0.1-0.3-0.1-0.4,0l0,0
				c-0.1,0.1-0.1,0.3,0,0.4l1.4,1.4l0,0l0,0l3.5-3.5C33,6.7,33,6.5,32.9,6.4z"/>
			<path class="st1" d="M12.3,14.6V11c0-1.2,1-2.2,2.2-2.2h1.1c0.4,1.5,1.8,2.6,3.3,2.6h6.7c0.3,0,0.6,0,0.9-0.1
				c-0.3-0.4-0.6-0.9-0.8-1.4c0,0-0.1,0-0.1,0h-6.7c-0.9,0-1.7-0.6-1.8-1.4c-0.3-1.2,0.6-2.2,1.8-2.2h6.8c0,0,0.1,0,0.1,0
				c0.2-0.5,0.5-1,0.8-1.4c-0.3-0.1-0.6-0.1-1-0.1h-6.7c-1.6,0-2.9,1.1-3.3,2.6h-1.1c-2.1,0-3.7,1.7-3.7,3.7v3.6H12.3z"/>
			<path class="st1" d="M33.7,14.6v-2.9c-0.4,0.4-1,0.7-1.5,0.9v1.9H33.7z"/>
			<g>
				<path class="st2" d="M13.7,15.9v6.5h-1.5v-2.7H9.2v2.7H7.7v-6.5h1.5v2.6h2.9v-2.6H13.7z"/>
				<path class="st2" d="M15.2,15.9h1.5v6.5h-1.5V15.9z"/>
				<path class="st2" d="M22.5,16.2c0.4,0.2,0.7,0.5,1,0.8c0.2,0.4,0.3,0.8,0.3,1.3c0,0.5-0.1,0.9-0.3,1.2c-0.2,0.4-0.6,0.6-1,0.8
					c-0.4,0.2-0.9,0.3-1.5,0.3h-1.3v1.8h-1.5v-6.5H21C21.6,15.9,22.1,16,22.5,16.2z M22,19.1c0.2-0.2,0.4-0.5,0.4-0.8
					c0-0.4-0.1-0.6-0.4-0.8c-0.2-0.2-0.6-0.3-1-0.3h-1.2v2.3H21C21.4,19.4,21.8,19.3,22,19.1z"/>
				<path class="st2" d="M29.2,16.2c0.4,0.2,0.7,0.5,1,0.8c0.2,0.4,0.3,0.8,0.3,1.3c0,0.5-0.1,0.9-0.3,1.2c-0.2,0.4-0.6,0.6-1,0.8
					c-0.4,0.2-0.9,0.3-1.5,0.3h-1.3v1.8h-1.5v-6.5h2.8C28.3,15.9,28.8,16,29.2,16.2z M28.7,19.1c0.2-0.2,0.4-0.5,0.4-0.8
					c0-0.4-0.1-0.6-0.4-0.8c-0.2-0.2-0.6-0.3-1-0.3h-1.2v2.3h1.2C28.1,19.4,28.4,19.3,28.7,19.1z"/>
				<path class="st2" d="M35.6,21h-3L32,22.4h-1.5l2.9-6.5h1.5l2.9,6.5h-1.6L35.6,21z M35.1,19.9l-1-2.5l-1,2.5H35.1z"/>
			</g>
			<g>
				<path class="st2" d="M12.7,23.2v5.4h-1l-2.7-3.3v3.3H7.7v-5.4h1l2.7,3.3v-3.3H12.7z"/>
				<path class="st2" d="M15.1,28.3c-0.5-0.2-0.8-0.6-1.1-1c-0.3-0.4-0.4-0.9-0.4-1.4c0-0.5,0.1-1,0.4-1.4c0.3-0.4,0.6-0.8,1.1-1
					c0.5-0.2,1-0.4,1.5-0.4c0.6,0,1.1,0.1,1.5,0.4c0.5,0.2,0.8,0.6,1.1,1c0.3,0.4,0.4,0.9,0.4,1.4c0,0.5-0.1,1-0.4,1.4
					c-0.3,0.4-0.6,0.8-1.1,1c-0.5,0.2-1,0.4-1.5,0.4C16.1,28.7,15.5,28.6,15.1,28.3z M17.5,27.4c0.3-0.1,0.5-0.4,0.6-0.6
					c0.1-0.3,0.2-0.6,0.2-0.9c0-0.3-0.1-0.6-0.2-0.9c-0.1-0.3-0.4-0.5-0.6-0.6c-0.3-0.1-0.5-0.2-0.9-0.2c-0.3,0-0.6,0.1-0.9,0.2
					c-0.3,0.1-0.5,0.4-0.6,0.6c-0.1,0.3-0.2,0.6-0.2,0.9c0,0.3,0.1,0.6,0.2,0.9c0.1,0.3,0.4,0.5,0.6,0.6c0.3,0.1,0.5,0.2,0.9,0.2
					C16.9,27.6,17.2,27.5,17.5,27.4z"/>
				<path class="st2" d="M21.6,24.2h-1.7v-1h4.7v1h-1.7v4.4h-1.3V24.2z"/>
				<path class="st2" d="M25.3,23.2h1.3v5.4h-1.3V23.2z"/>
				<path class="st2" d="M28.9,28.3c-0.4-0.2-0.8-0.6-1.1-1c-0.3-0.4-0.4-0.9-0.4-1.4s0.1-1,0.4-1.4c0.3-0.4,0.6-0.8,1.1-1
					c0.4-0.2,1-0.4,1.5-0.4c0.5,0,0.9,0.1,1.3,0.2c0.4,0.2,0.7,0.4,1,0.7l-0.8,0.7c-0.4-0.4-0.8-0.6-1.4-0.6c-0.3,0-0.6,0.1-0.9,0.2
					c-0.3,0.1-0.5,0.4-0.6,0.6c-0.1,0.3-0.2,0.6-0.2,0.9c0,0.3,0.1,0.6,0.2,0.9c0.1,0.3,0.4,0.5,0.6,0.6c0.3,0.1,0.6,0.2,0.9,0.2
					c0.5,0,1-0.2,1.4-0.6l0.8,0.7c-0.3,0.3-0.6,0.6-1,0.7s-0.8,0.2-1.3,0.2C29.9,28.7,29.4,28.6,28.9,28.3z"/>
				<path class="st2" d="M37.7,27.6v1h-4.2v-5.4h4.1v1h-2.9v1.2h2.5v1h-2.5v1.3H37.7z"/>
			</g>
			<path class="st1" d="M12.9,31.7v-0.9h-1.5v0.9c0,2.1,1.7,3.7,3.7,3.7h1.3v-1.5h-1.3C13.9,33.9,12.9,32.9,12.9,31.7z"/>
		</g>
	</g>
</g>
<g>
	<path class="st2" d="M61.4,15.4l1.3-3.8h0.7l-1.7,4.7h-0.5l-1.7-4.7h0.7L61.4,15.4z"/>
	<path class="st2" d="M65.2,16.2h-0.6v-4.7h0.6V16.2z"/>
	<path class="st2" d="M69.5,14.1h-2v1.7h2.3v0.5h-3v-4.7h2.9v0.5h-2.3v1.5h2V14.1z"/>
	<path class="st2" d="M72.1,14.8l0.1,0.6l0.1-0.6l0.9-3.3h0.5l0.9,3.3l0.1,0.6l0.1-0.6l0.7-3.2h0.6l-1.1,4.7h-0.6l-1-3.4l-0.1-0.4
		l-0.1,0.4l-1,3.4h-0.6l-1.1-4.7h0.6L72.1,14.8z"/>
	<path class="st1" d="M62.6,21.1h-1.6v-0.5h1.6V21.1z"/>
	<path class="st1" d="M67.4,20.6c0,0.5-0.1,0.9-0.2,1.2c-0.2,0.3-0.4,0.6-0.7,0.8c-0.3,0.2-0.6,0.3-1,0.3c-0.4,0-0.7-0.1-1-0.3
		c-0.3-0.2-0.5-0.4-0.7-0.8c-0.2-0.3-0.2-0.7-0.2-1.2v-0.3c0-0.4,0.1-0.8,0.2-1.2c0.2-0.3,0.4-0.6,0.7-0.8s0.6-0.3,1-0.3
		c0.4,0,0.7,0.1,1,0.3c0.3,0.2,0.5,0.4,0.7,0.8s0.2,0.7,0.2,1.2V20.6z M66.8,20.3c0-0.6-0.1-1-0.3-1.3s-0.5-0.4-0.9-0.4
		c-0.4,0-0.7,0.1-0.9,0.4c-0.2,0.3-0.3,0.7-0.3,1.2v0.3c0,0.5,0.1,1,0.3,1.3c0.2,0.3,0.5,0.5,0.9,0.5c0.4,0,0.7-0.1,0.9-0.4
		s0.3-0.7,0.3-1.2V20.3z"/>
	<path class="st1" d="M70.6,20.9h-1.1v1.9h-0.6v-4.7h1.5c0.5,0,0.9,0.1,1.2,0.4c0.3,0.2,0.4,0.6,0.4,1c0,0.3-0.1,0.5-0.2,0.8
		c-0.2,0.2-0.4,0.4-0.7,0.5l1.1,2v0h-0.7L70.6,20.9z M69.5,20.4h0.9c0.3,0,0.5-0.1,0.7-0.2c0.2-0.2,0.3-0.4,0.3-0.6
		c0-0.3-0.1-0.5-0.3-0.7s-0.4-0.2-0.7-0.2h-0.9V20.4z"/>
	<path class="st1" d="M74.6,21.1H73v-0.5h1.6V21.1z"/>
	<path class="st2" d="M48.7,29.4v-4.7H50c0.4,0,0.8,0.1,1.1,0.3c0.3,0.2,0.6,0.4,0.7,0.8c0.2,0.3,0.3,0.7,0.3,1.1v0.3
		c0,0.4-0.1,0.8-0.3,1.2s-0.4,0.6-0.7,0.8c-0.3,0.2-0.7,0.3-1.1,0.3H48.7z M49.3,25.2v3.7H50c0.5,0,0.8-0.1,1.1-0.4
		c0.3-0.3,0.4-0.7,0.4-1.3v-0.3c0-0.5-0.1-0.9-0.4-1.2c-0.2-0.3-0.6-0.4-1.1-0.4H49.3z"/>
	<path class="st2" d="M57.1,27.2c0,0.5-0.1,0.9-0.2,1.2c-0.2,0.3-0.4,0.6-0.7,0.8c-0.3,0.2-0.6,0.3-1,0.3c-0.4,0-0.7-0.1-1-0.3
		c-0.3-0.2-0.5-0.4-0.7-0.8c-0.2-0.3-0.2-0.7-0.2-1.2v-0.3c0-0.4,0.1-0.8,0.2-1.2c0.2-0.3,0.4-0.6,0.7-0.8s0.6-0.3,1-0.3
		c0.4,0,0.7,0.1,1,0.3c0.3,0.2,0.5,0.4,0.7,0.8s0.2,0.7,0.2,1.2V27.2z M56.5,26.9c0-0.6-0.1-1-0.3-1.3s-0.5-0.4-0.9-0.4
		c-0.4,0-0.7,0.1-0.9,0.4c-0.2,0.3-0.3,0.7-0.3,1.2v0.3c0,0.5,0.1,1,0.3,1.3c0.2,0.3,0.5,0.5,0.9,0.5c0.4,0,0.7-0.1,0.9-0.4
		s0.3-0.7,0.3-1.2V26.9z"/>
	<path class="st2" d="M59.6,27.9l0.1,0.6l0.1-0.6l0.9-3.3h0.5l0.9,3.3l0.1,0.6l0.1-0.6l0.7-3.2h0.6l-1.1,4.7H62l-1-3.4L61,25.6
		L60.9,26l-1,3.4h-0.6l-1.1-4.7h0.6L59.6,27.9z"/>
	<path class="st2" d="M68.5,29.4h-0.6l-2.3-3.6v3.6h-0.6v-4.7h0.6l2.4,3.6v-3.6h0.6V29.4z"/>
	<path class="st2" d="M70.7,28.8h2.2v0.5h-2.8v-4.7h0.6V28.8z"/>
	<path class="st2" d="M77.6,27.2c0,0.5-0.1,0.9-0.2,1.2c-0.2,0.3-0.4,0.6-0.7,0.8c-0.3,0.2-0.6,0.3-1,0.3c-0.4,0-0.7-0.1-1-0.3
		c-0.3-0.2-0.5-0.4-0.7-0.8c-0.2-0.3-0.2-0.7-0.2-1.2v-0.3c0-0.4,0.1-0.8,0.2-1.2c0.2-0.3,0.4-0.6,0.7-0.8s0.6-0.3,1-0.3
		c0.4,0,0.7,0.1,1,0.3c0.3,0.2,0.5,0.4,0.7,0.8s0.2,0.7,0.2,1.2V27.2z M76.9,26.9c0-0.6-0.1-1-0.3-1.3s-0.5-0.4-0.9-0.4
		c-0.4,0-0.7,0.1-0.9,0.4c-0.2,0.3-0.3,0.7-0.3,1.2v0.3c0,0.5,0.1,1,0.3,1.3c0.2,0.3,0.5,0.5,0.9,0.5c0.4,0,0.7-0.1,0.9-0.4
		s0.3-0.7,0.3-1.2V26.9z"/>
	<path class="st2" d="M81.5,28.1h-2l-0.4,1.2h-0.6l1.8-4.7h0.5l1.8,4.7H82L81.5,28.1z M79.7,27.6h1.6l-0.8-2.2L79.7,27.6z"/>
	<path class="st2" d="M83.7,29.4v-4.7H85c0.4,0,0.8,0.1,1.1,0.3c0.3,0.2,0.6,0.4,0.7,0.8c0.2,0.3,0.3,0.7,0.3,1.1v0.3
		c0,0.4-0.1,0.8-0.3,1.2s-0.4,0.6-0.7,0.8c-0.3,0.2-0.7,0.3-1.1,0.3H83.7z M84.3,25.2v3.7H85c0.5,0,0.8-0.1,1.1-0.4
		c0.3-0.3,0.4-0.7,0.4-1.3v-0.3c0-0.5-0.1-0.9-0.4-1.2c-0.2-0.3-0.6-0.4-1.1-0.4H84.3z"/>
</g>
</svg>
