<?xml version="1.0" encoding="utf-8"?>
<!-- Generator: Adobe Illustrator 24.0.1, SVG Export Plug-In . SVG Version: 6.00 Build 0)  -->
<svg version="1.1" id="valent_button.svg" xmlns="http://www.w3.org/2000/svg" xmlns:xlink="http://www.w3.org/1999/xlink" x="0px"
	 y="0px" viewBox="0 0 84 37.8" style="enable-background:new 0 0 84 37.8;" xml:space="preserve">
<style type="text/css">
	.st0{fill:#003B41;}
	.st1{fill:#F7F5EF;}
</style>
<title>valant_button</title>
<path id="Rectangle_2_copy_12" class="st0" d="M7,0h70c3.9,0,7,3.1,7,7l0,0v23.8c0,3.9-3.1,7-7,7H7c-3.9,0-7-3.1-7-7V7
	C0,3.1,3.1,0,7,0z"/>
<g>
	<path class="st1" d="M26.2,9.7c0.6,0.5,0.9,1.2,0.9,2.2c0,1-0.3,1.8-0.9,2.3S24.8,15,23.7,15h-1.5v2.3H20V8.9h3.7
		C24.8,8.9,25.6,9.2,26.2,9.7z M24.7,12.9c0.2-0.2,0.4-0.5,0.4-1c0-0.4-0.1-0.7-0.4-0.9c-0.2-0.2-0.6-0.3-1-0.3h-1.4v2.6h1.4
		C24.1,13.2,24.4,13.1,24.7,12.9z"/>
	<path class="st1" d="M33.2,11.3c0.5,0.4,0.7,1,0.8,1.7v4.2h-2.1v-0.7c-0.4,0.6-1.1,0.8-2,0.8c-0.7,0-1.2-0.2-1.6-0.6
		c-0.4-0.4-0.6-0.9-0.6-1.5c0-0.6,0.2-1.1,0.6-1.4c0.4-0.3,1-0.5,1.8-0.5h1.7v-0.1c0-0.3-0.1-0.6-0.3-0.7s-0.5-0.3-0.9-0.3
		c-0.3,0-0.6,0-0.9,0.1c-0.3,0.1-0.7,0.2-1,0.4l-0.6-1.4c0.5-0.2,1-0.4,1.5-0.5c0.5-0.1,1-0.2,1.5-0.2C32,10.7,32.7,10.9,33.2,11.3z
		 M31.4,15.7c0.2-0.2,0.4-0.4,0.5-0.6v-0.6h-1.3c-0.6,0-0.9,0.2-0.9,0.7c0,0.2,0.1,0.4,0.2,0.5c0.2,0.1,0.4,0.2,0.6,0.2
		C30.9,15.9,31.2,15.9,31.4,15.7z"/>
	<path class="st1" d="M39.6,17c-0.2,0.1-0.5,0.2-0.8,0.3c-0.3,0.1-0.6,0.1-0.9,0.1c-0.6,0-1.2-0.2-1.6-0.6c-0.4-0.4-0.6-0.9-0.6-1.5
		v-2.8h-0.9v-1.4h0.9V9.3h2.1v1.8h1.7v1.4h-1.7V15c0,0.5,0.2,0.7,0.6,0.7c0.2,0,0.5-0.1,0.8-0.2L39.6,17z"/>
	<path class="st1" d="M42.5,8.1c0.2,0.2,0.3,0.5,0.3,0.8c0,0.3-0.1,0.6-0.3,0.8c-0.2,0.2-0.5,0.3-0.8,0.3c-0.3,0-0.6-0.1-0.8-0.3
		c-0.2-0.2-0.3-0.5-0.3-0.8c0-0.3,0.1-0.6,0.3-0.8c0.2-0.2,0.5-0.3,0.8-0.3C42,7.8,42.3,7.9,42.5,8.1z M40.7,10.8h2.1v6.5h-2.1V10.8
		z"/>
	<path class="st1" d="M49.7,11.7c0.6,0.6,0.9,1.5,0.9,2.6c0,0.2,0,0.3,0,0.4H46c0.1,0.4,0.3,0.6,0.5,0.8c0.3,0.2,0.6,0.3,0.9,0.3
		c0.3,0,0.5-0.1,0.8-0.2c0.3-0.1,0.5-0.3,0.7-0.5l1.1,1.1c-0.3,0.4-0.7,0.7-1.2,0.9c-0.5,0.2-1,0.3-1.6,0.3c-0.7,0-1.3-0.1-1.8-0.4
		c-0.5-0.3-0.9-0.7-1.2-1.2c-0.3-0.5-0.4-1.1-0.4-1.7c0-0.7,0.1-1.2,0.4-1.8c0.3-0.5,0.7-0.9,1.2-1.2c0.5-0.3,1.1-0.4,1.8-0.4
		C48.3,10.7,49.1,11.1,49.7,11.7z M48.5,13.5c0-0.4-0.1-0.7-0.3-0.9c-0.2-0.2-0.5-0.3-0.9-0.3c-0.3,0-0.6,0.1-0.8,0.3
		c-0.2,0.2-0.4,0.5-0.5,0.9H48.5z"/>
	<path class="st1" d="M57.6,11.4c0.4,0.4,0.6,1.1,0.6,1.8v4.1h-2.1v-3.5c0-0.4-0.1-0.7-0.3-0.9c-0.2-0.2-0.5-0.3-0.8-0.3
		c-0.4,0-0.6,0.1-0.9,0.3c-0.2,0.2-0.4,0.5-0.4,0.9v3.4h-2.1v-6.5h2.1v1.1c0.2-0.4,0.5-0.7,0.9-0.9s0.8-0.3,1.3-0.3
		C56.6,10.7,57.2,11,57.6,11.4z"/>
	<path class="st1" d="M64,17c-0.2,0.1-0.5,0.2-0.8,0.3c-0.3,0.1-0.6,0.1-0.9,0.1c-0.6,0-1.2-0.2-1.6-0.6C60.2,16.5,60,16,60,15.3
		v-2.8h-0.9v-1.4H60V9.3h2.1v1.8h1.7v1.4h-1.7V15c0,0.5,0.2,0.7,0.6,0.7c0.2,0,0.5-0.1,0.8-0.2L64,17z"/>
	<path class="st1" d="M29.9,21.7c0.6,0.5,0.9,1.2,0.9,2.2c0,1-0.3,1.8-0.9,2.3c-0.6,0.5-1.4,0.8-2.5,0.8h-1.5v2.3h-2.2v-8.4h3.7
		C28.5,20.9,29.3,21.2,29.9,21.7z M28.4,24.9c0.2-0.2,0.4-0.5,0.4-1c0-0.4-0.1-0.7-0.4-0.9c-0.2-0.2-0.6-0.3-1-0.3h-1.4v2.6h1.4
		C27.8,25.2,28.1,25.1,28.4,24.9z"/>
	<path class="st1" d="M36.8,23.2c0.5,0.3,1,0.7,1.2,1.2c0.3,0.5,0.4,1.1,0.4,1.7c0,0.7-0.1,1.2-0.4,1.7s-0.7,0.9-1.2,1.2
		c-0.5,0.3-1.2,0.4-1.9,0.4S33.6,29.2,33,29c-0.5-0.3-1-0.7-1.2-1.2s-0.4-1.1-0.4-1.7c0-0.7,0.1-1.2,0.4-1.7
		c0.3-0.5,0.7-0.9,1.2-1.2c0.5-0.3,1.2-0.4,1.9-0.4S36.2,22.9,36.8,23.2z M33.9,24.9c-0.3,0.3-0.4,0.7-0.4,1.2
		c0,0.5,0.1,0.9,0.4,1.2c0.3,0.3,0.6,0.4,1,0.4c0.4,0,0.8-0.1,1-0.4s0.4-0.7,0.4-1.2c0-0.5-0.1-0.9-0.4-1.2c-0.3-0.3-0.6-0.4-1-0.4
		S34.2,24.6,33.9,24.9z"/>
	<path class="st1" d="M42.6,23c0.4-0.2,0.8-0.3,1.2-0.3v2c-0.1,0-0.2,0-0.3,0c-0.5,0-0.9,0.1-1.2,0.4c-0.3,0.2-0.5,0.6-0.5,1v3.3
		h-2.1v-6.5h2.1v1.1C41.9,23.5,42.2,23.2,42.6,23z"/>
	<path class="st1" d="M49.2,29c-0.2,0.1-0.5,0.2-0.8,0.3c-0.3,0.1-0.6,0.1-0.9,0.1c-0.6,0-1.2-0.2-1.6-0.6c-0.4-0.4-0.6-0.9-0.6-1.5
		v-2.8h-0.9v-1.4h0.9v-1.8h2.1v1.8h1.7v1.4h-1.7V27c0,0.5,0.2,0.7,0.6,0.7c0.2,0,0.5-0.1,0.8-0.2L49.2,29z"/>
	<path class="st1" d="M55.2,23.3c0.5,0.4,0.7,1,0.8,1.7v4.2h-2.1v-0.7c-0.4,0.6-1.1,0.8-2,0.8c-0.7,0-1.2-0.2-1.6-0.6
		c-0.4-0.4-0.6-0.9-0.6-1.5c0-0.6,0.2-1.1,0.6-1.4s1-0.5,1.8-0.5h1.7v-0.1c0-0.3-0.1-0.6-0.3-0.7s-0.5-0.3-0.9-0.3
		c-0.3,0-0.6,0-0.9,0.1c-0.3,0.1-0.7,0.2-1,0.4l-0.6-1.4c0.5-0.2,1-0.4,1.5-0.5c0.5-0.1,1-0.2,1.5-0.2C54,22.7,54.7,22.9,55.2,23.3z
		 M53.4,27.7c0.2-0.2,0.4-0.4,0.5-0.6v-0.6h-1.3c-0.6,0-0.9,0.2-0.9,0.7c0,0.2,0.1,0.4,0.2,0.5s0.4,0.2,0.6,0.2
		C52.9,27.9,53.2,27.9,53.4,27.7z"/>
	<path class="st1" d="M57.5,20.4h2.1v8.9h-2.1V20.4z"/>
</g>
</svg>
