<?xml version="1.0" encoding="utf-8"?>
<!-- Generator: Adobe Illustrator 24.0.1, SVG Export Plug-In . SVG Version: 6.00 Build 0)  -->
<svg version="1.1" id="valent_hover.svg" xmlns="http://www.w3.org/2000/svg" xmlns:xlink="http://www.w3.org/1999/xlink" x="0px"
	 y="0px" viewBox="0 0 86.5 40.3" style="enable-background:new 0 0 86.5 40.3;" xml:space="preserve">
<style type="text/css">
	.st0{fill:#F7F5EF;stroke:#003B41;stroke-width:2.46;}
	.st1{fill:#003B41;}
</style>
<title>valant_hover</title>
<path id="Rectangle_2_copy_13" class="st0" d="M8.2,1.2h70c3.9,0,7,3.1,7,7V32c0,3.9-3.1,7-7,7h-70c-3.9,0-7-3.1-7-7V8.2
	C1.2,4.4,4.4,1.2,8.2,1.2C8.2,1.2,8.2,1.2,8.2,1.2z"/>
<g>
	<path class="st1" d="M27.5,9.7c0.6,0.5,0.9,1.2,0.9,2.2c0,1-0.3,1.8-0.9,2.3S26,15,25,15h-1.5v2.3h-2.2V8.9H25
		C26,8.9,26.9,9.2,27.5,9.7z M25.9,12.9c0.2-0.2,0.4-0.5,0.4-1c0-0.4-0.1-0.7-0.4-0.9c-0.2-0.2-0.6-0.3-1-0.3h-1.4v2.6h1.4
		C25.3,13.2,25.7,13.1,25.9,12.9z"/>
	<path class="st1" d="M34.4,11.3c0.5,0.4,0.7,1,0.8,1.7v4.2h-2.1v-0.7c-0.4,0.6-1.1,0.8-2,0.8c-0.7,0-1.2-0.2-1.6-0.6
		c-0.4-0.4-0.6-0.9-0.6-1.5c0-0.6,0.2-1.1,0.6-1.4c0.4-0.3,1-0.5,1.8-0.5h1.7v-0.1c0-0.3-0.1-0.6-0.3-0.7s-0.5-0.3-0.9-0.3
		c-0.3,0-0.6,0-0.9,0.1c-0.3,0.1-0.7,0.2-1,0.4l-0.6-1.4c0.5-0.2,1-0.4,1.5-0.5c0.5-0.1,1-0.2,1.5-0.2
		C33.3,10.7,33.9,10.9,34.4,11.3z M32.6,15.7c0.2-0.2,0.4-0.4,0.5-0.6v-0.6h-1.3c-0.6,0-0.9,0.2-0.9,0.7c0,0.2,0.1,0.4,0.2,0.5
		c0.2,0.1,0.4,0.2,0.6,0.2C32.1,15.9,32.4,15.9,32.6,15.7z"/>
	<path class="st1" d="M40.9,17c-0.2,0.1-0.5,0.2-0.8,0.3c-0.3,0.1-0.6,0.1-0.9,0.1c-0.6,0-1.2-0.2-1.6-0.6c-0.4-0.4-0.6-0.9-0.6-1.5
		v-2.8H36v-1.4h0.9V9.3h2.1v1.8h1.7v1.4h-1.7V15c0,0.5,0.2,0.7,0.6,0.7c0.2,0,0.5-0.1,0.8-0.2L40.9,17z"/>
	<path class="st1" d="M43.7,8.1C44,8.4,44.1,8.6,44.1,9c0,0.3-0.1,0.6-0.3,0.8c-0.2,0.2-0.5,0.3-0.8,0.3c-0.3,0-0.6-0.1-0.8-0.3
		c-0.2-0.2-0.3-0.5-0.3-0.8c0-0.3,0.1-0.6,0.3-0.8c0.2-0.2,0.5-0.3,0.8-0.3C43.3,7.8,43.5,7.9,43.7,8.1z M41.9,10.8H44v6.5h-2.1
		V10.8z"/>
	<path class="st1" d="M50.9,11.7c0.6,0.6,0.9,1.5,0.9,2.6c0,0.2,0,0.3,0,0.4h-4.5c0.1,0.4,0.3,0.6,0.5,0.8c0.3,0.2,0.6,0.3,0.9,0.3
		c0.3,0,0.5-0.1,0.8-0.2c0.3-0.1,0.5-0.3,0.7-0.5l1.1,1.1c-0.3,0.4-0.7,0.7-1.2,0.9c-0.5,0.2-1,0.3-1.6,0.3c-0.7,0-1.3-0.1-1.8-0.4
		c-0.5-0.3-0.9-0.7-1.2-1.2c-0.3-0.5-0.4-1.1-0.4-1.7c0-0.7,0.1-1.2,0.4-1.8c0.3-0.5,0.7-0.9,1.2-1.2c0.5-0.3,1.1-0.4,1.8-0.4
		C49.6,10.7,50.4,11.1,50.9,11.7z M49.7,13.5c0-0.4-0.1-0.7-0.3-0.9c-0.2-0.2-0.5-0.3-0.9-0.3c-0.3,0-0.6,0.1-0.8,0.3
		c-0.2,0.2-0.4,0.5-0.5,0.9H49.7z"/>
	<path class="st1" d="M58.9,11.4c0.4,0.4,0.6,1.1,0.6,1.8v4.1h-2.1v-3.5c0-0.4-0.1-0.7-0.3-0.9c-0.2-0.2-0.5-0.3-0.8-0.3
		c-0.4,0-0.6,0.1-0.9,0.3c-0.2,0.2-0.4,0.5-0.4,0.9v3.4h-2.1v-6.5H55v1.1c0.2-0.4,0.5-0.7,0.9-0.9s0.8-0.3,1.3-0.3
		C57.9,10.7,58.4,11,58.9,11.4z"/>
	<path class="st1" d="M65.2,17c-0.2,0.1-0.5,0.2-0.8,0.3c-0.3,0.1-0.6,0.1-0.9,0.1c-0.6,0-1.2-0.2-1.6-0.6c-0.4-0.4-0.6-0.9-0.6-1.5
		v-2.8h-0.9v-1.4h0.9V9.3h2.1v1.8h1.7v1.4h-1.7V15c0,0.5,0.2,0.7,0.6,0.7c0.2,0,0.5-0.1,0.8-0.2L65.2,17z"/>
	<path class="st1" d="M31.2,21.7c0.6,0.5,0.9,1.2,0.9,2.2c0,1-0.3,1.8-0.9,2.3c-0.6,0.5-1.4,0.8-2.5,0.8h-1.5v2.3H25v-8.4h3.7
		C29.7,20.9,30.6,21.2,31.2,21.7z M29.6,24.9c0.2-0.2,0.4-0.5,0.4-1c0-0.4-0.1-0.7-0.4-0.9c-0.2-0.2-0.6-0.3-1-0.3h-1.4v2.6h1.4
		C29,25.2,29.3,25.1,29.6,24.9z"/>
	<path class="st1" d="M38,23.2c0.5,0.3,1,0.7,1.2,1.2c0.3,0.5,0.4,1.1,0.4,1.7c0,0.7-0.1,1.2-0.4,1.7S38.5,28.7,38,29
		c-0.5,0.3-1.2,0.4-1.9,0.4s-1.3-0.1-1.9-0.4c-0.5-0.3-1-0.7-1.2-1.2s-0.4-1.1-0.4-1.7c0-0.7,0.1-1.2,0.4-1.7
		c0.3-0.5,0.7-0.9,1.2-1.2c0.5-0.3,1.2-0.4,1.9-0.4S37.5,22.9,38,23.2z M35.1,24.9c-0.3,0.3-0.4,0.7-0.4,1.2c0,0.5,0.1,0.9,0.4,1.2
		c0.3,0.3,0.6,0.4,1,0.4c0.4,0,0.8-0.1,1-0.4s0.4-0.7,0.4-1.2c0-0.5-0.1-0.9-0.4-1.2c-0.3-0.3-0.6-0.4-1-0.4S35.4,24.6,35.1,24.9z"
		/>
	<path class="st1" d="M43.8,23c0.4-0.2,0.8-0.3,1.2-0.3v2c-0.1,0-0.2,0-0.3,0c-0.5,0-0.9,0.1-1.2,0.4c-0.3,0.2-0.5,0.6-0.5,1v3.3
		h-2.1v-6.5h2.1v1.1C43.1,23.5,43.4,23.2,43.8,23z"/>
	<path class="st1" d="M50.4,29c-0.2,0.1-0.5,0.2-0.8,0.3c-0.3,0.1-0.6,0.1-0.9,0.1c-0.6,0-1.2-0.2-1.6-0.6c-0.4-0.4-0.6-0.9-0.6-1.5
		v-2.8h-0.9v-1.4h0.9v-1.8h2.1v1.8h1.7v1.4h-1.7V27c0,0.5,0.2,0.7,0.6,0.7c0.2,0,0.5-0.1,0.8-0.2L50.4,29z"/>
	<path class="st1" d="M56.4,23.3c0.5,0.4,0.7,1,0.8,1.7v4.2h-2.1v-0.7c-0.4,0.6-1.1,0.8-2,0.8c-0.7,0-1.2-0.2-1.6-0.6
		c-0.4-0.4-0.6-0.9-0.6-1.5c0-0.6,0.2-1.1,0.6-1.4s1-0.5,1.8-0.5h1.7v-0.1c0-0.3-0.1-0.6-0.3-0.7s-0.5-0.3-0.9-0.3
		c-0.3,0-0.6,0-0.9,0.1c-0.3,0.1-0.7,0.2-1,0.4l-0.6-1.4c0.5-0.2,1-0.4,1.5-0.5c0.5-0.1,1-0.2,1.5-0.2
		C55.2,22.7,55.9,22.9,56.4,23.3z M54.6,27.7c0.2-0.2,0.4-0.4,0.5-0.6v-0.6h-1.3c-0.6,0-0.9,0.2-0.9,0.7c0,0.2,0.1,0.4,0.2,0.5
		s0.4,0.2,0.6,0.2C54.1,27.9,54.4,27.9,54.6,27.7z"/>
	<path class="st1" d="M58.7,20.4h2.1v8.9h-2.1V20.4z"/>
</g>
</svg>
