<?xml version="1.0" standalone="no"?>
<!DOCTYPE svg PUBLIC "-//W3C//DTD SVG 20010904//EN"
 "http://www.w3.org/TR/2001/REC-SVG-20010904/DTD/svg10.dtd">
<svg version="1.0" xmlns="http://www.w3.org/2000/svg"
 width="260.000000pt" height="260.000000pt" viewBox="0 0 260.000000 260.000000"
 preserveAspectRatio="xMidYMid meet">
<metadata>
Created by potrace 1.11, written by Peter Selinger 2001-2013
</metadata>
<g transform="translate(0.000000,260.000000) scale(0.100000,-0.100000)"
fill="#000000" stroke="none">
<path d="M1233 2511 c-70 -18 -76 -60 -42 -269 11 -70 22 -143 24 -162 2 -19
6 -46 9 -60 2 -14 8 -47 11 -75 4 -27 9 -59 10 -70 9 -59 15 -118 20 -190 l5
-80 -22 45 c-37 79 -110 223 -140 280 -87 160 -89 161 -117 158 -22 -3 -26 -8
-27 -38 0 -19 3 -44 7 -55 9 -23 89 -311 94 -337 2 -9 9 -26 15 -37 6 -12 9
-21 6 -21 -3 0 2 -17 10 -37 l16 -38 -25 26 c-14 14 -61 75 -106 135 -44 60
-84 114 -89 119 -4 6 -43 60 -87 120 -43 61 -100 135 -126 165 -37 43 -45 59
-38 72 10 18 104 70 112 62 2 -3 16 9 31 26 25 30 25 32 10 63 -21 41 -17 38
-51 43 -20 3 -48 -5 -89 -27 -32 -17 -61 -34 -64 -38 -3 -3 -27 -24 -55 -46
-146 -117 -294 -309 -291 -377 2 -30 28 -64 56 -71 30 -8 60 21 89 87 41 89
49 93 102 51 24 -20 125 -97 224 -172 99 -75 194 -148 211 -162 17 -14 40 -33
50 -41 56 -44 85 -70 77 -70 -5 0 -38 9 -74 21 -94 30 -94 30 -99 31 -3 0 -16
5 -30 10 -14 5 -32 11 -40 13 -8 2 -72 21 -141 41 -69 21 -133 34 -143 31 -9
-4 -16 -17 -16 -31 0 -21 15 -34 100 -81 55 -31 162 -87 236 -125 144 -72 164
-85 124 -76 -14 3 -56 8 -95 11 -83 8 -128 13 -175 21 -19 3 -48 7 -65 9 -16
2 -48 7 -70 10 -40 7 -48 8 -120 19 -22 3 -49 8 -60 10 -82 16 -206 28 -235
23 -47 -9 -63 -38 -65 -117 -3 -103 19 -131 102 -131 34 -1 178 15 228 25 11
2 47 7 80 11 80 9 123 14 165 20 71 10 107 14 190 20 47 3 99 8 115 11 42 7
22 -8 -55 -42 -36 -15 -140 -65 -232 -111 -150 -74 -168 -85 -168 -107 0 -52
14 -50 305 30 33 9 67 18 75 19 8 2 49 15 90 29 41 14 76 23 78 21 2 -1 -19
-20 -45 -41 -26 -22 -50 -41 -53 -44 -3 -3 -25 -20 -50 -38 -196 -144 -250
-182 -259 -182 -5 0 -11 -4 -13 -8 -1 -4 -30 -28 -63 -54 -33 -25 -69 -55 -80
-65 -48 -45 -65 -36 -112 61 -32 68 -49 82 -86 72 -42 -10 -60 -46 -48 -94 35
-129 334 -428 463 -463 48 -12 84 6 94 48 10 37 -4 53 -73 88 -96 48 -107 66
-63 105 9 8 34 37 56 65 21 27 43 54 47 60 4 5 42 55 83 110 42 55 83 109 92
120 9 12 39 50 67 85 90 118 118 143 96 89 -14 -36 -24 -63 -26 -75 -2 -6 -19
-64 -40 -130 -20 -65 -46 -148 -57 -184 -23 -75 -24 -98 -6 -116 30 -28 53 3
166 227 62 123 112 230 112 237 0 7 5 10 10 7 6 -4 8 -10 6 -14 -3 -4 -7 -43
-10 -87 -3 -43 -8 -90 -10 -104 -3 -14 -7 -47 -10 -75 -7 -63 -16 -133 -22
-165 -3 -14 -7 -38 -9 -55 -12 -103 -22 -170 -25 -170 -5 0 -10 -162 -5 -182
10 -41 63 -53 186 -44 8 0 26 11 38 23 22 20 23 26 17 107 -3 47 -8 98 -11
114 -10 52 -14 80 -21 126 -4 25 -8 55 -10 66 -5 23 -13 84 -19 135 -2 19 -6
46 -9 60 -4 24 -9 70 -22 210 l-6 65 99 -195 c137 -269 150 -290 179 -290 48
0 44 24 -52 340 -25 80 -49 153 -54 162 -6 10 -10 25 -10 34 0 21 73 -68 260
-316 81 -107 159 -208 173 -223 61 -64 57 -73 -55 -127 -77 -38 -88 -61 -51
-108 19 -25 29 -30 58 -27 108 10 376 256 459 421 27 54 27 85 1 114 -43 47
-85 25 -125 -65 -40 -89 -53 -93 -115 -41 -56 47 -120 95 -245 181 -47 32 -86
62 -88 67 -2 4 -8 8 -13 8 -14 0 -222 161 -216 167 2 1 37 -8 78 -21 192 -60
442 -121 464 -113 11 5 15 16 13 34 -3 25 -23 38 -218 136 -118 59 -228 112
-245 117 -28 9 113 6 200 -4 56 -7 130 -17 160 -21 17 -3 53 -7 80 -10 28 -3
57 -8 65 -10 8 -2 38 -7 67 -10 29 -3 72 -9 95 -13 24 -5 72 -10 108 -11 54
-2 69 1 87 19 13 11 24 28 24 38 10 116 1 165 -34 183 -18 10 -142 8 -232 -5
-16 -2 -52 -7 -80 -10 -27 -4 -68 -9 -90 -12 -22 -4 -51 -7 -65 -9 -14 -1 -52
-6 -85 -9 -91 -11 -123 -14 -215 -21 -47 -4 -88 -9 -92 -12 -5 -2 -8 -1 -8 4
0 4 21 17 48 27 26 11 134 61 240 113 171 83 192 96 192 118 0 36 -24 44 -88
29 -32 -8 -73 -16 -92 -19 -19 -3 -82 -17 -140 -32 -58 -14 -109 -26 -115 -27
-5 -1 -16 -5 -22 -9 -7 -5 -13 -6 -13 -3 0 2 -23 -4 -50 -14 -28 -10 -48 -14
-44 -9 11 18 163 128 329 239 94 62 197 133 230 159 33 26 67 46 76 44 8 -2
31 -36 50 -75 19 -39 42 -76 51 -82 25 -15 70 4 86 37 11 23 10 33 -7 73 -22
48 -76 128 -123 179 -88 97 -119 127 -170 168 -77 62 -137 95 -180 102 -32 5
-39 2 -57 -24 -31 -43 -27 -67 17 -94 20 -13 47 -27 59 -31 24 -8 73 -44 73
-54 0 -4 -16 -25 -36 -47 -20 -22 -92 -112 -162 -200 -181 -231 -293 -366
-292 -354 1 2 38 117 84 254 88 263 91 285 40 285 -14 0 -27 -7 -31 -17 -4
-10 -20 -40 -36 -68 -43 -73 -187 -361 -187 -373 0 -6 -4 -13 -9 -16 -5 -3 -7
13 -6 37 6 72 16 171 21 201 2 15 7 49 9 75 3 25 6 55 9 66 6 29 28 175 32
210 1 17 3 30 4 30 2 0 10 58 19 138 8 78 -5 121 -41 133 -29 9 -116 12 -145
5z m163 -1015 c71 -37 112 -98 119 -176 7 -90 -40 -176 -118 -217 -45 -23
-136 -25 -184 -3 -172 78 -172 320 1 399 49 23 136 21 182 -3z"/>
</g>
</svg>
