<?xml version="1.0" encoding="utf-8"?>
<!-- Generator: Adobe Illustrator 22.1.0, SVG Export Plug-In . SVG Version: 6.00 Build 0)  -->
<svg version="1.1" id="send_button.svg" xmlns="http://www.w3.org/2000/svg" xmlns:xlink="http://www.w3.org/1999/xlink" x="0px"
	 y="0px" viewBox="0 0 103.5 36.9" style="enable-background:new 0 0 103.5 36.9;" xml:space="preserve">
<style type="text/css">
	.st0{fill:none;stroke:#008A60;stroke-width:2.46;}
	.st1{enable-background:new    ;}
	.st2{fill:#008A60;}
</style>
<path id="Rectangle_7_copy_20" class="st0" d="M9.2,1.2h85c4.4,0,8,3.6,8,8v18.5c0,4.4-3.6,8-8,8h-85c-4.4,0-8-3.6-8-8V9.2
	C1.2,4.8,4.8,1.2,9.2,1.2z"/>
<g class="st1">
	<path class="st2" d="M34.6,23.8c-0.7-0.3-1.2-0.7-1.6-1.2c-0.4-0.5-0.6-1.1-0.6-1.9v-0.4c0-0.1,0-0.1,0.1-0.2c0,0,0.1-0.1,0.2-0.1
		h1.2c0.1,0,0.2,0,0.2,0.1c0,0,0.1,0.1,0.1,0.2v0.3c0,0.6,0.3,1.1,0.8,1.5c0.5,0.4,1.2,0.6,2.1,0.6c0.8,0,1.5-0.2,1.9-0.5
		c0.4-0.3,0.6-0.8,0.6-1.4c0-0.4-0.1-0.7-0.3-1s-0.5-0.5-1-0.7c-0.4-0.2-1-0.5-1.8-0.8c-0.9-0.3-1.6-0.6-2.1-0.9
		c-0.5-0.3-0.9-0.6-1.3-1.1c-0.3-0.5-0.5-1-0.5-1.7c0-1,0.4-1.8,1.1-2.4c0.7-0.6,1.8-0.9,3-0.9c0.9,0,1.7,0.1,2.4,0.5
		c0.7,0.3,1.2,0.7,1.6,1.3s0.6,1.2,0.6,1.9v0.3c0,0.1,0,0.1-0.1,0.2c0,0-0.1,0.1-0.2,0.1h-1.2c-0.1,0-0.2,0-0.2-0.1
		c0,0-0.1-0.1-0.1-0.2v-0.2c0-0.6-0.3-1.1-0.8-1.6c-0.5-0.4-1.2-0.6-2.1-0.6c-0.8,0-1.3,0.2-1.7,0.5c-0.4,0.3-0.6,0.7-0.6,1.3
		c0,0.4,0.1,0.7,0.3,1c0.2,0.3,0.5,0.5,0.9,0.7c0.4,0.2,1,0.5,1.9,0.8c0.9,0.3,1.6,0.6,2.1,0.9c0.5,0.3,1,0.7,1.3,1.1
		c0.4,0.5,0.5,1,0.5,1.7c0,0.7-0.2,1.3-0.5,1.8c-0.4,0.5-0.9,0.9-1.5,1.2c-0.7,0.3-1.4,0.4-2.3,0.4C36.1,24.3,35.3,24.1,34.6,23.8z"
		/>
	<path class="st2" d="M49.6,21.7c0.1-0.1,0.1-0.2,0.2-0.2c0.1,0,0.1,0,0.2,0.1l0.7,0.5c0.1,0.1,0.1,0.1,0.1,0.2l0,0.1
		c-0.3,0.6-0.8,1.1-1.4,1.4s-1.3,0.5-2.1,0.5c-0.9,0-1.6-0.2-2.2-0.6c-0.6-0.4-1-0.9-1.3-1.6c-0.3-0.7-0.5-1.6-0.5-2.6
		c0-0.9,0.1-1.5,0.2-2c0.2-0.8,0.7-1.5,1.3-2c0.7-0.5,1.4-0.7,2.4-0.7c1.2,0,2,0.3,2.6,0.9c0.6,0.6,1,1.5,1.2,2.6
		c0.1,0.4,0.1,1,0.1,1.6c0,0.2-0.1,0.3-0.3,0.3h-5.7c-0.1,0-0.1,0-0.1,0.1c0,0.5,0.1,0.8,0.1,1c0.1,0.5,0.4,0.9,0.8,1.1
		c0.4,0.3,0.9,0.4,1.5,0.4C48.4,22.8,49.1,22.4,49.6,21.7z M45.9,16.7c-0.3,0.3-0.6,0.6-0.7,1c-0.1,0.3-0.1,0.6-0.2,1
		c0,0.1,0,0.1,0.1,0.1h4.1c0.1,0,0.1,0,0.1-0.1c0-0.4-0.1-0.7-0.1-0.9c-0.1-0.5-0.4-0.8-0.7-1.1c-0.4-0.3-0.8-0.4-1.3-0.4
		S46.2,16.4,45.9,16.7z"/>
	<path class="st2" d="M59.8,15.7c0.6,0.6,0.9,1.3,0.9,2.3v5.9c0,0.1,0,0.2-0.1,0.2s-0.1,0.1-0.2,0.1h-1.2c-0.1,0-0.2,0-0.2-0.1
		S59,23.9,59,23.9v-5.5c0-0.6-0.2-1.1-0.5-1.5s-0.8-0.6-1.4-0.6c-0.5,0-1,0.2-1.3,0.5s-0.6,0.7-0.6,1.2v5.8c0,0.1,0,0.2-0.1,0.2
		s-0.1,0.1-0.2,0.1h-1.2c-0.1,0-0.2,0-0.2-0.1c0,0-0.1-0.1-0.1-0.2v-8.6c0-0.1,0-0.1,0.1-0.2c0,0,0.1-0.1,0.2-0.1h1.2
		c0.1,0,0.2,0,0.2,0.1c0,0,0.1,0.1,0.1,0.2v0.5c0,0,0,0.1,0,0.1c0,0,0,0,0.1,0c0.5-0.6,1.3-1,2.3-1C58.5,14.8,59.2,15.1,59.8,15.7z"
		/>
	<path class="st2" d="M68.9,11.6c0,0,0.1-0.1,0.2-0.1h1.2c0.1,0,0.2,0,0.2,0.1c0,0,0.1,0.1,0.1,0.2v12.1c0,0.1,0,0.2-0.1,0.2
		s-0.1,0.1-0.2,0.1h-1.2c-0.1,0-0.2,0-0.2-0.1c0,0-0.1-0.1-0.1-0.2v-0.5c0,0,0-0.1,0-0.1s0,0-0.1,0c-0.3,0.3-0.6,0.5-0.9,0.7
		s-0.7,0.2-1.2,0.2c-0.9,0-1.6-0.2-2.2-0.6c-0.6-0.4-1-1-1.3-1.8c-0.2-0.6-0.3-1.4-0.3-2.3c0-0.9,0.1-1.6,0.3-2.2
		c0.3-0.8,0.7-1.4,1.3-1.9c0.6-0.4,1.3-0.7,2.2-0.7c0.4,0,0.8,0.1,1.2,0.2c0.4,0.2,0.7,0.4,0.9,0.7c0,0,0,0,0.1,0c0,0,0,0,0-0.1
		v-3.9C68.8,11.7,68.8,11.7,68.9,11.6z M68.8,19.5c0-1-0.2-1.8-0.5-2.3c-0.4-0.6-0.9-0.9-1.5-0.9c-0.7,0-1.2,0.3-1.6,0.9
		c-0.4,0.6-0.6,1.4-0.6,2.4c0,0.9,0.2,1.7,0.5,2.2c0.4,0.7,0.9,1,1.7,1c0.7,0,1.2-0.3,1.6-1C68.7,21.3,68.8,20.5,68.8,19.5z"/>
</g>
</svg>
