<svg id="simpleh_hover.svg" xmlns="http://www.w3.org/2000/svg" width="178" height="111" viewBox="0 0 178 111">
  <defs>
    <style>
      .cls-1, .cls-3 {
        fill: #003b41;
      }

      .cls-2 {
        fill: #f7f5ef;
      }

      .cls-3 {
        fill-rule: evenodd;
      }
    </style>
  </defs>
  <rect id="Rectangle_13_copy_9" data-name="Rectangle 13 copy 9" class="cls-1" x="5" y="6" width="173" height="105" rx="7" ry="7"/>
  <rect id="Rectangle_13_copy_9-2" data-name="Rectangle 13 copy 9" class="cls-2" width="173" height="105" rx="7" ry="7"/>
  <rect id="Rectangle_14_copy_9" data-name="Rectangle 14 copy 9" class="cls-1" x="20" y="32" width="103" height="1"/>
  <rect id="Rectangle_14_copy_9-2" data-name="Rectangle 14 copy 9" class="cls-1" x="20" y="92" width="103" height="1"/>
  <path id="Simple_Hormones" data-name="Simple Hormones" class="cls-3" d="M4750.02,976.917a1.952,1.952,0,0,1,.73,1.616,1.986,1.986,0,0,1-.79,1.651,3.709,3.709,0,0,1-2.28.605,3.991,3.991,0,0,1-2.54-.747,2.433,2.433,0,0,1-.95-2.036h-1.89a3.748,3.748,0,0,0,.69,2.217,4.59,4.59,0,0,0,1.96,1.538,6.669,6.669,0,0,0,2.73.561,5.753,5.753,0,0,0,3.61-1.04,3.337,3.337,0,0,0,1.34-2.768,3.6,3.6,0,0,0-.48-1.885,4.231,4.231,0,0,0-1.48-1.4,11.774,11.774,0,0,0-2.78-1.1,7.223,7.223,0,0,1-2.51-1.1,1.841,1.841,0,0,1-.74-1.472,2.034,2.034,0,0,1,.78-1.7,3.417,3.417,0,0,1,2.16-.612,3.351,3.351,0,0,1,2.32.74,2.589,2.589,0,0,1,.82,2.034h1.88a4,4,0,0,0-.63-2.178,4.31,4.31,0,0,0-1.77-1.563,5.871,5.871,0,0,0-2.62-.566,5.343,5.343,0,0,0-3.49,1.1,3.45,3.45,0,0,0-1.34,2.778,3.265,3.265,0,0,0,1.1,2.5,8.777,8.777,0,0,0,3.51,1.7A8.516,8.516,0,0,1,4750.02,976.917Zm7.03-9.009h-1.88v14.219h1.88V967.908Zm3.42,0v14.219h1.88V976.59l-0.19-5.947,4.66,11.484h1.44l4.67-11.514-0.18,5.977v5.537h1.88V967.908h-2.44l-4.64,11.6-4.65-11.6h-2.43Zm22.69,8.653a5.522,5.522,0,0,0,3.71-1.119,3.99,3.99,0,0,0,1.29-3.188,4.042,4.042,0,0,0-1.32-3.154,5.279,5.279,0,0,0-3.66-1.192h-5.24v14.219h1.87v-5.566h3.35Zm-3.35-7.12h3.48a3.133,3.133,0,0,1,2.19.793,2.664,2.664,0,0,1,.81,2.035,2.578,2.578,0,0,1-.81,2.049,3.352,3.352,0,0,1-2.3.709h-3.37v-5.586Zm12.63-1.533h-1.89v14.219h8.63v-1.533h-6.74V967.908Zm16.91,6.114h-6.16v-4.581h7.06v-1.533h-8.94v14.219h9.04v-1.533h-7.16v-5.039h6.16v-1.533Zm-55.25,11.886h-1.89v6.114h-7.16v-6.114h-1.88v14.222h1.88v-6.575h7.16v6.575h1.89V985.908Zm14.27,6.67a8.814,8.814,0,0,0-.71-3.647,5.368,5.368,0,0,0-2-2.393,5.538,5.538,0,0,0-3.02-.825,5.4,5.4,0,0,0-2.98.835,5.468,5.468,0,0,0-2.02,2.407,8.775,8.775,0,0,0-.71,3.623V993.6a8.371,8.371,0,0,0,.74,3.54,5.486,5.486,0,0,0,2.01,2.353,5.876,5.876,0,0,0,5.99,0,5.323,5.323,0,0,0,1.99-2.378,8.772,8.772,0,0,0,.71-3.647v-0.9Zm-1.87,1.035a6.308,6.308,0,0,1-1.03,3.794,3.6,3.6,0,0,1-5.64-.078,6.361,6.361,0,0,1-1.03-3.852v-1.045a6.116,6.116,0,0,1,1.05-3.755,3.6,3.6,0,0,1,5.63,0,6.356,6.356,0,0,1,1.02,3.882v1.054Zm12.98,6.517h2.01v-0.12l-3.34-6.035a4.316,4.316,0,0,0,2-1.475,3.818,3.818,0,0,0,.72-2.314,3.946,3.946,0,0,0-1.3-3.184,5.552,5.552,0,0,0-3.69-1.094h-4.71v14.222h1.88v-5.755h3.34Zm-6.43-12.689h2.87a3.32,3.32,0,0,1,2.27.715,2.558,2.558,0,0,1,.79,2.025,2.445,2.445,0,0,1-.82,1.937,3.272,3.272,0,0,1-2.23.724h-2.88v-5.4Zm10.44-1.533v14.222h1.88v-5.54l-0.19-5.947,4.66,11.487h1.44l4.66-11.517-0.17,5.977v5.54h1.87V985.908h-2.43l-4.65,11.6-4.65-11.6h-2.42Zm28.4,6.67a8.816,8.816,0,0,0-.7-3.647,5.325,5.325,0,0,0-2.01-2.393,5.5,5.5,0,0,0-3.01-.825,5.256,5.256,0,0,0-5,3.242,8.617,8.617,0,0,0-.71,3.623V993.6a8.371,8.371,0,0,0,.73,3.54,5.651,5.651,0,0,0,8.01,2.358,5.323,5.323,0,0,0,1.99-2.378,8.774,8.774,0,0,0,.7-3.647v-0.9Zm-1.86,1.035a6.378,6.378,0,0,1-1.03,3.794,3.61,3.61,0,0,1-5.65-.078,6.361,6.361,0,0,1-1.03-3.852v-1.045a6.25,6.25,0,0,1,1.05-3.755,3.311,3.311,0,0,1,2.8-1.353,3.347,3.347,0,0,1,2.84,1.353,6.356,6.356,0,0,1,1.02,3.882v1.054Zm15.6-7.705h-1.86v11.006l-7.18-11.006h-1.89v14.222h1.89V989.17l7.16,10.96h1.88V985.908Zm11.37,6.114h-6.16v-4.581h7.06v-1.533h-8.94v14.222h9.03v-1.536h-7.15v-5.039H4837v-1.533Zm10.17,2.895a1.932,1.932,0,0,1,.74,1.616,1.986,1.986,0,0,1-.79,1.651,3.709,3.709,0,0,1-2.28.605,3.991,3.991,0,0,1-2.54-.747,2.441,2.441,0,0,1-.96-2.036h-1.88a3.748,3.748,0,0,0,.69,2.217,4.59,4.59,0,0,0,1.96,1.538,6.554,6.554,0,0,0,2.73.559,5.722,5.722,0,0,0,3.6-1.038,3.319,3.319,0,0,0,1.35-2.768,3.6,3.6,0,0,0-.48-1.885,4.182,4.182,0,0,0-1.49-1.4,11.5,11.5,0,0,0-2.77-1.1,7.223,7.223,0,0,1-2.51-1.1,1.841,1.841,0,0,1-.74-1.472,2.034,2.034,0,0,1,.78-1.7,3.417,3.417,0,0,1,2.16-.612,3.351,3.351,0,0,1,2.32.74,2.623,2.623,0,0,1,.82,2.034h1.88a4,4,0,0,0-.63-2.178,4.277,4.277,0,0,0-1.78-1.563,5.8,5.8,0,0,0-2.61-.566,5.343,5.343,0,0,0-3.49,1.1,3.45,3.45,0,0,0-1.34,2.778,3.231,3.231,0,0,0,1.1,2.5,8.777,8.777,0,0,0,3.51,1.7A8.326,8.326,0,0,1,4847.17,994.917Z" transform="translate(-4720 -922)"/>
</svg>
