<?xml version="1.0" encoding="utf-8"?>
<!-- Generator: Adobe Illustrator 22.1.0, SVG Export Plug-In . SVG Version: 6.00 Build 0)  -->
<svg version="1.1" id="spruce_hover.svg" xmlns="http://www.w3.org/2000/svg" xmlns:xlink="http://www.w3.org/1999/xlink" x="0px"
	 y="0px" viewBox="0 0 86.5 40.2" style="enable-background:new 0 0 86.5 40.2;" xml:space="preserve">
<style type="text/css">
	.st0{fill:#F7F5EF;stroke:#003B41;stroke-width:2.46;}
	.st1{enable-background:new    ;}
	.st2{fill:#003B41;}
</style>
<path id="Rectangle_2_copy_13" class="st0" d="M8.2,1.2h70c3.9,0,7,3.1,7,7V32c0,3.9-3.1,7-7,7h-70c-3.9,0-7-3.1-7-7V8.2
	C1.2,4.4,4.4,1.2,8.2,1.2z"/>
<g>
	<g class="st1">
		<path class="st2" d="M22.7,18.4c-0.6-0.2-1.1-0.5-1.5-0.8l0.5-1c0.3,0.3,0.8,0.5,1.3,0.7c0.5,0.2,1.1,0.3,1.6,0.3
			c0.7,0,1.3-0.1,1.6-0.4c0.4-0.2,0.5-0.6,0.5-1c0-0.3-0.1-0.5-0.3-0.7c-0.2-0.2-0.4-0.3-0.7-0.4c-0.3-0.1-0.7-0.2-1.2-0.3
			c-0.7-0.2-1.2-0.3-1.6-0.5c-0.4-0.2-0.8-0.4-1-0.7c-0.3-0.3-0.4-0.8-0.4-1.3c0-0.5,0.1-0.9,0.4-1.3c0.2-0.4,0.6-0.7,1.1-0.9
			c0.5-0.2,1.1-0.3,1.9-0.3c0.5,0,1,0.1,1.5,0.2c0.5,0.1,0.9,0.3,1.3,0.6l-0.4,1c-0.4-0.2-0.8-0.4-1.2-0.5s-0.8-0.2-1.2-0.2
			c-0.7,0-1.2,0.1-1.6,0.4c-0.4,0.3-0.5,0.6-0.5,1c0,0.3,0.1,0.5,0.3,0.7c0.2,0.2,0.5,0.3,0.8,0.4c0.3,0.1,0.7,0.2,1.2,0.3
			c0.7,0.2,1.2,0.3,1.6,0.5c0.4,0.2,0.8,0.4,1,0.7c0.3,0.3,0.4,0.8,0.4,1.3c0,0.5-0.1,0.9-0.4,1.3c-0.3,0.4-0.6,0.7-1.1,0.9
			c-0.5,0.2-1.1,0.3-1.9,0.3C24,18.7,23.4,18.6,22.7,18.4z"/>
		<path class="st2" d="M35,12.3c0.5,0.3,0.9,0.7,1.2,1.2c0.3,0.5,0.4,1.1,0.4,1.8c0,0.7-0.1,1.3-0.4,1.8c-0.3,0.5-0.7,0.9-1.2,1.2
			s-1.1,0.4-1.7,0.4c-0.5,0-0.9-0.1-1.3-0.3s-0.7-0.5-1-0.8V21h-1.2v-9.1h1.2V13c0.3-0.4,0.6-0.6,1-0.8c0.4-0.2,0.9-0.3,1.4-0.3
			C33.9,11.8,34.5,12,35,12.3z M34.3,17.3c0.3-0.2,0.6-0.5,0.8-0.8c0.2-0.4,0.3-0.8,0.3-1.2c0-0.5-0.1-0.9-0.3-1.2
			c-0.2-0.4-0.5-0.6-0.8-0.8c-0.3-0.2-0.7-0.3-1.2-0.3c-0.4,0-0.8,0.1-1.1,0.3c-0.3,0.2-0.6,0.5-0.8,0.8s-0.3,0.8-0.3,1.2
			c0,0.5,0.1,0.9,0.3,1.2c0.2,0.4,0.5,0.6,0.8,0.8s0.7,0.3,1.1,0.3C33.6,17.6,34,17.5,34.3,17.3z"/>
		<path class="st2" d="M40.4,12.1c0.4-0.2,0.9-0.3,1.5-0.3V13c-0.1,0-0.2,0-0.3,0c-0.7,0-1.2,0.2-1.5,0.6s-0.6,0.9-0.6,1.7v3.3h-1.2
			v-6.7h1.2V13C39.7,12.6,40,12.3,40.4,12.1z"/>
		<path class="st2" d="M49.7,11.9v6.7h-1.1v-1c-0.2,0.3-0.6,0.6-1,0.8c-0.4,0.2-0.8,0.3-1.3,0.3c-0.9,0-1.6-0.2-2.1-0.7
			c-0.5-0.5-0.8-1.2-0.8-2.2v-3.8h1.2v3.7c0,0.6,0.2,1.1,0.5,1.5c0.3,0.3,0.8,0.5,1.3,0.5c0.6,0,1.1-0.2,1.5-0.6
			c0.4-0.4,0.6-0.9,0.6-1.6v-3.4H49.7z"/>
		<path class="st2" d="M53.1,18.2c-0.5-0.3-1-0.7-1.3-1.2c-0.3-0.5-0.5-1.1-0.5-1.8s0.2-1.2,0.5-1.8s0.7-0.9,1.3-1.2
			c0.5-0.3,1.1-0.4,1.8-0.4c0.6,0,1.1,0.1,1.6,0.4s0.8,0.6,1.1,1.1l-0.9,0.6c-0.2-0.3-0.5-0.6-0.8-0.7c-0.3-0.2-0.7-0.2-1-0.2
			c-0.4,0-0.8,0.1-1.2,0.3c-0.3,0.2-0.6,0.5-0.8,0.8s-0.3,0.8-0.3,1.2c0,0.5,0.1,0.9,0.3,1.2s0.5,0.6,0.8,0.8
			c0.3,0.2,0.7,0.3,1.2,0.3c0.4,0,0.7-0.1,1-0.2c0.3-0.2,0.6-0.4,0.8-0.7l0.9,0.6c-0.3,0.5-0.6,0.8-1.1,1.1c-0.5,0.2-1,0.4-1.6,0.4
			C54.3,18.6,53.7,18.5,53.1,18.2z"/>
		<path class="st2" d="M65.1,15.6h-5.4c0.1,0.6,0.3,1.1,0.8,1.4c0.4,0.4,1,0.5,1.6,0.5c0.8,0,1.4-0.3,1.9-0.8l0.7,0.8
			c-0.3,0.4-0.7,0.6-1.1,0.8s-1,0.3-1.5,0.3c-0.7,0-1.3-0.1-1.9-0.4c-0.5-0.3-1-0.7-1.3-1.2c-0.3-0.5-0.4-1.1-0.4-1.8
			c0-0.6,0.1-1.2,0.4-1.7s0.7-0.9,1.2-1.2c0.5-0.3,1.1-0.4,1.7-0.4c0.6,0,1.2,0.1,1.7,0.4c0.5,0.3,0.9,0.7,1.2,1.2s0.4,1.1,0.4,1.8
			C65.2,15.4,65.2,15.5,65.1,15.6z M60.4,13.4c-0.4,0.4-0.6,0.8-0.7,1.4H64c-0.1-0.6-0.3-1-0.7-1.4s-0.9-0.5-1.5-0.5
			C61.3,12.9,60.8,13,60.4,13.4z"/>
	</g>
	<g class="st1">
		<path class="st2" d="M22.4,29.8l0-3.5l-1.7,2.8h-0.8l-1.7-2.7v3.4h-1.7v-6.6H18l2.3,3.8l2.3-3.8h1.5l0,6.6H22.4z"/>
		<path class="st2" d="M30.5,27.8h-3.7c0.1,0.3,0.2,0.5,0.4,0.6c0.2,0.1,0.5,0.2,0.8,0.2c0.2,0,0.5,0,0.6-0.1
			c0.2-0.1,0.4-0.2,0.5-0.3l0.9,1c-0.5,0.6-1.2,0.8-2.2,0.8c-0.6,0-1.1-0.1-1.6-0.3c-0.5-0.2-0.8-0.5-1.1-0.9
			c-0.2-0.4-0.4-0.9-0.4-1.4c0-0.5,0.1-1,0.4-1.3c0.2-0.4,0.6-0.7,1-0.9c0.4-0.2,0.9-0.3,1.4-0.3c0.5,0,1,0.1,1.4,0.3
			c0.4,0.2,0.7,0.5,1,0.9c0.2,0.4,0.4,0.9,0.4,1.4C30.6,27.3,30.6,27.5,30.5,27.8z M27.2,26.2c-0.2,0.2-0.3,0.4-0.4,0.6h2.1
			c-0.1-0.3-0.2-0.5-0.4-0.6c-0.2-0.2-0.4-0.2-0.7-0.2C27.6,25.9,27.3,26,27.2,26.2z"/>
		<path class="st2" d="M32,29.8c-0.4-0.1-0.7-0.2-1-0.4l0.5-1.2c0.2,0.1,0.5,0.3,0.8,0.3s0.6,0.1,1,0.1c0.3,0,0.5,0,0.6-0.1
			c0.1-0.1,0.2-0.1,0.2-0.3c0-0.1-0.1-0.2-0.2-0.2s-0.4-0.1-0.7-0.1c-0.4,0-0.8-0.1-1-0.2c-0.3-0.1-0.5-0.2-0.7-0.5
			c-0.2-0.2-0.3-0.5-0.3-0.9c0-0.3,0.1-0.6,0.3-0.9c0.2-0.3,0.5-0.5,0.9-0.6c0.4-0.1,0.8-0.2,1.3-0.2c0.4,0,0.7,0,1.1,0.1
			c0.4,0.1,0.7,0.2,0.9,0.3l-0.5,1.2c-0.5-0.3-0.9-0.4-1.5-0.4c-0.3,0-0.5,0-0.6,0.1s-0.2,0.2-0.2,0.3c0,0.1,0.1,0.2,0.2,0.2
			c0.1,0,0.4,0.1,0.7,0.1c0.4,0.1,0.8,0.1,1,0.2c0.3,0.1,0.5,0.2,0.7,0.4c0.2,0.2,0.3,0.5,0.3,0.9c0,0.3-0.1,0.6-0.3,0.9
			c-0.2,0.3-0.5,0.5-0.9,0.6c-0.4,0.1-0.8,0.2-1.4,0.2C32.8,29.9,32.4,29.9,32,29.8z"/>
		<path class="st2" d="M37.1,29.8c-0.4-0.1-0.7-0.2-1-0.4l0.5-1.2c0.2,0.1,0.5,0.3,0.8,0.3s0.6,0.1,1,0.1c0.3,0,0.5,0,0.6-0.1
			c0.1-0.1,0.2-0.1,0.2-0.3c0-0.1-0.1-0.2-0.2-0.2s-0.4-0.1-0.7-0.1c-0.4,0-0.8-0.1-1-0.2c-0.3-0.1-0.5-0.2-0.7-0.5
			c-0.2-0.2-0.3-0.5-0.3-0.9c0-0.3,0.1-0.6,0.3-0.9c0.2-0.3,0.5-0.5,0.9-0.6c0.4-0.1,0.8-0.2,1.3-0.2c0.4,0,0.7,0,1.1,0.1
			c0.4,0.1,0.7,0.2,0.9,0.3l-0.5,1.2c-0.5-0.3-0.9-0.4-1.5-0.4c-0.3,0-0.5,0-0.6,0.1s-0.2,0.2-0.2,0.3c0,0.1,0.1,0.2,0.2,0.2
			c0.1,0,0.4,0.1,0.7,0.1c0.4,0.1,0.8,0.1,1,0.2c0.3,0.1,0.5,0.2,0.7,0.4c0.2,0.2,0.3,0.5,0.3,0.9c0,0.3-0.1,0.6-0.3,0.9
			c-0.2,0.3-0.5,0.5-0.9,0.6c-0.4,0.1-0.8,0.2-1.4,0.2C38,29.9,37.6,29.9,37.1,29.8z"/>
		<path class="st2" d="M46.9,27.8h-3.7c0.1,0.3,0.2,0.5,0.4,0.6c0.2,0.1,0.5,0.2,0.8,0.2c0.2,0,0.5,0,0.6-0.1
			c0.2-0.1,0.4-0.2,0.5-0.3l0.9,1c-0.5,0.6-1.2,0.8-2.2,0.8c-0.6,0-1.1-0.1-1.6-0.3c-0.5-0.2-0.8-0.5-1.1-0.9
			c-0.2-0.4-0.4-0.9-0.4-1.4c0-0.5,0.1-1,0.4-1.3c0.2-0.4,0.6-0.7,1-0.9c0.4-0.2,0.9-0.3,1.4-0.3c0.5,0,1,0.1,1.4,0.3
			c0.4,0.2,0.7,0.5,1,0.9c0.2,0.4,0.4,0.9,0.4,1.4C46.9,27.3,46.9,27.5,46.9,27.8z M43.5,26.2c-0.2,0.2-0.3,0.4-0.4,0.6h2.1
			c-0.1-0.3-0.2-0.5-0.4-0.6c-0.2-0.2-0.4-0.2-0.7-0.2C43.9,25.9,43.7,26,43.5,26.2z"/>
		<path class="st2" d="M52.6,25.2c0.4,0.4,0.6,0.9,0.6,1.7v2.9h-1.8v-2.6c0-0.7-0.3-1-0.8-1c-0.3,0-0.6,0.1-0.7,0.3
			c-0.2,0.2-0.3,0.5-0.3,0.9v2.5h-1.8v-5.1h1.7v0.6c0.2-0.2,0.4-0.4,0.7-0.5c0.3-0.1,0.6-0.2,0.9-0.2C51.7,24.7,52.2,24.9,52.6,25.2
			z"/>
		<path class="st2" d="M59.9,24.8v4.2c0,0.9-0.3,1.7-0.8,2.1c-0.5,0.5-1.3,0.7-2.2,0.7c-0.5,0-1-0.1-1.4-0.2
			c-0.4-0.1-0.8-0.3-1.1-0.5l0.6-1.2c0.2,0.2,0.5,0.3,0.8,0.4c0.3,0.1,0.6,0.1,0.9,0.1c0.5,0,0.8-0.1,1-0.3s0.3-0.5,0.3-0.9V29
			c-0.3,0.4-0.9,0.6-1.5,0.6c-0.5,0-0.9-0.1-1.3-0.3c-0.4-0.2-0.7-0.5-0.9-0.9s-0.3-0.8-0.3-1.3c0-0.5,0.1-0.9,0.3-1.3
			c0.2-0.4,0.5-0.7,0.9-0.9c0.4-0.2,0.8-0.3,1.3-0.3c0.7,0,1.3,0.2,1.6,0.7v-0.6H59.9z M57.8,27.9c0.2-0.2,0.3-0.4,0.3-0.8
			c0-0.3-0.1-0.6-0.3-0.7c-0.2-0.2-0.5-0.3-0.8-0.3c-0.3,0-0.6,0.1-0.8,0.3c-0.2,0.2-0.3,0.4-0.3,0.7c0,0.3,0.1,0.6,0.3,0.8
			c0.2,0.2,0.5,0.3,0.8,0.3S57.6,28.1,57.8,27.9z"/>
		<path class="st2" d="M66.2,27.8h-3.7c0.1,0.3,0.2,0.5,0.4,0.6c0.2,0.1,0.5,0.2,0.8,0.2c0.2,0,0.5,0,0.6-0.1
			c0.2-0.1,0.4-0.2,0.5-0.3l0.9,1c-0.5,0.6-1.2,0.8-2.2,0.8c-0.6,0-1.1-0.1-1.6-0.3c-0.5-0.2-0.8-0.5-1.1-0.9
			c-0.2-0.4-0.4-0.9-0.4-1.4c0-0.5,0.1-1,0.4-1.3c0.2-0.4,0.6-0.7,1-0.9c0.4-0.2,0.9-0.3,1.4-0.3c0.5,0,1,0.1,1.4,0.3
			c0.4,0.2,0.7,0.5,1,0.9c0.2,0.4,0.4,0.9,0.4,1.4C66.2,27.3,66.2,27.5,66.2,27.8z M62.8,26.2c-0.2,0.2-0.3,0.4-0.4,0.6h2.1
			c-0.1-0.3-0.2-0.5-0.4-0.6c-0.2-0.2-0.4-0.2-0.7-0.2C63.2,25.9,63,26,62.8,26.2z"/>
		<path class="st2" d="M69.5,24.8c0.3-0.1,0.6-0.2,1-0.2v1.6c-0.2,0-0.3,0-0.4,0c-0.4,0-0.7,0.1-0.9,0.3c-0.2,0.2-0.3,0.5-0.3,1v2.3
			h-1.8v-5.1h1.7v0.6C69,25.1,69.2,25,69.5,24.8z"/>
	</g>
</g>
</svg>
