<?xml version="1.0" encoding="utf-8"?>
<!-- Generator: Adobe Illustrator 22.1.0, SVG Export Plug-In . SVG Version: 6.00 Build 0)  -->
<svg version="1.1" id="spruce_button.svg" xmlns="http://www.w3.org/2000/svg" xmlns:xlink="http://www.w3.org/1999/xlink" x="0px"
	 y="0px" viewBox="0 0 84 37.8" style="enable-background:new 0 0 84 37.8;" xml:space="preserve">
<style type="text/css">
	.st0{fill:#003B41;}
	.st1{enable-background:new    ;}
	.st2{fill:#F7F5EF;}
</style>
<path id="Rectangle_2_copy_12" class="st0" d="M7,0h70c3.9,0,7,3.1,7,7v23.8c0,3.9-3.1,7-7,7H7c-3.9,0-7-3.1-7-7V7C0,3.1,3.1,0,7,0z
	"/>
<g>
	<g class="st1">
		<path class="st2" d="M21.8,17.3c-0.6-0.2-1.1-0.5-1.4-0.8l0.4-0.7c0.3,0.3,0.7,0.6,1.3,0.8c0.5,0.2,1.1,0.3,1.6,0.3
			c0.8,0,1.4-0.1,1.8-0.4c0.4-0.3,0.6-0.7,0.6-1.1c0-0.4-0.1-0.6-0.3-0.8c-0.2-0.2-0.5-0.4-0.8-0.5c-0.3-0.1-0.7-0.2-1.3-0.4
			c-0.7-0.2-1.2-0.3-1.6-0.5c-0.4-0.2-0.7-0.4-1-0.7c-0.3-0.3-0.4-0.8-0.4-1.3c0-0.4,0.1-0.8,0.4-1.2S21.5,9.2,22,9
			c0.5-0.2,1.1-0.3,1.8-0.3c0.5,0,1,0.1,1.5,0.2c0.5,0.1,0.9,0.3,1.3,0.6l-0.3,0.7c-0.4-0.2-0.8-0.4-1.2-0.5
			c-0.4-0.1-0.8-0.2-1.2-0.2c-0.8,0-1.4,0.1-1.7,0.4s-0.6,0.7-0.6,1.2c0,0.4,0.1,0.6,0.3,0.8s0.5,0.4,0.8,0.5
			c0.3,0.1,0.8,0.2,1.3,0.4c0.6,0.2,1.2,0.3,1.6,0.5c0.4,0.2,0.7,0.4,1,0.7s0.4,0.7,0.4,1.3c0,0.4-0.1,0.8-0.4,1.2
			c-0.2,0.4-0.6,0.7-1.1,0.9c-0.5,0.2-1.1,0.3-1.8,0.3C23,17.7,22.4,17.6,21.8,17.3z"/>
		<path class="st2" d="M33.9,11.3c0.5,0.3,0.9,0.7,1.2,1.2c0.3,0.5,0.4,1.1,0.4,1.7c0,0.7-0.1,1.2-0.4,1.8s-0.7,0.9-1.2,1.2
			c-0.5,0.3-1.1,0.4-1.7,0.4c-0.5,0-1-0.1-1.5-0.3c-0.4-0.2-0.8-0.5-1.1-1V20h-0.9V11h0.9v1.3c0.3-0.4,0.6-0.8,1.1-1
			c0.4-0.2,0.9-0.4,1.5-0.4C32.8,10.9,33.4,11.1,33.9,11.3z M33.4,16.5c0.4-0.2,0.7-0.5,0.9-0.9c0.2-0.4,0.3-0.8,0.3-1.3
			c0-0.5-0.1-1-0.3-1.3c-0.2-0.4-0.5-0.7-0.9-0.9c-0.4-0.2-0.8-0.3-1.3-0.3c-0.5,0-0.9,0.1-1.3,0.3c-0.4,0.2-0.7,0.5-0.9,0.9
			c-0.2,0.4-0.3,0.8-0.3,1.3c0,0.5,0.1,1,0.3,1.3c0.2,0.4,0.5,0.7,0.9,0.9c0.4,0.2,0.8,0.3,1.3,0.3C32.6,16.9,33,16.7,33.4,16.5z"/>
		<path class="st2" d="M39.1,11.3c0.4-0.2,0.9-0.3,1.5-0.3v0.9l-0.2,0c-0.7,0-1.2,0.2-1.6,0.6c-0.4,0.4-0.6,1-0.6,1.8v3.4h-0.9V11
			h0.9v1.3C38.4,11.8,38.7,11.5,39.1,11.3z"/>
		<path class="st2" d="M48.4,11v6.6h-0.9v-1.2c-0.2,0.4-0.6,0.7-1,0.9c-0.4,0.2-0.9,0.3-1.4,0.3c-0.9,0-1.5-0.2-2-0.7
			c-0.5-0.5-0.8-1.2-0.8-2.1V11h0.9v3.7c0,0.7,0.2,1.2,0.5,1.6c0.3,0.4,0.8,0.5,1.5,0.5c0.7,0,1.2-0.2,1.7-0.6
			c0.4-0.4,0.6-1,0.6-1.8V11H48.4z"/>
		<path class="st2" d="M51.9,17.2c-0.5-0.3-0.9-0.7-1.2-1.2c-0.3-0.5-0.4-1.1-0.4-1.7s0.1-1.2,0.4-1.7c0.3-0.5,0.7-0.9,1.2-1.2
			c0.5-0.3,1.1-0.4,1.8-0.4c0.6,0,1.1,0.1,1.5,0.3c0.4,0.2,0.8,0.5,1.1,1l-0.7,0.5c-0.2-0.3-0.5-0.6-0.8-0.7
			c-0.3-0.2-0.7-0.2-1.1-0.2c-0.5,0-0.9,0.1-1.3,0.3c-0.4,0.2-0.7,0.5-0.9,0.9s-0.3,0.8-0.3,1.3c0,0.5,0.1,1,0.3,1.4
			c0.2,0.4,0.5,0.7,0.9,0.9c0.4,0.2,0.8,0.3,1.3,0.3c0.4,0,0.8-0.1,1.1-0.2c0.3-0.2,0.6-0.4,0.8-0.7l0.7,0.5c-0.3,0.4-0.6,0.8-1.1,1
			c-0.5,0.2-1,0.3-1.5,0.3C53,17.6,52.4,17.5,51.9,17.2z"/>
		<path class="st2" d="M63.6,14.6h-5.5c0.1,0.7,0.3,1.2,0.8,1.7c0.5,0.4,1.1,0.6,1.8,0.6c0.4,0,0.8-0.1,1.1-0.2
			c0.3-0.1,0.6-0.4,0.9-0.6l0.5,0.6c-0.3,0.4-0.7,0.6-1.1,0.8s-0.9,0.3-1.5,0.3c-0.7,0-1.3-0.1-1.8-0.4c-0.5-0.3-0.9-0.7-1.2-1.2
			c-0.3-0.5-0.4-1.1-0.4-1.7s0.1-1.2,0.4-1.7c0.3-0.5,0.7-0.9,1.2-1.2c0.5-0.3,1-0.4,1.7-0.4s1.2,0.1,1.7,0.4
			c0.5,0.3,0.9,0.7,1.1,1.2c0.3,0.5,0.4,1.1,0.4,1.7L63.6,14.6z M58.8,12.3c-0.4,0.4-0.7,0.9-0.7,1.6h4.7c-0.1-0.7-0.3-1.2-0.7-1.6
			s-1-0.6-1.6-0.6C59.8,11.7,59.2,11.9,58.8,12.3z"/>
	</g>
	<g class="st1">
		<path class="st2" d="M21.2,28.4l0-3.5l-1.7,2.8h-0.8L16.9,25v3.4h-1.7v-6.6h1.5l2.3,3.8l2.3-3.8h1.5l0,6.6H21.2z"/>
		<path class="st2" d="M29.3,26.3h-3.7c0.1,0.3,0.2,0.5,0.4,0.6c0.2,0.1,0.5,0.2,0.8,0.2c0.2,0,0.5,0,0.6-0.1
			c0.2-0.1,0.4-0.2,0.5-0.3l0.9,1c-0.5,0.6-1.2,0.8-2.2,0.8c-0.6,0-1.1-0.1-1.6-0.3s-0.8-0.5-1.1-0.9c-0.2-0.4-0.4-0.9-0.4-1.4
			c0-0.5,0.1-1,0.4-1.3c0.2-0.4,0.6-0.7,1-0.9c0.4-0.2,0.9-0.3,1.4-0.3c0.5,0,1,0.1,1.4,0.3s0.7,0.5,1,0.9s0.4,0.9,0.4,1.4
			C29.3,25.8,29.3,26,29.3,26.3z M25.9,24.7c-0.2,0.2-0.3,0.4-0.4,0.6h2.1c-0.1-0.3-0.2-0.5-0.4-0.6c-0.2-0.2-0.4-0.2-0.7-0.2
			C26.3,24.5,26.1,24.5,25.9,24.7z"/>
		<path class="st2" d="M30.8,28.3c-0.4-0.1-0.7-0.2-1-0.4l0.5-1.2c0.2,0.1,0.5,0.3,0.8,0.3c0.3,0.1,0.6,0.1,1,0.1
			c0.3,0,0.5,0,0.6-0.1s0.2-0.1,0.2-0.3s-0.1-0.2-0.2-0.2s-0.4-0.1-0.7-0.1c-0.4,0-0.8-0.1-1-0.2s-0.5-0.2-0.7-0.5s-0.3-0.5-0.3-0.9
			c0-0.3,0.1-0.6,0.3-0.9c0.2-0.3,0.5-0.5,0.9-0.6c0.4-0.1,0.8-0.2,1.3-0.2c0.4,0,0.7,0,1.1,0.1s0.7,0.2,0.9,0.3l-0.5,1.2
			c-0.5-0.2-0.9-0.4-1.5-0.4c-0.3,0-0.5,0-0.6,0.1c-0.1,0.1-0.2,0.2-0.2,0.3c0,0.1,0.1,0.2,0.2,0.2c0.1,0,0.4,0.1,0.7,0.1
			c0.4,0.1,0.8,0.1,1,0.2s0.5,0.2,0.7,0.4c0.2,0.2,0.3,0.5,0.3,0.9c0,0.3-0.1,0.6-0.3,0.9c-0.2,0.3-0.5,0.5-0.9,0.6
			c-0.4,0.1-0.8,0.2-1.4,0.2C31.6,28.5,31.2,28.4,30.8,28.3z"/>
		<path class="st2" d="M35.9,28.3c-0.4-0.1-0.7-0.2-1-0.4l0.5-1.2c0.2,0.1,0.5,0.3,0.8,0.3c0.3,0.1,0.6,0.1,1,0.1
			c0.3,0,0.5,0,0.6-0.1s0.2-0.1,0.2-0.3s-0.1-0.2-0.2-0.2s-0.4-0.1-0.7-0.1c-0.4,0-0.8-0.1-1-0.2s-0.5-0.2-0.7-0.5S35,25.3,35,24.9
			c0-0.3,0.1-0.6,0.3-0.9c0.2-0.3,0.5-0.5,0.9-0.6c0.4-0.1,0.8-0.2,1.3-0.2c0.4,0,0.7,0,1.1,0.1s0.7,0.2,0.9,0.3L39,24.8
			c-0.5-0.2-0.9-0.4-1.5-0.4c-0.3,0-0.5,0-0.6,0.1c-0.1,0.1-0.2,0.2-0.2,0.3c0,0.1,0.1,0.2,0.2,0.2c0.1,0,0.4,0.1,0.7,0.1
			c0.4,0.1,0.8,0.1,1,0.2s0.5,0.2,0.7,0.4c0.2,0.2,0.3,0.5,0.3,0.9c0,0.3-0.1,0.6-0.3,0.9c-0.2,0.3-0.5,0.5-0.9,0.6
			c-0.4,0.1-0.8,0.2-1.4,0.2C36.7,28.5,36.3,28.4,35.9,28.3z"/>
		<path class="st2" d="M45.7,26.3H42c0.1,0.3,0.2,0.5,0.4,0.6c0.2,0.1,0.5,0.2,0.8,0.2c0.2,0,0.5,0,0.6-0.1c0.2-0.1,0.4-0.2,0.5-0.3
			l0.9,1c-0.5,0.6-1.2,0.8-2.2,0.8c-0.6,0-1.1-0.1-1.6-0.3s-0.8-0.5-1.1-0.9c-0.2-0.4-0.4-0.9-0.4-1.4c0-0.5,0.1-1,0.4-1.3
			c0.2-0.4,0.6-0.7,1-0.9c0.4-0.2,0.9-0.3,1.4-0.3c0.5,0,1,0.1,1.4,0.3s0.7,0.5,1,0.9s0.4,0.9,0.4,1.4C45.7,25.8,45.7,26,45.7,26.3z
			 M42.3,24.7c-0.2,0.2-0.3,0.4-0.4,0.6H44c0-0.3-0.2-0.5-0.4-0.6c-0.2-0.2-0.4-0.2-0.7-0.2C42.7,24.5,42.5,24.5,42.3,24.7z"/>
		<path class="st2" d="M51.4,23.8c0.4,0.4,0.6,0.9,0.6,1.7v2.9h-1.8v-2.6c0-0.7-0.3-1-0.8-1c-0.3,0-0.6,0.1-0.7,0.3
			c-0.2,0.2-0.3,0.5-0.3,0.9v2.5h-1.8v-5.1h1.7v0.6c0.2-0.2,0.4-0.4,0.7-0.5s0.6-0.2,0.9-0.2C50.5,23.2,51,23.4,51.4,23.8z"/>
		<path class="st2" d="M58.6,23.3v4.2c0,0.9-0.3,1.7-0.8,2.1c-0.5,0.5-1.3,0.7-2.2,0.7c-0.5,0-1-0.1-1.4-0.2s-0.8-0.3-1.1-0.5
			l0.7-1.2c0.2,0.2,0.5,0.3,0.8,0.4c0.3,0.1,0.6,0.1,0.9,0.1c0.5,0,0.8-0.1,1-0.3c0.2-0.2,0.3-0.5,0.3-0.9v-0.2
			c-0.3,0.4-0.9,0.6-1.5,0.6c-0.5,0-0.9-0.1-1.3-0.3c-0.4-0.2-0.7-0.5-0.9-0.9c-0.2-0.4-0.3-0.8-0.3-1.3c0-0.5,0.1-0.9,0.3-1.3
			c0.2-0.4,0.5-0.7,0.9-0.9c0.4-0.2,0.8-0.3,1.3-0.3c0.7,0,1.3,0.2,1.6,0.7v-0.6H58.6z M56.6,26.4c0.2-0.2,0.3-0.4,0.3-0.8
			s-0.1-0.6-0.3-0.7c-0.2-0.2-0.5-0.3-0.8-0.3s-0.6,0.1-0.8,0.3c-0.2,0.2-0.3,0.4-0.3,0.7s0.1,0.6,0.3,0.8c0.2,0.2,0.5,0.3,0.8,0.3
			S56.3,26.6,56.6,26.4z"/>
		<path class="st2" d="M65,26.3h-3.7c0.1,0.3,0.2,0.5,0.4,0.6c0.2,0.1,0.5,0.2,0.8,0.2c0.2,0,0.5,0,0.6-0.1c0.2-0.1,0.4-0.2,0.5-0.3
			l0.9,1c-0.5,0.6-1.2,0.8-2.2,0.8c-0.6,0-1.1-0.1-1.6-0.3c-0.5-0.2-0.8-0.5-1-0.9c-0.2-0.4-0.4-0.9-0.4-1.4c0-0.5,0.1-1,0.4-1.3
			c0.2-0.4,0.6-0.7,1-0.9c0.4-0.2,0.9-0.3,1.4-0.3c0.5,0,1,0.1,1.4,0.3s0.7,0.5,1,0.9s0.4,0.9,0.4,1.4C65,25.8,65,26,65,26.3z
			 M61.6,24.7c-0.2,0.2-0.3,0.4-0.4,0.6h2.1c0-0.3-0.2-0.5-0.4-0.6c-0.2-0.2-0.4-0.2-0.7-0.2C62,24.5,61.8,24.5,61.6,24.7z"/>
		<path class="st2" d="M68.3,23.4c0.3-0.1,0.6-0.2,1-0.2v1.6c-0.2,0-0.3,0-0.4,0c-0.4,0-0.7,0.1-0.9,0.3c-0.2,0.2-0.3,0.5-0.3,1v2.3
			h-1.8v-5.1h1.7v0.6C67.7,23.7,68,23.5,68.3,23.4z"/>
	</g>
</g>
</svg>
