<svg id="valent_hover.svg" data-name="valent hover.svg" xmlns="http://www.w3.org/2000/svg" viewBox="0 0 86.46 40.27"><defs><style>.cls-1{fill:#f7f5ef;stroke:#003b41;stroke-width:2.46px;}.cls-2{isolation:isolate;}.cls-3{fill:#003b41;}</style></defs><title>valant_hover</title><path id="Rectangle_2_copy_13" data-name="Rectangle 2 copy 13" class="cls-1" d="M8.23,1.24h70a7,7,0,0,1,7,7V32a7,7,0,0,1-7,7h-70a7,7,0,0,1-7-7V8.24A7,7,0,0,1,8.23,1.24Z"/><g class="cls-2"><path class="cls-3" d="M30.1,10l-3.87,8.81H25L21.1,10h1.36l3.18,7.24L28.84,10Z"/><path class="cls-3" d="M35.1,12.78a2.63,2.63,0,0,1,.74,2v4H34.69V18a1.89,1.89,0,0,1-.86.71,3.22,3.22,0,0,1-1.33.25,2.8,2.8,0,0,1-1.8-.54,1.87,1.87,0,0,1,0-2.84,3.15,3.15,0,0,1,2-.54h1.92v-.23a1.53,1.53,0,0,0-.46-1.2,1.88,1.88,0,0,0-1.33-.41,3.53,3.53,0,0,0-1.16.19,2.94,2.94,0,0,0-1,.52l-.5-.9a3.59,3.59,0,0,1,1.23-.64A5.1,5.1,0,0,1,33,12.1,3,3,0,0,1,35.1,12.78Zm-1.2,4.89a1.81,1.81,0,0,0,.73-.88v-.93H32.76c-1,0-1.54.35-1.54,1a1,1,0,0,0,.39.8A1.85,1.85,0,0,0,32.7,18,2.33,2.33,0,0,0,33.9,17.67Z"/><path class="cls-3" d="M38.08,9.5h1.21v9.33H38.08Z"/><path class="cls-3" d="M46.15,12.78a2.59,2.59,0,0,1,.74,2v4H45.75V18a2,2,0,0,1-.87.71,3.19,3.19,0,0,1-1.33.25,2.75,2.75,0,0,1-1.79-.54,1.75,1.75,0,0,1-.68-1.43,1.78,1.78,0,0,1,.64-1.41A3.16,3.16,0,0,1,43.77,15h1.91v-.23a1.56,1.56,0,0,0-.45-1.2,1.9,1.9,0,0,0-1.34-.41,3.57,3.57,0,0,0-1.16.19,2.94,2.94,0,0,0-1,.52l-.5-.9a3.64,3.64,0,0,1,1.24-.64A5,5,0,0,1,44,12.1,3,3,0,0,1,46.15,12.78ZM45,17.67a1.76,1.76,0,0,0,.73-.88v-.93H43.82c-1,0-1.54.35-1.54,1a1,1,0,0,0,.39.8,1.8,1.8,0,0,0,1.08.29A2.33,2.33,0,0,0,45,17.67Z"/><path class="cls-3" d="M54.73,12.84A2.88,2.88,0,0,1,55.48,15v3.84H54.27v-3.7a2.07,2.07,0,0,0-.47-1.46,1.79,1.79,0,0,0-1.34-.49,2.07,2.07,0,0,0-1.55.58,2.21,2.21,0,0,0-.56,1.64v3.43H49.13V12.16h1.16v1a2.42,2.42,0,0,1,1-.79,3.4,3.4,0,0,1,1.42-.28A2.78,2.78,0,0,1,54.73,12.84Z"/><path class="cls-3" d="M61.48,18.44a1.89,1.89,0,0,1-.66.35,2.74,2.74,0,0,1-.81.12,2.14,2.14,0,0,1-1.56-.54,2.07,2.07,0,0,1-.55-1.55V13.16H56.76v-1H57.9V10.7h1.21v1.46H61v1H59.11v3.61a1.17,1.17,0,0,0,.27.83,1,1,0,0,0,.77.29,1.47,1.47,0,0,0,1-.32Z"/></g><g class="cls-2"><path class="cls-3" d="M13.49,23.33a2.32,2.32,0,0,1,1,.85,2.27,2.27,0,0,1,.36,1.29,2.32,2.32,0,0,1-.36,1.29,2.37,2.37,0,0,1-1,.84,3.86,3.86,0,0,1-1.55.29H10.79v1.72H8.92V23h3A3.7,3.7,0,0,1,13.49,23.33Zm-.8,2.85a.87.87,0,0,0,.29-.71.89.89,0,0,0-.29-.72,1.26,1.26,0,0,0-.86-.25h-1v1.93h1A1.32,1.32,0,0,0,12.69,26.18Z"/><path class="cls-3" d="M19.76,25a2.26,2.26,0,0,1,.67,1.78v2.82H18.76V29a1.55,1.55,0,0,1-1.51.74,2.29,2.29,0,0,1-1-.21,1.53,1.53,0,0,1-.66-.56,1.44,1.44,0,0,1-.22-.8A1.29,1.29,0,0,1,15.9,27a3,3,0,0,1,1.72-.4h1c0-.54-.4-.81-1.09-.81a2.43,2.43,0,0,0-.74.12,1.75,1.75,0,0,0-.64.32L15.57,25a3.14,3.14,0,0,1,1-.44,5,5,0,0,1,1.22-.16A2.94,2.94,0,0,1,19.76,25ZM18.3,28.42a.89.89,0,0,0,.34-.44v-.44h-.78q-.78,0-.78.51a.45.45,0,0,0,.18.38.79.79,0,0,0,.49.14A1,1,0,0,0,18.3,28.42Z"/><path class="cls-3" d="M25.08,29.41a1.86,1.86,0,0,1-.55.21,3.1,3.1,0,0,1-.69.08,2.19,2.19,0,0,1-1.54-.49,1.87,1.87,0,0,1-.54-1.46V26H21V24.71h.74V23.38h1.79v1.33h1.17V26H23.55v1.69a.58.58,0,0,0,.15.43.5.5,0,0,0,.39.16,1,1,0,0,0,.55-.16Z"/><path class="cls-3" d="M25.87,23.68a.86.86,0,0,1-.3-.67.88.88,0,0,1,.3-.68,1.15,1.15,0,0,1,.79-.27,1.17,1.17,0,0,1,.79.25.86.86,0,0,1,.3.67.92.92,0,0,1-.3.7,1.14,1.14,0,0,1-.79.28A1.15,1.15,0,0,1,25.87,23.68Zm-.1.84h1.79v5.09H25.77Z"/><path class="cls-3" d="M33.91,27.52H30.19a1.08,1.08,0,0,0,.44.6,1.41,1.41,0,0,0,.82.22,1.73,1.73,0,0,0,.63-.11,1.79,1.79,0,0,0,.54-.34l1,1a2.8,2.8,0,0,1-2.18.83,3.39,3.39,0,0,1-1.57-.34,2.59,2.59,0,0,1-1.05-.94,2.5,2.5,0,0,1-.37-1.36,2.57,2.57,0,0,1,.36-1.35,2.52,2.52,0,0,1,1-.94,3.12,3.12,0,0,1,1.44-.34,3.06,3.06,0,0,1,1.39.32,2.39,2.39,0,0,1,1,.91,2.7,2.7,0,0,1,.36,1.42S33.92,27.24,33.91,27.52Zm-3.39-1.58a1,1,0,0,0-.35.64h2.09a1.05,1.05,0,0,0-.36-.64,1,1,0,0,0-.69-.24A1,1,0,0,0,30.52,25.94Z"/><path class="cls-3" d="M39.62,25a2.3,2.3,0,0,1,.58,1.7v2.91H38.41V27c0-.69-.28-1-.84-1a1,1,0,0,0-.74.3,1.31,1.31,0,0,0-.28.9v2.46H34.76V24.52h1.71v.55a2.15,2.15,0,0,1,.71-.47,2.46,2.46,0,0,1,.91-.17A2.1,2.1,0,0,1,39.62,25Z"/><path class="cls-3" d="M44.84,29.41a1.86,1.86,0,0,1-.55.21,3.1,3.1,0,0,1-.69.08,2.19,2.19,0,0,1-1.54-.49,1.9,1.9,0,0,1-.53-1.46V26h-.75V24.71h.75V23.38h1.79v1.33h1.16V26H43.32v1.69a.57.57,0,0,0,.14.43.5.5,0,0,0,.39.16,1,1,0,0,0,.55-.16Z"/><path class="cls-3" d="M52.92,23.33a2.32,2.32,0,0,1,1,.85,2.27,2.27,0,0,1,.36,1.29,2.32,2.32,0,0,1-.36,1.29,2.37,2.37,0,0,1-1,.84,3.86,3.86,0,0,1-1.55.29H50.22v1.72H48.35V23h3A3.7,3.7,0,0,1,52.92,23.33Zm-.8,2.85a.87.87,0,0,0,.3-.71.89.89,0,0,0-.3-.72,1.26,1.26,0,0,0-.86-.25h-1v1.93h1A1.32,1.32,0,0,0,52.12,26.18Z"/><path class="cls-3" d="M56.19,29.36a2.6,2.6,0,0,1-1-.94,2.55,2.55,0,0,1,1-3.65,3.23,3.23,0,0,1,1.48-.34,3.3,3.3,0,0,1,1.49.34,2.51,2.51,0,0,1,1,.93,2.57,2.57,0,0,1-1,3.66,3.17,3.17,0,0,1-1.49.34A3.13,3.13,0,0,1,56.19,29.36ZM58.44,28a1.29,1.29,0,0,0,.31-.9,1.27,1.27,0,0,0-.31-.89,1,1,0,0,0-.77-.32,1,1,0,0,0-.77.32,1.26,1.26,0,0,0-.3.89,1.29,1.29,0,0,0,.3.9,1,1,0,0,0,.77.32A1,1,0,0,0,58.44,28Z"/><path class="cls-3" d="M63.8,24.61a2.59,2.59,0,0,1,1-.18V26l-.4,0a1.12,1.12,0,0,0-1.23,1.26v2.34H61.38V24.52h1.71v.61A1.63,1.63,0,0,1,63.8,24.61Z"/><path class="cls-3" d="M69.22,29.41a2,2,0,0,1-.55.21,3.1,3.1,0,0,1-.69.08,2.19,2.19,0,0,1-1.54-.49,1.87,1.87,0,0,1-.54-1.46V26h-.74V24.71h.74V23.38h1.79v1.33h1.17V26H67.69v1.69a.58.58,0,0,0,.15.43.5.5,0,0,0,.39.16,1,1,0,0,0,.55-.16Z"/><path class="cls-3" d="M74,25a2.22,2.22,0,0,1,.67,1.78v2.82H73V29a1.53,1.53,0,0,1-1.5.74,2.34,2.34,0,0,1-1-.21,1.45,1.45,0,0,1-.87-1.36A1.29,1.29,0,0,1,70.17,27a2.92,2.92,0,0,1,1.71-.4h1q0-.81-1.08-.81a2.39,2.39,0,0,0-.74.12,1.8,1.8,0,0,0-.65.32L69.83,25a3.24,3.24,0,0,1,1-.44,5.11,5.11,0,0,1,1.22-.16A2.9,2.9,0,0,1,74,25Zm-1.46,3.41A.84.84,0,0,0,72.9,28v-.44h-.77q-.78,0-.78.51a.45.45,0,0,0,.18.38.79.79,0,0,0,.49.14A1,1,0,0,0,72.56,28.42Z"/><path class="cls-3" d="M75.82,22.64h1.79v7H75.82Z"/></g></svg>