<svg id="valent_button.svg" data-name="valent button.svg" xmlns="http://www.w3.org/2000/svg" viewBox="0 0 84 37.81"><defs><style>.cls-1{fill:#003b41;}.cls-2{isolation:isolate;}.cls-3{fill:#f7f5ef;}</style></defs><title>valant_button</title><path id="Rectangle_2_copy_12" data-name="Rectangle 2 copy 12" class="cls-1" d="M7,0H77a7,7,0,0,1,7,7v23.8a7,7,0,0,1-7,7H7a7,7,0,0,1-7-7V7A7,7,0,0,1,7,0Z"/><g class="cls-2"><path class="cls-3" d="M29,8.79l-3.9,8.81H24.2L20.29,8.79h1l3.37,7.65,3.41-7.65Z"/><path class="cls-3" d="M33.91,11.58a2.47,2.47,0,0,1,.7,1.92v4.1h-.86v-1a2,2,0,0,1-.89.8,3,3,0,0,1-1.39.29,2.76,2.76,0,0,1-1.77-.52,1.74,1.74,0,0,1-.65-1.4,1.68,1.68,0,0,1,.61-1.36,3,3,0,0,1,1.95-.52h2.1v-.4a1.69,1.69,0,0,0-.48-1.3,2,2,0,0,0-1.4-.45,3.54,3.54,0,0,0-1.21.21,3.21,3.21,0,0,0-1,.57l-.4-.66a3.28,3.28,0,0,1,1.21-.66,4.55,4.55,0,0,1,1.48-.24A2.8,2.8,0,0,1,33.91,11.58Zm-1,5a2,2,0,0,0,.8-1V14.53H31.63c-1.13,0-1.7.4-1.7,1.18a1.11,1.11,0,0,0,.44.92,2.05,2.05,0,0,0,1.24.33A2.41,2.41,0,0,0,32.91,16.61Z"/><path class="cls-3" d="M37,8.27h.9V17.6H37Z"/><path class="cls-3" d="M44.74,11.58a2.51,2.51,0,0,1,.7,1.92v4.1h-.86v-1a2,2,0,0,1-.89.8,3,3,0,0,1-1.39.29,2.76,2.76,0,0,1-1.77-.52,1.71,1.71,0,0,1-.65-1.4,1.68,1.68,0,0,1,.61-1.36,3,3,0,0,1,1.95-.52h2.1v-.4a1.69,1.69,0,0,0-.48-1.3,2,2,0,0,0-1.4-.45,3.54,3.54,0,0,0-1.21.21,3.1,3.1,0,0,0-1,.57l-.41-.66a3.45,3.45,0,0,1,1.21-.66,4.61,4.61,0,0,1,1.49-.24A2.8,2.8,0,0,1,44.74,11.58Zm-1,5a2.08,2.08,0,0,0,.81-1V14.53H42.46c-1.13,0-1.7.4-1.7,1.18a1.11,1.11,0,0,0,.44.92,2,2,0,0,0,1.24.33A2.35,2.35,0,0,0,43.73,16.61Z"/><path class="cls-3" d="M53.23,11.66a2.81,2.81,0,0,1,.74,2.1V17.6h-.9V13.85a2.2,2.2,0,0,0-.51-1.57,2,2,0,0,0-1.48-.54,2.26,2.26,0,0,0-1.69.63,2.4,2.4,0,0,0-.63,1.76V17.6h-.89V11h.85V12.2a2.55,2.55,0,0,1,1-.93,3.15,3.15,0,0,1,1.51-.34A2.67,2.67,0,0,1,53.23,11.66Z"/><path class="cls-3" d="M59.89,17.2a1.69,1.69,0,0,1-.62.34,2.54,2.54,0,0,1-.78.12,1.76,1.76,0,0,1-1.94-1.92v-4H55.37V11h1.18V9.54h.9V11h2v.76h-2v3.95a1.3,1.3,0,0,0,.29.9,1.16,1.16,0,0,0,.86.31,1.6,1.6,0,0,0,.53-.09,1.41,1.41,0,0,0,.45-.25Z"/></g><g class="cls-2"><path class="cls-3" d="M12.26,22.1a2.32,2.32,0,0,1,1,.85,2.27,2.27,0,0,1,.36,1.29,2.32,2.32,0,0,1-.36,1.29,2.37,2.37,0,0,1-1,.84,3.7,3.7,0,0,1-1.55.3H9.56v1.71H7.69V21.8h3A3.7,3.7,0,0,1,12.26,22.1ZM11.46,25a.87.87,0,0,0,.29-.71.89.89,0,0,0-.29-.72,1.32,1.32,0,0,0-.86-.25h-1V25.2h1A1.26,1.26,0,0,0,11.46,25Z"/><path class="cls-3" d="M18.53,23.78a2.26,2.26,0,0,1,.67,1.78v2.82H17.53v-.65a1.55,1.55,0,0,1-1.51.74,2.29,2.29,0,0,1-1-.21,1.53,1.53,0,0,1-.66-.56,1.44,1.44,0,0,1-.22-.8,1.29,1.29,0,0,1,.55-1.12,3,3,0,0,1,1.72-.4h1c0-.54-.4-.81-1.09-.81a2.43,2.43,0,0,0-.74.12,1.75,1.75,0,0,0-.64.32l-.6-1.21a3.14,3.14,0,0,1,1-.44,5,5,0,0,1,1.22-.15A2.93,2.93,0,0,1,18.53,23.78Zm-1.46,3.41a.89.89,0,0,0,.34-.44v-.44h-.78q-.78,0-.78.51a.45.45,0,0,0,.18.38.79.79,0,0,0,.49.14A1,1,0,0,0,17.07,27.19Z"/><path class="cls-3" d="M23.85,28.18a1.86,1.86,0,0,1-.55.21,3.1,3.1,0,0,1-.69.08A2.19,2.19,0,0,1,21.07,28a1.86,1.86,0,0,1-.54-1.46V24.81h-.74V23.48h.74V22.15h1.79v1.33h1.17v1.33H22.32V26.5a.58.58,0,0,0,.15.43.5.5,0,0,0,.39.16,1,1,0,0,0,.55-.16Z"/><path class="cls-3" d="M24.64,22.45a.86.86,0,0,1-.3-.67.88.88,0,0,1,.3-.68,1.15,1.15,0,0,1,.79-.27,1.17,1.17,0,0,1,.79.25.86.86,0,0,1,.3.67.92.92,0,0,1-.3.7,1.14,1.14,0,0,1-.79.28A1.15,1.15,0,0,1,24.64,22.45Zm-.1.84h1.79v5.09H24.54Z"/><path class="cls-3" d="M32.68,26.29H29a1.08,1.08,0,0,0,.44.6,1.41,1.41,0,0,0,.82.22,1.73,1.73,0,0,0,.63-.11,2,2,0,0,0,.54-.33l1,1a2.8,2.8,0,0,1-2.18.83,3.39,3.39,0,0,1-1.57-.34,2.49,2.49,0,0,1-1.42-2.3,2.57,2.57,0,0,1,.36-1.35,2.52,2.52,0,0,1,1-.94A3.12,3.12,0,0,1,30,23.21a3.05,3.05,0,0,1,1.39.31,2.39,2.39,0,0,1,1,.91,2.7,2.7,0,0,1,.36,1.42S32.69,26,32.68,26.29Zm-3.39-1.58a1,1,0,0,0-.35.64H31a1.05,1.05,0,0,0-.36-.64,1,1,0,0,0-.69-.24A1,1,0,0,0,29.29,24.71Z"/><path class="cls-3" d="M38.39,23.77a2.3,2.3,0,0,1,.58,1.7v2.91H37.18V25.76c0-.69-.28-1-.84-1a1,1,0,0,0-.74.3,1.31,1.31,0,0,0-.28.9v2.46H33.53V23.29h1.71v.55a2.15,2.15,0,0,1,.71-.47,2.45,2.45,0,0,1,.91-.16A2.09,2.09,0,0,1,38.39,23.77Z"/><path class="cls-3" d="M43.61,28.18a1.86,1.86,0,0,1-.55.21,3.1,3.1,0,0,1-.69.08A2.19,2.19,0,0,1,40.83,28a1.89,1.89,0,0,1-.53-1.46V24.81h-.75V23.48h.75V22.15h1.79v1.33h1.16v1.33H42.09V26.5a.57.57,0,0,0,.14.43.5.5,0,0,0,.39.16,1,1,0,0,0,.55-.16Z"/><path class="cls-3" d="M51.69,22.1a2.32,2.32,0,0,1,1,.85,2.27,2.27,0,0,1,.36,1.29,2.32,2.32,0,0,1-.36,1.29,2.37,2.37,0,0,1-1,.84,3.7,3.7,0,0,1-1.55.3H49v1.71H47.12V21.8h3A3.7,3.7,0,0,1,51.69,22.1ZM50.89,25a.87.87,0,0,0,.29-.71.89.89,0,0,0-.29-.72,1.32,1.32,0,0,0-.86-.25H49V25.2h1A1.26,1.26,0,0,0,50.89,25Z"/><path class="cls-3" d="M55,28.13a2.53,2.53,0,0,1-1-.94,2.5,2.5,0,0,1-.37-1.36,2.55,2.55,0,0,1,.37-1.36,2.51,2.51,0,0,1,1-.93,3.22,3.22,0,0,1,1.48-.33,3.3,3.3,0,0,1,1.49.33,2.51,2.51,0,0,1,1,.93,2.75,2.75,0,0,1,0,2.72,2.53,2.53,0,0,1-1,.94,3.17,3.17,0,0,1-1.49.34A3.13,3.13,0,0,1,55,28.13Zm2.25-1.4a1.29,1.29,0,0,0,.3-.9,1.26,1.26,0,0,0-.3-.89,1.09,1.09,0,0,0-1.54,0,1.26,1.26,0,0,0-.3.89,1.29,1.29,0,0,0,.3.9,1.09,1.09,0,0,0,1.54,0Z"/><path class="cls-3" d="M62.57,23.38a2.62,2.62,0,0,1,1-.17v1.6l-.4,0A1.12,1.12,0,0,0,61.94,26v2.34H60.15V23.29h1.71v.61A1.71,1.71,0,0,1,62.57,23.38Z"/><path class="cls-3" d="M68,28.18a2,2,0,0,1-.55.21,3.1,3.1,0,0,1-.69.08A2.19,2.19,0,0,1,65.21,28a1.86,1.86,0,0,1-.54-1.46V24.81h-.74V23.48h.74V22.15h1.79v1.33h1.17v1.33H66.46V26.5a.58.58,0,0,0,.15.43.5.5,0,0,0,.39.16,1,1,0,0,0,.55-.16Z"/><path class="cls-3" d="M72.79,23.78a2.22,2.22,0,0,1,.67,1.78v2.82H71.79v-.65a1.52,1.52,0,0,1-1.5.74,2.34,2.34,0,0,1-1-.21,1.48,1.48,0,0,1-.88-1.36,1.3,1.3,0,0,1,.56-1.12,2.92,2.92,0,0,1,1.71-.4h1q0-.81-1.08-.81a2.5,2.5,0,0,0-.75.12,1.83,1.83,0,0,0-.64.32l-.6-1.21a3.24,3.24,0,0,1,1-.44,5.09,5.09,0,0,1,1.22-.15A2.9,2.9,0,0,1,72.79,23.78Zm-1.46,3.41a.84.84,0,0,0,.34-.44v-.44H70.9q-.78,0-.78.51a.45.45,0,0,0,.18.38.79.79,0,0,0,.49.14A1,1,0,0,0,71.33,27.19Z"/><path class="cls-3" d="M74.59,21.41h1.79v7H74.59Z"/></g></svg>