<svg id="Layer_1" data-name="Layer 1" xmlns="http://www.w3.org/2000/svg" viewBox="0 0 82 18.31"><defs><style>.cls-1{fill:red;}.cls-2{fill:#fff;}.cls-3{fill:#282828;}</style></defs><title>youtube_fav</title><path class="cls-1" d="M25.61,2.86A3.28,3.28,0,0,0,23.29.55C21.25,0,13.08,0,13.08,0S4.9,0,2.86.55A3.25,3.25,0,0,0,.55,2.86,33.78,33.78,0,0,0,0,9.15a33.87,33.87,0,0,0,.55,6.3,3.27,3.27,0,0,0,2.31,2.31c2,.55,10.22.55,10.22.55s8.17,0,10.21-.55a3.3,3.3,0,0,0,2.32-2.31,34.48,34.48,0,0,0,.54-6.3A34.39,34.39,0,0,0,25.61,2.86Z"/><polygon class="cls-2" points="10.46 13.08 17.25 9.15 10.46 5.23 10.46 13.08"/><path class="cls-3" d="M38,16.65A2.8,2.8,0,0,1,36.86,15a10.63,10.63,0,0,1-.33-2.94V10.43a9.68,9.68,0,0,1,.37-3,3,3,0,0,1,1.17-1.63,3.74,3.74,0,0,1,2.09-.52,3.53,3.53,0,0,1,2,.53,2.94,2.94,0,0,1,1.13,1.63,10.3,10.3,0,0,1,.35,3v1.66A10.34,10.34,0,0,1,43.33,15a2.86,2.86,0,0,1-1.13,1.62,3.67,3.67,0,0,1-2.1.52A3.78,3.78,0,0,1,38,16.65Zm2.9-1.79A5.75,5.75,0,0,0,41.07,13V9.45a5.62,5.62,0,0,0-.21-1.8.78.78,0,0,0-.76-.57.76.76,0,0,0-.74.57,5.62,5.62,0,0,0-.21,1.8V13a5.82,5.82,0,0,0,.2,1.83.76.76,0,0,0,.75.56A.78.78,0,0,0,40.86,14.86Z"/><path class="cls-3" d="M77.68,12.12v.58a13.48,13.48,0,0,0,.07,1.65,1.54,1.54,0,0,0,.27.81.75.75,0,0,0,.63.25.81.81,0,0,0,.8-.45,4,4,0,0,0,.23-1.5l2.23.14a4,4,0,0,1,0,.41,3,3,0,0,1-.87,2.37,3.52,3.52,0,0,1-2.46.79A2.92,2.92,0,0,1,75.92,16a7,7,0,0,1-.76-3.7v-2A6.94,6.94,0,0,1,76,6.5a3,3,0,0,1,2.72-1.19,3.53,3.53,0,0,1,2,.49,2.6,2.6,0,0,1,1,1.51A11.09,11.09,0,0,1,82,10.15v2ZM78,7.29a1.56,1.56,0,0,0-.26.8,13.75,13.75,0,0,0-.07,1.67v.82h1.89V9.76a13.65,13.65,0,0,0-.08-1.67,1.66,1.66,0,0,0-.27-.81.76.76,0,0,0-.61-.23A.73.73,0,0,0,78,7.29Z"/><path class="cls-3" d="M31.67,11.9,28.74,1.3H31.3l1,4.81c.26,1.18.45,2.19.58,3H33c.09-.6.28-1.61.58-3L34.63,1.3h2.56l-3,10.6V17H31.67Z"/><path class="cls-3" d="M52,5.53V17H50l-.23-1.4H49.7a2.63,2.63,0,0,1-2.46,1.59,2,2,0,0,1-1.69-.75A4,4,0,0,1,45,14.09V5.53h2.58v8.41a2.64,2.64,0,0,0,.17,1.1.59.59,0,0,0,.56.32,1.21,1.21,0,0,0,.65-.2,1.28,1.28,0,0,0,.45-.53V5.53Z"/><path class="cls-3" d="M65.24,5.53V17h-2L63,15.59h-.06a2.64,2.64,0,0,1-2.47,1.59,1.93,1.93,0,0,1-1.68-.75,4,4,0,0,1-.54-2.34V5.53h2.58v8.41A2.64,2.64,0,0,0,61,15a.59.59,0,0,0,.56.32,1.18,1.18,0,0,0,.64-.2,1.24,1.24,0,0,0,.46-.53V5.53Z"/><path class="cls-3" d="M59,3.38H56.46V17H53.93V3.38H51.37V1.3H59Z"/><path class="cls-3" d="M73.78,7.36A2.89,2.89,0,0,0,73,5.79a2,2,0,0,0-1.44-.49,2.44,2.44,0,0,0-1.33.4,2.7,2.7,0,0,0-1,1.06h0v-6H66.8V17h2.13l.26-1.08h.06a2.19,2.19,0,0,0,.9.91,2.61,2.61,0,0,0,1.33.34A2,2,0,0,0,73.4,16,8.69,8.69,0,0,0,74,12.18V10.37A14.66,14.66,0,0,0,73.78,7.36ZM71.42,12a16.3,16.3,0,0,1-.1,2A2.18,2.18,0,0,1,71,15a.79.79,0,0,1-.65.3,1.18,1.18,0,0,1-.59-.15,1.12,1.12,0,0,1-.44-.45V8.2a1.54,1.54,0,0,1,.45-.77,1,1,0,0,1,.69-.29.72.72,0,0,1,.61.3,2.41,2.41,0,0,1,.29,1,18.22,18.22,0,0,1,.09,2.08Z"/></svg>